<?xml version="1.0" encoding="utf-8"?>
<!-- Generator: Adobe Illustrator 21.0.0, SVG Export Plug-In . SVG Version: 6.00 Build 0)  -->
<svg version="1.1" id="Layer_1" xmlns="http://www.w3.org/2000/svg" xmlns:xlink="http://www.w3.org/1999/xlink" x="0px" y="0px"
	 viewBox="0 0 1366 768" style="enable-background:new 0 0 1366 768;" xml:space="preserve">
<style type="text/css">
	.st0{fill:#F0F8FF;stroke:#708090;stroke-width:0.5;}
	.st1{fill:none;stroke:#0000FF;stroke-width:0.5;}
	.st2{fill:#FFFFFF;fill-opacity:0;}
	.st3{fill:#FFFFFF;stroke:#708090;}
	.st4{fill:none;stroke:#708090;stroke-dasharray:2,2.5;}
	.st5{fill:none;stroke:#708090;stroke-width:1.5;}
	.st6{fill:url(#SVGID_1_);stroke:#000000;}
	.st7{fill:#433434;stroke:#000000;}
	.st8{fill:#FFFFFF;stroke:#000000;}
	.st9{fill:#030202;stroke:#000000;}
	.st10{fill:none;stroke:#000000;}
	.st11{fill:url(#SVGID_2_);stroke:#000000;}
	.st12{fill:none;stroke:url(#SVGID_3_);}
	.st13{fill:none;stroke:url(#SVGID_4_);}
	.st14{fill:none;stroke:url(#SVGID_5_);}
	.st15{fill:#FFFFFF;fill-opacity:0.8;stroke:#B0C4DE;stroke-width:2.5;}
	.st16{font-family:'ArialMT';}
	.st17{font-size:8.4px;}
	.st18{opacity:0;}
	.st19{fill:#DBE8FC;}
	.st20{fill:#708090;}
	.st21{fill:#F0F8FF;fill-opacity:0;}
	.st22{font-size:6.72px;}
	.st23{fill:#743910;stroke:#1E90FF;stroke-width:0.5;}
	.st24{fill:#DFC497;stroke:#1E90FF;stroke-width:0.5;}
	.st25{fill:#FFFFFF;stroke:#1E90FF;stroke-width:0.5;}
	.st26{fill:#080604;stroke:#1E90FF;stroke-width:0.5;}
	.st27{fill:#999998;stroke:#1E90FF;stroke-width:0.5;}
	.st28{fill:#FEC848;stroke:#1E90FF;stroke-width:0.5;}
	.st29{fill:#BC7D4F;stroke:#1E90FF;stroke-width:0.5;}
	.st30{fill:#BC4F8F;stroke:#1E90FF;stroke-width:0.5;}
	.st31{fill:#210D0D;stroke:#1E90FF;stroke-width:0.5;}
	.st32{fill:#F8E914;stroke:#1E90FF;stroke-width:0.5;}
	.st33{fill:#F81414;stroke:#1E90FF;stroke-width:0.5;}
	.st34{fill:#14F851;stroke:#1E90FF;stroke-width:0.5;}
	.st35{fill:#E114F8;stroke:#1E90FF;stroke-width:0.5;}
	.st36{fill:#1414F8;stroke:#1E90FF;stroke-width:0.5;}
	.st37{fill:none;stroke:#686B70;stroke-width:0.495;}
	.st38{fill:#FFFFFF;stroke:#686B70;stroke-width:0.25;}
	.st39{fill:none;stroke:#0000FF;stroke-width:0.5;stroke-dasharray:2,2;}
	.st40{fill:#FFFFFF;stroke:#708090;stroke-width:0.5;stroke-dasharray:2,2.5;}
	.st41{fill:#F0F8FF;}
	.st42{opacity:0;enable-background:new    ;}
</style>
<g>
	<path class="st0" d="M177.4,516.4h23.7c1.7,0,3,1.3,3,3v23.7c0,1.7-1.3,3-3,3h-23.7c-1.7,0-3-1.3-3-3v-23.7
		C174.4,517.8,175.7,516.4,177.4,516.4z"/>
</g>
<path class="st1" d="M189.2,0v516.4"/>
<path class="st2" d="M52.2,11.4h280c2.2,0,4,1.8,4,4v235.7c0,2.2-1.8,4-4,4h-280c-2.2,0-4-1.8-4-4V15.4C48.2,13.2,50,11.4,52.2,11.4
	z"/>
<path class="st3" d="M49.2,8.4h280c2.2,0,4,1.8,4,4v235.7c0,2.2-1.8,4-4,4h-280c-2.2,0-4-1.8-4-4V12.4C45.2,10.2,47,8.4,49.2,8.4z"
	/>
<g>
	<line class="st4" x1="45.2" y1="8.4" x2="45.2" y2="8.4"/>
</g>
<path class="st5" d="M107,96.8h65c0.6,0,1,0.4,1,1v65c0,0.6-0.4,1-1,1h-65c-0.6,0-1-0.4-1-1v-65C106,97.2,106.4,96.8,107,96.8z"/>
<g>
	<g transform="translate(0,12.464084436615188)scale(0.5394183545562874,0.5394183545562874)translate(0,0)">
		<g transform="rotate(0,62.0668535232544,38.9603271484375)">
			<g transform="translate(29.91745948791504,0)">
				
					<linearGradient id="SVGID_1_" gradientUnits="userSpaceOnUse" x1="-29.0106" y1="1400.65" x2="-29.0106" y2="1399.6886" gradientTransform="matrix(50.9822 0 0 -32.562 1721.6249 45787.3633)">
					<stop  offset="0" style="stop-color:#743910"/>
					<stop  offset="0.1249" style="stop-color:#743910"/>
					<stop  offset="0.125" style="stop-color:#DFC497"/>
					<stop  offset="0.2499" style="stop-color:#DFC497"/>
					<stop  offset="0.25" style="stop-color:#FFFFFF"/>
					<stop  offset="0.3749" style="stop-color:#FFFFFF"/>
					<stop  offset="0.375" style="stop-color:#080604"/>
					<stop  offset="0.4999" style="stop-color:#080604"/>
					<stop  offset="0.5" style="stop-color:#999998"/>
					<stop  offset="0.6249" style="stop-color:#999998"/>
					<stop  offset="0.625" style="stop-color:#FEC848"/>
					<stop  offset="0.7499" style="stop-color:#FEC848"/>
					<stop  offset="0.75" style="stop-color:#BC7D4F"/>
					<stop  offset="0.8749" style="stop-color:#BC7D4F"/>
					<stop  offset="0.875" style="stop-color:#BC4F8F"/>
					<stop  offset="0.9999" style="stop-color:#BC4F8F"/>
				</linearGradient>
				<path class="st6" d="M200.1,218.1c-0.8,7.2,10.6,19.3,14.4,19.3c10.3,1,18.2-2.6,27.9-3.9c10.3-1.4,20.6,0,30.8,0
					c1.2,1,2.5,1,4.8,1c0.3,0,0.6,0,1,0l0,0l0,0c0.3,0,0.6,0,1,0l0,0l0,0l0,0l0,0l0,0l0,0l0,0l0,0c0.3,0,0.6,0,1,0l0,0l0,0
					c11.7-9.8,7-34.7-1-44.8c-5-6.3-11.8-12-22.1-9.6c-7.5,1.7-18.3,11.1-25,11.1c-1.2,1.2-6.7,9.2-6.7,11.6
					c-8.4,4.4-20.2,4.8-28.9,13.5l0,0l0,0l0,0l0,0l0,0l0,0l0,0l0,0C198.2,216.8,199.2,217.4,200.1,218.1"/>
			</g>
			<g transform="translate(88.21335792541504,2.1968994140625)">
				<path class="st7" d="M195.9,184.3c-1.2,0,1,12.4,1,15.5l0,0l0,0l0,0l0,0l0,0l0,0l0,0l0,0l0,0l0,0c1.8,2.1,10,8.7,13.5,8.7l0,0
					l0,0l0,0l0,0l0,0c0,0.3,0,0.6,0,1l0,0l0,0l0,0c2.2-1.9,12.6-16.6,12.6-20.3l0,0l0,0l0,0l0,0l0,0l0,0l0,0l0,0l0,0l0,0l0,0l0,0
					l0,0l0,0c-4.8-4.5-7.1-5.2-10.6-8.7l0,0l0,0c-1,0.3-1.3,0-1-1c-2.6,0-5.2,0-7.7,0C199,178.7,195.9,179.9,195.9,184.3"/>
			</g>
			<g transform="translate(69.22153663635254,16.1962890625)">
				<path class="st8" d="M196.7,180.9L196.7,180.9L196.7,180.9L196.7,180.9L196.7,180.9c0-0.3,0-0.7,0-1l0,0l0,0l0,0
					c0,3,0,5.9,0,8.9c0.3,0,0.7,0,1,0c1.3-0.5,2.1-1.3,3-3c-0.2-0.9,0.1-1.6,1-2c0-0.3,0-0.7,0-1l0,0l0,0l0,0l0,0l0,0l0,0l0,0
					c0-0.3,0-0.7,0-1l0,0c0-0.3,0-0.7,0-1l0,0c-0.3-0.3-0.7-0.7-1-1l0,0l0,0l0,0c0.3-1,0-1.3-1-1l0,0l0,0l0,0c-0.3,0-0.7,0-1,0l0,0
					l0,0c-0.3,0-0.7,0-1,0l0,0l0,0l0,0l0,0c-1-0.3-1.3,0-1,1l0,0c0.2,0.9-0.1,1.6-1,2c0,0.3,0,0.7,0,1c0,0.7,0,1.3,0,2
					c0,0.7,0,1.3,0,2c0.3,0,0.7,0,1,0"/>
			</g>
			<g transform="translate(34.18912696838379,34.1968994140625)">
				<path class="st9" d="M198.1,189.9L198.1,189.9L198.1,189.9c2-0.3,5-3.7,5-7.9l0,0c0-0.3,0-0.7,0-1s0-0.7,0-1l0,0l0,0
					c-1,0.3-1.3,0-1-1l0,0c-0.3,0-0.7,0-1,0l0,0c0.3-1,0-1.3-1-1l0,0c-0.3,0-0.7,0-1,0l0,0l0,0c-0.3,0-0.7,0-1,0s-0.7,0-1,0l0,0l0,0
					"/>
			</g>
			<g transform="translate(30.450368762016296,31.78912925720215)">
				<path class="st10" d="M200,178.3L200,178.3L200,178.3c-2.8,1.8-3,5.5-2.7,10.3c0.8,1.6,0.5,1,1.4,2.6l0,0l0,0
					c1.3-0.5,1.8,0,1.4,1.3l0,0l0,0l0,0c0.5,0,0.9,0,1.4,0l0,0"/>
			</g>
			<g transform="translate(31.91699719429016,34.58021926879883)">
				<path class="st9" d="M198.5,178.2L198.5,178.2L198.5,178.2L198.5,178.2L198.5,178.2L198.5,178.2L198.5,178.2L198.5,178.2
					L198.5,178.2c-0.4,0-0.9,0-1.3,0c-0.7,4.4-0.5,8.6,2.6,11.6c0.4,0,0.9,0,1.3,0l0,0l0,0l0,0l0,0c2.6-0.8,4-2.6,3.9-5.2
					c0-0.4,0-0.9,0-1.3c-0.4,0-0.9,0-1.3,0"/>
			</g>
			<g transform="translate(62.221506118774414,58.6827392578125)">
				
					<linearGradient id="SVGID_2_" gradientUnits="userSpaceOnUse" x1="-61.3522" y1="1342.187" x2="-61.3522" y2="1341.2347" gradientTransform="matrix(30.9436 0 0 -10.4582 2121.8733 14214.0371)">
					<stop  offset="0" style="stop-color:#210D0D"/>
					<stop  offset="0.1428" style="stop-color:#210D0D"/>
					<stop  offset="0.1429" style="stop-color:#FFFFFF"/>
					<stop  offset="0.2856" style="stop-color:#FFFFFF"/>
					<stop  offset="0.2857" style="stop-color:#F8E914"/>
					<stop  offset="0.4285" style="stop-color:#F8E914"/>
					<stop  offset="0.4286" style="stop-color:#F81414"/>
					<stop  offset="0.5713" style="stop-color:#F81414"/>
					<stop  offset="0.5714" style="stop-color:#14F851"/>
					<stop  offset="0.7142" style="stop-color:#14F851"/>
					<stop  offset="0.7143" style="stop-color:#E114F8"/>
					<stop  offset="0.857" style="stop-color:#E114F8"/>
					<stop  offset="0.8571" style="stop-color:#1414F8"/>
					<stop  offset="0.9999" style="stop-color:#1414F8"/>
				</linearGradient>
				<path class="st11" d="M197.9,183c-0.3,0-0.6,0-1,0c16.6,1.7,34.6-3.9,50.1-3.9c0.6-0.5,3.2-1.9,3.9-1.9c0,0,0,10.7,0,11.7l0,0
					l0,0l0,0l0,0l0,0l0,0l0,0c-16.7,1.5-34.3,6.8-51.1,6.8l0,0C195.9,193.7,194.6,186.3,197.9,183"/>
			</g>
			<g transform="translate(0,34.678707122802734)">
				
					<linearGradient id="SVGID_3_" gradientUnits="userSpaceOnUse" x1="0.2559" y1="1366.7032" x2="0.2559" y2="1365.7235" gradientTransform="matrix(7.2056 0 0 -1.9711 196.6348 2872.0984)">
					<stop  offset="0" style="stop-color:#FFFFFF"/>
					<stop  offset="0.4999" style="stop-color:#FFFFFF"/>
					<stop  offset="0.5" style="stop-color:#000000"/>
					<stop  offset="0.9999" style="stop-color:#000000"/>
				</linearGradient>
				<path class="st12" d="M201.7,180h-1.6c0-0.6,0-1.2,0-1.8l0,0l0,0l0,0c-0.5,0-1.1,0-1.6,0l0,0l0,0c4.7,1.8,6.2,3.4,11.2,3.5h1.6"
					/>
			</g>
			<g transform="translate(0.43170738220214844,51.18742370605469)">
				
					<linearGradient id="SVGID_4_" gradientUnits="userSpaceOnUse" x1="0.5932" y1="1351.4022" x2="0.5932" y2="1350.4176" gradientTransform="matrix(8.214 0 0 -1.0826 200.1888 1640.5079)">
					<stop  offset="0" style="stop-color:#FFFFFF"/>
					<stop  offset="0.4999" style="stop-color:#FFFFFF"/>
					<stop  offset="0.5" style="stop-color:#000000"/>
					<stop  offset="0.9999" style="stop-color:#000000"/>
				</linearGradient>
				<path class="st13" d="M198.5,179.5L198.5,179.5L198.5,179.5L198.5,179.5c6.1,0.2,6.8-2.1,13-1.9l0,0c0.5,0,1.1,0,1.6,0l0,0"/>
			</g>
			<g transform="translate(7.039144039154053,61.27076721191406)">
				
					<linearGradient id="SVGID_5_" gradientUnits="userSpaceOnUse" x1="-5.9608" y1="1339.9607" x2="-5.9608" y2="1338.9171" gradientTransform="matrix(8.3146 0 0 -5.4494 255.1683 7478.208)">
					<stop  offset="0" style="stop-color:#FFFFFF"/>
					<stop  offset="0.4999" style="stop-color:#FFFFFF"/>
					<stop  offset="0.5" style="stop-color:#000000"/>
					<stop  offset="0.9999" style="stop-color:#000000"/>
				</linearGradient>
				<path class="st14" d="M199.9,185L199.9,185c-1.4-0.4-2,0.2-1.6,1.6c5.1-0.3,9.9-6.1,13.1-8.1l0,0l0,0l0,0l0,0
					c1.4,0.4,2-0.2,1.6-1.6"/>
			</g>
		</g>
	</g>
</g>
<g transform="translate(-2.5,9.964084436615188)">
	<circle class="st15" cx="108.5" cy="99.3" r="5"/>
</g>
<text transform="matrix(1 0 0 1 307.2567 246.657)" class="st16 st17">Glyph</text>
<g>
	<line class="st4" x1="147.5" y1="125.5" x2="193.7" y2="55.7"/>
	<line class="st4" x1="111.4" y1="137.2" x2="184.7" y2="131.8"/>
	<line class="st4" x1="155" y1="146.2" x2="193.7" y2="204.8"/>
</g>
<g transform="translate(0,54.45)">
</g>
<g transform="translate(49.5,19.0575)" class="st18">
	<g transform="translate(0,0)">
		<rect x="193.7" y="28.5" class="st19" width="19.8" height="1.2"/>
		<rect x="193.7" y="28.5" class="st20" width="0" height="1.2"/>
		<rect x="213.5" y="28.5" class="st20" width="0" height="1.2"/>
	</g>
	<g transform="translate(0,2.3335714285714286)">
		<rect x="193.7" y="28.5" class="st19" width="19.8" height="1.2"/>
		<rect x="193.7" y="28.5" class="st20" width="0" height="1.2"/>
		<rect x="213.5" y="28.5" class="st20" width="0" height="1.2"/>
	</g>
	<g transform="translate(0,4.667142857142857)">
		<rect x="193.7" y="28.5" class="st19" width="19.8" height="1.2"/>
		<rect x="193.7" y="28.5" class="st20" width="0" height="1.2"/>
		<rect x="213.5" y="28.5" class="st20" width="0" height="1.2"/>
	</g>
	<g transform="translate(0,7.000714285714286)">
		<rect x="193.7" y="28.5" class="st19" width="19.8" height="1.2"/>
		<rect x="193.7" y="28.5" class="st20" width="0" height="1.2"/>
		<rect x="213.5" y="28.5" class="st20" width="0" height="1.2"/>
	</g>
	<g transform="translate(0,9.334285714285715)">
		<rect x="193.7" y="28.5" class="st19" width="19.8" height="1.2"/>
		<rect x="193.7" y="28.5" class="st20" width="0" height="1.2"/>
		<rect x="213.5" y="28.5" class="st20" width="0" height="1.2"/>
	</g>
	<g transform="translate(0,11.667857142857143)">
		<rect x="193.7" y="28.5" class="st19" width="19.8" height="1.2"/>
		<rect x="193.7" y="28.5" class="st20" width="0" height="1.2"/>
		<rect x="213.5" y="28.5" class="st20" width="0" height="1.2"/>
	</g>
	<g transform="translate(0,14.001428571428573)">
		<rect x="193.7" y="28.5" class="st19" width="19.8" height="1.2"/>
		<rect x="193.7" y="28.5" class="st20" width="0" height="1.2"/>
		<rect x="213.5" y="28.5" class="st20" width="0" height="1.2"/>
	</g>
	<g transform="translate(0,16.335)">
		<rect x="193.7" y="28.5" class="st19" width="19.8" height="1.2"/>
		<rect x="193.7" y="28.5" class="st20" width="0" height="1.2"/>
		<rect x="213.5" y="28.5" class="st20" width="0" height="1.2"/>
	</g>
</g>
<g>
	<path class="st21" d="M265.1,31.5h40.5c2.2,0,4,1.8,4,4V76c0,2.2-1.8,4-4,4h-40.5c-2.2,0-4-1.8-4-4V35.5
		C261.1,33.3,262.9,31.5,265.1,31.5z"/>
	<g transform="translate(66.92399999999999,2.4750000000000014)">
		<ellipse class="st21" cx="218.4" cy="53.3" rx="24.8" ry="24.8"/>
		<g>
			<text transform="matrix(1 0 0 1 209.2716 42.007)" class="st16 st22">brown</text>
			<text transform="matrix(1 0 0 1 210.2018 51.907)" class="st16 st22">paige</text>
			<text transform="matrix(1 0 0 1 215.6225 61.807)" class="st16 st22">...</text>
		</g>
		<text transform="matrix(1 0 0 1 211.1403 75.405)" class="st16 st22">color</text>
	</g>
</g>
<g>
	<path class="st21" d="M200.5,31.5h40.5c2.2,0,4,1.8,4,4V76c0,2.2-1.8,4-4,4h-40.5c-2.2,0-4-1.8-4-4V35.5
		C196.5,33.3,198.3,31.5,200.5,31.5z"/>
	<g transform="translate(2.3760000000000012,2.4750000000000014)">
		<ellipse class="st21" cx="218.4" cy="53.3" rx="24.8" ry="24.8"/>
		<text transform="matrix(1 0 0 1 215.25 75.405)" class="st16 st22">fill</text>
		<g>
			<rect x="202.8" y="37.7" class="st23" width="10.4" height="10.4"/>
			<rect x="213.2" y="37.7" class="st24" width="10.4" height="10.4"/>
			<rect x="223.6" y="37.7" class="st25" width="10.4" height="10.4"/>
			<rect x="202.8" y="48.1" class="st26" width="10.4" height="10.4"/>
			<rect x="213.2" y="48.1" class="st27" width="10.4" height="10.4"/>
			<rect x="223.6" y="48.1" class="st28" width="10.4" height="10.4"/>
			<rect x="202.8" y="58.5" class="st29" width="10.4" height="10.4"/>
			<rect x="213.2" y="58.5" class="st30" width="10.4" height="10.4"/>
		</g>
	</g>
</g>
<g transform="translate(0,54.45)">
</g>
<g transform="translate(49.5,19.0575)" class="st18">
	<g transform="translate(0,0)">
		<rect x="193.7" y="177.6" class="st19" width="19.8" height="1.4"/>
		<rect x="193.7" y="177.6" class="st20" width="0" height="1.4"/>
		<rect x="213.5" y="177.6" class="st20" width="0" height="1.4"/>
	</g>
	<g transform="translate(0,2.7225)">
		<rect x="193.7" y="177.6" class="st19" width="19.8" height="1.4"/>
		<rect x="193.7" y="177.6" class="st20" width="0" height="1.4"/>
		<rect x="213.5" y="177.6" class="st20" width="0" height="1.4"/>
	</g>
	<g transform="translate(0,5.445)">
		<rect x="193.7" y="177.6" class="st19" width="19.8" height="1.4"/>
		<rect x="193.7" y="177.6" class="st20" width="0" height="1.4"/>
		<rect x="213.5" y="177.6" class="st20" width="0" height="1.4"/>
	</g>
	<g transform="translate(0,8.1675)">
		<rect x="193.7" y="177.6" class="st19" width="19.8" height="1.4"/>
		<rect x="193.7" y="177.6" class="st20" width="0" height="1.4"/>
		<rect x="213.5" y="177.6" class="st20" width="0" height="1.4"/>
	</g>
	<g transform="translate(0,10.89)">
		<rect x="193.7" y="177.6" class="st19" width="19.8" height="1.4"/>
		<rect x="193.7" y="177.6" class="st20" width="0" height="1.4"/>
		<rect x="213.5" y="177.6" class="st20" width="0" height="1.4"/>
	</g>
	<g transform="translate(0,13.6125)">
		<rect x="193.7" y="177.6" class="st19" width="19.8" height="1.4"/>
		<rect x="193.7" y="177.6" class="st20" width="0" height="1.4"/>
		<rect x="213.5" y="177.6" class="st20" width="0" height="1.4"/>
	</g>
	<g transform="translate(0,16.335)">
		<rect x="193.7" y="177.6" class="st19" width="19.8" height="1.4"/>
		<rect x="193.7" y="177.6" class="st20" width="0" height="1.4"/>
		<rect x="213.5" y="177.6" class="st20" width="0" height="1.4"/>
	</g>
</g>
<g>
	<path class="st21" d="M265.1,180.5h40.5c2.2,0,4,1.8,4,4v40.5c0,2.2-1.8,4-4,4h-40.5c-2.2,0-4-1.8-4-4v-40.5
		C261.1,182.3,262.9,180.5,265.1,180.5z"/>
	<g transform="translate(66.92399999999999,2.4750000000000014)">
		<ellipse class="st21" cx="218.4" cy="202.3" rx="24.8" ry="24.8"/>
		<g>
			<text transform="matrix(1 0 0 1 210.5792 191.083)" class="st16 st22">black</text>
			<text transform="matrix(1 0 0 1 210.9483 200.9829)" class="st16 st22">none</text>
			<text transform="matrix(1 0 0 1 215.6225 210.883)" class="st16 st22">...</text>
		</g>
		<text transform="matrix(1 0 0 1 202.1743 224.481)" class="st16 st22">leash color</text>
	</g>
</g>
<g>
	<path class="st21" d="M200.5,180.5h40.5c2.2,0,4,1.8,4,4v40.5c0,2.2-1.8,4-4,4h-40.5c-2.2,0-4-1.8-4-4v-40.5
		C196.5,182.3,198.3,180.5,200.5,180.5z"/>
	<g transform="translate(2.3760000000000012,2.4750000000000014)">
		<ellipse class="st21" cx="218.4" cy="202.3" rx="24.8" ry="24.8"/>
		<text transform="matrix(1 0 0 1 215.25 224.481)" class="st16 st22">fill</text>
		<g>
			<rect x="202.8" y="186.7" class="st31" width="10.4" height="10.4"/>
			<rect x="213.2" y="186.7" class="st25" width="10.4" height="10.4"/>
			<rect x="223.6" y="186.7" class="st32" width="10.4" height="10.4"/>
			<rect x="202.8" y="197.1" class="st33" width="10.4" height="10.4"/>
			<rect x="213.2" y="197.1" class="st34" width="10.4" height="10.4"/>
			<rect x="223.6" y="197.1" class="st35" width="10.4" height="10.4"/>
			<rect x="202.8" y="207.5" class="st36" width="10.4" height="10.4"/>
		</g>
	</g>
</g>
<g transform="translate(139.473,96.126)">
	<g transform="translate(49.5,19.0575)" class="st18">
		<g transform="translate(0,0)">
			<rect x="45.2" y="8.4" class="st19" width="19.8" height="1.8"/>
			<rect x="45.2" y="8.4" class="st20" width="0" height="1.8"/>
			<rect x="65" y="8.4" class="st20" width="0" height="1.8"/>
		</g>
		<g transform="translate(0,16.335)">
			<rect x="45.2" y="8.4" class="st19" width="19.8" height="1.8"/>
			<rect x="45.2" y="8.4" class="st20" width="0" height="1.8"/>
			<rect x="65" y="8.4" class="st20" width="0" height="1.8"/>
		</g>
	</g>
	<g>
		<path class="st21" d="M116.6,11.4h40.5c2.2,0,4,1.8,4,4v40.5c0,2.2-1.8,4-4,4h-40.5c-2.2,0-4-1.8-4-4V15.4
			C112.6,13.2,114.4,11.4,116.6,11.4z"/>
		<g transform="translate(66.92399999999999,2.4750000000000014)">
			<ellipse class="st21" cx="70" cy="33.2" rx="24.8" ry="24.8"/>
			<g>
				<text transform="matrix(1 0 0 1 66.2127 26.869)" class="st16 st22">no</text>
				<text transform="matrix(1 0 0 1 64.7213 36.769)" class="st16 st22">yes</text>
			</g>
			<text transform="matrix(1 0 0 1 59.6764 55.317)" class="st16 st22">barked</text>
		</g>
	</g>
	<g>
		<path class="st21" d="M52.1,11.4h40.5c2.2,0,4,1.8,4,4v40.5c0,2.2-1.8,4-4,4H52.1c-2.2,0-4-1.8-4-4V15.4
			C48.1,13.2,49.9,11.4,52.1,11.4z"/>
		<g transform="translate(2.3760000000000012,2.4750000000000014)">
			<circle class="st21" cx="70" cy="33.2" r="24.8"/>
			<text transform="matrix(1 0 0 1 60.8002 55.317)" class="st16 st22">stroke</text>
			<g>
				<line class="st37" x1="50.2" y1="26.4" x2="89.8" y2="26.4"/>
				<rect x="52.2" y="11.7" class="st38" width="16.5" height="29.4"/>
				<rect x="69.5" y="11.7" width="16.5" height="29.4"/>
			</g>
		</g>
	</g>
</g>
<path class="st2" d="M52.2,263.5h280c2.2,0,4,1.8,4,4V507c0,2.2-1.8,4-4,4h-280c-2.2,0-4-1.8-4-4V267.5
	C48.2,265.3,50,263.5,52.2,263.5z"/>
<path class="st3" d="M49.2,260.5h280c2.2,0,4,1.8,4,4V504c0,2.2-1.8,4-4,4h-280c-2.2,0-4-1.8-4-4V264.5
	C45.2,262.3,47,260.5,49.2,260.5z"/>
<g>
	<line class="st4" x1="70" y1="328.6" x2="127.1" y2="313.6"/>
	<line class="st4" x1="70" y1="365.7" x2="127.1" y2="360.7"/>
	<line class="st4" x1="70" y1="402.8" x2="127.1" y2="407.8"/>
	<line class="st4" x1="70" y1="440" x2="127.1" y2="455"/>
</g>
<path class="st4" d="M128.5,292.4h59.2c0.8,0,1.5,0.4,1.5,1v40.4c0,0.6-0.7,1-1.5,1h-59.2c-0.8,0-1.5-0.4-1.5-1v-40.4
	C127.1,292.8,127.7,292.4,128.5,292.4z"/>
<g>
	<g transform="translate(20.54870837216709,0)scale(0.09318578516829824,0.09318578516829824)translate(0,0)">
		<g transform="rotate(0,724.0895233154297,309.9932556152344)">
			<g transform="translate(0,34.50177001953125)">
				<path class="st10" d="M1201.8,3230.4l-0.4,0.8l-0.4,4.1v3.2v2.4v2.8v3.2v5.3v4.1l-0.4,4.1v6.5v4.9v4.5l0.4,4.9l0.4,4.5l0.4,4.9
					l0.4,7.3l0.4,4.9l0.4,4.9l0.4,4.5l0.4,6.5l0.4,4.5l0.4,4.1l0.4,4.1l0.4,3.6l0.4,3.6v5.7v3.6v5.7v3.6v4.1v3.2v3.6v3.2v4.5v4.1
					v1.6v2.4v4.1v2.4v2.4v2.4v3.2v2.4v1.6v2v2.4v1.2v1.2v0.8v0.8v0.8v0.8v0.8v0.4v0.4v0.4l0,0l0,0l0,0v0.4l0,0l0,0l0,0h0.4"/>
			</g>
			<g transform="translate(348.70263671875,436.42718505859375)">
				<path class="st39" d="M993.4,2992.5H993"/>
			</g>
			<g transform="translate(181.59466552734375,26.03668212890625)">
				<path class="st39" d="M1092.9,3236.5L1092.9,3236.5v12v18.2l-0.4,9.9l1.3,5.4l0.4,2.9l0.4,4.1v2.1v0.4"/>
			</g>
			<g transform="translate(321.46832275390625,22.2703857421875)">
				<path class="st39" d="M1009.3,3239.2v-0.4l0.8,14.1l0.8,20.3l1.2,14.1l1.7,9.5l0.8,2.9h-0.4"/>
			</g>
			<g transform="translate(469.4488525390625,24.037353515625)">
				<path class="st39" d="M921.3,3237.3v1.6l1.3,17.2l2.2,19.3l0.9,13.5l1.3,5.3v1.2"/>
			</g>
			<g transform="translate(625.578857421875,8.9073486328125)">
				<path class="st39" d="M828.3,3248.1L828.3,3248.1l0.4,21.9l0.4,14.8l0.4,11.8l0.9,7.6v2.1l-0.4,0.4"/>
			</g>
			<g transform="translate(769.4422607421875,10.07012939453125)">
				<path class="st39" d="M742.8,3245.5L742.8,3245.5l0.9,6.6l0.9,11.9l2.1,14.4l0.4,10.7l0.9,7.4v1.6"/>
			</g>
			<g transform="translate(931.661376953125,0)">
				<path class="st39" d="M646.6,3252.2l-0.4,0.4l0.8,14.5l2.9,14.1l0.8,11.2l0.4,9.5l0.4,4.6l-0.4,0.8"/>
			</g>
			<g transform="translate(1091.6715087890625,7.81512451171875)">
				<path class="st39" d="M550.9,3247.4v1.7l0.4,18.7l1.6,10.4l0.8,8.7l0.4,6.2l0.4,2.1v0.8l0,0"/>
			</g>
			<g transform="translate(1261.0320739746094,6.5277099609375)">
				<path class="st39" d="M450.2,3247.9L450.2,3247.9l0.4,8.6v11.9l0.9,11.1l0.4,9.5v6.2v2.1v1.2v1.6v1.6v0.8v0.4l0,0l-0.4,0.8
					l-0.4,0.4v0.4h-0.4"/>
			</g>
			<g transform="translate(1441.1775817871094,10.876312255859375)">
				<path class="st39" d="M345.4,3245.5H345l-1.2,12.4l-0.8,18.6l0.8,11.6l0.8,4.1v1.7v1.2l0.4,1.7l0.4,1.2v2.1v0.4l0,0v-0.4v-0.4
					l0,0h0.4"/>
			</g>
		</g>
	</g>
</g>
<g transform="translate(18.04870837216709,-2.5)">
	<circle class="st15" cx="110.5" cy="294.9" r="5"/>
</g>
<path class="st4" d="M128.5,339.5h59.2c0.8,0,1.5,0.4,1.5,1v40.4c0,0.6-0.7,1-1.5,1h-59.2c-0.8,0-1.5-0.4-1.5-1v-40.4
	C127.1,340,127.7,339.5,128.5,339.5z"/>
<g>
	<g transform="translate(20.54870837216709,0)scale(0.09318578516829824,0.09318578516829824)translate(0,0)">
		<g transform="rotate(0,649.2471618652344,242.57041931152344)">
			<g transform="translate(0,30.001678466796875)">
				<path class="st10" d="M1194.3,3754.2l-0.4,0.8l-0.4,4.1v3.2v2.4v2.8v3.2v5.3v4.1l-0.4,4.1v6.5v4.9v4.5l0.4,4.9l0.4,4.5l0.4,4.9
					l0.4,7.3l0.4,4.9l0.4,4.9l0.4,4.5l0.4,6.5l0.4,4.5l0.4,4.1l0.4,4.1l0.4,3.6l0.4,3.6v5.7v3.6v5.7v3.6v4.1v3.2v3.6v3.2v4.5v4.1
					v1.6v2.4v4.1v2.4v2.4v2.4v3.2v2.4v1.6v2v2.4v1.2v1.2v0.8v0.8v0.8v0.8v0.8v0.4v0.4v0.4l0,0l0,0l0,0v0.4l0,0l0,0l0,0h0.4"/>
			</g>
			<g transform="translate(269.8734130859375,25.45758056640625)">
				<path class="st39" d="M1032.4,3756.9"/>
			</g>
			<g transform="translate(268.7889404296875,23.4208984375)">
				<path class="st39" d="M1033.5,3758.9h-0.4l0.8,9.8v16.7l0.4,19.2l-0.4,20l1.6,12.3l1.2,9.4l1.6,7.8l0.4,4.9l1.2,2.9l0.4,1.6v0.8
					l0.4-0.4"/>
			</g>
			<g transform="translate(206.098388671875,0)">
				<path class="st39" d="M1075.4,3773.4h-0.4l-2.1,15.6l-1.7,21.3l-0.4,18.9l-0.4,17.2l2.1,14.4l1.2,11.5l0.8,6.6l0.4,2.1v0.4"/>
			</g>
			<g transform="translate(378.20684814453125,15.6234130859375)">
				<path class="st39" d="M968.9,3763.2h-0.4l-0.4,8.2l1.7,19.2l1.7,19.6l-0.8,18.4v14.7l1.3,11.4l1.7,6.9v3.7v3.3l-0.4,2h-0.8"/>
			</g>
			<g transform="translate(550.4391479492188,24.853729248046875)">
				<path class="st39" d="M871.1,3757.7h-0.4l-0.4,6.1v13.4v15.5l-0.9,13.8l-3.1,13.8l-0.4,10.6l3.5,9.8l2.2,9.4l-0.4,5.3l-0.4,4.5
					v2.8l-0.9,2v1.2l0,0l0,0h-0.4"/>
			</g>
			<g transform="translate(734.1587524414062,30.64105224609375)">
				<path class="st39" d="M758.7,3755.1h-0.4v14.8v19.7l-0.4,15.2l-1.7,12.7l0.4,10.7v11.9v8.2l0.4,6.6v5.7l0.4,2.9v0.4l0,0v0.4
					h-0.8l0,0l-0.4,0.4"/>
			</g>
			<g transform="translate(904.3201293945312,44.3790283203125)">
				<path class="st39" d="M655.3,3747.1l0.4-0.4l-0.8,12.7l1.2,18l0.8,20l-0.8,19.6l0.8,15.1l1.2,12.7l0.4,7.8v4.5l-0.4,0.8l0,0l0,0
					l0,0"/>
			</g>
			<g transform="translate(1092.1271362304688,61.60321044921875)">
				<path class="st39" d="M544.1,3737.1L544.1,3737.1l-0.8,17.7l2.9,17.3l1.7,11.1l-0.8,12.4l-0.8,11.5v6.2v6.2l0.4,7.4l0.4,5.8
					l0.4,4.1l0.4,3.3l0.8,2.1l0.4,1.6v1.6l0.4,1.2l0,0v-1.2l-0.4-0.4l0,0h0.4l0,0l0.4,0.4l0,0l0.4-0.4v-0.8l-0.8-1.2"/>
			</g>
			<g transform="translate(1273.9580688476562,58.38507080078125)">
				<path class="st39" d="M445.1,3738.5L445.1,3738.5l-0.8,13.5l-1.2,18.4l-1.2,18l-2.5,17.6l-2.9,14.8l-1.2,9v4.5l0.8,2.9v2.9
					l0.4,1.2l-0.4,0.8v0.8l0,0v0.8l0.4,0.8v0.4l0,0l-0.4-0.4"/>
			</g>
		</g>
	</g>
</g>
<g transform="translate(18.04870837216709,-2.5)">
	<circle class="st15" cx="110.5" cy="342" r="5"/>
</g>
<path class="st4" d="M128.5,386.6h59.2c0.8,0,1.5,0.4,1.5,1v40.4c0,0.6-0.7,1-1.5,1h-59.2c-0.8,0-1.5-0.4-1.5-1v-40.4
	C127.1,387.1,127.7,386.6,128.5,386.6z"/>
<g transform="translate(0,3.6341552734375)">
	<path class="st10" d="M132.4,395.7L132.4,395.7l-0.1,0.5v0.3v0.2v0.3v0.3v0.5v0.4l0,0.4v0.6v0.5v0.4l0,0.5l0,0.4l0,0.5l0,0.7l0,0.5
		l0,0.5l0,0.4l0,0.6l0,0.4l0,0.4l0,0.4l0,0.3l0,0.3v0.5v0.3v0.5v0.3v0.4v0.3v0.3v0.3v0.4v0.4v0.2v0.2v0.4v0.2v0.2v0.2v0.3v0.2v0.2
		v0.2v0.2v0.1v0.1v0.1v0.1v0.1v0.1v0.1v0v0v0l0,0l0,0l0,0v0l0,0l0,0l0,0h0"/>
</g>
<g transform="translate(185.54754638671875,0)">
	<path class="st39" d="M-46.2,399.2L-46.2,399.2l0,0.1v0.4v0.5l0,0.7v0.6l0,0.9l0.1,0.7l0.1,0.9v0.9l0,0.9l0,0.7v0.7l0,0.7l0.1,0.6
		l0.1,0.5v0.5l0,0.5l-0.1,0.6l0,0.5l0,0.5l-0.1,0.4l0,0.5l0,0.3l0,0.3v0.2l0,0.2v0.2v0.2l0,0.1v0.2l0,0.1v0.2v0.2h0l0,0l0,0h0l0,0
		l0,0l0,0l0,0l0,0v0l0,0h0l0,0"/>
</g>
<g transform="translate(NaN,NaN)">
	<circle class="st15" cx="128.5" cy="387.1" r="5"/>
</g>
<path class="st4" d="M128.5,433.8h59.2c0.8,0,1.5,0.4,1.5,1v40.4c0,0.6-0.7,1-1.5,1h-59.2c-0.8,0-1.5-0.4-1.5-1v-40.4
	C127.1,434.2,127.7,433.8,128.5,433.8z"/>
<g>
	<g transform="translate(20.54870837216709,0)scale(0.09318578516829824,0.09318578516829824)translate(0,0)">
		<g transform="rotate(0,7.056243896484375,227.569580078125)">
			<g transform="translate(0,0)">
				<path class="st10" d="M1204.6,4790.2l-0.4,0.8l-0.4,4.1v3.2v2.4v2.8v3.2v5.3v4.1l-0.4,4.1v6.5v4.9v4.5l0.4,4.9l0.4,4.5l0.4,4.9
					l0.4,7.3l0.4,4.9l0.4,4.9l0.4,4.5l0.4,6.5l0.4,4.5l0.4,4.1l0.4,4.1l0.4,3.6l0.4,3.6v5.7v3.6v5.7v3.6v4.1v3.2v3.6v3.2v4.5v4.1
					v1.6v2.4v4.1v2.4v2.4v2.4v3.2v2.4v1.6v2v2.4v1.2v1.2v0.8v0.8v0.8v0.8v0.8v0.4v0.4v0.4l0,0l0,0l0,0v0.4l0,0l0,0l0,0h0.4"/>
			</g>
		</g>
	</g>
</g>
<g transform="translate(18.04870837216709,-2.5)">
	<circle class="st15" cx="110.5" cy="436.3" r="5"/>
</g>
<text transform="matrix(1 0 0 1 303.9795 502.572)" class="st16 st17">Layout</text>
<g>
	<circle class="st40" cx="45.2" cy="361" r="17.8"/>
</g>
<g transform="translate(-24.75, 49.5)">
	<ellipse class="st0" cx="70" cy="386" rx="18.6" ry="18.6"/>
	<text transform="matrix(1 0 0 1 66.0289 388.3315)" class="st16 st22">fur</text>
	<g transform="translate(0,0)">
		<ellipse class="st41" cx="70" cy="274.6" rx="18.6" ry="18.6"/>
		<g>
			<text transform="matrix(1 0 0 1 57.9997 275.7335)" class="st16 st22">medium</text>
		</g>
		<text transform="matrix(1 0 0 1 66.0289 276.9565)" class="st42 st16 st22">fur</text>
	</g>
	<g transform="translate(0, 37.125)">
		<ellipse class="st41" cx="70" cy="274.6" rx="18.6" ry="18.6"/>
		<g>
			<text transform="matrix(1 0 0 1 62.4802 275.7335)" class="st16 st22">short</text>
		</g>
		<text transform="matrix(1 0 0 1 66.0289 276.9565)" class="st42 st16 st22">fur</text>
	</g>
	<g transform="translate(0, 74.25)">
		<ellipse class="st41" cx="70" cy="274.6" rx="18.6" ry="18.6"/>
		<g>
			<text transform="matrix(1 0 0 1 63.5975 275.7335)" class="st16 st22">long</text>
		</g>
		<text transform="matrix(1 0 0 1 66.0289 276.9565)" class="st42 st16 st22">fur</text>
	</g>
</g>
</svg>
