<?xml version="1.0" encoding="utf-8"?>
<!-- Generator: Adobe Illustrator 21.0.0, SVG Export Plug-In . SVG Version: 6.00 Build 0)  -->
<svg version="1.1" id="Layer_1" xmlns="http://www.w3.org/2000/svg" xmlns:xlink="http://www.w3.org/1999/xlink" x="0px" y="0px"
	 viewBox="0 0 1366 768" style="enable-background:new 0 0 1366 768;" xml:space="preserve">
<style type="text/css">
	.st0{fill:none;stroke:#0000FF;stroke-width:0.5;}
	.st1{fill:#FFFFFF;stroke:#708090;}
	.st2{fill:url(#SVGID_1_);stroke:#000000;}
	.st3{fill:url(#SVGID_2_);stroke:#000000;}
	.st4{fill:#F0F8FF;stroke:#708090;stroke-width:0.5;}
	.st5{fill:none;stroke:#708090;stroke-dasharray:2,2.5;}
	.st6{fill:none;stroke:#708090;stroke-width:1.5;}
	.st7{stroke:#708090;stroke-width:1.5;}
	.st8{fill:url(#SVGID_3_);stroke:#000000;}
	.st9{fill:url(#SVGID_4_);stroke:#000000;}
	.st10{fill:url(#SVGID_5_);stroke:#000000;}
	.st11{fill:none;stroke:#000000;}
	.st12{fill:url(#SVGID_6_);stroke:#000000;}
	.st13{fill:#FFFFFF;fill-opacity:0.8;stroke:#B0C4DE;stroke-width:2.5;}
	.st14{font-family:'ArialMT';}
	.st15{font-size:8.4px;}
	.st16{fill:#F0F8FF;fill-opacity:0;}
	.st17{font-size:6.72px;}
	.st18{fill:#815103;stroke:#1E90FF;stroke-width:0.5;}
	.st19{fill:#F4EBDC;stroke:#1E90FF;stroke-width:0.5;}
	.st20{fill:#FFFFFF;stroke:#1E90FF;stroke-width:0.5;}
	.st21{fill:#050591;stroke:#1E90FF;stroke-width:0.5;}
	.st22{fill:#888887;stroke:#1E90FF;stroke-width:0.5;}
	.st23{fill:#FFC362;stroke:#1E90FF;stroke-width:0.5;}
	.st24{fill:#BB7301;stroke:#1E90FF;stroke-width:0.5;}
	.st25{fill:#910557;stroke:#1E90FF;stroke-width:0.5;}
	.st26{fill:#37E1FE;stroke:#1E90FF;stroke-width:0.5;}
	.st27{fill:#FAA3F2;stroke:#1E90FF;stroke-width:0.5;}
	.st28{fill:#3748FE;stroke:#1E90FF;stroke-width:0.5;}
	.st29{fill:#FE37F2;stroke:#1E90FF;stroke-width:0.5;}
	.st30{fill:#FF12FC;stroke:#1E90FF;stroke-width:0.5;}
	.st31{fill:#FFFC12;stroke:#1E90FF;stroke-width:0.5;}
	.st32{fill:#CE5757;stroke:#1E90FF;stroke-width:0.5;}
	.st33{fill:#CEC657;stroke:#1E90FF;stroke-width:0.5;}
	.st34{fill:#7DCE57;stroke:#1E90FF;stroke-width:0.5;}
	.st35{fill:#57BACE;stroke:#1E90FF;stroke-width:0.5;}
	.st36{fill:#A757CE;stroke:#1E90FF;stroke-width:0.5;}
	.st37{fill:#FFFFFF;fill-opacity:0;}
	.st38{fill:none;stroke:#0000FF;stroke-width:0.5;stroke-dasharray:2,2;}
	.st39{fill:#FFFFFF;stroke:#708090;stroke-width:0.5;stroke-dasharray:2,2.5;}
	.st40{fill:#F0F8FF;}
	.st41{opacity:0;enable-background:new    ;}
</style>
<path class="st0" d="M178.3,0v665.5"/>
<path class="st1" d="M49.2,8.4h280c2.2,0,4,1.8,4,4v384.8c0,2.2-1.8,4-4,4h-280c-2.2,0-4-1.8-4-4V12.4C45.2,10.2,47,8.4,49.2,8.4z"
	/>
<linearGradient id="SVGID_1_" gradientUnits="userSpaceOnUse" x1="0.5579" y1="768" x2="0.5579" y2="767.0037" gradientTransform="matrix(21.6779 0 0 -47.5489 106.146 36692.8398)">
	<stop  offset="0" style="stop-color:#3748FE"/>
	<stop  offset="0.4999" style="stop-color:#3748FE"/>
	<stop  offset="0.5" style="stop-color:#FE37F2"/>
	<stop  offset="0.9999" style="stop-color:#FE37F2"/>
</linearGradient>
<path class="st2" d="M128.8,175.3c-2.5,2.4-3.2,5.5-4.8,8.5c-1.8,3.3-4.7,6-6.5,9.3c-3.2,6-6.4,12.8-8.9,19.3
	c-1.3,3.5-2.2,13.1,3.3,9.7c5.6-3.5,6.6-15,9.1-19.9"/>
<linearGradient id="SVGID_2_" gradientUnits="userSpaceOnUse" x1="0.5074" y1="772.4829" x2="0.5074" y2="771.493" gradientTransform="matrix(35.0356 0 0 -33.2958 124.3138 25891.1328)">
	<stop  offset="0" style="stop-color:#815103"/>
	<stop  offset="0.1249" style="stop-color:#815103"/>
	<stop  offset="0.125" style="stop-color:#F4EBDC"/>
	<stop  offset="0.2499" style="stop-color:#F4EBDC"/>
	<stop  offset="0.25" style="stop-color:#FFFFFF"/>
	<stop  offset="0.3749" style="stop-color:#FFFFFF"/>
	<stop  offset="0.375" style="stop-color:#050591"/>
	<stop  offset="0.4999" style="stop-color:#050591"/>
	<stop  offset="0.5" style="stop-color:#888887"/>
	<stop  offset="0.6249" style="stop-color:#888887"/>
	<stop  offset="0.625" style="stop-color:#FFC362"/>
	<stop  offset="0.7499" style="stop-color:#FFC362"/>
	<stop  offset="0.75" style="stop-color:#BB7301"/>
	<stop  offset="0.8749" style="stop-color:#BB7301"/>
	<stop  offset="0.875" style="stop-color:#910557"/>
	<stop  offset="0.9999" style="stop-color:#910557"/>
</linearGradient>
<path class="st3" d="M124.3,203.7c0-7.3-0.3-14.6,1.5-21.5c1.7-6.8,7.9-9.5,13.9-10.9c7.5-1.8,12.7,1.1,16,7.9
	c2.4,4.9,6.2,14.5,2.8,19.4"/>
<path class="st4" d="M177.4,665.5h23.7c1.7,0,3,1.3,3,3v23.7c0,1.7-1.3,3-3,3h-23.7c-1.7,0-3-1.3-3-3v-23.7
	C174.4,666.9,175.7,665.5,177.4,665.5z"/>
<line class="st5" x1="45.2" y1="8.4" x2="45.2" y2="8.4"/>
<path class="st6" d="M107,171.3h65c0.6,0,1,0.4,1,1v65c0,0.6-0.4,1-1,1h-65c-0.6,0-1-0.4-1-1v-65C106,171.8,106.4,171.3,107,171.3z"
	/>
<path class="st7" d="M144.8,208"/>
<linearGradient id="SVGID_3_" gradientUnits="userSpaceOnUse" x1="0.4834" y1="768.0276" x2="0.4834" y2="767.0253" gradientTransform="matrix(46.2558 0 0 -41.5115 120.1226 32076.043)">
	<stop  offset="0" style="stop-color:#CE5757"/>
	<stop  offset="0.1999" style="stop-color:#CE5757"/>
	<stop  offset="0.2" style="stop-color:#CEC657"/>
	<stop  offset="0.3999" style="stop-color:#CEC657"/>
	<stop  offset="0.4" style="stop-color:#7DCE57"/>
	<stop  offset="0.5999" style="stop-color:#7DCE57"/>
	<stop  offset="0.6" style="stop-color:#57BACE"/>
	<stop  offset="0.7999" style="stop-color:#57BACE"/>
	<stop  offset="0.8" style="stop-color:#A757CE"/>
	<stop  offset="0.9999" style="stop-color:#A757CE"/>
</linearGradient>
<path class="st8" d="M141.7,222.7c0,7-4.8,13.3-11.3,12.9c-8.3-0.5-7.4-5.1-9.5-11.3c-4.8-14.3,6.4-27.3,21.6-30.1
	c7.6-1.4,15.8,4.6,19.1,11.2c1.5,3,3.4,7.2,3.5,10.8c0,1.6-2.9,18-3.9,17.9c-0.1-0.4-0.2-0.7-0.4-1.1c-0.9,0.3-1.2,0.6-0.8,0.9
	c-8.1,2.7-13.9-4.4-17.4-9.6c0,0.5-0.3,0.2-0.9-0.8l0,0C142.1,223,141.7,221.4,141.7,222.7"/>
<linearGradient id="SVGID_4_" gradientUnits="userSpaceOnUse" x1="0.4678" y1="768.2277" x2="0.4678" y2="768.2277" gradientTransform="matrix(46.2558 0 0 -41.5115 120.1226 32076.043)">
	<stop  offset="0" style="stop-color:#CE5757"/>
	<stop  offset="0.1999" style="stop-color:#CE5757"/>
	<stop  offset="0.2" style="stop-color:#CEC657"/>
	<stop  offset="0.3999" style="stop-color:#CEC657"/>
	<stop  offset="0.4" style="stop-color:#7DCE57"/>
	<stop  offset="0.5999" style="stop-color:#7DCE57"/>
	<stop  offset="0.6" style="stop-color:#57BACE"/>
	<stop  offset="0.7999" style="stop-color:#57BACE"/>
	<stop  offset="0.8" style="stop-color:#A757CE"/>
	<stop  offset="0.9999" style="stop-color:#A757CE"/>
</linearGradient>
<path class="st9" d="M141.8,185.7"/>
<linearGradient id="SVGID_5_" gradientUnits="userSpaceOnUse" x1="0.4926" y1="768.0002" x2="0.4926" y2="767.0175" gradientTransform="matrix(19.8771 0 0 -30.1746 153.1347 23347.252)">
	<stop  offset="0" style="stop-color:#37E1FE"/>
	<stop  offset="0.4999" style="stop-color:#37E1FE"/>
	<stop  offset="0.5" style="stop-color:#FAA3F2"/>
	<stop  offset="0.9999" style="stop-color:#FAA3F2"/>
</linearGradient>
<path class="st10" d="M154,173.2h-0.9l0,0l0,0c8.7-0.3,16.6,16.1,19,23.3c3.7,10.9-11.9,5.7-7.8,0"/>
<path class="st11" d="M130.9,194.8L130.9,194.8L130.9,194.8L130.9,194.8c-5-2.2-1-12,2.7-9.6c2.6,1.7,1.9,11.5-3.6,9.7
	c-0.5-0.2-1-1.9-0.8-1.8C129.3,193.1,131.3,195.1,130.9,194.8"/>
<path class="st11" d="M142,191.3c1.8-2.4,4.2-12.3,8.4-7.4c5.7,6.8-7.6,5.8-6.6,4.8C143.5,188.9,141.8,191.8,142,191.3"/>
<linearGradient id="SVGID_6_" gradientUnits="userSpaceOnUse" x1="0.4221" y1="768.1344" x2="0.4221" y2="767.0997" gradientTransform="matrix(13.1922 0 0 -10.6847 136.3362 8405.6045)">
	<stop  offset="0" style="stop-color:#FF12FC"/>
	<stop  offset="0.4999" style="stop-color:#FF12FC"/>
	<stop  offset="0.5" style="stop-color:#FFFC12"/>
	<stop  offset="0.9999" style="stop-color:#FFFC12"/>
</linearGradient>
<path class="st12" d="M135.4,198.9L135.4,198.9L135.4,198.9L135.4,198.9L135.4,198.9L135.4,198.9L135.4,198.9L135.4,198.9
	c2.1,0,11.2-1.3,12.6,0c1.8,1.6-3.6,10.5-4.8,10.5l0,0l0,0l0,0c-2-0.7-7.8-8.5-7.8-9.6C135.4,201.6,135.4,199.5,135.4,198.9"/>
<circle class="st13" cx="106" cy="173.1" r="5"/>
<text transform="matrix(1 0 0 1 311.2567 395.733)" class="st14 st15">Glyph</text>
<line class="st5" x1="141.8" y1="188.1" x2="193.7" y2="55.7"/>
<line class="st5" x1="162.8" y1="190.5" x2="193.7" y2="130.3"/>
<line class="st5" x1="117.2" y1="199.1" x2="193.7" y2="204.8"/>
<line class="st5" x1="142.9" y1="207.1" x2="193.7" y2="279.3"/>
<line class="st5" x1="143.3" y1="217.9" x2="193.7" y2="353.9"/>
<path class="st16" d="M265.1,31.5h40.5c2.2,0,4,1.8,4,4V76c0,2.2-1.8,4-4,4h-40.5c-2.2,0-4-1.8-4-4V35.5
	C261.1,33.3,262.9,31.5,265.1,31.5z"/>
<g transform="translate(66.92399999999999,2.4750000000000014)">
	<ellipse class="st16" cx="218.4" cy="53.3" rx="24.8" ry="24.8"/>
	<g>
		<text transform="matrix(1 0 0 1 209.2716 42.0069)" class="st14 st17">brown</text>
		<text transform="matrix(1 0 0 1 210.2018 51.907)" class="st14 st17">beige</text>
		<text transform="matrix(1 0 0 1 215.6225 61.8069)" class="st14 st17">...</text>
	</g>
	<text transform="matrix(1 0 0 1 211.1403 75.405)" class="st14 st17">color</text>
</g>
<path class="st16" d="M200.5,31.5h40.5c2.2,0,4,1.8,4,4V76c0,2.2-1.8,4-4,4h-40.5c-2.2,0-4-1.8-4-4V35.5
	C196.5,33.3,198.3,31.5,200.5,31.5z"/>
<g transform="translate(2.3760000000000012,2.4750000000000014)">
	<ellipse class="st16" cx="218.4" cy="53.3" rx="24.8" ry="24.8"/>
	<text transform="matrix(1 0 0 1 215.2501 75.405)" class="st14 st17">fill</text>
	<g>
		<rect x="202.8" y="37.7" class="st18" width="10.4" height="10.4"/>
		<rect x="213.2" y="37.7" class="st19" width="10.4" height="10.4"/>
		<rect x="223.6" y="37.7" class="st20" width="10.4" height="10.4"/>
		<rect x="202.8" y="48.1" class="st21" width="10.4" height="10.4"/>
		<rect x="213.2" y="48.1" class="st22" width="10.4" height="10.4"/>
		<rect x="223.6" y="48.1" class="st23" width="10.4" height="10.4"/>
		<rect x="202.8" y="58.5" class="st24" width="10.4" height="10.4"/>
		<rect x="213.2" y="58.5" class="st25" width="10.4" height="10.4"/>
	</g>
</g>
<path class="st16" d="M265.1,106h40.5c2.2,0,4,1.8,4,4v40.5c0,2.2-1.8,4-4,4h-40.5c-2.2,0-4-1.8-4-4V110
	C261.1,107.8,262.9,106,265.1,106z"/>
<g transform="translate(66.92399999999999,2.4750000000000014)">
	<ellipse class="st16" cx="218.4" cy="127.8" rx="24.8" ry="24.8"/>
	<g>
		<text transform="matrix(1 0 0 1 211.8868 121.4949)" class="st14 st17">man</text>
		<text transform="matrix(1 0 0 1 207.5916 131.3949)" class="st14 st17">woman</text>
	</g>
	<text transform="matrix(1 0 0 1 209.2716 149.943)" class="st14 st17">owner</text>
</g>
<path class="st16" d="M200.5,106h40.5c2.2,0,4,1.8,4,4v40.5c0,2.2-1.8,4-4,4h-40.5c-2.2,0-4-1.8-4-4V110
	C196.5,107.8,198.3,106,200.5,106z"/>
<g transform="translate(2.3760000000000012,2.4750000000000014)">
	<ellipse class="st16" cx="218.4" cy="127.8" rx="24.8" ry="24.8"/>
	<text transform="matrix(1 0 0 1 215.2501 149.943)" class="st14 st17">fill</text>
	<g>
		<rect x="202.8" y="120" class="st26" width="15.6" height="15.6"/>
		<rect x="218.4" y="120" class="st27" width="15.6" height="15.6"/>
	</g>
</g>
<path class="st16" d="M265.1,180.5h40.5c2.2,0,4,1.8,4,4v40.5c0,2.2-1.8,4-4,4h-40.5c-2.2,0-4-1.8-4-4v-40.5
	C261.1,182.3,262.9,180.5,265.1,180.5z"/>
<g transform="translate(66.92399999999999,2.4750000000000014)">
	<ellipse class="st16" cx="218.4" cy="202.3" rx="24.8" ry="24.8"/>
	<g>
		<text transform="matrix(1 0 0 1 213.1944 196.0329)" class="st14 st17">yes</text>
		<text transform="matrix(1 0 0 1 214.6857 205.933)" class="st14 st17">no</text>
	</g>
	<text transform="matrix(1 0 0 1 208.5219 224.481)" class="st14 st17">leash?</text>
</g>
<path class="st16" d="M200.5,180.5h40.5c2.2,0,4,1.8,4,4v40.5c0,2.2-1.8,4-4,4h-40.5c-2.2,0-4-1.8-4-4v-40.5
	C196.5,182.3,198.3,180.5,200.5,180.5z"/>
<g transform="translate(2.3760000000000012,2.4750000000000014)">
	<ellipse class="st16" cx="218.4" cy="202.3" rx="24.8" ry="24.8"/>
	<text transform="matrix(1 0 0 1 215.2501 224.481)" class="st14 st17">fill</text>
	<g>
		<rect x="202.8" y="194.5" class="st28" width="15.6" height="15.6"/>
		<rect x="218.4" y="194.5" class="st29" width="15.6" height="15.6"/>
	</g>
</g>
<path class="st16" d="M265.1,255.1h40.5c2.2,0,4,1.8,4,4v40.5c0,2.2-1.8,4-4,4h-40.5c-2.2,0-4-1.8-4-4v-40.5
	C261.1,256.9,262.9,255.1,265.1,255.1z"/>
<g transform="translate(66.92399999999999,2.4750000000000014)">
	<ellipse class="st16" cx="218.4" cy="276.9" rx="24.8" ry="24.8"/>
	<g>
		<text transform="matrix(1 0 0 1 214.6857 270.5709)" class="st14 st17">no</text>
		<text transform="matrix(1 0 0 1 213.1944 280.4709)" class="st14 st17">yes</text>
	</g>
	<text transform="matrix(1 0 0 1 208.1494 299.019)" class="st14 st17">barked</text>
</g>
<path class="st16" d="M200.5,255.1h40.5c2.2,0,4,1.8,4,4v40.5c0,2.2-1.8,4-4,4h-40.5c-2.2,0-4-1.8-4-4v-40.5
	C196.5,256.9,198.3,255.1,200.5,255.1z"/>
<g transform="translate(2.3760000000000012,2.4750000000000014)">
	<ellipse class="st16" cx="218.4" cy="276.9" rx="24.8" ry="24.8"/>
	<text transform="matrix(1 0 0 1 215.2501 299.019)" class="st14 st17">fill</text>
	<g>
		<rect x="202.8" y="269.1" class="st30" width="15.6" height="15.6"/>
		<rect x="218.4" y="269.1" class="st31" width="15.6" height="15.6"/>
	</g>
</g>
<path class="st16" d="M265.1,329.6h40.5c2.2,0,4,1.8,4,4v40.5c0,2.2-1.8,4-4,4h-40.5c-2.2,0-4-1.8-4-4v-40.5
	C261.1,331.4,262.9,329.6,265.1,329.6z"/>
<g transform="translate(66.92399999999999,2.4750000000000014)">
	<ellipse class="st16" cx="218.4" cy="351.4" rx="24.8" ry="24.8"/>
	<g>
		<text transform="matrix(1 0 0 1 206.4727 340.1589)" class="st14 st17">medium</text>
		<text transform="matrix(1 0 0 1 210.5825 350.0589)" class="st14 st17">small</text>
		<text transform="matrix(1 0 0 1 215.6225 359.9589)" class="st14 st17">...</text>
	</g>
	<text transform="matrix(1 0 0 1 212.4479 373.557)" class="st14 st17">size</text>
</g>
<path class="st16" d="M200.5,329.6h40.5c2.2,0,4,1.8,4,4v40.5c0,2.2-1.8,4-4,4h-40.5c-2.2,0-4-1.8-4-4v-40.5
	C196.5,331.4,198.3,329.6,200.5,329.6z"/>
<g transform="translate(2.3760000000000012,2.4750000000000014)">
	<ellipse class="st16" cx="218.4" cy="351.4" rx="24.8" ry="24.8"/>
	<text transform="matrix(1 0 0 1 215.2501 373.557)" class="st14 st17">fill</text>
	<g>
		<rect x="202.8" y="341" class="st32" width="10.4" height="10.4"/>
		<rect x="213.2" y="341" class="st33" width="10.4" height="10.4"/>
		<rect x="223.6" y="341" class="st34" width="10.4" height="10.4"/>
		<rect x="202.8" y="351.4" class="st35" width="10.4" height="10.4"/>
		<rect x="213.2" y="351.4" class="st36" width="10.4" height="10.4"/>
	</g>
</g>
<path class="st37" d="M52.2,412.6h280c2.2,0,4,1.8,4,4v239.5c0,2.2-1.8,4-4,4h-280c-2.2,0-4-1.8-4-4V416.6
	C48.2,414.4,50,412.6,52.2,412.6z"/>
<path class="st1" d="M49.2,409.6h280c2.2,0,4,1.8,4,4v239.5c0,2.2-1.8,4-4,4h-280c-2.2,0-4-1.8-4-4V413.6
	C45.2,411.4,47,409.6,49.2,409.6z"/>
<line class="st5" x1="70" y1="477.7" x2="127.1" y2="462.7"/>
<line class="st5" x1="70" y1="514.8" x2="127.1" y2="509.8"/>
<line class="st5" x1="70" y1="551.9" x2="127.1" y2="556.9"/>
<line class="st5" x1="70" y1="589" x2="127.1" y2="604"/>
<path class="st5" d="M128.1,441.5h40.4c0.6,0,1,0.4,1,1v40.4c0,0.6-0.4,1-1,1h-40.4c-0.6,0-1-0.4-1-1v-40.4
	C127.1,441.9,127.5,441.5,128.1,441.5z"/>
<path class="st38" d="M170.7,455.6L170.7,455.6h-0.1H170.7z"/>
<path class="st38" d="M151.3,444.1l-0.2,0l-0.7-0.2l-0.7-0.1l-0.5,0l-0.8,0.2l-0.8,0.3l-0.8,0.3l-0.8,0.4l-0.8,0.5l-0.8,0.5
	l-0.9,0.7l-0.7,0.7l-0.6,0.6l-0.5,0.7l-0.4,1l0,0.8l0.2,0.7l0.4,0.7l0.4,0.5l0.6,0.5l0.6,0.6l0.6,0.6l0.8,0.7l0.7,0.6l1,0.6l0.8,0.4
	l1.8,0.7l2,0.3h1.9l0.9-0.1l0.8-0.3l0.7-0.4l0.4-0.5l0.2-0.5l-0.1-0.7l-0.3-0.5l-0.7-0.4l-1-0.3l-1-0.3h-1.1l-1.4,0.1l-1.3,0.2
	l-1.4,0.2l-1.8,0.7l-1.4,0.7l-1.8,1.2l-1.2,1l-1,1.2l-0.8,1.3l-0.6,1.4l-0.3,1.2l-0.1,1.3l0.2,1l0.7,0.9l1,0.9l1.2,0.8l1.4,0.7
	l1.5,0.5l1.4,0.4l1.4,0.3l1.2,0.2l1.4,0.1l1.3-0.1l1.4-0.3l1.2-0.3l1.4-0.6l1-0.6l0.5-0.9l0-0.8l-0.6-0.6l-1-0.4l-1.4-0.1l-1.7,0.1
	l-1.7,0.4l-2,0.7l-2,1.1l-2,1.3l-1.7,1.6l-1.3,1.6l-0.8,1.8l-0.3,1.8l0.1,2l0.6,1.7l0.9,1.1l1,0.4h1.3h1.4l1.2,0.2l3.6-0.1l0.9,0
	l1-0.1l0.7-0.2l0.5-0.2l0.3,0l0.2-0.1h0.1v0l0,0l0,0V480l0,0v0v0l0,0l0,0l0,0l0,0l0,0l0,0l0,0l0,0l0,0l0,0l0,0l0,0h0v0l0,0l0,0l0,0
	l0,0v0l0,0l0,0h0l0,0h0l0,0l0,0l0,0l0,0l0,0l0,0"/>
<circle class="st13" cx="127.1" cy="454.9" r="5"/>
<path class="st5" d="M128.1,488.6h40.4c0.6,0,1,0.4,1,1V530c0,0.6-0.4,1-1,1h-40.4c-0.6,0-1-0.4-1-1v-40.4
	C127.1,489,127.5,488.6,128.1,488.6z"/>
<g transform="rotate(0,347.9045104980469,381.18182373046875)">
	<g transform="translate(417.69268798828125,0.243896484375)">
		<path class="st38" d="M-269.2,493.2"/>
	</g>
	<g transform="translate(114.435546875,0)">
		<path class="st38" d="M34.1,493.5l-0.3,0.1l-2.4,0.7l-1.3,0.5l-1.6,0.7l-1.4,0.7l-1.4,0.7l-1,0.6l-0.6,0.4l-0.1,0.3l0.3,0.1H25
			l1,0.1l1.3,0.2l1.5,0.3l1.7,0.2l2,0.3l2.5,0.3l2.4,0.3l2.1,0.3l1.8,0.2l1.3,0.3l0.9,0.2l0.2,0.2l-0.4,0.3l-1.1,0.5l-1.9,0.8
			l-2.4,1l-2.9,1.3l-3,1.3l-3.1,1.6l-3.3,1.8l-2.6,1.6l-1.6,0.9l-0.6,0.3h0.3h1.5l2.4,0l3.4,0.1l3.9,0l6.1-0.3l2.7,0l2,0.1l1.5,0.2
			l1.2,0.1l0.4,0.1v0.1l-0.4,0.2l-0.6,0.3l-1.1,0.6l-1.7,1l-2.3,1.5l-2.8,2l-3.1,2.4l-2.5,2l-2.3,1.8l-1.7,1.2l-0.6,0.3l0,0h0.2
			l0.3,0h0.8h1.8l8.7,0.2l2.2,0l1,0l0.5,0h0l0,0h0.1l0,0l0,0v0h0l0,0l0,0"/>
	</g>
</g>
<circle class="st13" cx="127.1" cy="502.1" r="5"/>
<path class="st5" d="M128.1,535.7h40.4c0.6,0,1,0.4,1,1v40.4c0,0.6-0.4,1-1,1h-40.4c-0.6,0-1-0.4-1-1v-40.4
	C127.1,536.2,127.5,535.7,128.1,535.7z"/>
<g transform="translate(51.1861572265625,197.27838134765625)">
	<path class="st38" d="M81.4,373.2"/>
</g>
<g transform="translate(51.01312255859375,42.01470947265625)">
	<path class="st38" d="M79.7,520.2L79.7,520.2V520l0.1-0.3l0.1-0.2l0.1-0.3l0.1-0.3l0.1-0.4l0.1-0.3l0.2-0.3l0.2-0.5l0.2-0.3
		l0.2-0.3l0.2-0.3l0.2-0.3l0.3-0.4l0.2-0.3l0.3-0.3l0.3-0.3l0.2-0.3l0.4-0.3l0.3-0.2l0.4-0.2l0.3-0.2l0.3-0.1H85l0.3,0.1l0.3,0.1
		l0.3,0.2l0.3,0.3l0.3,0.3l0.2,0.3l0.2,0.4l0.3,0.4l0.2,0.3l0.2,0.5l0.2,0.5l0.1,0.4l0.2,0.5l0.1,0.4l0.2,0.5l0.2,0.5l0.2,0.4
		l0.3,0.4l0.3,0.4l0.3,0.3l0.4,0.4l0.4,0.3L91,522l0.4,0.2l0.3,0.2l0.3,0.1l0.4,0l0.3,0l0.3-0.2l0.4-0.2l0.2-0.2l0.3-0.3l0.3-0.3
		l0.2-0.3l0.3-0.4l0.4-0.7l0.3-0.5l0.3-0.5l0.3-0.5l0.3-0.5l0.3-0.5l0.4-0.4l0.4-0.5L98,516l0.5-0.5l0.4-0.3l0.3-0.2l0.3-0.2
		l0.3-0.1l0.3,0l0.3,0l0.3,0l0.3,0.1l0.2,0.1l0.3,0.1l0.2,0.2l0.3,0.2l0.3,0.3l0.2,0.3l0.2,0.3l0.2,0.3l0.2,0.5l0.2,0.4l0.2,0.4
		l0.3,0.5l0.2,0.4l0.3,0.4l0.3,0.4l0.3,0.4l0.3,0.4l0.3,0.4l0.3,0.5l0.3,0.4l0.2,0.3l0.3,0.4l0.2,0.3l0.2,0.3l0.3,0.3l0.3,0.3
		l0.3,0.3l0.4,0.3l0.2,0.2l0.4,0.1l0.2,0l0.4,0.1h0.3h0.3l0.3,0l0.3-0.1l0.3-0.1l0.3-0.3l0.3-0.3l0.2-0.2l0.2-0.3l0.3-0.4l0.2-0.4
		l0.2-0.3l0.3-0.4l0.3-0.4l0.2-0.3l0.3-0.4l0.2-0.3l0.2-0.3l0.1-0.3l0.2-0.3l0.1-0.3l0-0.4l0-0.4v-0.3l-0.1-0.3l0-0.3l0-0.2v-0.1
		v-0.1v0"/>
</g>
<circle class="st13" cx="127.1" cy="549.2" r="5"/>
<path class="st5" d="M128.1,582.8h40.4c0.6,0,1,0.4,1,1v40.4c0,0.6-0.4,1-1,1h-40.4c-0.6,0-1-0.4-1-1v-40.4
	C127.1,583.3,127.5,582.8,128.1,582.8z"/>
<circle class="st13" cx="127.1" cy="596.3" r="5"/>
<text transform="matrix(1 0 0 1 307.9795 651.648)" class="st14 st15">Layout</text>
<circle class="st39" cx="45.2" cy="510" r="17.8"/>
<ellipse class="st4" cx="45.2" cy="589" rx="18.6" ry="18.6"/>
<text transform="matrix(1 0 0 1 41.2789 591.3975)" class="st14 st17">fur</text>
<ellipse class="st40" cx="45.2" cy="477.7" rx="18.6" ry="18.6"/>
<text transform="matrix(1 0 0 1 33.2497 478.7995)" class="st14 st17">medium</text>
<text transform="matrix(1 0 0 1 41.2789 480.0225)" class="st41 st14 st17">fur</text>
<ellipse class="st40" cx="45.2" cy="514.8" rx="18.6" ry="18.6"/>
<text transform="matrix(1 0 0 1 37.7302 515.9244)" class="st14 st17">short</text>
<text transform="matrix(1 0 0 1 41.2789 517.1475)" class="st41 st14 st17">fur</text>
<ellipse class="st40" cx="45.2" cy="551.9" rx="18.6" ry="18.6"/>
<text transform="matrix(1 0 0 1 38.8475 553.0494)" class="st14 st17">long</text>
<text transform="matrix(1 0 0 1 41.2789 554.2725)" class="st41 st14 st17">fur</text>
</svg>
