<?xml version="1.0" encoding="utf-8"?>
<!-- Generator: Adobe Illustrator 21.0.0, SVG Export Plug-In . SVG Version: 6.00 Build 0)  -->
<svg version="1.1" id="Layer_1" xmlns="http://www.w3.org/2000/svg" xmlns:xlink="http://www.w3.org/1999/xlink" x="0px" y="0px"
	 viewBox="0 0 1366 914" style="enable-background:new 0 0 1366 914;" xml:space="preserve">
<style type="text/css">
	.st0{fill:#F0F8FF;stroke:#708090;stroke-width:0.5;}
	.st1{fill:none;stroke:#0000FF;stroke-width:0.5;}
	.st2{fill:#FFFFFF;fill-opacity:0;}
	.st3{fill:#FFFFFF;stroke:#708090;}
	.st4{fill:none;stroke:#708090;stroke-dasharray:2,2.5;}
	.st5{fill:none;stroke:#708090;stroke-width:1.5;}
	.st6{fill:none;stroke:#000000;}
	.st7{fill:none;stroke:url(#SVGID_1_);}
	.st8{fill:none;stroke:url(#SVGID_2_);}
	.st9{fill:none;stroke:url(#SVGID_3_);}
	.st10{fill:none;stroke:url(#SVGID_4_);}
	.st11{fill:none;stroke:#1E90FF;}
	.st12{fill:#FFFFFF;fill-opacity:0.8;stroke:#B0C4DE;stroke-width:2.5;}
	.st13{font-family:'ArialMT';}
	.st14{font-size:8.4px;}
	.st15{fill:#708090;}
	.st16{fill:#F0F8FF;fill-opacity:0;}
	.st17{font-size:6.72px;}
	.st18{fill:none;stroke:#686B70;stroke-width:0.495;}
	.st19{fill:#7A387F;}
	.st20{fill:#7F7E3B;}
	.st21{fill:#4C3B7F;}
	.st22{fill:#AD93F9;}
	.st23{fill:#D0C7EB;}
	.st24{fill:#E9C7EB;}
	.st25{fill:#5D0763;}
	.st26{fill:#3B7F4F;}
	.st27{fill:#A008AB;}
	.st28{fill:#08AB33;}
	.st29{fill:#0808AB;}
	.st30{fill:#EC2B2B;}
	.st31{fill:#AB7A08;}
	.st32{fill:#77AB08;}
	.st33{fill:#AB0808;}
	.st34{fill:none;stroke:#1E90FF;stroke-width:0.6501;}
	.st35{fill:none;stroke:#1E90FF;stroke-width:0.6765;}
	.st36{fill:none;stroke:#1E90FF;stroke-width:0.5;stroke-dasharray:3,3;}
	.st37{fill:none;stroke:#1E90FF;stroke-width:0.8;}
	.st38{fill:none;stroke:#1A1A18;stroke-width:2;}
	.st39{fill:none;stroke:#DA8CEF;stroke-width:2;}
	.st40{fill:#1A1A18;}
	.st41{fill:#DA8CEF;}
	.st42{fill:none;stroke:#0000FF;stroke-width:0.5;stroke-dasharray:2,2;}
	.st43{fill:#F0F8FF;}
	.st44{opacity:0;enable-background:new    ;}
</style>
<path class="st0" d="M177.4,858.6h23.7c1.7,0,3,1.3,3,3v23.7c0,1.7-1.3,3-3,3h-23.7c-1.7,0-3-1.3-3-3v-23.7
	C174.4,859.9,175.7,858.6,177.4,858.6z"/>
<path class="st1" d="M189.2,0v858.6"/>
<path class="st2" d="M52.2,11.4h280c2.2,0,4,1.8,4,4V519c0,2.2-1.8,4-4,4h-280c-2.2,0-4-1.8-4-4V15.4C48.2,13.2,50,11.4,52.2,11.4z"
	/>
<path class="st3" d="M49.2,8.4h280c2.2,0,4,1.8,4,4V516c0,2.2-1.8,4-4,4h-280c-2.2,0-4-1.8-4-4V12.4C45.2,10.2,47,8.4,49.2,8.4z"/>
<line class="st4" x1="45.2" y1="8.4" x2="45.2" y2="8.4"/>
<path class="st5" d="M107,230.7h65c0.6,0,1,0.4,1,1v65c0,0.6-0.4,1-1,1h-65c-0.6,0-1-0.4-1-1v-65C106,231.2,106.4,230.7,107,230.7z"
	/>
<path class="st6" d="M143.7,272.5L143.7,272.5L143.7,272.5L143.7,272.5c-0.7,0-1.3,0-2,0c-0.3-2-1.7-5.7-2.5-7.1
	c-0.3-0.6-1-1.4-1.5-2c-1-1.4-2.2-2.4-4-2c-3.6,0-5.4,0.3-7.1,3c-1.7,2.9-3.6,4.9-4,8.6c-0.2,1.5,0,3.1,0,4.5c0,0.7-0.2,1.6,0,2.3
	c0.3,1.1,0.6,0.3,1,1c0.9,1.4,2,2.5,3,3.3c1.1,0.9,2.1,2.5,4,2.5c0.7,0,1.3,0,2,0c0.3,0,0.7,0,1,0s0.7,0,1,0s0.7,0,1,0s0.7,0,1,0
	s0.7,0,1,0l0,0c1.2-0.6,1.5-1,3-2c2.1-1,3-1.8,3-5c0-0.3,0-0.7,0-1c0.8-0.5,1.1-1.1,1-2c-1.3-2.6-3-5.2-3-9.1c-0.3-0.3-0.7-0.7-1-1
	c0.2-0.9-0.1-1.2-1-1l0,0l0,0"/>
<linearGradient id="SVGID_1_" gradientUnits="userSpaceOnUse" x1="0.5176" y1="767.7112" x2="0.5176" y2="766.1697" gradientTransform="matrix(15.3802 0 0 -12.3726 134.7027 9744.1074)">
	<stop  offset="0" style="stop-color:#7F7E3B"/>
	<stop  offset="6.239999e-02" style="stop-color:#7F7E3B"/>
	<stop  offset="6.250000e-02" style="stop-color:#3B7F4F"/>
	<stop  offset="0.1249" style="stop-color:#3B7F4F"/>
	<stop  offset="0.125" style="stop-color:#4C3B7F"/>
	<stop  offset="0.1874" style="stop-color:#4C3B7F"/>
	<stop  offset="0.1875" style="stop-color:#AD93F9"/>
	<stop  offset="0.2499" style="stop-color:#AD93F9"/>
	<stop  offset="0.25" style="stop-color:#D0C7EB"/>
	<stop  offset="0.3124" style="stop-color:#D0C7EB"/>
	<stop  offset="0.3125" style="stop-color:#E9C7EB"/>
	<stop  offset="0.3749" style="stop-color:#E9C7EB"/>
	<stop  offset="0.375" style="stop-color:#5D0763"/>
	<stop  offset="0.4374" style="stop-color:#5D0763"/>
	<stop  offset="0.4375" style="stop-color:#7A387F"/>
	<stop  offset="0.4999" style="stop-color:#7A387F"/>
	<stop  offset="0.5" style="stop-color:#A008AB"/>
	<stop  offset="0.5624" style="stop-color:#A008AB"/>
	<stop  offset="0.5625" style="stop-color:#08AB33"/>
	<stop  offset="0.6249" style="stop-color:#08AB33"/>
	<stop  offset="0.625" style="stop-color:#0808AB"/>
	<stop  offset="0.6874" style="stop-color:#0808AB"/>
	<stop  offset="0.6875" style="stop-color:#EC2B2B"/>
	<stop  offset="0.7499" style="stop-color:#EC2B2B"/>
	<stop  offset="0.75" style="stop-color:#AB7A08"/>
	<stop  offset="0.8124" style="stop-color:#AB7A08"/>
	<stop  offset="0.8125" style="stop-color:#77AB08"/>
	<stop  offset="0.8749" style="stop-color:#77AB08"/>
	<stop  offset="0.875" style="stop-color:#08AB33"/>
	<stop  offset="0.9374" style="stop-color:#08AB33"/>
	<stop  offset="0.9375" style="stop-color:#AB0808"/>
	<stop  offset="0.9999" style="stop-color:#AB0808"/>
</linearGradient>
<path class="st7" d="M138.8,254.3L138.8,254.3L138.8,254.3L138.8,254.3L138.8,254.3L138.8,254.3L138.8,254.3L138.8,254.3
	c-0.1-1.4-0.3-2.7-0.1-4.1c0.4-0.3,0.8-0.7,1.1-1c-0.1-0.6-0.1-1.2-0.1-1.8c0.5-1.1,0.9,0.5,1.2-1.5c0.2-1.2-0.2-2.6-0.2-3.8
	c0.3,0,0.7,0,1,0l0,0l0,0l0,0l0,0l0,0l0,0c0.4,0,0.7,0,1.1-0.1c0,0,0.9,2.9,1,3.1c0.4,0.8,0.7,0.8,1,1.5c1,2.3,2,3.4,2,6.6l0,0l0,0
	l0,0l0,0l0,0l0,0l0,0l0,0l0,0l0,0l0,0l0,0l0,0l0,0l0,0c-2.2-2.8-7.6-6.1-11.2-6.1l0,0c-0.3,0-0.7,0-1,0c3.1,0,6.3,0,9.4-0.9
	c2-0.6,3.8-2.1,5.9-2.1l0,0l0,0l0,0l0,0c-1.4,0-3.8,1.2-5.1,2c-1.3,0.8-1.4,2.6-2,3.1c0.1-0.1-3.1,2-3.1,2c-2.2,0,0,2.7,0,3.1
	C139.5,254.3,139.2,254.3,138.8,254.3"/>
<linearGradient id="SVGID_2_" gradientUnits="userSpaceOnUse" x1="0.5" y1="768" x2="0.5" y2="767" gradientTransform="matrix(4.3861 0 0 -4.7007 152.4136 3884.2832)">
	<stop  offset="0" style="stop-color:#1A1A18"/>
	<stop  offset="0.4999" style="stop-color:#1A1A18"/>
	<stop  offset="0.5" style="stop-color:#DA8CEF"/>
	<stop  offset="0.9999" style="stop-color:#DA8CEF"/>
</linearGradient>
<path class="st8" d="M155.7,274.4C155.5,274.4,155.7,274.4,155.7,274.4L155.7,274.4C155.7,274.4,155.8,274.4,155.7,274.4
	s-0.9,0-1.1,0s0.2,0,0,0s-0.9,0-1.1,0s0,0,0,0l0,0c0,0,0-0.2,0,0c0,0.2,0,0.9,0,1.1s0,0,0,0s0-0.2,0,0s0,0.9,0,1.1c0,0.2,0-0.2,0,0
	c0,0.2-0.2,0.9,0,1.1s0.9,0,1.1,0s-0.2,0,0,0s0.9,0,1.1,0s0,0,0,0s-0.2,0,0,0s0.9,0,1.1,0s0,0.2,0,0s0-0.9,0-1.1c0-0.2,0,0.2,0,0
	c0-0.2,0-0.9,0-1.1s0.2,0.2,0,0S155.8,274.6,155.7,274.4C155.5,274.2,155.8,274.4,155.7,274.4s-0.9,0-1.1,0s0,0,0,0s0.2,0,0,0
	s-0.9-0.2-1.1,0c-0.2,0.2,0,0.9,0,1.1s0.2-0.2,0,0s-0.9,0.9-1.1,1.1c-0.2,0.2,0,0,0,0s0-0.2,0,0c0,0.2-0.2,0.9,0,1.1s0.9,0,1.1,0
	s0-0.2,0,0s-0.2,0.9,0,1.1c0.2,0.2,0.9,0,1.1,0s0,0,0,0s-0.2,0.2,0,0c0.2-0.2,0.9-0.9,1.1-1.1s0,0,0,0s0,0.2,0,0s0-0.7,0-1.1
	c0-0.4,0-0.9,0-1.1s0.2,0,0,0s-0.9,0-1.1,0s0,0,0,0l0,0c0,0,0.2,0,0,0s-0.9,0-1.1,0s0,0,0,0s0-0.2,0,0s-0.2,0.9,0,1.1
	c0.2,0.2,0.9-0.2,1.1,0c0.2,0.2-0.2,0.9,0,1.1s0.7,0,1.1,0s0.9,0,1.1,0s0,0.2,0,0s0-0.9,0-1.1c0-0.2,0,0.2,0,0c0-0.2,0-0.9,0-1.1
	s0,0.2,0,0s0-0.9,0-1.1c0-0.2,0.2,0,0,0S156,274.4,155.7,274.4s-0.9,0-1.1,0s0.2-0.2,0,0c-0.2,0.2-0.9,0.9-1.1,1.1s0-0.2,0,0
	s0,0.9,0,1.1c0,0.2-0.2,0,0,0s0.9,0,1.1,0s-0.2,0,0,0s0.9,0,1.1,0s0,0.2,0,0c0-0.2,0-0.9,0-1.1s0,0,0,0l0,0l0,0c0,0,0.2,0,0,0
	s-0.9,0-1.1,0s0-0.2,0,0s0,0.9,0,1.1c0,0.2,0,0,0,0l0,0l0,0l0,0c0,0,0.2,0.2,0,0c-0.2-0.2-0.9-0.9-1.1-1.1s0-0.2,0,0s0.2,0.9,0,1.1
	c-0.2,0.2-0.9-0.2-1.1,0c-0.2,0.2,0,0.9,0,1.1s0-0.2,0,0s-0.2,0.9,0,1.1c0.2,0.2,0.9,0.2,1.1,0c0.2-0.2,0-0.9,0-1.1s0,0,0,0l0,0l0,0
	l0,0l0,0l0,0c0,0-0.2,0,0,0s0.5,0.5,1.1,0s1.9-2.7,2.1-3.2C156.9,273.8,155.8,274.4,155.7,274.4"/>
<linearGradient id="SVGID_3_" gradientUnits="userSpaceOnUse" x1="2.1372" y1="763.8018" x2="2.1372" y2="763.8018" gradientTransform="matrix(4.3861 0 0 -4.7007 152.4136 3884.2832)">
	<stop  offset="0" style="stop-color:#1A1A18"/>
	<stop  offset="0.4999" style="stop-color:#1A1A18"/>
	<stop  offset="0.5" style="stop-color:#DA8CEF"/>
	<stop  offset="0.9999" style="stop-color:#DA8CEF"/>
</linearGradient>
<path class="st9" d="M161.8,293.9"/>
<linearGradient id="SVGID_4_" gradientUnits="userSpaceOnUse" x1="2.7074" y1="764.2403" x2="2.7074" y2="764.2403" gradientTransform="matrix(4.3861 0 0 -4.7007 152.4136 3884.2832)">
	<stop  offset="0" style="stop-color:#1A1A18"/>
	<stop  offset="0.4999" style="stop-color:#1A1A18"/>
	<stop  offset="0.5" style="stop-color:#DA8CEF"/>
	<stop  offset="0.9999" style="stop-color:#DA8CEF"/>
</linearGradient>
<path class="st10" d="M164.3,291.8"/>
<path class="st11" d="M152.3,253.9L152.3,253.9L152.3,253.9L152.3,253.9L152.3,253.9L152.3,253.9L152.3,253.9c0,0.3,0,0.7,0,1l0,0
	l0,0l0,0l0,0l0,0l0,0l0,0l0,0l0,0l0,0l0,0l0,0l0,0l0,0l0,0l0,0c0,1.4,0,2.7,0,4.1l0,0l0,0l0,0l0,0l0,0c0,0.3,0,0.7,0,1l0,0l0,0l0,0
	c0,2,0,4.1,0,6.1l0,0l0,0l0,0l0,0l0,0l0,0l0,0l0,0l0,0c4.1,0,8.3,0,12.4,0 M150.3,253.9c-0.7,2.6,7.6,2.1,9.3,2.1l0,0l0,0
	 M152.3,259.9L152.3,259.9c-0.4,1,0,1.4,1,1.1c0.3,0,0.7,0,1,0c1.4,0,2.8,0,4.1,0l0,0l0,0c-0.3,0.4-0.7,0.7-1,1.1"/>
<path class="st11" d="M111.8,296.5h-1.1l0,0c0,0.4,0,0.7,0,1.1c4.1-3.4,8.6-6.6,12.5-10.4c1.5-1.4,5.9-5,5.9-6.8l0,0l0,0l0,0l0,0
	l0,0l0,0l0,0l0,0l0,0l0,0l0,0l0,0l0,0l0,0l0,0l0,0l0,0l0,0l0,0l0,0l0,0c0.4,0.4,0.7,0.7,1.1,1.1c0-0.4,0-0.7,0-1.1 M118.3,280.5
	L118.3,280.5L118.3,280.5c-0.3,0.3-0.7,0.7-1,1l0,0l0,0l0,0c3-0.8,6.3-1.6,9.2-3.1c0.3,0,0.7,0,1,0l0,0l0,0l0,0l0,0l0,0
	c0.3,0,0.7,0,1,0c-0.8,1.4-0.9,2.8-1,4.4c-0.1,0.9-0.2,2.2,0,3.1c0.2,0.9,1.3,0.7,1,1.8l0,0l0,0l0,0l0,0l0,0l0,0l0,0l0,0l0,0l0,0
	l0,0l0,0l0,0c-2.5-0.9-5.5-5.1-9.2-5.1l0,0l0,0l0,0l0,0l0,0l0,0l0,0l0,0l0,0c2.4,0,7.1,0.8,7.1-2l0,0c-0.8,0.5-1.1,1.1-1,2l0,0l0,0
	c0.3-0.7,0.7-1.4,1-2c-1.1,0.4-1.5,1-2,2c3.4-1.2-3.1-3.9-3.1,0c1.8,0,3.3-1.1,5.1-1c-1.1-0.2-2.4,0-3.1,1c1.5-2.2,3.7,0.3,4.1,2
	c0-1,0-2,0-3.1c0,1.4,0,2.7,0,4.1c-1-0.7-1.2-2-1-3.1c-0.2,1.7,0.8,2.5,1,4.1c0-1.7,0-3.4,0-5.1c0,1.7,0,3.4,0,5.1
	c0.2-1.7-0.8-2.5-1-4.1c0,1,0,2,0,3.1c0-1.4,0-2.7,0-4.1l0,0l0,0l0,0l0,0l0,0l0,0l0,0l0,0l0,0l0,0l0,0l0,0c-1.2,0-2.5,0.2-3.5,0.4
	c-1.1,0.2-1.1,1-2.6,0.6l0,0l0,0l0,0c2.6,0,5.2,0.1,7.1-2c-1.5,0.3-2,1-3.1,2"/>
<path class="st11" d="M154.4,287.4L154.4,287.4L154.4,287.4L154.4,287.4L154.4,287.4c0,0.3,0,0.7,0,1c-0.3,0-0.7,0-1,0l0,0l0,0l0,0
	l0,0l0,0c0,1.7,0,3.4,0,5.1l0,0c0.3,0,0.7,0,1,0l0,0l0,0l0,0c0-0.3,0-0.7,0-1l0,0l0,0l0,0l0,0l0,0l0,0l0,0c0,1.7,0,3.4,0,5.1l0,0
	l0,0l0,0l0,0l0,0l0,0l0,0l0,0l0,0l0,0l0,0c-0.4-1.8-0.8-2.6-1-4.6c-0.2-1.8-0.1-3-1-4.6l0,0l0,0c0.3-0.3,0.7-0.7,1-1l0,0
	c0.7,0,1.3,0,2,0c0.3,0,0.7,0,1,0c4.2,0,5.1,2,1,4.1c-0.3,0-0.7,0-1,0l0,0l0,0c-0.3,0-0.7,0-1,0l0,0l0,0l0,0l0,0l0,0l0,0l0,0l0,0
	c0.9-0.2,1.2,0.1,1,1c3,0,6-1.8,6-5.1l0,0l0,0c0,3.8,1,7.5,1,11.2l0,0l0,0c0-2.2-0.9-8.2,3-6.1c2,1,2,4.3,2,6.1
	c-0.2-0.9,0.1-1.2,1-1 M164.5,293.8c-0.8,0.2-2-1.7-2-2.5c-0.1-1.7,1.3-1.7,1-2.9"/>
<circle class="st12" cx="122.3" cy="241.9" r="5"/>
<text transform="matrix(1 0 0 1 311.2567 514.533)" class="st13 st14">Glyph</text>
<line class="st4" x1="142.4" y1="248.2" x2="193.7" y2="55.7"/>
<line class="st4" x1="157.5" y1="260" x2="193.7" y2="130.3"/>
<line class="st4" x1="154.6" y1="276.4" x2="193.7" y2="264.2"/>
<line class="st4" x1="133.5" y1="285.8" x2="189.2" y2="465.6"/>
<line class="st4" x1="160.9" y1="293" x2="189.7" y2="394.7"/>
<rect x="243.2" y="47.6" class="st15" width="0" height="0.6"/>
<rect x="263" y="47.6" class="st15" width="0" height="0.6"/>
<rect x="243.2" y="48.6" class="st15" width="0" height="0.6"/>
<rect x="263" y="48.6" class="st15" width="0" height="0.6"/>
<rect x="243.2" y="49.7" class="st15" width="0" height="0.6"/>
<rect x="263" y="49.7" class="st15" width="0" height="0.6"/>
<rect x="243.2" y="50.8" class="st15" width="0" height="0.6"/>
<rect x="263" y="50.8" class="st15" width="0" height="0.6"/>
<rect x="243.2" y="51.9" class="st15" width="0" height="0.6"/>
<rect x="263" y="51.9" class="st15" width="0" height="0.6"/>
<rect x="243.2" y="53" class="st15" width="0" height="0.6"/>
<rect x="263" y="53" class="st15" width="0" height="0.6"/>
<rect x="243.2" y="54.1" class="st15" width="0" height="0.6"/>
<rect x="263" y="54.1" class="st15" width="0" height="0.6"/>
<rect x="243.2" y="55.2" class="st15" width="0" height="0.6"/>
<rect x="263" y="55.2" class="st15" width="0" height="0.6"/>
<rect x="243.2" y="56.3" class="st15" width="0" height="0.6"/>
<rect x="263" y="56.3" class="st15" width="0" height="0.6"/>
<rect x="243.2" y="57.4" class="st15" width="0" height="0.6"/>
<rect x="263" y="57.4" class="st15" width="0" height="0.6"/>
<rect x="243.2" y="58.5" class="st15" width="0" height="0.6"/>
<rect x="263" y="58.5" class="st15" width="0" height="0.6"/>
<rect x="243.2" y="59.5" class="st15" width="0" height="0.6"/>
<rect x="263" y="59.5" class="st15" width="0" height="0.6"/>
<rect x="243.2" y="60.6" class="st15" width="0" height="0.6"/>
<rect x="263" y="60.6" class="st15" width="0" height="0.6"/>
<rect x="243.2" y="61.7" class="st15" width="0" height="0.6"/>
<rect x="263" y="61.7" class="st15" width="0" height="0.6"/>
<rect x="243.2" y="62.8" class="st15" width="0" height="0.6"/>
<rect x="263" y="62.8" class="st15" width="0" height="0.6"/>
<rect x="243.2" y="63.9" class="st15" width="0" height="0.6"/>
<rect x="263" y="63.9" class="st15" width="0" height="0.6"/>
<path class="st16" d="M265.1,31.5h40.5c2.2,0,4,1.8,4,4V76c0,2.2-1.8,4-4,4h-40.5c-2.2,0-4-1.8-4-4V35.5
	C261.1,33.3,262.9,31.5,265.1,31.5z"/>
<ellipse class="st16" cx="285.3" cy="55.7" rx="24.8" ry="24.8"/>
<text transform="matrix(1 0 0 1 280.3037 44.4819)" class="st13 st17">St3</text>
<text transform="matrix(1 0 0 1 276.9421 54.382)" class="st13 st17">Kevin</text>
<text transform="matrix(1 0 0 1 282.5465 64.282)" class="st13 st17">...</text>
<text transform="matrix(1 0 0 1 275.0734 77.88)" class="st13 st17">person</text>
<path class="st16" d="M200.5,31.5h40.5c2.2,0,4,1.8,4,4V76c0,2.2-1.8,4-4,4h-40.5c-2.2,0-4-1.8-4-4V35.5
	C196.5,33.3,198.3,31.5,200.5,31.5z"/>
<circle class="st16" cx="220.8" cy="55.7" r="24.8"/>
<text transform="matrix(1 0 0 1 211.6492 77.88)" class="st13 st17">stroke</text>
<line class="st18" x1="201" y1="48.9" x2="240.6" y2="48.9"/>
<rect x="203.4" y="34.2" class="st19" width="2.2" height="29.4"/>
<rect x="205.7" y="34.2" class="st20" width="2.2" height="29.4"/>
<rect x="208" y="34.2" class="st21" width="2.2" height="29.4"/>
<rect x="210.3" y="34.2" class="st22" width="2.2" height="29.4"/>
<rect x="212.7" y="34.2" class="st23" width="2.2" height="29.4"/>
<rect x="215" y="34.2" class="st24" width="2.2" height="29.4"/>
<rect x="217.3" y="34.2" class="st25" width="2.2" height="29.4"/>
<rect x="219.6" y="34.2" class="st26" width="2.2" height="29.4"/>
<rect x="221.9" y="34.2" class="st27" width="2.2" height="29.4"/>
<rect x="224.2" y="34.2" class="st28" width="2.2" height="29.4"/>
<rect x="226.5" y="34.2" class="st29" width="2.2" height="29.4"/>
<rect x="228.8" y="34.2" class="st30" width="2.2" height="29.4"/>
<rect x="231.1" y="34.2" class="st31" width="2.2" height="29.4"/>
<rect x="233.4" y="34.2" class="st32" width="2.2" height="29.4"/>
<rect x="235.8" y="34.2" class="st33" width="2.2" height="29.4"/>
<rect x="243.2" y="170.8" class="st15" width="0" height="1.8"/>
<rect x="263" y="170.8" class="st15" width="0" height="1.8"/>
<path class="st16" d="M265.1,157.8h40.5c2.2,0,4,1.8,4,4v21.1c0,2.2-1.8,4-4,4h-40.5c-2.2,0-4-1.8-4-4v-21.1
	C261.1,159.6,262.9,157.8,265.1,157.8z"/>
<ellipse class="st16" cx="285.3" cy="172.3" rx="24.8" ry="14.9"/>
<text transform="matrix(1 0 0 1 274.3269 173.47)" class="st13 st17">English</text>
<path class="st16" d="M200.5,157.8h40.5c2.2,0,4,1.8,4,4v21.1c0,2.2-1.8,4-4,4h-40.5c-2.2,0-4-1.8-4-4v-21.1
	C196.5,159.6,198.3,157.8,200.5,157.8z"/>
<ellipse class="st16" cx="220.8" cy="172.3" rx="24.8" ry="14.9"/>
<path class="st34" d="M215.7,162.9L215.7,162.9L215.7,162.9L215.7,162.9L215.7,162.9L215.7,162.9L215.7,162.9c0,0.3,0,0.7,0,1l0,0
	l0,0l0,0l0,0l0,0l0,0l0,0l0,0l0,0l0,0l0,0l0,0l0,0l0,0l0,0l0,0c0,1.4,0,2.7,0,4.1l0,0l0,0l0,0l0,0l0,0c0,0.3,0,0.7,0,1l0,0l0,0l0,0
	c0,2,0,4.1,0,6.1l0,0l0,0l0,0l0,0l0,0l0,0l0,0l0,0l0,0c4.1,0,8.3,0,12.4,0"/>
<path class="st34" d="M213.7,162.9c-0.7,2.6,7.6,2.1,9.3,2.1l0,0l0,0"/>
<path class="st34" d="M215.7,168.9L215.7,168.9c-0.4,1,0,1.4,1,1.1c0.3,0,0.7,0,1,0c1.4,0,2.8,0,4.1,0l0,0l0,0
	c-0.3,0.4-0.7,0.7-1,1.1"/>
<rect x="243.2" y="200.5" class="st15" width="0" height="1.8"/>
<rect x="263" y="200.5" class="st15" width="0" height="1.8"/>
<path class="st16" d="M265.1,187.5h40.5c2.2,0,4,1.8,4,4v21.1c0,2.2-1.8,4-4,4h-40.5c-2.2,0-4-1.8-4-4v-21.1
	C261.1,189.3,262.9,187.5,265.1,187.5z"/>
<ellipse class="st16" cx="285.3" cy="202" rx="24.8" ry="14.9"/>
<text transform="matrix(1 0 0 1 276.381 203.17)" class="st13 st17">Italian</text>
<path class="st16" d="M200.5,187.5h40.5c2.2,0,4,1.8,4,4v21.1c0,2.2-1.8,4-4,4h-40.5c-2.2,0-4-1.8-4-4v-21.1
	C196.5,189.3,198.3,187.5,200.5,187.5z"/>
<ellipse class="st16" cx="220.8" cy="202" rx="24.8" ry="14.9"/>
<path class="st35" d="M215.5,194.3L215.5,194.3L215.5,194.3c-0.2,0-0.4,0-0.6,0c-0.1,0.6,0.1,0.8,0.6,0.7c1-0.3,1.5-1,2.5-1.3
	c2.3-1.2,5.9-0.7,8.7-0.7c0.2,0,0.4,0,0.6,0c0,0.2,0,0.4,0,0.7c-0.4,0-0.8,0-1.2,0"/>
<path class="st35" d="M220.5,192.9L220.5,192.9L220.5,192.9L220.5,192.9c0-0.2,0-0.4,0-0.6l0,0l0,0l0,0c2.9,2.4,0.2,9.5,0,12.7"/>
<path class="st35" d="M216.8,203.4h-0.6l0,0l0,0l0,0l0,0l0,0h-0.6h-0.6l0,0h-0.6h-0.6l0,0l0,0l0,0l0,0l0,0v0.8l0,0h0.6h0.6h0.6h0.6
	h1.2h0.6h0.6h0.6h0.6h1.2h1.9h0.6h1.2h0.6h1.2h0.6h0.6v-0.8l0,0l0,0l0,0h-0.6"/>
<rect x="243.2" y="122.1" class="st15" width="0" height="1.8"/>
<rect x="263" y="122.1" class="st15" width="0" height="1.8"/>
<rect x="243.2" y="138.4" class="st15" width="0" height="1.8"/>
<rect x="263" y="138.4" class="st15" width="0" height="1.8"/>
<path class="st16" d="M265.1,106h40.5c2.2,0,4,1.8,4,4v40.5c0,2.2-1.8,4-4,4h-40.5c-2.2,0-4-1.8-4-4V110
	C261.1,107.8,262.9,106,265.1,106z"/>
<ellipse class="st16" cx="285.3" cy="130.3" rx="24.8" ry="24.8"/>
<text transform="matrix(1 0 0 1 271.5198 132.618)" class="st13 st17">language</text>
<path class="st16" d="M200.5,106h40.5c2.2,0,4,1.8,4,4v40.5c0,2.2-1.8,4-4,4h-40.5c-2.2,0-4-1.8-4-4V110
	C196.5,107.8,198.3,106,200.5,106z"/>
<ellipse class="st16" cx="220.8" cy="130.3" rx="24.8" ry="24.8"/>
<text transform="matrix(1 0 0 1 211.6443 152.418)" class="st13 st17">shape</text>
<rect x="206.1" y="122.9" class="st36" width="14.7" height="14.7"/>
<path class="st37" d="M208.4,124.3L208.4,124.3L208.4,124.3L208.4,124.3L208.4,124.3L208.4,124.3L208.4,124.3c0,0.3,0,0.7,0,1l0,0
	l0,0l0,0l0,0l0,0l0,0l0,0l0,0l0,0l0,0l0,0l0,0l0,0l0,0l0,0l0,0c0,1.4,0,2.7,0,4.1l0,0l0,0l0,0l0,0l0,0c0,0.3,0,0.7,0,1l0,0l0,0l0,0
	c0,2,0,4.1,0,6.1l0,0l0,0l0,0l0,0l0,0l0,0l0,0l0,0l0,0c4.1,0,8.3,0,12.4,0 M206.4,124.3c-0.7,2.6,7.6,2.1,9.3,2.1l0,0l0,0
	 M208.4,130.3L208.4,130.3c-0.4,1,0,1.4,1,1.1c0.3,0,0.7,0,1,0c1.4,0,2.8,0,4.1,0l0,0l0,0c-0.3,0.4-0.7,0.7-1,1.1"/>
<rect x="220.8" y="122.9" class="st36" width="14.7" height="14.7"/>
<path class="st37" d="M222.9,125.9L222.9,125.9c-0.6-0.2-0.8,0-0.6,0.6c0.2,0.2,5-1.9,5.7-2c2.2-0.3,4.5,0.1,6.7,0.1
	c0.2,0.9-0.2,1.1-1.2,0.7 M227.9,124.6L227.9,124.6L227.9,124.6L227.9,124.6c0-0.2,0-0.4,0-0.6l0,0l0,0l0,0c2.9,2.4,0.2,9.5,0,12.7
	 M224.1,135.1h-0.6l0,0l0,0l0,0c-0.8,0-1.7,0-2.5,0l0,0l0,0l0,0c0.2,1.5,6.4,1,8,1c1.4,0,3,0.1,4.3-0.2c0.4-0.1,3-0.8,1.4-0.8"/>
<rect x="243.2" y="304.8" class="st15" width="0" height="1.8"/>
<rect x="263" y="304.8" class="st15" width="0" height="1.8"/>
<path class="st16" d="M265.1,291.7h40.5c2.2,0,4,1.8,4,4v21.1c0,2.2-1.8,4-4,4h-40.5c-2.2,0-4-1.8-4-4v-21.1
	C261.1,293.5,262.9,291.7,265.1,291.7z"/>
<ellipse class="st16" cx="285.3" cy="306.3" rx="24.8" ry="14.9"/>
<text transform="matrix(1 0 0 1 281.0518 307.408)" class="st13 st17">No</text>
<path class="st16" d="M200.5,291.7h40.5c2.2,0,4,1.8,4,4v21.1c0,2.2-1.8,4-4,4h-40.5c-2.2,0-4-1.8-4-4v-21.1
	C196.5,293.5,198.3,291.7,200.5,291.7z"/>
<circle class="st16" cx="220.8" cy="306.3" r="24.8"/>
<path class="st38" d="M211.4,293.4h18.4v18.4h-18.4V293.4"/>
<rect x="243.2" y="334.5" class="st15" width="0" height="1.8"/>
<rect x="263" y="334.5" class="st15" width="0" height="1.8"/>
<path class="st16" d="M265.1,321.4h40.5c2.2,0,4,1.8,4,4v21.1c0,2.2-1.8,4-4,4h-40.5c-2.2,0-4-1.8-4-4v-21.1
	C261.1,323.2,262.9,321.4,265.1,321.4z"/>
<ellipse class="st16" cx="285.3" cy="336" rx="24.8" ry="14.9"/>
<text transform="matrix(1 0 0 1 279.8657 337.108)" class="st13 st17">Yes</text>
<path class="st16" d="M200.5,321.4h40.5c2.2,0,4,1.8,4,4v21.1c0,2.2-1.8,4-4,4h-40.5c-2.2,0-4-1.8-4-4v-21.1
	C196.5,323.2,198.3,321.4,200.5,321.4z"/>
<circle class="st16" cx="220.8" cy="336" r="24.8"/>
<path class="st39" d="M211.4,323.1h18.4v18.4h-18.4V323.1"/>
<rect x="243.2" y="256" class="st15" width="0" height="1.8"/>
<rect x="263" y="256" class="st15" width="0" height="1.8"/>
<rect x="243.2" y="272.4" class="st15" width="0" height="1.8"/>
<rect x="263" y="272.4" class="st15" width="0" height="1.8"/>
<path class="st16" d="M265.1,239.9h40.5c2.2,0,4,1.8,4,4v40.5c0,2.2-1.8,4-4,4h-40.5c-2.2,0-4-1.8-4-4v-40.5
	C261.1,241.7,262.9,239.9,265.1,239.9z"/>
<ellipse class="st16" cx="285.3" cy="264.2" rx="24.8" ry="24.8"/>
<text transform="matrix(1 0 0 1 276.0086 266.556)" class="st13 st17">meant</text>
<path class="st16" d="M200.5,239.9h40.5c2.2,0,4,1.8,4,4v40.5c0,2.2-1.8,4-4,4h-40.5c-2.2,0-4-1.8-4-4v-40.5
	C196.5,241.7,198.3,239.9,200.5,239.9z"/>
<circle class="st16" cx="220.8" cy="264.2" r="24.8"/>
<text transform="matrix(1 0 0 1 211.6492 286.356)" class="st13 st17">stroke</text>
<line class="st18" x1="201" y1="257.4" x2="240.6" y2="257.4"/>
<rect x="203" y="242.7" class="st40" width="16.5" height="29.4"/>
<rect x="220.4" y="242.7" class="st41" width="16.5" height="29.4"/>
<path class="st16" d="M260.6,441.4h40.5c2.2,0,4,1.8,4,4v40.5c0,2.2-1.8,4-4,4h-40.5c-2.2,0-4-1.8-4-4v-40.5
	C256.6,443.2,258.4,441.4,260.6,441.4z"/>
<ellipse class="st16" cx="280.8" cy="465.6" rx="24.8" ry="24.8"/>
<text transform="matrix(1 0 0 1 266.8394 459.346)" class="st13 st17">Received</text>
<text transform="matrix(1 0 0 1 274.1221 469.246)" class="st13 st17">Said</text>
<text transform="matrix(1 0 0 1 268.1469 487.794)" class="st13 st17">direction</text>
<path class="st16" d="M196,441.4h40.5c2.2,0,4,1.8,4,4v40.5c0,2.2-1.8,4-4,4H196c-2.2,0-4-1.8-4-4v-40.5
	C192,443.2,193.8,441.4,196,441.4z"/>
<ellipse class="st16" cx="216.3" cy="465.6" rx="24.8" ry="24.8"/>
<text transform="matrix(1 0 0 1 207.1443 487.794)" class="st13 st17">shape</text>
<rect x="201.6" y="458.3" class="st36" width="14.7" height="14.7"/>
<path class="st37" d="M203.5,472.1h-0.8l0,0c0,0.3,0,0.5,0,0.8c3.1-2.6,6.6-5,9.5-7.9c1-1,4.4-3.9,4.4-5.1l0,0l0,0l0,0l0,0l0,0l0,0
	l0,0l0,0l0,0l0,0l0,0l0,0l0,0l0,0l0,0l0,0l0,0l0,0l0,0l0,0l0,0c0.3,0.3,0.5,0.5,0.8,0.8c0-0.3,0-0.5,0-0.8 M208.4,459.9L208.4,459.9
	L208.4,459.9c-0.3,0.3-0.5,0.5-0.8,0.8l0,0l0,0l0,0c2.1-1.1,4.9-0.8,6.9-2.3c0.3,0,0.5,0,0.8,0l0,0l0,0l0,0l0,0l0,0
	c0.3,0,0.5,0,0.8,0c-0.8,1.3-1,3-0.8,4.4c0.1,1,0.9,2.1,0.8,2.5l0,0l0,0l0,0l0,0l0,0l0,0l0,0l0,0l0,0l0,0l0,0l0,0l0,0
	c-2-0.7-4-3.9-6.9-3.9l0,0l0,0l0,0l0,0l0,0l0,0l0,0l0,0l0,0c1.8,0,5.4,0.5,5.4-1.5l0,0c-0.6,0.3-0.9,0.9-0.8,1.5l0,0l0,0
	c0.2-0.5,0.5-1,0.8-1.5c-0.8,0.2-1.4,0.7-1.5,1.5c2.3-1.9-2.3-2.2-2.3,0c1.4-0.1,2.5-0.6,3.9-0.8c-0.9-0.2-1.7,0-2.3,0.8
	c1.4-1.5,2.6,0.2,3.1,1.5c0-0.8,0-1.5,0-2.3c0,1,0,2.1,0,3.1c-0.7-0.6-1-1.4-0.8-2.3c0,1.1,0.2,2.1,0.8,3.1c0-1.3,0-2.6,0-3.9
	c0,1.3,0,2.6,0,3.9c0-1.1-0.2-2.1-0.8-3.1c0,0.8,0,1.5,0,2.3c0-1,0-2.1,0-3.1l0,0l0,0l0,0l0,0l0,0l0,0l0,0l0,0l0,0l0,0l0,0l0,0
	c-1.9-0.5-3,1.2-4.6,0.8l0,0l0,0l0,0c2.3,0,3.4-0.3,5.4-1.5c-1,0.2-1.8,0.7-2.3,1.5"/>
<rect x="216.3" y="458.3" class="st36" width="14.7" height="14.7"/>
<path class="st37" d="M229.1,458.8c0-0.2,0-0.3,0-0.5c0,1.1-6.4,7.4-7.8,8.3l0,0c0,0.2,0,0.3,0,0.5c-0.2,0-0.3,0-0.5,0
	c-1.4,0.6-3.5,2.4-3.9,3.9c0,0.2,0,0.3,0,0.5l0,0l0,0l0,0l0,0l0,0l0,0l0,0l0,0l0,0l0,0c0.1-1.7-0.5-3.2-0.5-4.9c0-0.5,0.3-2.1,1-2
	c0,0.9-0.7,7.3,0,7.8c1,0.8,3.4-1,5-1c0.2,0,0.3,0,0.5,0l0,0l0,0c-1.7-1-4.5-3.5-5.9-4.9c2.1,0.7,4.7,3.3,5.4,5.4
	c-0.6-1.7-2-4.9-3.9-5.4c0.1,1.6,0.6,3.2,0.5,4.9c-0.3-0.6-0.4-1.3-0.5-2c0,1,0,2,0,2.9c0.5-1.1,0.6-2.2,0.5-3.4
	c0.1,0.7,0.1,2.4,1,2.4c0-0.8,0-1.6,0-2.4c0,0.9-0.4,4.3,1.5,2.9"/>
<rect x="239.2" y="386.5" class="st15" width="0" height="1.8"/>
<rect x="259" y="386.5" class="st15" width="0" height="1.8"/>
<rect x="239.2" y="394.7" class="st15" width="0" height="1.8"/>
<rect x="259" y="394.7" class="st15" width="0" height="1.8"/>
<rect x="239.2" y="402.8" class="st15" width="0" height="1.8"/>
<rect x="259" y="402.8" class="st15" width="0" height="1.8"/>
<path class="st16" d="M261.1,370.4h40.5c2.2,0,4,1.8,4,4v40.5c0,2.2-1.8,4-4,4h-40.5c-2.2,0-4-1.8-4-4v-40.5
	C257.1,372.2,258.9,370.4,261.1,370.4z"/>
<ellipse class="st16" cx="281.3" cy="394.7" rx="24.8" ry="24.8"/>
<text transform="matrix(1 0 0 1 276.6794 383.434)" class="st13 st17">PH</text>
<text transform="matrix(1 0 0 1 275.8099 393.334)" class="st13 st17">RW</text>
<text transform="matrix(1 0 0 1 278.5465 403.234)" class="st13 st17">...</text>
<text transform="matrix(1 0 0 1 265.8431 416.832)" class="st13 st17">thank type</text>
<path class="st16" d="M196.5,370.4h40.5c2.2,0,4,1.8,4,4v40.5c0,2.2-1.8,4-4,4h-40.5c-2.2,0-4-1.8-4-4v-40.5
	C192.5,372.2,194.3,370.4,196.5,370.4z"/>
<ellipse class="st16" cx="216.8" cy="394.7" rx="24.8" ry="24.8"/>
<text transform="matrix(1 0 0 1 207.6443 416.832)" class="st13 st17">shape</text>
<rect x="202.1" y="380" class="st36" width="14.7" height="14.7"/>
<path class="st37" d="M203.9,380.1L203.9,380.1L203.9,380.1L203.9,380.1L203.9,380.1c0,0.3,0,0.6,0,0.9c-0.3,0-0.6,0-0.9,0l0,0l0,0
	l0,0l0,0l0,0c0,1.5,0,2.9,0,4.4l0,0c0.3,0,0.6,0,0.9,0l0,0l0,0l0,0c0-0.3,0-0.6,0-0.9l0,0l0,0l0,0l0,0l0,0l0,0l0,0
	c0,1.5,0,2.9,0,4.4l0,0l0,0l0,0l0,0l0,0l0,0l0,0l0,0l0,0l0,0l0,0c-0.9-2.3-0.2-5.8-1.7-7.9l0,0l0,0c0.3-0.3,0.6-0.6,0.9-0.9l0,0
	c0.6,0,1.2,0,1.7,0c0.3,0,0.6,0,0.9,0c3.6,0,4.4,1.7,0.9,3.5c-0.3,0-0.6,0-0.9,0l0,0l0,0c-0.3,0-0.6,0-0.9,0l0,0l0,0l0,0l0,0l0,0
	l0,0l0,0l0,0c0.8-0.2,1.1,0.1,0.9,0.9c2.5,0,5.2-1.6,5.2-4.4l0,0l0,0c0,3.3,0.9,6.4,0.9,9.6l0,0l0,0c0-1.9-1.1-6.5,2.2-5.3
	c2,0.7,2.2,3.3,2.2,5.3c-0.2-0.8,0.1-1.1,0.9-0.9 M212.6,385.6c-2.7,0.6-0.9-4.7-0.9-4.6"/>
<rect x="216.8" y="380" class="st36" width="14.7" height="14.7"/>
<path class="st37" d="M219.4,381.3L219.4,381.3L219.4,381.3c-0.2,3-1,5.8-1.8,8.6c-0.2,0-0.4,0-0.6,0c1.5-3.2,1.7-7.3,4.3-9.9
	c3,3-0.9,7-4.3,6.8l0,0l0,0c2,0.3,6.6,2.6,6.1-1.2l0,0l0,0c-1.2,1.8-0.9,3.9,1.2,3.7 M224.8,381.9c-1.4,2.8-1,5.8,0,8.6
	c2.1-1.1,1.8-3.6,1.8-5.5c0.1,2-1.7,5.1,0,6.8c3.2-1.2,4.9-4.9,4.9-8"/>
<rect x="202.1" y="394.7" class="st36" width="14.7" height="14.7"/>
<path class="st37" d="M203.8,395.2h-0.6l0,0c-1.2,1.4-0.6,5.9-0.6,8.1c1.7-2.5,3.5-5,5.2-7.5c4.8,3-2.7,5.8-5.2,5.8l0,0l0,0l0,0l0,0
	l0,0 M210,396.3c0,2.3,1.2,4.6,1.1,6.9c0-1.4-0.2-3,0.5-4.2c2.2,0.4,3.3,2.4,4.2,4.2c0-2.9,0.5-5.7,1.1-8.5"/>
<path class="st2" d="M52.2,531.4h280c2.2,0,4,1.8,4,4v313.8c0,2.2-1.8,4-4,4h-280c-2.2,0-4-1.8-4-4V535.4
	C48.2,533.2,50,531.4,52.2,531.4z"/>
<path class="st3" d="M49.2,528.4h280c2.2,0,4,1.8,4,4v313.8c0,2.2-1.8,4-4,4h-280c-2.2,0-4-1.8-4-4V532.4
	C45.2,530.2,47,528.4,49.2,528.4z"/>
<line class="st4" x1="70" y1="596.5" x2="128.1" y2="579.8"/>
<line class="st4" x1="70" y1="633.6" x2="128.1" y2="623.6"/>
<line class="st4" x1="70" y1="670.7" x2="128.1" y2="667.4"/>
<line class="st4" x1="70" y1="707.8" x2="128.1" y2="711.2"/>
<line class="st4" x1="70" y1="745" x2="128.1" y2="755"/>
<line class="st4" x1="70" y1="782.1" x2="128.1" y2="798.8"/>
<path class="st4" d="M129.1,560.1h37.4c0.6,0,1,0.4,1,1v37.4c0,0.6-0.4,1-1,1h-37.4c-0.6,0-1-0.4-1-1v-37.4
	C128.1,560.5,128.5,560.1,129.1,560.1z"/>
<g transform="translate(13.098843973225073,8.63983063346283)scale(0.04874879965212559,0.04874879965212559)translate(0,0)">
	<g transform="rotate(0,135.5398712158203,227.00906372070315)">
		<g transform="translate(0,0)">
			<path class="st42" d="M2860.1,11603.4v1l10-4l4-7v-8l-3-12l-7-11l-7-11l-10-11l-14-11l-15-8l-14-10l-13-6l-15-7l-15-4l-19-3
				l-18-2l-22,3l-24,6l-21,15l-16,21l-10,27l-4,27l5,28l10,24l17,22l23,17l24,11l23,7l116,9l19,6l11,4l10,7l7,10l4,13l2,17l-1,15
				l-3,18l-3,17l-8,20l-9,18l-13,20l-15,20l-16,17l-17,13l-21,14l-21,6l-22,2l-21-3l-23-10l-17-15l-18-21l-13-18l-10-17l-7-17l-2-17
				l2-12l7-12l9-8l11-6l3-1h1l2-1l2-1h2h1h1l0,0l0,0l0,0l0,0v1l0,0l0,0l0,0l-1-1h-1l0,0l0,0l0,0h-2"/>
		</g>
	</g>
</g>
<circle class="st12" cx="141.2" cy="568.7" r="5"/>
<path class="st4" d="M129.1,603.9h37.4c0.6,0,1,0.4,1,1v37.4c0,0.6-0.4,1-1,1h-37.4c-0.6,0-1-0.4-1-1v-37.4
	C128.1,604.3,128.5,603.9,129.1,603.9z"/>
<g transform="translate(8.455017221500421,2.4721389878274174)scale(0.04874879965212559,0.04874879965212559)translate(0,0)">
	<g transform="rotate(0,230.80020141601562,353.5289306640625)">
		<g transform="translate(0,0)">
			<path class="st42" d="M2627.4,12997.5L2627.4,12997.5l4-9l6-22.1l9-32.1l7-32.1l8-37.1l8-37.1l12-48.1l16-65.2l14-64.2l16-66.2
				l18-68.2l13-47.1l9-33.1l8-22.1l7-16l2-6l2-1l2-1l6,7l34,58.2l14,22.1l12,22.1l15,22.1l14,22.1l13,23.1l11,23.1l13,29.1l13,26.1
				l12,27.1l14,34.1l15,35.1l14,42.1l13,45.1l12,47.1l14,46.1l14,52.2l16,44.1l19,48.1l5,14l4,8l1,5l2,3v1l0,0l0,0l0,0l0,0h-1l-1-1"
				/>
		</g>
		<g transform="translate(108.05828857421875,392.80517578125)">
			<path class="st42" d="M2632.3,12408.1h-1l-4,1h1h5l8-1l12-1l12-1l9-2l11-2l9-3l8-3l8-3l7-2l8-2h6l7-1h8h8h9l10,1h8l9,1l6,1l10,2
				l6,1h7h6l5-1h4h4l3,1l3,1h3h3h3v-1l0,0l0,0l-1,1l-4,3l-4,2l-3,2l-5,1h-1l0,0v1h-1l0,0l0,0l0,0l0,0l0,0h1l1-1h2h1h1h1v-1h1l0,0
				l0,0l0,0l0,0h1l0,0h1l0,0h1h1h1h1l0,0l0,0l0,0l0,0l0,0l0,0l0,0l0,0l0,0l0,0l0,0l0,0l0,0l0,0l0,0l0,0l0,0l0,0l0,0"/>
		</g>
	</g>
</g>
<circle class="st12" cx="136.5" cy="606.4" r="5"/>
<path class="st4" d="M129.1,647.7h37.4c0.6,0,1,0.4,1,1v37.4c0,0.6-0.4,1-1,1h-37.4c-0.6,0-1-0.4-1-1v-37.4
	C128.1,648.1,128.5,647.7,129.1,647.7z"/>
<g transform="translate(8.343029469955823,5.640282833383413)scale(0.04874879965212559,0.04874879965212559)translate(0,0)">
	<g transform="rotate(0,233.09744262695312,288.5397644042969)">
		<g transform="translate(0,0)">
			<path class="st42" d="M3020.3,13418.1L3020.3,13418.1l2-3l3-12l3-14l-3-21l-8-24l-12-19l-19-16l-19-12l-22-8l-13-3l-15,4l-9,6
				l-10,12l-6,14l-6,15l-7,16l-3,14l-4,15l-1,14v15l-1,18v18v18l1,20l1,23v27v34l-2,33l-3,39l-3,31l-4,31l-6,21l-8,22l-11,19l-9,17
				l-11,15l-10,15l-8,14l-11,14l-12,11l-14,8l-15,3l-18,1l-15-2l-14-9l-14-9l-14-11l-11-13l-9-14l-7-13l-7-17l-5-14l-3-17l-1-18v-16
				l2-19l5-16l6-15l8-15l9-12l6-7l4-3l7-3l8-3h8h6h3l0,0h-1h-1l-2,1l-1,2l-1,2l-2,3"/>
		</g>
		<g transform="translate(127.0623779296875,245.8299560546875)">
			<path class="st42" d="M2627,13292.4h2h10l9-1h7l8-1l7,1h6l6-1h4l2-1h1l1-1h2h3h3h4h3l6,1h4h4h6l4,1h2h2l0,0v-1h1l0,0l0,0h1l1-1
				l0,0l0,0h1h1h1l0,0l2-1l0,0h2h2h1v-1h1l0,0l0,0l0,0h-1l0,0l0,0v1l0,0l0,0h1h1h1l0,0l0,0l0,0l0,0l0,0l0,0l0,0h1l2,1h1h2h1l2-1l0,0
				h1l0,0l0,0l0,0l0,0l0,0l-2,1h-1h-1v1h-1l0,0l0,0l0,0l0,0l0,0"/>
		</g>
		<g transform="translate(310.080810546875,247.83001708984375)">
			<path class="st42" d="M2627,13288.3l1,1.1h1h1h2h2h3h1l0,0l0,0h1l0,0h1h1h2h2h3l4-1.1h5h4l11-1.1h4h3l6-1.1h4h4h4h4l4,1.1h3h4h3
				h3h2h2h2h2h2h3h3h3l2,1.1h3h3h4h4h2h3h3h2h3h2h2h2h1h2h1h1l1-1.1h1l0,0h1h1h1l0,0h1l0,0l0,0l0,0l0,0l0,0l0,0l0,0v-1.1l0,0l0,0
				l0,0l0,0l0,0l0,0l0,0l0,0l0,0l0,0l0,0l0,0l0,0l0,0l0,0l0,0l0,0l0,0l0,0"/>
		</g>
	</g>
</g>
<circle class="st12" cx="136.4" cy="653.3" r="5"/>
<path class="st4" d="M129.1,691.5h37.4c0.6,0,1,0.4,1,1v37.4c0,0.6-0.4,1-1,1h-37.4c-0.6,0-1-0.4-1-1v-37.4
	C128.1,691.9,128.5,691.5,129.1,691.5z"/>
<g transform="translate(10.699153515056441,0)scale(0.04874879965212559,0.04874879965212559)translate(0,0)">
	<g transform="rotate(0,184.7655029296875,404.24072265625006)">
		<g transform="translate(0,0)">
			<path class="st42" d="M2628.1,14185.2h-1l2,7v5v9l1,9l1,10l1,10l1,11l2,13l1,15l1,14l2,13l1,14l1,14l1,16l1,22l2,17l1,22l2,22
				l2,19l1,26v28.1v28.1v30.1l1,32.1l2,27l2,33.1l1,28.1l1,29.1l1,29.1v26v31.1l1,33.1l3,32.1l4,29.1l2,20l1,20l1,13v11l-1,12v16v8
				v4l0,0l2-5l1-5l1-3l0,0l0,0l0,0l0,0h-1l0,0h-1"/>
		</g>
		<g transform="translate(62.3719482421875,5.8214263916015625)">
			<path class="st42" d="M2633,14186.7l-1,1.1l-3,1.1l-2,1.1h1h4l10-1.1l12,2.1h17l21,1.1h21h24l24-1.1l22,1.1h21l22-2.1l23-2.1
				l36-1.1l31-2.1h4h2l2,1.1l0,0l0,0h1l0,0l1,1.1v-1.1h2l2,1.1h1l2,1.1h1v1.1h-1l-1,1.1"/>
		</g>
		<g transform="translate(96.074951171875,289.89068603515625)">
			<path class="st42" d="M2628.3,14200.6l-1,1v1l3-2l4-2h9h9h10l14-1h14l12-1l10-1l9-1h9h9h9h7h9l8,1h9h6h9h8l7,1h7h8l6-1h7l7-1l6-1
				l7-1h4h2h2l2-1h1h2h1l2-1v-1h1h1l0,0l0,0l0,0h1l0,0h1l1-1l2-1h3h2l3-1h2h3v-1l0,0l0,0l0,0l0,0l0,0l0,0l0,0l0,0l0,0l0,0l0,0l0,0
				v-1l0,0l0,0l0,0l0,0l0,0l0,0l0,0l0,0l0,0l0,0l0,0l0,0l0,0l0,0v1h-1l0,0v1l0,0l0,0l0,0v1h-1h-1v1h-2h-1"/>
		</g>
	</g>
</g>
<circle class="st12" cx="138.8" cy="691.5" r="5"/>
<path class="st4" d="M129.1,735.3h37.4c0.6,0,1,0.4,1,1v37.4c0,0.6-0.4,1-1,1h-37.4c-0.6,0-1-0.4-1-1v-37.4
	C128.1,735.7,128.5,735.3,129.1,735.3z"/>
<g transform="translate(12.892739409949753,8.492358373577703)scale(0.04874879965212559,0.04874879965212559)translate(0,0)">
	<g transform="rotate(0,139.76776123046875,230.03421020507812)">
		<g transform="translate(0,0)">
			<path class="st42" d="M2628.1,15082.8h-1v2l1,6l2,9l2,13l3,16l3,23l2,27l3,25l3,26l2,26l2,26l2,30l1,24l1,21l2,22v17v14v16v14
				l-1,11v15v12v14l1,9v9v6v4l-1,2v2l0,0l-1,1l0,0l0,0l0,0l0,0l0,0l0,0l0,0l0,0l0,0l0,0l0,0l0,0l0,0l0,0l0,0l0,0v-1l0,0l0,0h-1l0,0
				v-1l0,0l0,0v-1l0,0l0,0l0,0l0,0v-1l0,0l0,0l0,0v-1l0,0l0,0l0,0l0,0l0,0l0,0l0,0v1v1l1,1v2v1l0,0v1l0,0l0,0l0,0l0,0l0,0l0,0l0,0
				l0,0"/>
		</g>
		<g transform="translate(73.2955322265625,202.88873291015625)">
			<path class="st42" d="M2643.1,15090.8v-1V15090.8h-1l0,0l0,0v-1l1-1l1-1l3-1l3-1l4-1h3l2-1h4h4h4l4-1h4h5h6h5h6h7l8,1h6l7,1l8,2
				h6l7,1l6,2l6,1l5,3l6,5l6,4l6,7l4,7l6,6l5,9l4,7l6,10l4,8l3,10l4,8l4,9l4,12l2,7l1,10l1,9v8v8l-2,9l-3,9l-3,8l-5,9l-14,19l-7,7
				l-9,8l-9,5l-10,8l-7,4l-10,5l-11,4l-9,4l-9,2l-12,1h-8h-8l-7-1l-7-1l-7-1l-5-2l-5-1l-4-1l-3-1l-3-1l-3-1h-2l-2-1h-1h-2h-1l0,0h-1
				l0,0l-1,1l0,0l0,0l0,0l0,0l0,0l0,0l0,0l0,0l0,0l0,0h-1l0,0h-1h-1h-1h-1h-2l-1-1h-1l-2-1h-2l-1-1l0,0h-1l0,0l0,0l0,0h-1l0,0l0,0
				l0,0l0,0l0,0l0,0l0,0l0,0l0,0l0,0l0,0v1l0,0l0,0v1l1,1"/>
		</g>
	</g>
</g>
<circle class="st12" cx="141" cy="743.8" r="5"/>
<path class="st4" d="M129.1,779.1h37.4c0.6,0,1,0.4,1,1v37.4c0,0.6-0.4,1-1,1h-37.4c-0.6,0-1-0.4-1-1v-37.4
	C128.1,779.5,128.5,779.1,129.1,779.1z"/>
<g transform="translate(19.70625,19.70625)scale(0.04874879965212559,0.04874879965212559)translate(0,0)">
	<g transform="rotate(0,0,0)">
	</g>
</g>
<circle class="st12" cx="147.8" cy="798.8" r="5"/>
<text transform="matrix(1 0 0 1 307.9795 844.698)" class="st13 st14">Layout</text>
<ellipse class="st0" cx="45.2" cy="782.1" rx="18.6" ry="18.6"/>
<text transform="matrix(1 0 0 1 32.3129 784.4474)" class="st13 st17">category</text>
<ellipse class="st43" cx="45.2" cy="596.5" rx="18.6" ry="18.6"/>
<text transform="matrix(1 0 0 1 32.3129 597.5994)" class="st13 st17">Stranger</text>
<text transform="matrix(1 0 0 1 32.3129 598.8224)" class="st44 st13 st17">category</text>
<ellipse class="st43" cx="45.2" cy="633.6" rx="18.6" ry="18.6"/>
<text transform="matrix(1 0 0 1 33.8092 634.7244)" class="st13 st17">Accurat</text>
<text transform="matrix(1 0 0 1 32.3129 635.9474)" class="st44 st13 st17">category</text>
<ellipse class="st43" cx="45.2" cy="670.7" rx="18.6" ry="18.6"/>
<text transform="matrix(1 0 0 1 35.6762 671.8494)" class="st13 st17">Friend</text>
<text transform="matrix(1 0 0 1 32.3129 673.0724)" class="st44 st13 st17">category</text>
<ellipse class="st43" cx="45.2" cy="707.8" rx="18.6" ry="18.6"/>
<text transform="matrix(1 0 0 1 35.307 708.9744)" class="st13 st17">Family</text>
<text transform="matrix(1 0 0 1 32.3129 710.1974)" class="st44 st13 st17">category</text>
<ellipse class="st43" cx="45.2" cy="745" rx="18.6" ry="18.6"/>
<text transform="matrix(1 0 0 1 42.0254 746.0994)" class="st13 st17">Bf</text>
<text transform="matrix(1 0 0 1 32.3129 747.3224)" class="st44 st13 st17">category</text>
</svg>
