<?xml version="1.0" encoding="utf-8"?>
<!-- Generator: Adobe Illustrator 21.0.0, SVG Export Plug-In . SVG Version: 6.00 Build 0)  -->
<svg version="1.1" id="Layer_1" xmlns="http://www.w3.org/2000/svg" xmlns:xlink="http://www.w3.org/1999/xlink" x="0px" y="0px"
	 viewBox="0 0 1366 768" style="enable-background:new 0 0 1366 768;" xml:space="preserve">
<style type="text/css">
	.st0{fill:#F0F8FF;stroke:#708090;stroke-width:0.5;}
	.st1{fill:none;stroke:#0000FF;stroke-width:0.5;}
	.st2{fill:#FFFFFF;fill-opacity:0;}
	.st3{fill:#FFFFFF;stroke:#708090;}
	.st4{fill:none;stroke:#708090;stroke-dasharray:2,2.5;}
	.st5{fill:none;stroke:#708090;stroke-width:1.5;}
	.st6{fill:none;stroke:#000000;}
	.st7{fill:url(#SVGID_1_);stroke:#070606;}
	.st8{fill:url(#SVGID_2_);stroke:#000000;}
	.st9{fill:url(#SVGID_3_);stroke:#000000;}
	.st10{fill:none;stroke:#1E90FF;}
	.st11{fill:#FFFFFF;fill-opacity:0.8;stroke:#B0C4DE;stroke-width:2.5;}
	.st12{font-family:'ArialMT';}
	.st13{font-size:8.4px;}
	.st14{fill:#708090;}
	.st15{fill:#F0F8FF;fill-opacity:0;}
	.st16{font-size:6.72px;}
	.st17{fill:none;stroke:#1E90FF;stroke-width:0.5;stroke-dasharray:3,3;}
	.st18{fill:none;stroke:#1E90FF;stroke-width:0.8;}
	.st19{fill:#F04E4E;stroke:#1E90FF;stroke-width:0.5;}
	.st20{fill:#4EF07C;stroke:#1E90FF;stroke-width:0.5;}
	.st21{fill:#D54EF0;stroke:#1E90FF;stroke-width:0.5;}
	.st22{fill:#F0E64E;stroke:#1E90FF;stroke-width:0.5;}
	.st23{fill:none;stroke:#0000FF;stroke-width:0.5;stroke-dasharray:2,2;}
	.st24{fill:#FFFFFF;stroke:#708090;stroke-width:0.5;stroke-dasharray:2,2.5;}
	.st25{fill:#F0F8FF;}
	.st26{opacity:0;enable-background:new    ;}
</style>
<path class="st0" d="M177.4,665.5h23.7c1.7,0,3,1.3,3,3v23.7c0,1.7-1.3,3-3,3h-23.7c-1.7,0-3-1.3-3-3v-23.7
	C174.4,666.9,175.7,665.5,177.4,665.5z"/>
<path class="st1" d="M189.2,0v665.5"/>
<path class="st2" d="M52.2,11.4h280c2.2,0,4,1.8,4,4v384.8c0,2.2-1.8,4-4,4h-280c-2.2,0-4-1.8-4-4V15.4C48.2,13.2,50,11.4,52.2,11.4
	z"/>
<path class="st3" d="M49.2,8.4h280c2.2,0,4,1.8,4,4v384.8c0,2.2-1.8,4-4,4h-280c-2.2,0-4-1.8-4-4V12.4C45.2,10.2,47,8.4,49.2,8.4z"
	/>
<line class="st4" x1="45.2" y1="8.4" x2="45.2" y2="8.4"/>
<path class="st5" d="M107,171.3h65c0.6,0,1,0.4,1,1v65c0,0.6-0.4,1-1,1h-65c-0.6,0-1-0.4-1-1v-65C106,171.8,106.4,171.3,107,171.3z"
	/>
<g transform="rotate(0,37.5296630859375,34.35954284667969)">
	<g transform="translate(0,3.509765625)">
		<path class="st6" d="M124.9,177.2c-19.9,0-22.4,30.8-13.7,44.2c10.8,16.7,34.3,12.8,49.1,4.3c17.2-9.8,13.7-36.5-1.7-46.2
			c-13-8.2-35.4-5.8-44.4,7.5"/>
	</g>
	<g transform="translate(51.84326171875,10.91552734375)">
		
			<linearGradient id="SVGID_1_" gradientUnits="userSpaceOnUse" x1="-51.3431" y1="757.0763" x2="-51.3431" y2="756.0861" gradientTransform="matrix(20.8443 0 0 -40.7202 1181.0598 31002.9277)">
			<stop  offset="0" style="stop-color:#F04E4E"/>
			<stop  offset="0.4999" style="stop-color:#F04E4E"/>
			<stop  offset="0.5" style="stop-color:#4EF07C"/>
			<stop  offset="0.9999" style="stop-color:#4EF07C"/>
		</linearGradient>
		<path class="st7" d="M108.6,174.6L108.6,174.6L108.6,174.6L108.6,174.6c-2.8,2.8-5.4,5.3-8.1,8.1c2,2.9,4.6,9,5.4,13.4
			c0.7,3.9-1.5,12.5-0.9,14.3l0,0l0,0c3,2,6.1,4.5,9.9,4.5c2.9-8.2,7.9-13.3,5.8-22.8c-1.2-5.9-5.6-13-12.1-13
			C109.4,177.5,109.1,176.4,108.6,174.6"/>
	</g>
	<g transform="translate(0.1820068359375,15.9932861328125)">
		
			<linearGradient id="SVGID_2_" gradientUnits="userSpaceOnUse" x1="0.3031" y1="752.0052" x2="0.3031" y2="751.0078" gradientTransform="matrix(21.7365 0 0 -44.0506 109.9529 33300.3516)">
			<stop  offset="0" style="stop-color:#D54EF0"/>
			<stop  offset="0.4999" style="stop-color:#D54EF0"/>
			<stop  offset="0.5" style="stop-color:#F0E64E"/>
			<stop  offset="0.9999" style="stop-color:#F0E64E"/>
		</linearGradient>
		<path class="st8" d="M110.6,175c-0.9,0.3-1.2,0-0.9-0.9c0-0.2,10.1,7.2,10.8,7.2l0,0l0,0c0.5,0.5,1.1,0.8,1.8,0.9l0,0l0,0l0,0
			c-3.8,5.4-5,10.9-2.2,17.5c1,2.4,2.6,5,4.1,7.1c0.5,0.7,3.5,3.4,3.5,4.1l0,0c-1.1,1.7-3.8,7.2-6.3,7.2l0,0
			c-7.9,0.6-13.4-12.3-15-18.4c-1.8-7.2-1.3-18.2,4.2-23.7l0,0C111.6,175.9,111.6,175.6,110.6,175"/>
	</g>
	<g transform="translate(30.28167724609375,12.60675048828125)">
		
			<linearGradient id="SVGID_3_" gradientUnits="userSpaceOnUse" x1="-29.0477" y1="755.4626" x2="-29.0477" y2="755.4626" gradientTransform="matrix(21.7365 0 0 -44.0506 734.114 33452.9141)">
			<stop  offset="0" style="stop-color:#D54EF0"/>
			<stop  offset="0.4999" style="stop-color:#D54EF0"/>
			<stop  offset="0.5" style="stop-color:#F0E64E"/>
			<stop  offset="0.9999" style="stop-color:#F0E64E"/>
		</linearGradient>
		<path class="st9" d="M102.7,174.4"/>
	</g>
</g>
<path class="st10" d="M129.6,197.3L129.6,197.3L129.6,197.3c0-1.9,0,3.7,0,4.7c0,2.7,0,5.3,0,8l0,0l0,0l0,0c1.9-0.9,4-1,6.3-0.9
	 M128.7,205c2.5-1.1,5-2.1,7.4-3.2 M128.7,198.2l8-1.8 M136.7,211.9c-1.2-1.6,0.1-11.4,0.9-14.6l0,0l0,0l0,0l0,0
	c1.7,2.3,1.5,5.1,2.5,7.7c0.9,2.5,2.9,4.2,2.9,6.8c0-0.3,0-0.6,0-0.9c0-4.9,0-9.7,0-14.6l0,0l0,0l0,0l0,0l0,0l0,0l0,0l0,0l0,0l0,0
	l0,0l0,0"/>
<path class="st10" d="M138.5,224c0-2.9-4.5-0.5-5,1.2c-1,3.4,0.3,1.3,1.7,3.6c1.1,1.8,3,0.2,2.4,3.3c-0.5,2.4-5,2.6-6.7,2.4
	c0.3-0.6,0.6-1.3,1-1.9 M141,224.1L141,224.1c3-0.3,5.4-2,8.5-2 M143.9,224L143.9,224L143.9,224c1.9,3,1.1,6,1.1,9.4l0,0l0,0
	 M150.4,220.3L150.4,220.3L150.4,220.3c4-2.6,6.5,3.3,2.9,5.7l0,0c1.5-0.8,3.1-1.1,4.8-0.9c-0.9,2.6-1.1,7.6-4.8,7.6l0,0l0,0"/>
<path class="st10" d="M132.3,175.8L132.3,175.8L132.3,175.8c-0.3,0-0.6,0-0.9,0c-0.3-0.3-0.6-0.6-0.9-0.9l0,0l0,0l0,0
	c0,0.3,0,0.6,0,0.9c0.7,1.1,7.3,1.9,9.4,1.9c0.8-0.2,1.1,0.1,0.9,0.9l0,0l0,0l0,0l0,0l0,0l0,0c0,3.1,0,6.2,0,9.4l0,0l0,0l0,0l0,0
	l0,0c0.4,0.7,1.1,1.1,1.9,0.9c2.6,0.1,4,1.7,6.6,1.9c0.3,1.2-0.2,0.7-0.9,0.9l0,0c-5.5,1.7-4.7,9.9-8.5,12.2l0,0l0,0
	c-0.3,0-0.6,0-0.9,0l0,0c-5.5-1.6-9.6-10.1-14.1-12.2l0,0c-0.3,0-0.6,0-0.9,0c0-0.3,0-0.6,0-0.9l0,0l0,0l0,0c2.3,1.2,6.7,2,9.4,1.9
	l0,0l0,0c-1.9-2.4-2.3-9.7-2.8-12.2c0-0.3,0-0.6,0-0.9l0,0l0,0l0,0l0,0l0,0l0,0"/>
<circle class="st11" cx="106" cy="175.7" r="5"/>
<text transform="matrix(1 0 0 1 311.2567 395.733)" class="st12 st13">Glyph</text>
<line class="st4" x1="162.7" y1="205.4" x2="193.7" y2="204.8"/>
<line class="st4" x1="136.5" y1="189.4" x2="193.7" y2="55.7"/>
<line class="st4" x1="135.9" y1="204.1" x2="193.7" y2="130.3"/>
<line class="st4" x1="117" y1="212" x2="195.2" y2="337.3"/>
<line class="st4" x1="144.4" y1="226.9" x2="190.7" y2="273.9"/>
<rect x="243.2" y="47.6" class="st14" width="0" height="1.8"/>
<rect x="263" y="47.6" class="st14" width="0" height="1.8"/>
<rect x="243.2" y="63.9" class="st14" width="0" height="1.8"/>
<rect x="263" y="63.9" class="st14" width="0" height="1.8"/>
<path class="st15" d="M265.1,31.5h40.5c2.2,0,4,1.8,4,4V76c0,2.2-1.8,4-4,4h-40.5c-2.2,0-4-1.8-4-4V35.5
	C261.1,33.3,262.9,31.5,265.1,31.5z"/>
<ellipse class="st15" cx="285.3" cy="55.7" rx="24.8" ry="24.8"/>
<g>
	<text transform="matrix(1 0 0 1 271.3394 49.4319)" class="st12 st16">Received</text>
	<text transform="matrix(1 0 0 1 278.6221 59.3319)" class="st12 st16">Said</text>
</g>
<text transform="matrix(1 0 0 1 272.647 77.88)" class="st12 st16">direction</text>
<path class="st15" d="M200.5,31.5h40.5c2.2,0,4,1.8,4,4V76c0,2.2-1.8,4-4,4h-40.5c-2.2,0-4-1.8-4-4V35.5
	C196.5,33.3,198.3,31.5,200.5,31.5z"/>
<ellipse class="st15" cx="220.8" cy="55.7" rx="24.8" ry="24.8"/>
<text transform="matrix(1 0 0 1 211.6443 77.88)" class="st12 st16">shape</text>
<rect x="206.1" y="48.4" class="st17" width="14.7" height="14.7"/>
<g>
	<path class="st18" d="M210.4,48.9L210.4,48.9L210.4,48.9c-0.2,0-0.3,0-0.5,0c-0.2-0.2-0.3-0.3-0.5-0.5l0,0l0,0l0,0
		c0,0.2,0,0.3,0,0.5c1,0.4,3.2,0.6,4.8,0.9c0.5-0.2,0.6,0,0.5,0.5l0,0l0,0l0,0l0,0l0,0l0,0c0,1.6,0,3.2,0,4.7l0,0l0,0l0,0l0,0l0,0
		c0.2,0.4,0.5,0.5,1,0.5c1.7,0.3,2.9,0.9,2.9,1.4l0,0c-2.4,1-2.8,4.6-4.3,6.2l0,0l0,0c-0.2,0-0.3,0-0.5,0l0,0
		c-2.4-1.3-5.4-4.4-7.1-6.2l0,0c-0.2,0-0.3,0-0.5,0c0-0.2,0-0.3,0-0.5l0,0l0,0l0,0c1.5,0.5,3.1,0.8,4.8,0.9l0,0l0,0
		c-0.6-1.9-0.8-4.6-1.4-6.2c0-0.2,0-0.3,0-0.5l0,0l0,0l0,0l0,0l0,0l0,0"/>
</g>
<rect x="220.8" y="48.4" class="st17" width="14.7" height="14.7"/>
<g>
	<path class="st18" d="M225.6,62L225.6,62L225.6,62L225.6,62L225.6,62L225.6,62L225.6,62L225.6,62L225.6,62L225.6,62L225.6,62
		L225.6,62L225.6,62c0-2.2,0-4.3,0-6.5l0,0l0,0l0,0l0,0l0,0c-0.2,0.2-0.4,0.4-0.6,0.6l0,0l0,0l0,0l0,0l0,0l0,0
		c-1,0.5-1.7,0.9-2.4,1.2c-0.4,0-0.8,0-1.2,0l0,0c-0.2,0-0.4,0-0.6,0l0,0l0,0l0,0c1.7-0.7,3.5-4.9,4.7-7.1c0-0.2,0-0.4,0-0.6l0,0
		c0.6,0.2,0.8,0,0.6-0.6l0,0l0,0l0,0c0.6,0.2,0.8,0,0.6-0.6l0,0l0,0l0,0l0,0l0,0c0.2,0,0.4,0,0.6,0c3,2.7,6.5,3.8,8.2,7.6l0,0l0,0
		l0,0l0,0l0,0l0,0c-0.4,0-0.8,0-1.2,0c-1.2,0-2.4,0-3.5,0c-0.4,0-0.8,0-1.2,0l0,0l0,0l0,0c0.7,2,2.5,3.5,2.4,5.9c0,0.2,0,0.4,0,0.6
		l0,0l0,0l0,0l0,0l0,0l0,0c-0.2,0-0.4,0-0.6,0c-1.6,0-3.1,0-4.7,0c-0.2,0-0.4,0-0.6,0c-0.2,0-0.4,0-0.6,0l0,0c-0.2,0-0.4,0-0.6,0
		l0,0l0,0l0,0l0,0"/>
</g>
<rect x="243.2" y="122.1" class="st14" width="0" height="1.8"/>
<rect x="263" y="122.1" class="st14" width="0" height="1.8"/>
<rect x="243.2" y="138.4" class="st14" width="0" height="1.8"/>
<rect x="263" y="138.4" class="st14" width="0" height="1.8"/>
<path class="st15" d="M265.1,106h40.5c2.2,0,4,1.8,4,4v40.5c0,2.2-1.8,4-4,4h-40.5c-2.2,0-4-1.8-4-4V110
	C261.1,107.8,262.9,106,265.1,106z"/>
<ellipse class="st15" cx="285.3" cy="130.3" rx="24.8" ry="24.8"/>
<g>
	<text transform="matrix(1 0 0 1 274.327 123.9699)" class="st12 st16">English</text>
	<text transform="matrix(1 0 0 1 276.381 133.8699)" class="st12 st16">Italian</text>
</g>
<text transform="matrix(1 0 0 1 271.5198 152.418)" class="st12 st16">language</text>
<path class="st15" d="M200.5,106h40.5c2.2,0,4,1.8,4,4v40.5c0,2.2-1.8,4-4,4h-40.5c-2.2,0-4-1.8-4-4V110
	C196.5,107.8,198.3,106,200.5,106z"/>
<ellipse class="st15" cx="220.8" cy="130.3" rx="24.8" ry="24.8"/>
<text transform="matrix(1 0 0 1 211.6443 152.418)" class="st12 st16">shape</text>
<rect x="206.1" y="122.9" class="st17" width="14.7" height="14.7"/>
<g>
	<path class="st18" d="M207,123.9L207,123.9L207,123.9c0-2.1,0,3.6,0,4.5c0,2.5,0,5,0,7.5l0,0l0,0l0,0c1.8-0.8,3.9-1,6-0.9
		 M206.1,131.2c2.4-1,4.7-2,7.1-3 M206.1,124.7l7.6-1.7 M213.7,137.7c-0.7-2.3-0.2-10.3,0.9-13.8l0,0l0,0l0,0l0,0
		c1.8,2.2,1.5,5.1,2.6,7.8c0.9,2.3,2.5,3.7,2.6,6c0-0.3,0-0.6,0-0.9c0-4.6,0-9.2,0-13.8l0,0l0,0l0,0l0,0l0,0l0,0l0,0l0,0l0,0l0,0
		l0,0l0,0"/>
</g>
<rect x="220.8" y="122.9" class="st17" width="14.7" height="14.7"/>
<g>
	<path class="st18" d="M220.8,123L220.8,123L220.8,123L220.8,123L220.8,123L220.8,123L220.8,123c0,4,0,8.1,0,12.1l0,0 M224.1,124.8
		L224.1,124.8L224.1,124.8L224.1,124.8L224.1,124.8c-0.3,0-0.6,0-0.8,0l0,0l0,0l0,0c0.8,0,1.7,0,2.5,0c1.9-0.4,3.3-0.7,5-1.8
		c0.3,0,0.6,0,0.8,0l0,0l0,0l0,0l0,0c0,0.3,0,0.6,0,0.9 M227.3,125.4L227.3,125.4L227.3,125.4L227.3,125.4L227.3,125.4L227.3,125.4
		c0,3.5,0,7,0,10.5c0-0.5,0-1.1,0-1.6 M230.5,133.6c0,0.3,0,0.5,0,0.8l0,0c0,0.5,0,1.1,0,1.6c-0.4-4.3,1.5-8.1,1.7-12.2
		c-0.4,4.8,2.7,9.1,2.5,13.9l0,0 M229.8,135.4c2-1,4.8-1.6,5.4-3.5"/>
</g>
<rect x="243.2" y="196.6" class="st14" width="0" height="1.8"/>
<rect x="263" y="196.6" class="st14" width="0" height="1.8"/>
<rect x="243.2" y="213" class="st14" width="0" height="1.8"/>
<rect x="263" y="213" class="st14" width="0" height="1.8"/>
<path class="st15" d="M265.1,180.5h40.5c2.2,0,4,1.8,4,4v40.5c0,2.2-1.8,4-4,4h-40.5c-2.2,0-4-1.8-4-4v-40.5
	C261.1,182.3,262.9,180.5,265.1,180.5z"/>
<ellipse class="st15" cx="285.3" cy="204.8" rx="24.8" ry="24.8"/>
<g>
	<text transform="matrix(1 0 0 1 281.0519 198.5079)" class="st12 st16">No</text>
	<text transform="matrix(1 0 0 1 279.8657 208.408)" class="st12 st16">Yes</text>
</g>
<text transform="matrix(1 0 0 1 276.0086 226.956)" class="st12 st16">meant</text>
<path class="st15" d="M200.5,180.5h40.5c2.2,0,4,1.8,4,4v40.5c0,2.2-1.8,4-4,4h-40.5c-2.2,0-4-1.8-4-4v-40.5
	C196.5,182.3,198.3,180.5,200.5,180.5z"/>
<ellipse class="st15" cx="220.8" cy="204.8" rx="24.8" ry="24.8"/>
<text transform="matrix(1 0 0 1 217.6261 226.956)" class="st12 st16">fill</text>
<g>
	<rect x="205.2" y="197" class="st19" width="15.6" height="15.6"/>
	<rect x="220.8" y="197" class="st20" width="15.6" height="15.6"/>
</g>
<rect x="244.7" y="329.2" class="st14" width="0" height="1.8"/>
<rect x="264.5" y="329.2" class="st14" width="0" height="1.8"/>
<rect x="244.7" y="345.5" class="st14" width="0" height="1.8"/>
<rect x="264.5" y="345.5" class="st14" width="0" height="1.8"/>
<path class="st15" d="M266.6,313.1h40.5c2.2,0,4,1.8,4,4v40.5c0,2.2-1.8,4-4,4h-40.5c-2.2,0-4-1.8-4-4v-40.5
	C262.6,314.9,264.4,313.1,266.6,313.1z"/>
<ellipse class="st15" cx="286.8" cy="337.3" rx="24.8" ry="24.8"/>
<g>
	<text transform="matrix(1 0 0 1 282.5519 331.0459)" class="st12 st16">No</text>
	<text transform="matrix(1 0 0 1 281.3657 340.9459)" class="st12 st16">Yes</text>
</g>
<text transform="matrix(1 0 0 1 280.4962 359.494)" class="st12 st16">a lot</text>
<path class="st15" d="M202,313.1h40.5c2.2,0,4,1.8,4,4v40.5c0,2.2-1.8,4-4,4H202c-2.2,0-4-1.8-4-4v-40.5
	C198,314.9,199.8,313.1,202,313.1z"/>
<ellipse class="st15" cx="222.3" cy="337.3" rx="24.8" ry="24.8"/>
<text transform="matrix(1 0 0 1 219.1261 359.494)" class="st12 st16">fill</text>
<g>
	<rect x="206.7" y="329.5" class="st21" width="15.6" height="15.6"/>
	<rect x="222.3" y="329.5" class="st22" width="15.6" height="15.6"/>
</g>
<rect x="240.2" y="265.7" class="st14" width="0" height="0.6"/>
<rect x="260" y="265.7" class="st14" width="0" height="0.6"/>
<rect x="240.2" y="266.8" class="st14" width="0" height="0.6"/>
<rect x="260" y="266.8" class="st14" width="0" height="0.6"/>
<rect x="240.2" y="267.9" class="st14" width="0" height="0.6"/>
<rect x="260" y="267.9" class="st14" width="0" height="0.6"/>
<rect x="240.2" y="269" class="st14" width="0" height="0.6"/>
<rect x="260" y="269" class="st14" width="0" height="0.6"/>
<rect x="240.2" y="270.1" class="st14" width="0" height="0.6"/>
<rect x="260" y="270.1" class="st14" width="0" height="0.6"/>
<rect x="240.2" y="271.2" class="st14" width="0" height="0.6"/>
<rect x="260" y="271.2" class="st14" width="0" height="0.6"/>
<rect x="240.2" y="272.2" class="st14" width="0" height="0.6"/>
<rect x="260" y="272.2" class="st14" width="0" height="0.6"/>
<rect x="240.2" y="273.3" class="st14" width="0" height="0.6"/>
<rect x="260" y="273.3" class="st14" width="0" height="0.6"/>
<rect x="240.2" y="274.4" class="st14" width="0" height="0.6"/>
<rect x="260" y="274.4" class="st14" width="0" height="0.6"/>
<rect x="240.2" y="275.5" class="st14" width="0" height="0.6"/>
<rect x="260" y="275.5" class="st14" width="0" height="0.6"/>
<rect x="240.2" y="276.6" class="st14" width="0" height="0.6"/>
<rect x="260" y="276.6" class="st14" width="0" height="0.6"/>
<rect x="240.2" y="277.7" class="st14" width="0" height="0.6"/>
<rect x="260" y="277.7" class="st14" width="0" height="0.6"/>
<rect x="240.2" y="278.8" class="st14" width="0" height="0.6"/>
<rect x="260" y="278.8" class="st14" width="0" height="0.6"/>
<rect x="240.2" y="279.9" class="st14" width="0" height="0.6"/>
<rect x="260" y="279.9" class="st14" width="0" height="0.6"/>
<rect x="240.2" y="281" class="st14" width="0" height="0.6"/>
<rect x="260" y="281" class="st14" width="0" height="0.6"/>
<rect x="240.2" y="282" class="st14" width="0" height="0.6"/>
<rect x="260" y="282" class="st14" width="0" height="0.6"/>
<path class="st15" d="M262.1,249.6h40.5c2.2,0,4,1.8,4,4v40.5c0,2.2-1.8,4-4,4h-40.5c-2.2,0-4-1.8-4-4v-40.5
	C258.1,251.4,259.9,249.6,262.1,249.6z"/>
<ellipse class="st15" cx="282.3" cy="273.9" rx="24.8" ry="24.8"/>
<g>
	<text transform="matrix(1 0 0 1 277.3038 262.6339)" class="st12 st16">St3</text>
	<text transform="matrix(1 0 0 1 273.9421 272.5339)" class="st12 st16">Kevin</text>
	<text transform="matrix(1 0 0 1 279.5465 282.4339)" class="st12 st16">...</text>
</g>
<text transform="matrix(1 0 0 1 272.0735 296.032)" class="st12 st16">person</text>
<path class="st15" d="M197.5,249.6h40.5c2.2,0,4,1.8,4,4v40.5c0,2.2-1.8,4-4,4h-40.5c-2.2,0-4-1.8-4-4v-40.5
	C193.5,251.4,195.3,249.6,197.5,249.6z"/>
<ellipse class="st15" cx="217.8" cy="273.9" rx="24.8" ry="24.8"/>
<text transform="matrix(1 0 0 1 208.6443 296.032)" class="st12 st16">shape</text>
<g transform="translate(0,0)">
	<g transform="translate(10.057500000000001,10.057500000000001)">
		<rect x="193" y="249.1" class="st17" width="7.3" height="7.3"/>
		<g>
			<path class="st18" d="M195.1,250.4L195.1,250.4v-0.3l0,0l0,0h-0.5h-0.3h-0.3l-0.3,0.3v0.3l-0.3,0.3v0.3v0.3l0.3,0.3h0.3h0.3h0.3
				l0.3,0.3v0.3v0.3v0.3l-0.3,0.3h-0.3l-0.5,0.3h-0.5h-0.3l0,0V253l0.3-0.3 M195.8,250.5L195.8,250.5L195.8,250.5h0.3h0.3l0.5-0.3
				l0.5-0.3h0.5l0,0h0.3 M196.6,250.4L196.6,250.4L196.6,250.4L196.6,250.4L196.6,250.4l0.3,0.3v0.8v0.8v0.5v0.3l0,0l0,0l0,0l0,0
				 M198.3,249.4L198.3,249.4L198.3,249.4L198.3,249.4h0.3l0.3-0.3h0.3l0.3,0.3l0.3,0.3v0.5v0.3l-0.3,0.3l-0.3,0.3l0,0l0,0l0,0l0,0
				h0.3l0.3-0.3h0.3h0.3h0.3v0.3l-0.3,0.3v0.5l-0.3,0.3v0.5l-0.3,0.3h-0.3l0,0h-0.3l0,0l0,0"/>
		</g>
	</g>
	<g transform="translate(17.403750000000002,10.057500000000001)">
		<rect x="193" y="249.1" class="st17" width="7.3" height="7.3"/>
		<g>
			<path class="st18" d="M193.7,250.6v-0.5l0,0l0,0l-0.5-0.5l0,0l0,0l0,0v0.5v0.9v0.9v1.4v0.5 M194.9,249.2L194.9,249.2L194.9,249.2
				L194.9,249.2l-0.5,0.9l-0.5,0.5l-0.5,0.5l-0.5,0.9v0.5l0,0l0,0l0,0l0,0h0.5h0.5h0.5h0.5l0.5,0.5l0.5,0.9l0,0l0.5,0.5
				 M197.2,249.7L197.2,249.7L197.2,249.7L197.2,249.7v0.5v0.5v0.9v0.9v1.4v0.5l0,0l0.5,0.5l0,0l0.5-0.5h0.5h0.5l0.5-0.5h0.5
				l0.5-0.5l0,0l0,0 M197.6,252.5h-0.5l0,0l0,0H197.6h0.5l0.9-0.5h0.5l0.5-0.5h0.5l0,0 M196.7,251.1h-0.5l0,0v-0.5h0.5l0.5-0.5h0.5
				l0.9-0.5h0.5h0.5l0.5-0.5l0,0h0.5"/>
		</g>
	</g>
	<g transform="translate(24.75,10.057500000000001)">
		<rect x="193" y="249.1" class="st17" width="7.3" height="7.3"/>
		<g>
			<path class="st18" d="M193.1,251.5L193.1,251.5v0.4l0,0l0,0l0,0l0,0l0,0l0,0l0,0l0,0l0,0l0,0V251.5v-0.4v-0.4V250v-0.4l0,0l0,0
				l0,0l0,0l0.4,0.4v0.4l0.4,0.4l0.4,1.2l0.4,0.4l0.4,0.4l0,0l0,0l0,0v-0.4l0,0v-0.4v-0.4v-0.4v-0.4l0.4-0.8v-0.4l0,0l0,0v-0.4l0,0
				l0,0 M196.2,251.9v0.4l0,0v0.4l0,0v-0.4V251.9v-0.4v-0.8l0.4-0.4v-0.8h0.4v-0.4l0,0l0,0l0,0l0,0l0,0v0.4l0,0l0,0l0.4,0.4v0.4v0.4
				l0.4,0.8v0.4l0.4,0.8v0.4l0,0l0,0v-0.4 M195.8,251.9L195.8,251.9L195.8,251.9v-0.4h0.4l0.4-0.4h0.8h0.4l0,0l0,0 M198.1,250
				L198.1,250L198.1,250L198.1,250L198.1,250L198.1,250h0.4l0.4-0.4h0.8h0.4l0.4-0.4l0,0l0,0 M199.2,249.9L199.2,249.9L199.2,249.9
				L199.2,249.9L199.2,249.9v0.8v0.4v1.5v0.4v0.4V253"/>
		</g>
	</g>
	<g transform="translate(32.09625,10.057500000000001)">
		<rect x="193" y="249.1" class="st17" width="7.3" height="7.3"/>
		<g>
			<path class="st18" d="M193.4,249.8v-0.3l0,0l0,0l0,0l0,0h-0.4l0,0l0,0l0,0l0,0v0.3l0.4,0.3v0.3v0.6l0.4,1.3v0.3v0.3v-0.3
				 M193.4,251.1v0.3l0,0l0,0l0,0l0,0l0.3-0.3l0.3-0.3h0.7h0.3v-0.3 M194.7,249.8L194.7,249.8L194.7,249.8L194.7,249.8l0.4,0.3v0.3
				v1v0.7l0.4,0.3v0.3l0,0 M195.9,250.1L195.9,250.1L195.9,250.1L195.9,250.1v0.3v0.7v0.7v0.3v0.3l0.3,0.3h0.3v-0.3h0.3l0.3-0.3h0.3
				v-0.3h0.3 M196.3,251.8L196.3,251.8L196.3,251.8L196.3,251.8L196.3,251.8l0.3-0.4h0.3l0.3-0.4l0,0h0.3l0,0 M195.6,250.5
				L195.6,250.5L195.6,250.5L195.6,250.5L195.6,250.5h0.3l0.7-0.4l0,0h0.3h0.3l0,0 M198.5,252.7L198.5,252.7L198.5,252.7
				L198.5,252.7L198.5,252.7v-0.6v-0.6v-0.3l-0.3-0.6v-0.3v-0.3l0,0l0.3,0.3l0,0l0.3,0.6l0.3,0.6l0.3,0.3l0.3,0.3v0.3h0.3l0,0v-0.3
				h0.3v-0.3v-0.6l-0.3-0.3v-0.6v-0.3l-0.3-0.3v-0.3l0,0l0,0l0,0"/>
		</g>
	</g>
	<g transform="translate(10.057500000000001,17.403750000000002)">
		<rect x="193" y="249.1" class="st17" width="7.3" height="7.3"/>
		<g>
			<path class="st18" d="M194.7,249.8L194.7,249.8L194.7,249.8v-0.2v-0.2l0,0h-0.2l0,0h-0.2H194v0.2h-0.2v0.2v0.2l0,0v0.2h0.2h0.2
				l0.2,0.2l0.2,0.2h0.2v0.2h-0.2l-0.2,0.2h-0.2l-0.2,0.2h-0.2h-0.2h-0.2l0,0h-0.2v-0.2l0,0h0.2 M195.8,249.6L195.8,249.6
				L195.8,249.6L195.8,249.6v-0.3l0,0h0.2l0,0h0.5h0.2h0.2l0,0h0.2h0.5l0,0h0.2l0,0l-0.2,0.3 M196.7,250L196.7,250L196.7,250
				L196.7,250v0.5v0.2v0.5v0.2l0.3,0.5l0,0v0.2l0,0l0,0l0,0v-0.2 M198.8,249.1v0.2h-0.2v0.2l-0.5,0.7l-0.2,0.5v0.2v0.2v0.2v0.2l0,0
				l0,0h0.2h0.2l0.2-0.2h0.5h0.2h0.5l0.2-0.2h0.2l0,0l0,0l0,0l0,0h0.2 M199.5,249.8h-0.2l0,0v0.2v0.5v0.5v0.5v0.5v0.2v0.2l0,0l0,0
				l0,0l0,0"/>
		</g>
	</g>
	<g transform="translate(17.403750000000002,17.403750000000002)">
		<rect x="193" y="249.1" class="st17" width="7.3" height="7.3"/>
		<g>
			<path class="st18" d="M193.4,249.2L193.4,249.2L193.4,249.2L193.4,249.2v0.3l0,0l0,0 M196.4,250.5L196.4,250.5L196.4,250.5
				L196.4,250.5L196.4,250.5h-0.3l0,0h-0.3h-0.3h-0.3H195l0,0h-0.3l0,0h-0.3h-0.3v0.3h-0.3v0.3v0.3v0.3v0.3l0,0v0.3h0.3h0.6h0.3h0.6
				l0.3,0.3l0,0v0.3h-0.3l-0.3,0.3l-0.6,0.3h-0.3h-0.3h-0.3h-0.3h-0.3V253l-0.3-0.3l0,0h0.3h0.3 M197.5,250.8L197.5,250.8
				L197.5,250.8L197.5,250.8L197.5,250.8l-0.3,0.6v0.8v0.3v0.6v0.3v0.3l0,0l0,0l0,0l0,0l0,0 M200.4,250.5v-0.3l0,0l0,0h-0.3l0,0
				h-0.3h-0.3h-0.3h-0.3v0.3v0.3l-0.3,0.3v0.3v0.3h0.3l0.3,0.3h0.3h0.3l0.3,0.3l0,0l0.3,0.3l0,0v0.3l-0.3,0.3l-0.3,0.3v0.3h-0.3
				h-0.3h-0.3h-0.6v-0.3h-0.3V253h-0.3l0,0l0,0"/>
		</g>
	</g>
	<g transform="translate(24.75,17.403750000000002)">
		<rect x="193" y="249.1" class="st17" width="7.3" height="7.3"/>
		<g>
			<path class="st18" d="M194.8,253.2v-0.8 M194.8,254.1L194.8,254.1L194.8,254.1L194.8,254.1L194.8,254.1L194.8,254.1L194.8,254.1
				L194.8,254.1L194.8,254.1H194l0,0v0.8l0,0v0.8l0,0l0,0l0,0l0,0l0,0l0,0v-0.8v-1.6v-0.8v-0.8l-0.8-0.8V250v-0.8l0,0l0,0l0,0h0.8
				l0,0l0.8,0.8h0.8h1.7h0.8v-0.8 M194,252.7h-0.8l0,0H194h0.8l0,0h0.8l1.6-1.1h0.8 M199.5,250.8L199.5,250.8V250l0,0l0,0l0,0V250.8
				l1,2.4v1.6v0.8l0,0l0,0"/>
		</g>
	</g>
	<g transform="translate(32.09625,17.403750000000002)">
		<rect x="193" y="249.1" class="st17" width="7.3" height="7.3"/>
		<g>
			<path class="st18" d="M193.4,249.8v-0.3l0,0l0,0v-0.3l0,0V249.8v0.6v0.3v0.6v0.3v-0.3 M193.1,249.5L193.1,249.5L193.1,249.5
				L193.1,249.5L193.1,249.5v-0.3h0.3l0,0h0.3l0,0h0.3h0.3h0.3v0.6l0.3,0.3l0,0v0.3l-0.3,0.3h-0.3L194,251h-0.3l0,0h-0.3l0,0h-0.3
				l0,0l0,0l0.3-0.3h0.3l0,0h0.3l0.6,0.3l0.3,0.3h0.3l0,0v0.3v0.3l-0.3,0.3h-0.3l-0.3,0.3h-0.6l-0.6-0.3v-0.3l0,0 M196,252.5h-0.3
				l0,0v-0.3v-0.3v-0.6V251v-0.6v-0.3v-0.3l0,0l0,0l0,0l0,0l0,0l0,0l0,0l0,0h0.3l0,0h0.3h0.3l0,0h0.3h0.3v0.3l0,0l0,0v0.3l-0.3,0.3
				v0.3h-0.3l-0.3,0.3l-0.3,0.3l-0.3,0.3l0,0l0,0l0,0l0,0l0,0l0,0l0.3-0.3h0.3h0.3h0.3h0.3l0.3,0.3l0,0l0,0l0,0v0.3h0.3l0,0v0.3l0,0
				l0,0l0,0l0,0l0,0l0,0 M198.4,250.1L198.4,250.1L198.4,250.1L198.4,250.1h-0.3v0.3l0,0v0.3l-0.3,0.3l0,0l0.3,0.6v0.3v0.3l0.3,0.3
				h0.3h0.3l0.3-0.3h0.3h0.3h0.3l0.3-0.3l0,0v-0.3l-0.3-0.3V251l-0.3-0.3v-0.3l-0.3-0.3l-0.3-0.3H199l0,0h-0.3L198.4,250.1l-0.3,0.3
				v0.3v0.3l0,0v-0.3"/>
		</g>
	</g>
	<g transform="translate(10.057500000000001,24.75)">
		<rect x="193" y="249.1" class="st17" width="7.3" height="7.3"/>
		<g>
			<path class="st18" d="M194.5,249.7L194.5,249.7L194.5,249.7L194.5,249.7h-0.3l-0.3-0.3l0,0h-0.3l0,0h-0.3v0.3l-0.3,0.3l0,0v0.3
				l0,0l0.3,0.3h0.3h0.3h0.6l0.3,0.3h0.3l-0.3,0.3l0,0l-0.3,0.3h-0.3l-0.6,0.3l0,0h-0.3l0,0h-0.3l0,0v-0.3h0.3 M196.5,249.8v-0.3
				l0,0l0,0l0,0h0.3l0.3,0.3h0.3h0.6h0.3h0.3h0.3l0,0 M197.9,249.7L197.9,249.7v0.3v0.3l0,0l-0.3,0.6v0.9v0.6l0,0v0.3l0,0l0,0
				 M200.4,249.2L200.4,249.2L200.4,249.2v0.3v0.3v0.8v0.6v0.6v0.3v0.3v0.3l0,0l0,0l0,0"/>
		</g>
	</g>
	<g transform="translate(17.403750000000002,24.75)">
		<rect x="193" y="249.1" class="st17" width="7.3" height="7.3"/>
		<g>
			<path class="st18" d="M193.5,249.6L193.5,249.6L193.5,249.6L193.5,249.6L193.5,249.6L193.5,249.6L193.5,249.6L193.5,249.6v0.9
				v0.9v0.9v0.4v-0.4 M193.1,249.2v0.4l0,0l0,0l0,0l0,0l0,0h0.4h0.9h0.4h0.4l0,0v0.4l0,0l-0.9,0.9l0,0l-0.4,0.4l0,0h-0.4l0,0h0.4
				l0,0l0.4,0.4h0.9l0,0l0.4,0.4v0.4l-0.4,0.4l-0.4,0.4h-0.4H194l-0.4-0.4l0,0 M197.8,254L197.8,254v0.4l0,0l0,0l0,0V254v-0.4v-0.4
				v-0.4v-1.3l-0.4-0.4v-0.4V250v-0.4l0,0l0,0l0,0l0,0v-0.4l0,0l0,0l0,0l0,0l0,0v0.4h0.4h0.4h0.4h0.4h0.4l0,0l0,0 M198.2,251.7h-0.4
				l0,0l0,0l0,0H198.2h0.4h0.4h0.4h0.4h0.4l0,0v-0.4"/>
		</g>
	</g>
	<g transform="translate(24.75,24.75)">
		<rect x="193" y="249.1" class="st17" width="7.3" height="7.3"/>
		<g>
			<path class="st18" d="M194.2,250.9L194.2,250.9L194.2,250.9L194.2,250.9v-0.4l0,0l0,0l0,0l0,0v-0.4h-0.4l0,0v-0.4l0,0l0,0l0,0
				l0,0v0.7v0.7v1.1l0,0V252 M193.4,249.5h-0.3v0.3l0,0h0.3l0,0V249.5h0.3l0.3,0.3h0.3l0.3,0.3v0.3v0.3v0.7v0.3l-0.3,0.3h-0.3h-0.3
				l0,0h0.3 M195.7,251.9L195.7,251.9L195.7,251.9L195.7,251.9L195.7,251.9L195.7,251.9L195.7,251.9v-0.3v-0.7l0.3-0.3v-0.7l0.3-0.3
				v-0.3l0,0h0.3v0.3l0.3,1v0.7l0.3,0.3l0,0l0,0 M195.4,251.2L195.4,251.2v0.3h0.7h0.3l0.3-0.3l0.7-0.3 M198.4,250.2h-0.3l0,0l0,0
				l0,0l0,0H198.4v0.3l0.7,1v0.3l0.3,0.3l0,0v-0.3l0.3-0.7v-0.7v-0.7l0.3-0.3l0,0h0.3"/>
		</g>
	</g>
	<g transform="translate(32.09625,24.75)">
		<rect x="193" y="249.1" class="st17" width="7.3" height="7.3"/>
		<g>
			<path class="st18" d="M195.2,249.9L195.2,249.9L195.2,249.9L195.2,249.9v-0.2H195l-0.2-0.2h-0.5H194h-0.2l0,0h-0.2v0.2v0.2v0.2
				v0.2l0.5,0.2l0.2,0.2h0.2l0.5,0.2l0,0l0,0v0.2h-0.2h-0.5l-0.5,0.2h-0.2h-0.2l0,0h-0.2v-0.2l0,0h0.2 M196.1,249.2L196.1,249.2
				L196.1,249.2L196.1,249.2L196.1,249.2L196.1,249.2L196.1,249.2h0.2l0,0h0.2h0.5h0.2l0.2,0.3l0,0h0.2l0,0 M197.1,249.4
				L197.1,249.4h-0.3v0.2v0.5v0.5v0.2v0.7v0.2v0.2l0,0l0,0l0,0l0,0 M198.7,249.4L198.7,249.4h-0.2l0,0l0,0H198.7h0.2h0.2l0.2,0.2
				l0.2,0.5l0.2,0.2v0.5v0.2l-0.2,0.2h-0.2l-0.5,0.2h-0.2h-0.2h-0.2l0,0l0,0l0.2-0.2l0,0h0.2l0.2,0.2h0.5l0.2,0.2h0.2h0.2l0,0h0.2
				l0,0l0,0"/>
		</g>
	</g>
	<g transform="translate(10.057500000000001,32.09625)">
		<rect x="193" y="249.1" class="st17" width="7.3" height="7.3"/>
		<g>
			<path class="st18" d="M193.4,251.2L193.4,251.2L193.4,251.2L193.4,251.2L193.4,251.2L193.4,251.2v0.3h-0.3l0,0v0.3l0,0l0,0l0,0
				l0,0l0,0v-0.3v-0.3v-0.3v-0.3v-0.3l0.3-0.6l0,0v-0.3l0,0v0.3l0,0l0.3,0.3v0.3v0.6l0,0v0.3l0,0l0,0l0,0l0.3-0.3v-0.3v-0.3V250
				l0.3-0.6h0.3v-0.3l0,0h0.3v0.3v0.3l0.3,0.3v0.6v0.9l0.3,0.3v0.3l0,0v-0.3 M196.2,249.7L196.2,249.7v0.3h-0.3l0,0v0.3v0.3v0.6v0.3
				l0.3,0.6l0.3,0.3h0.3l0.6-0.3l0.3-0.3v-0.6v-0.3v-0.3v-0.3l-0.3-0.3l-0.3-0.3h-0.3h-0.3l-0.3,0.3h-0.3v0.3l-0.3,0.3l0,0l0.3,0.3
				 M197.8,252.3L197.8,252.3L197.8,252.3L197.8,252.3V252v-0.6v-0.3v-0.6v-0.3V250l0.3-0.3l0,0v0.3v0.3l0.3,0.3v0.3l0.3,0.3v0.3
				l0.3,0.3l0,0v-0.3l0.3-0.6v-0.3l0.3-0.6l0,0l0.3-0.3v-0.3l0,0v0.3v0.3l0.3,0.3v0.6v0.6l0.3,0.6v0.3l0,0V252"/>
		</g>
	</g>
	<g transform="translate(17.403750000000002,32.09625)">
		<rect x="193" y="249.1" class="st17" width="7.3" height="7.3"/>
		<g>
			<path class="st18" d="M193.4,249.2L193.4,249.2L193.4,249.2L193.4,249.2L193.4,249.2L193.4,249.2L193.4,249.2L193.4,249.2
				L193.4,249.2L193.4,249.2L193.4,249.2v0.4v0.8v0.8v0.4v0.4h0.4 M193.5,249.9L193.5,249.9h-0.4l0,0l0,0H193.5L193.5,249.9h0.4h0.7
				h0.4v0.4l0.4,0.4L195,251h-0.4l-0.4,0.4h-0.4l0,0l0,0l0,0V251h0.4l1.1,0.4l0.4,0.4l0.4,0.4v0.4v0.4h-0.7h-0.7h-0.7l0,0l0,0
				 M196.4,250.6L196.4,250.6L196.4,250.6l-0.4-0.4l0,0l0,0v0.4l-0.4,0.4l0.4,0.4v0.8l0.7,0.8h0.4l0.4-0.4l0.4-0.8v-0.4v-0.8
				l-0.4-0.4h-0.4h-0.4l-0.7,0.4v0.4l0,0 M198.6,249.9L198.6,249.9h-0.4l0,0l0,0v0.4v0.4l0.4,1.1v0.8l0,0l0,0 M198.2,249.9l-0.4,0.4
				l0,0l0,0l0,0l0,0h0.4V249.9h0.8l0.4-0.4v0.4h0.4v0.4h-0.4v0.4l-0.4,0.7h-0.4l0,0l0,0h-0.4h0.4l0,0h0.4l0.8-0.4h0.4v0.4h0.4v0.4
				l-0.4,0.4l-0.4,0.4l-0.4,0.4l-0.4,0.4h-0.4h-0.4v-0.4"/>
		</g>
	</g>
	<g transform="translate(24.75,32.09625)">
		<rect x="193" y="249.1" class="st17" width="7.3" height="7.3"/>
		<g>
			<path class="st18" d="M194.2,249.9L194.2,249.9L194.2,249.9L194.2,249.9 M193.8,249.6L193.8,249.6L193.8,249.6L193.8,249.6
				L193.8,249.6v0.4v0.7v0.7v0.4l0,0 M193.5,249.6h-0.4l0,0l0,0H193.5L193.5,249.6v-0.4h0.4l0.4,0.4h0.4h0.4l0.4,0.4l0,0v0.4v0.4
				v0.4v0.4l-0.4,0.4l-0.4,0.4h-0.4h-0.4l0,0v0.4 M196,252.6L196,252.6L196,252.6L196,252.6L196,252.6v-0.4v-0.4v-0.4l0.4-0.7v-0.4
				V250v-0.4v-0.4h0.4v0.4v0.4l0.4,0.4v0.7l0.4,0.7v0.4h0.4l0,0l0,0 M195.6,251.8h-0.4l0,0l0,0H195.6l0.7-0.4l0.7-0.4h0.4h0.4
				 M198.6,249.9h-0.4l0,0H198.6v0.8l0.4,1.1l0.4,0.4v0.4l0,0 M198.6,249.6v0.4h-0.4l0,0l0,0l0,0l0,0h0.4h0.8h0.4h0.4l0.4,0.4l0,0
				v0.4v0.4v0.4l-0.4,0.4l-0.4,0.7h-0.4h-0.4"/>
		</g>
	</g>
	<g transform="translate(32.09625,32.09625)">
		<rect x="193" y="249.1" class="st17" width="7.3" height="7.3"/>
		<g>
			<path class="st18" d="M193.8,249.5L193.8,249.5L193.8,249.5L193.8,249.5L193.8,249.5v0.7l-0.4,0.3v0.7v0.7v0.3v-0.3 M193.1,249.8
				L193.1,249.8L193.1,249.8L193.1,249.8L193.1,249.8L193.1,249.8h0.3l0.3-0.3h0.3h0.3h0.3l0,0l-0.3,0.7H194v0.3h-0.3l-0.3,0.3l0,0
				l0,0l0,0h0.3h0.6h0.3l0,0l0.3,0.3l-0.6,0.7l-0.3,0.3h-0.3h-0.3l0,0 M196,249.5h-0.3l0,0l0,0l0,0l-0.3,0.7v0.3v0.3v0.3l0.3,0.7
				h0.3h0.3l0.3-0.3l0.3-0.3l0.3-0.3l0,0 M195.6,250.8L195.6,250.8h0.4h0.4l0.4-0.3h0.7v-0.3 M195,250.2L195,250.2L195,250.2
				L195,250.2v-0.3h0.7h0.7l0.7-0.3h0.3v-0.3 M198.2,249.5v0.4l0,0l0,0h0.3h0.3l0.3-0.4h0.3l0.6-0.4l0,0h0.3 M199.1,249.5h-0.3v0.3
				v0.3v0.3v0.7v0.7l0,0l0,0"/>
		</g>
	</g>
</g>
<path class="st2" d="M52.2,412.6h280c2.2,0,4,1.8,4,4v239.5c0,2.2-1.8,4-4,4h-280c-2.2,0-4-1.8-4-4V416.6
	C48.2,414.4,50,412.6,52.2,412.6z"/>
<path class="st3" d="M49.2,409.6h280c2.2,0,4,1.8,4,4v239.5c0,2.2-1.8,4-4,4h-280c-2.2,0-4-1.8-4-4V413.6
	C45.2,411.4,47,409.6,49.2,409.6z"/>
<line class="st4" x1="70" y1="477.7" x2="127.1" y2="462.7"/>
<line class="st4" x1="70" y1="514.8" x2="127.1" y2="509.8"/>
<line class="st4" x1="70" y1="551.9" x2="127.1" y2="556.9"/>
<line class="st4" x1="70" y1="589" x2="127.1" y2="604"/>
<path class="st4" d="M128.1,441.5h40.4c0.6,0,1,0.4,1,1v40.4c0,0.6-0.4,1-1,1h-40.4c-0.6,0-1-0.4-1-1v-40.4
	C127.1,441.9,127.5,441.5,128.1,441.5z"/>
<g transform="rotate(0,416.5593566894531,535.1878051757812)">
	<g transform="translate(813.1186904907227,633.0007171630859)">
		<path class="st23" d="M-649.1-166.5"/>
	</g>
	<g transform="translate(0,0)">
		<path class="st23" d="M164,466.6L164,466.6l0-1.1l0-1l-0.1-0.9l-0.1-0.8l0-0.8l0-0.8l0-0.8l0-0.7V459v-0.7l0-0.7v-0.8l0-0.9v-0.7
			l0-0.6V454v-0.8v-0.8v-0.8l-0.1-0.8v-0.8v-0.7v-0.7l0-0.8l0.1-0.7l0.1-0.6l0.1-0.6l0.1-0.7l0-0.8l0.1-0.7l0.1-0.5l0-0.4v-0.2
			l0-0.3l0-0.3l-0.1-0.2l-0.2,0h-0.5l-0.7,0l-0.8-0.1l-1-0.1l-1,0l-0.9,0l-0.9,0h-0.9l-0.9,0l-0.8,0.1l-0.8,0l-0.9,0l-1.1,0
			l-1.1,0.1l-1.1,0.1l-1.1,0.1l-1.1,0.1l-1,0.1l-1.1,0.1l-1.1,0.2l-1,0h-1l-1,0l-1.1,0h-1l-1,0l-0.9-0.1l-0.8,0l-1,0l-1,0.1l-1,0.1
			l-0.8,0l-0.6,0l-0.5,0l-0.3,0l-0.2,0.2l-0.1,0.4v0.3v0.3v0.5l0.1,0.7l0.2,0.7l0.2,0.6l0.2,0.7l0.2,0.9l0.2,0.8l0.2,0.9l0.2,0.9
			l0.2,1v1.1l-0.1,1l-0.1,1l0.2,1.1l0.2,1.1l0.1,1.3v1.2l0,1.3l-0.1,2.2l-0.4,2.6l-0.3,2.8l-0.1,2.5l0.2,2.3l0.4,6.9v0.8v0.6v0.7
			l0,0.8v0.5l0,0.3h0.2l0.4-0.3l1.9-1.5l1.3-0.8l1.4-0.7l1.4-0.8l1.7-1l1.7-1.1l1.4-0.9l1.3-0.8l1.2-0.8l1.1-0.8l1-0.6l0.8-0.6
			l0.9-0.6l0.8-0.6l1-0.6l1.1-0.6l1.1-0.7l1.1-0.7l1.3-0.7l1.1-0.6l1-0.5l0.9-0.5l0.8-0.4l0.6-0.4l0.5-0.3l0.5-0.3l0.4-0.3l0.4-0.3
			l0.3-0.2l0.3-0.2l0.2-0.2l0.2-0.1h0.1h0"/>
	</g>
</g>
<circle class="st11" cx="131.8" cy="441.5" r="5"/>
<path class="st4" d="M128.1,488.6h40.4c0.6,0,1,0.4,1,1V530c0,0.6-0.4,1-1,1h-40.4c-0.6,0-1-0.4-1-1v-40.4
	C127.1,489,127.5,488.6,128.1,488.6z"/>
<g transform="rotate(0,369.0461120605469,497.6562194824219)">
	<g transform="translate(0,0)">
		<path class="st23" d="M133.9,514.5L133.9,514.5l-0.2-1.3l0-1.3l0-1.2v-1l0-1l0-0.9v-1l0.1-1l0-1l0-1l0.1-1l0-0.9v-1l0-1v-1l0-0.9
			l0-0.9l0.1-0.8v-0.8v-0.7l0-0.7l0-0.7l0-0.8V492l0-0.6l0-0.5l0-0.3l0.1-0.2l0.5,0l0.9-0.1l1.3-0.1h1.4h1.5h1.3l1.1-0.1l1.4-0.1
			h1.4l1.2,0.1l1.3,0.1l1.3,0.1l1.1,0.1l1.2,0l0.9,0.1l0.9,0l0.8,0l0.9,0h0.8l0.8-0.1l1,0h0.8l0.8,0.1l0.8,0l0.6,0h0.8h0.6l0.4,0
			l0.2,0.1l0.1,0.2l0.2,0.2l0,0.4v0.7l0,0.8l0.1,0.8l0.1,0.8l0,0.8l0,1l-0.2,1.1v1.2v1.5l0,1.5l-0.1,1.3l0,1.4l0,6.3l-0.1,0.8l0,0.9
			l-0.2,0.9l-0.2,0.9l-0.1,1v0.8l0,0.8l0,0.8v0.7v1.7l-0.1,0.8l-0.1,1l-0.1,1.2l-0.1,1l-0.1,1l0,0.8v1l0.1,0.8v0.8l0,0.5v0.4l0,0.1
			l-0.3-0.1l-0.7-0.4l-0.9-0.7l-1.2-0.8l-1.3-0.8l-1.5-1l-1.3-0.8l-1.5-1l-1.6-1l-1.6-1.1l-1.5-0.9l-1.2-0.7l-1.2-0.7l-1.1-0.6
			l-1.2-0.6l-1-0.6l-0.9-0.6l-0.9-0.6l-0.9-0.5l-0.8-0.5l-0.6-0.4l-0.4-0.3l-0.5-0.3l-0.4-0.3l-0.3-0.3l-0.4-0.2l-0.2-0.2l-0.2-0.1
			l-0.2-0.1l-0.2-0.1l-0.1-0.1l-0.1-0.1l-0.1,0h0l0,0"/>
	</g>
</g>
<circle class="st11" cx="133.6" cy="490.1" r="5"/>
<path class="st4" d="M128.1,535.7h40.4c0.6,0,1,0.4,1,1v40.4c0,0.6-0.4,1-1,1h-40.4c-0.6,0-1-0.4-1-1v-40.4
	C127.1,536.2,127.5,535.7,128.1,535.7z"/>
<g transform="rotate(0,752.0147094726562,232.5302734375)">
	<g transform="translate(0,0)">
		<path class="st23" d="M148.7,547.8L148.7,547.8l-0.6,0.7l-1.3,1.3l-1.5,1.5l-1.3,1l-1.5,0.9l-1.3,0.9l-1.3,0.8l-1.6,1l-1.6,1
			l-2,1.2l-2.4,1.5l-2.5,1.3l-2.3,1l-2,1l-1.7,0.8l-1.6,0.8l-1.6,0.6l-1,0.4l-0.6,0.2l-0.4,0.2l-0.1,0.1l0.8,0.2l2.3,0l3.2,0.2h3.6
			l3.3-0.1l3.6-0.2l3.6-0.2l3.7-0.1l3.6-0.2l3.7-0.2l3.3-0.1l3.5-0.1l3.2-0.2l2.8,0l3.1,0.2l3.6,0.3l3.6,0l1.8,0.1l1.1,0l1,0.1
			l0.7,0.1h0.5l-0.3-0.3l-1.5-0.8l-1.9-1.1l-1.5-0.9l-1.8-1.1l-2.2-1.1l-2.4-1.2l-2.3-1.4l-2.2-1.4l-2.4-1.5l-2.1-1.4l-1.9-1.2
			l-1.9-1.2l-1.6-1l-1.4-0.8l-1-0.7l-0.8-0.6l-0.3-0.2l-0.1-0.1"/>
	</g>
</g>
<circle class="st11" cx="118.5" cy="547.7" r="5"/>
<path class="st4" d="M128.1,582.8h40.4c0.6,0,1,0.4,1,1v40.4c0,0.6-0.4,1-1,1h-40.4c-0.6,0-1-0.4-1-1v-40.4
	C127.1,583.3,127.5,582.8,128.1,582.8z"/>
<g transform="rotate(0,0,0)">
</g>
<circle class="st11" cx="148.3" cy="604" r="5"/>
<text transform="matrix(1 0 0 1 307.9795 651.648)" class="st12 st13">Layout</text>
<circle class="st24" cx="45.2" cy="510" r="17.8"/>
<ellipse class="st0" cx="45.2" cy="589" rx="18.6" ry="18.6"/>
<text transform="matrix(1 0 0 1 29.6961 591.3975)" class="st12 st16">thank type</text>
<ellipse class="st25" cx="45.2" cy="477.7" rx="18.6" ry="18.6"/>
<text transform="matrix(1 0 0 1 40.5324 478.7995)" class="st12 st16">PH</text>
<text transform="matrix(1 0 0 1 29.6961 480.0225)" class="st26 st12 st16">thank type</text>
<ellipse class="st25" cx="45.2" cy="514.8" rx="18.6" ry="18.6"/>
<text transform="matrix(1 0 0 1 39.6629 515.9244)" class="st12 st16">RW</text>
<text transform="matrix(1 0 0 1 29.6961 517.1475)" class="st26 st12 st16">thank type</text>
<ellipse class="st25" cx="45.2" cy="551.9" rx="18.6" ry="18.6"/>
<text transform="matrix(1 0 0 1 39.6022 553.0494)" class="st12 st16">DW</text>
<text transform="matrix(1 0 0 1 29.6961 554.2725)" class="st26 st12 st16">thank type</text>
</svg>
