<?xml version="1.0" encoding="utf-8"?>
<!-- Generator: Adobe Illustrator 21.0.0, SVG Export Plug-In . SVG Version: 6.00 Build 0)  -->
<svg version="1.1" id="Layer_1" xmlns="http://www.w3.org/2000/svg" xmlns:xlink="http://www.w3.org/1999/xlink" x="0px" y="0px"
	 viewBox="0 0 1366 768" style="enable-background:new 0 0 1366 768;" xml:space="preserve">
<style type="text/css">
	.st0{fill:#F0F8FF;stroke:#708090;stroke-width:0.5;}
	.st1{fill:none;stroke:#0000FF;stroke-width:0.5;}
	.st2{fill:#FFFFFF;fill-opacity:0;}
	.st3{fill:#FFFFFF;stroke:#708090;}
	.st4{fill:none;stroke:#708090;stroke-dasharray:2,2.5;}
	.st5{fill:none;stroke:#708090;stroke-width:1.5;}
	.st6{fill:url(#SVGID_1_);stroke:#000000;}
	.st7{fill:url(#SVGID_2_);stroke:#000000;}
	.st8{fill:url(#SVGID_3_);stroke:#000000;}
	.st9{fill:url(#SVGID_4_);stroke:#000000;}
	.st10{fill:url(#SVGID_5_);stroke:#000000;}
	.st11{fill:none;stroke:#1E90FF;}
	.st12{fill:#FFFFFF;fill-opacity:0.8;stroke:#B0C4DE;stroke-width:2.5;}
	.st13{font-family:'ArialMT';}
	.st14{font-size:8.4px;}
	.st15{fill:#708090;}
	.st16{fill:#F0F8FF;fill-opacity:0;}
	.st17{font-size:6.72px;}
	.st18{fill:#A66211;stroke:#1E90FF;stroke-width:0.5;}
	.st19{fill:#D9D8D9;stroke:#1E90FF;stroke-width:0.5;}
	.st20{stroke:#1E90FF;stroke-width:0.5;}
	.st21{fill:#020202;stroke:#1E90FF;stroke-width:0.5;}
	.st22{fill:#878686;stroke:#1E90FF;stroke-width:0.5;}
	.st23{fill:#FEFB26;stroke:#1E90FF;stroke-width:0.5;}
	.st24{fill:#E0C137;stroke:#1E90FF;stroke-width:0.5;}
	.st25{fill:#CB1753;stroke:#1E90FF;stroke-width:0.5;}
	.st26{fill:#311B1B;stroke:#1E90FF;stroke-width:0.5;}
	.st27{fill:#FFFFFF;stroke:#1E90FF;stroke-width:0.5;}
	.st28{fill:#F4F40F;stroke:#1E90FF;stroke-width:0.5;}
	.st29{fill:#F40F16;stroke:#1E90FF;stroke-width:0.5;}
	.st30{fill:#0FF43D;stroke:#1E90FF;stroke-width:0.5;}
	.st31{fill:#C30FF4;stroke:#1E90FF;stroke-width:0.5;}
	.st32{fill:#0F0FF4;stroke:#1E90FF;stroke-width:0.5;}
	.st33{fill:#9D7300;stroke:#1E90FF;stroke-width:0.5;}
	.st34{fill:none;stroke:#1E90FF;stroke-width:0.5;stroke-dasharray:3,3;}
	.st35{fill:none;stroke:#1E90FF;stroke-width:0.8;}
	.st36{fill:none;stroke:#0000FF;stroke-width:0.5;stroke-dasharray:2,2;}
	.st37{fill:#FFFFFF;stroke:#708090;stroke-width:0.5;stroke-dasharray:2,2.5;}
	.st38{fill:#F0F8FF;}
	.st39{opacity:0;enable-background:new    ;}
</style>
<path class="st0" d="M177.4,587.5h23.7c1.7,0,3,1.3,3,3v23.7c0,1.7-1.3,3-3,3h-23.7c-1.7,0-3-1.3-3-3v-23.7
	C174.4,588.8,175.7,587.5,177.4,587.5z"/>
<path class="st1" d="M189.2,0v587.5"/>
<path class="st2" d="M52.2,11.4h280c2.2,0,4,1.8,4,4v306.7c0,2.2-1.8,4-4,4h-280c-2.2,0-4-1.8-4-4V15.4C48.2,13.2,50,11.4,52.2,11.4
	z"/>
<path class="st3" d="M49.2,8.4h280c2.2,0,4,1.8,4,4v306.7c0,2.2-1.8,4-4,4h-280c-2.2,0-4-1.8-4-4V12.4C45.2,10.2,47,8.4,49.2,8.4z"
	/>
<line class="st4" x1="45.2" y1="8.4" x2="45.2" y2="8.4"/>
<path class="st5" d="M107.6,133.5h62.6c0.6,0,1,0.4,1,1v62.6c0,0.6-0.4,1-1,1h-62.6c-0.6,0-1-0.4-1-1v-62.6
	C106.6,133.9,107.1,133.5,107.6,133.5z"/>
<g transform="rotate(0,39.859588623046875,22.8660888671875)">
	<g transform="translate(17.70074462890625,4.36773681640625)">
		
			<linearGradient id="SVGID_1_" gradientUnits="userSpaceOnUse" x1="-17.1814" y1="763.6779" x2="-17.1814" y2="762.6394" gradientTransform="matrix(26.2107 0 0 -24.617 567.2369 18944.7578)">
			<stop  offset="0" style="stop-color:#A66211"/>
			<stop  offset="0.1249" style="stop-color:#A66211"/>
			<stop  offset="0.125" style="stop-color:#D9D8D9"/>
			<stop  offset="0.2499" style="stop-color:#D9D8D9"/>
			<stop  offset="0.25" style="stop-color:#000000"/>
			<stop  offset="0.3749" style="stop-color:#000000"/>
			<stop  offset="0.375" style="stop-color:#020202"/>
			<stop  offset="0.4999" style="stop-color:#020202"/>
			<stop  offset="0.5" style="stop-color:#878686"/>
			<stop  offset="0.6249" style="stop-color:#878686"/>
			<stop  offset="0.625" style="stop-color:#FEFB26"/>
			<stop  offset="0.7499" style="stop-color:#FEFB26"/>
			<stop  offset="0.75" style="stop-color:#E0C137"/>
			<stop  offset="0.8749" style="stop-color:#E0C137"/>
			<stop  offset="0.875" style="stop-color:#CB1753"/>
			<stop  offset="0.9999" style="stop-color:#CB1753"/>
		</linearGradient>
		<path class="st6" d="M124.5,146.5c-5.3-5.3-9.8,8.5-9.8,11.4c-14.6-1.8-13.9,15.4,2.4,12.7c6.6-1.1,11.8-5.2,12.2-11.4
			c0.2-2.2-3.8-16.5-7.3-9.4C122.3,149.4,125.3,147.3,124.5,146.5"/>
	</g>
	<g transform="translate(12.19580078125,0)">
		
			<linearGradient id="SVGID_2_" gradientUnits="userSpaceOnUse" x1="-11.6966" y1="768" x2="-11.6966" y2="767.029" gradientTransform="matrix(20.4343 0 0 -21.158 353.6202 16396.6953)">
			<stop  offset="0" style="stop-color:#A66211"/>
			<stop  offset="0.1249" style="stop-color:#A66211"/>
			<stop  offset="0.125" style="stop-color:#D9D8D9"/>
			<stop  offset="0.2499" style="stop-color:#D9D8D9"/>
			<stop  offset="0.25" style="stop-color:#000000"/>
			<stop  offset="0.3749" style="stop-color:#000000"/>
			<stop  offset="0.375" style="stop-color:#020202"/>
			<stop  offset="0.4999" style="stop-color:#020202"/>
			<stop  offset="0.5" style="stop-color:#878686"/>
			<stop  offset="0.6249" style="stop-color:#878686"/>
			<stop  offset="0.625" style="stop-color:#FEFB26"/>
			<stop  offset="0.7499" style="stop-color:#FEFB26"/>
			<stop  offset="0.75" style="stop-color:#E0C137"/>
			<stop  offset="0.8749" style="stop-color:#E0C137"/>
			<stop  offset="0.875" style="stop-color:#CB1753"/>
			<stop  offset="0.9999" style="stop-color:#CB1753"/>
		</linearGradient>
		<path class="st7" d="M124.8,152.2L124.8,152.2L124.8,152.2c-0.3,0-0.5,0-0.8,0l0,0c0-3.5-3.1-4.6-6.5-4.9
			c-5.6,0-12.7,9.9-13.1,15.5c-0.4,5,2.6,6.2,6.5,4.1c2.6-1.4,3.1-5.9,6.5-7.3h0.8"/>
	</g>
	<g transform="translate(46.0286865234375,2.836639404296875)">
		
			<linearGradient id="SVGID_3_" gradientUnits="userSpaceOnUse" x1="-45.5133" y1="765.1689" x2="-45.5133" y2="764.1634" gradientTransform="matrix(10.6921 0 0 -24.5031 590.1208 18895.6855)">
			<stop  offset="0" style="stop-color:#A66211"/>
			<stop  offset="0.1249" style="stop-color:#A66211"/>
			<stop  offset="0.125" style="stop-color:#D9D8D9"/>
			<stop  offset="0.2499" style="stop-color:#D9D8D9"/>
			<stop  offset="0.25" style="stop-color:#000000"/>
			<stop  offset="0.3749" style="stop-color:#000000"/>
			<stop  offset="0.375" style="stop-color:#020202"/>
			<stop  offset="0.4999" style="stop-color:#020202"/>
			<stop  offset="0.5" style="stop-color:#878686"/>
			<stop  offset="0.6249" style="stop-color:#878686"/>
			<stop  offset="0.625" style="stop-color:#FEFB26"/>
			<stop  offset="0.7499" style="stop-color:#FEFB26"/>
			<stop  offset="0.75" style="stop-color:#E0C137"/>
			<stop  offset="0.8749" style="stop-color:#E0C137"/>
			<stop  offset="0.875" style="stop-color:#CB1753"/>
			<stop  offset="0.9999" style="stop-color:#CB1753"/>
		</linearGradient>
		<path class="st8" d="M98,150.9L98,150.9L98,150.9c0.9-2.2,2.7-3.5,4.9-4.1l0,0c1.3-0.3,2.4-0.1,3.3,0.8c4.6,3.8,3.2,19.5-1.6,23.7
			c-3-1.7-1.3-8.3-4.9-11.4"/>
	</g>
	<g transform="translate(56.5250244140625,7.038818359375)">
		
			<linearGradient id="SVGID_4_" gradientUnits="userSpaceOnUse" x1="-56.0073" y1="760.9612" x2="-56.0073" y2="759.9869" gradientTransform="matrix(18.9187 0 0 -24.566 1165.3079 18839.6719)">
			<stop  offset="0" style="stop-color:#311B1B"/>
			<stop  offset="0.1428" style="stop-color:#311B1B"/>
			<stop  offset="0.1429" style="stop-color:#FFFFFF"/>
			<stop  offset="0.2856" style="stop-color:#FFFFFF"/>
			<stop  offset="0.2857" style="stop-color:#F4F40F"/>
			<stop  offset="0.4285" style="stop-color:#F4F40F"/>
			<stop  offset="0.4286" style="stop-color:#F40F16"/>
			<stop  offset="0.5713" style="stop-color:#F40F16"/>
			<stop  offset="0.5714" style="stop-color:#0FF43D"/>
			<stop  offset="0.7142" style="stop-color:#0FF43D"/>
			<stop  offset="0.7143" style="stop-color:#C30FF4"/>
			<stop  offset="0.857" style="stop-color:#C30FF4"/>
			<stop  offset="0.8571" style="stop-color:#0F0FF4"/>
			<stop  offset="0.9999" style="stop-color:#0F0FF4"/>
		</linearGradient>
		<path class="st9" d="M96.8,167.2c0,0.8,6.7-5.8,6.9-6.1c2.5-2.7,3.8-5.5,5.3-8.6c0.9-1.9,5.7-11.6,5.7-3.3c-1.8,6-5.7,11-9.4,15.1
			c-1,1.2-3.5,4.8-5.3,5.3C95.6,170.7,96.8,167.4,96.8,167.2"/>
	</g>
	
		<linearGradient id="SVGID_5_" gradientUnits="userSpaceOnUse" x1="0.5011" y1="767.9889" x2="0.5011" y2="767.0056" gradientTransform="matrix(14.1966 0 0 -10.9683 106.6654 8597.2393)">
		<stop  offset="0.495" style="stop-color:#FFFFFF"/>
		<stop  offset="0.4999" style="stop-color:#000000"/>
		<stop  offset="0.5" style="stop-color:#9D7300"/>
		<stop  offset="0.9999" style="stop-color:#9D7300"/>
	</linearGradient>
	<path class="st10" d="M118.2,173.7L118.2,173.7c-3.5,0.8-8.8,3.3-11.5,3.3l0,0c1,3.7,5.4,4.6,8.2,7.5l0,0l0,0l0,0l0,0l0,0
		c0.3-1.4,4.3-10.1,5.9-9C120.5,175.2,118.1,173.6,118.2,173.7"/>
</g>
<path class="st11" d="M138.5,174.9c-1.6-2.6-17.7,9-1.1,12c10.8,2,14.8-5.1,4.8-10.9c-0.9-0.2-1.8-0.6-2.7-1.1c-0.2,0-0.4,0-0.5,0
	S138.7,174.9,138.5,174.9c-1.5-0.3-2.7-0.4-4.3-0.5"/>
<circle class="st12" cx="106.6" cy="147.2" r="5"/>
<text transform="matrix(1 0 0 1 311.2567 317.667)" class="st13 st14">Glyph</text>
<line class="st4" x1="136.8" y1="161" x2="192.8" y2="55"/>
<line class="st4" x1="161.9" y1="165.2" x2="192.8" y2="128.9"/>
<line class="st4" x1="113.8" y1="179" x2="193.3" y2="257.7"/>
<line class="st4" x1="139" y1="180.8" x2="191.3" y2="200.5"/>
<rect x="242.3" y="46.9" class="st15" width="0" height="1.2"/>
<rect x="262.1" y="46.9" class="st15" width="0" height="1.2"/>
<rect x="242.3" y="49.2" class="st15" width="0" height="1.2"/>
<rect x="262.1" y="49.2" class="st15" width="0" height="1.2"/>
<rect x="242.3" y="51.5" class="st15" width="0" height="1.2"/>
<rect x="262.1" y="51.5" class="st15" width="0" height="1.2"/>
<rect x="242.3" y="53.9" class="st15" width="0" height="1.2"/>
<rect x="262.1" y="53.9" class="st15" width="0" height="1.2"/>
<rect x="242.3" y="56.2" class="st15" width="0" height="1.2"/>
<rect x="262.1" y="56.2" class="st15" width="0" height="1.2"/>
<rect x="242.3" y="58.5" class="st15" width="0" height="1.2"/>
<rect x="262.1" y="58.5" class="st15" width="0" height="1.2"/>
<rect x="242.3" y="60.9" class="st15" width="0" height="1.2"/>
<rect x="262.1" y="60.9" class="st15" width="0" height="1.2"/>
<rect x="242.3" y="63.2" class="st15" width="0" height="1.2"/>
<rect x="262.1" y="63.2" class="st15" width="0" height="1.2"/>
<path class="st16" d="M264.2,30.8h40.5c2.2,0,4,1.8,4,4v40.5c0,2.2-1.8,4-4,4h-40.5c-2.2,0-4-1.8-4-4V34.8
	C260.2,32.6,262,30.8,264.2,30.8z"/>
<ellipse class="st16" cx="284.5" cy="55" rx="24.8" ry="24.8"/>
<g>
	<text transform="matrix(1 0 0 1 275.343 43.7764)" class="st13 st17">brown</text>
	<text transform="matrix(1 0 0 1 276.2733 53.6763)" class="st13 st17">paige</text>
	<text transform="matrix(1 0 0 1 281.6939 63.5764)" class="st13 st17">...</text>
</g>
<text transform="matrix(1 0 0 1 277.2117 77.1744)" class="st13 st17">color</text>
<path class="st16" d="M199.7,30.8h40.5c2.2,0,4,1.8,4,4v40.5c0,2.2-1.8,4-4,4h-40.5c-2.2,0-4-1.8-4-4V34.8
	C195.7,32.6,197.5,30.8,199.7,30.8z"/>
<ellipse class="st16" cx="219.9" cy="55" rx="24.8" ry="24.8"/>
<text transform="matrix(1 0 0 1 216.7735 77.1744)" class="st13 st17">fill</text>
<g>
	<rect x="204.4" y="39.4" class="st18" width="10.4" height="10.4"/>
	<rect x="214.7" y="39.4" class="st19" width="10.4" height="10.4"/>
	<rect x="225.1" y="39.4" class="st20" width="10.4" height="10.4"/>
	<rect x="204.4" y="49.8" class="st21" width="10.4" height="10.4"/>
	<rect x="214.7" y="49.8" class="st22" width="10.4" height="10.4"/>
	<rect x="225.1" y="49.8" class="st23" width="10.4" height="10.4"/>
	<rect x="204.4" y="60.2" class="st24" width="10.4" height="10.4"/>
	<rect x="214.7" y="60.2" class="st25" width="10.4" height="10.4"/>
</g>
<rect x="242.3" y="120.7" class="st15" width="0" height="1.4"/>
<rect x="262.1" y="120.7" class="st15" width="0" height="1.4"/>
<rect x="242.3" y="123.4" class="st15" width="0" height="1.4"/>
<rect x="262.1" y="123.4" class="st15" width="0" height="1.4"/>
<rect x="242.3" y="126.1" class="st15" width="0" height="1.4"/>
<rect x="262.1" y="126.1" class="st15" width="0" height="1.4"/>
<rect x="242.3" y="128.9" class="st15" width="0" height="1.4"/>
<rect x="262.1" y="128.9" class="st15" width="0" height="1.4"/>
<rect x="242.3" y="131.6" class="st15" width="0" height="1.4"/>
<rect x="262.1" y="131.6" class="st15" width="0" height="1.4"/>
<rect x="242.3" y="134.3" class="st15" width="0" height="1.4"/>
<rect x="262.1" y="134.3" class="st15" width="0" height="1.4"/>
<rect x="242.3" y="137" class="st15" width="0" height="1.4"/>
<rect x="262.1" y="137" class="st15" width="0" height="1.4"/>
<path class="st16" d="M264.2,104.6h40.5c2.2,0,4,1.8,4,4v40.5c0,2.2-1.8,4-4,4h-40.5c-2.2,0-4-1.8-4-4v-40.5
	C260.2,106.4,262,104.6,264.2,104.6z"/>
<ellipse class="st16" cx="284.5" cy="128.9" rx="24.8" ry="24.8"/>
<g>
	<text transform="matrix(1 0 0 1 276.6506 117.6088)" class="st13 st17">black</text>
	<text transform="matrix(1 0 0 1 277.0197 127.5087)" class="st13 st17">none</text>
	<text transform="matrix(1 0 0 1 281.6939 137.4088)" class="st13 st17">...</text>
</g>
<text transform="matrix(1 0 0 1 268.2457 151.0068)" class="st13 st17">leash color</text>
<path class="st16" d="M199.7,104.6h40.5c2.2,0,4,1.8,4,4v40.5c0,2.2-1.8,4-4,4h-40.5c-2.2,0-4-1.8-4-4v-40.5
	C195.7,106.4,197.5,104.6,199.7,104.6z"/>
<ellipse class="st16" cx="219.9" cy="128.9" rx="24.8" ry="24.8"/>
<text transform="matrix(1 0 0 1 216.7735 151.0068)" class="st13 st17">fill</text>
<g>
	<rect x="204.4" y="113.3" class="st26" width="10.4" height="10.4"/>
	<rect x="214.7" y="113.3" class="st27" width="10.4" height="10.4"/>
	<rect x="225.1" y="113.3" class="st28" width="10.4" height="10.4"/>
	<rect x="204.4" y="123.7" class="st29" width="10.4" height="10.4"/>
	<rect x="214.7" y="123.7" class="st30" width="10.4" height="10.4"/>
	<rect x="225.1" y="123.7" class="st31" width="10.4" height="10.4"/>
	<rect x="204.4" y="134.1" class="st32" width="10.4" height="10.4"/>
</g>
<rect x="242.8" y="249.5" class="st15" width="0" height="1.8"/>
<rect x="262.6" y="249.5" class="st15" width="0" height="1.8"/>
<rect x="242.8" y="265.9" class="st15" width="0" height="1.8"/>
<rect x="262.6" y="265.9" class="st15" width="0" height="1.8"/>
<path class="st16" d="M264.7,233.4h40.5c2.2,0,4,1.8,4,4v40.5c0,2.2-1.8,4-4,4h-40.5c-2.2,0-4-1.8-4-4v-40.5
	C260.7,235.2,262.5,233.4,264.7,233.4z"/>
<ellipse class="st16" cx="285" cy="257.7" rx="24.8" ry="24.8"/>
<g>
	<text transform="matrix(1 0 0 1 281.2571 251.3911)" class="st13 st17">no</text>
	<text transform="matrix(1 0 0 1 279.7658 261.2911)" class="st13 st17">yes</text>
</g>
<text transform="matrix(1 0 0 1 274.7209 279.8392)" class="st13 st17">barked</text>
<path class="st16" d="M200.2,233.4h40.5c2.2,0,4,1.8,4,4v40.5c0,2.2-1.8,4-4,4h-40.5c-2.2,0-4-1.8-4-4v-40.5
	C196.2,235.2,198,233.4,200.2,233.4z"/>
<ellipse class="st16" cx="220.4" cy="257.7" rx="24.8" ry="24.8"/>
<text transform="matrix(1 0 0 1 217.2735 279.8392)" class="st13 st17">fill</text>
<g>
	<rect x="204.9" y="249.9" class="st20" width="15.6" height="15.6"/>
	<rect x="220.4" y="249.9" class="st33" width="15.6" height="15.6"/>
</g>
<rect x="240.8" y="192.4" class="st15" width="0" height="1.8"/>
<rect x="260.6" y="192.4" class="st15" width="0" height="1.8"/>
<rect x="240.8" y="196.4" class="st15" width="0" height="1.8"/>
<rect x="260.6" y="196.4" class="st15" width="0" height="1.8"/>
<rect x="240.8" y="200.5" class="st15" width="0" height="1.8"/>
<rect x="260.6" y="200.5" class="st15" width="0" height="1.8"/>
<rect x="240.8" y="204.6" class="st15" width="0" height="1.8"/>
<rect x="260.6" y="204.6" class="st15" width="0" height="1.8"/>
<rect x="240.8" y="208.7" class="st15" width="0" height="1.8"/>
<rect x="260.6" y="208.7" class="st15" width="0" height="1.8"/>
<path class="st16" d="M262.7,176.3h40.5c2.2,0,4,1.8,4,4v40.5c0,2.2-1.8,4-4,4h-40.5c-2.2,0-4-1.8-4-4v-40.5
	C258.7,178.1,260.5,176.3,262.7,176.3z"/>
<ellipse class="st16" cx="283" cy="200.5" rx="24.8" ry="24.8"/>
<g>
	<text transform="matrix(1 0 0 1 271.0441 189.2736)" class="st13 st17">medium</text>
	<text transform="matrix(1 0 0 1 275.1539 199.1735)" class="st13 st17">small</text>
	<text transform="matrix(1 0 0 1 280.1939 209.0735)" class="st13 st17">...</text>
</g>
<text transform="matrix(1 0 0 1 277.0193 222.6716)" class="st13 st17">size</text>
<path class="st16" d="M198.2,176.3h40.5c2.2,0,4,1.8,4,4v40.5c0,2.2-1.8,4-4,4h-40.5c-2.2,0-4-1.8-4-4v-40.5
	C194.2,178.1,196,176.3,198.2,176.3z"/>
<ellipse class="st16" cx="218.4" cy="200.5" rx="24.8" ry="24.8"/>
<text transform="matrix(1 0 0 1 209.2917 222.6716)" class="st13 st17">shape</text>
<g transform="translate(0,0)">
	<g transform="translate(10.057500000000001,14.955)">
		<rect x="193.7" y="175.8" class="st34" width="9.8" height="9.8"/>
		<g>
			<path class="st35" d="M198.4,176.3v-0.3l0,0v-0.3h-0.3h-0.3h-0.3h-0.3H197h-0.3l-0.3,0.3l-0.3,0.3l-0.3,0.3l-0.5,0.3l-0.3,0.3
				l-0.3,0.3l-0.3,0.3l-0.3,0.3l-0.3,0.3v0.3v0.3l-0.3,0.5l0,0v0.5l0,0v0.5v0.3l0.3,0.3l0,0l0.3,0.3l0.3,0.3l0.3,0.3l0.5,0.3h0.3
				l0.3,0.3h0.3h0.5h0.3h0.5l0.5,0.3h0.5l0.3,0.3h0.3h0.3h0.3h0.5h0.3h0.3h0.3h0.3l0.3-0.3h0.3l0.3-0.3h0.3l0.5-0.3l0.3-0.3v-0.3
				l0.3-0.3V181v-0.3v-0.3v-0.3v-0.5v-0.3l-0.3-0.3v-0.3l-0.3-0.3l-0.3-0.3l-0.5-0.3h-0.3l-0.3-0.3l-0.3-0.3h-0.3l-0.3-0.3l-0.3-0.3
				h-0.3l0,0H200l-0.3-0.3h-0.3h-0.3l-0.3-0.3l0,0l0,0h-0.3l0,0H198.4L198.4,176.3h-0.3h-0.3h-0.3l-0.3-0.3H197h-0.5h-0.3"/>
		</g>
	</g>
	<g transform="translate(19.8525,14.955)">
		<rect x="193.7" y="175.8" class="st34" width="9.8" height="9.8"/>
		<g>
			<path class="st35" d="M198,175.8L198,175.8L198,175.8L198,175.8h-0.3h-0.3h-0.3h-0.3h-0.3h-0.3h-0.3l-0.3,0.3h-0.3v0.3h-0.3
				l-0.3,0.3l-0.3,0.3l0,0l-0.3,0.3l-0.3,0.3H194l-0.3,0.3l0,0v0.3v0.3v0.3v0.3v0.3v0.3v0.3l0.3,0.3v0.3h0.3l0.3,0.3l0.3,0.3v0.3
				h0.3l0.3,0.3l0.3,0.3h0.3h0.3l0.3,0.3h0.3h0.3h0.5l0.5,0.3h0.3h0.3l0.5,0.3h0.3h0.3h0.3h0.5l0.3-0.3h0.3l0.5-0.3h0.3l0.5-0.3h0.3
				h0.3l0.3-0.3l0,0l0.3-0.3v-0.3l0.3-0.5v-0.3v-0.3l-0.3-0.3L203,179l-0.3-0.3l-0.5-0.5h-0.3l-0.3-0.3v-0.3l-0.5-0.3h-0.3l-0.3-0.3
				h-0.3h-0.3l-0.3-0.3h-0.3h-0.3l-0.3-0.3l-0.5-0.3l-0.3-0.3h-0.5l-0.3,0.3h-0.3"/>
		</g>
	</g>
	<g transform="translate(29.6475,14.955)">
		<rect x="193.7" y="175.8" class="st34" width="9.8" height="9.8"/>
		<g>
			<path class="st35" d="M198.5,176.2L198.5,176.2h-0.2h-0.2l-0.4-0.2h-0.4h-0.4l-0.6,0.2h-0.4l-0.2,0.4l-0.4,0.2l-0.2,0.4l-0.4,0.6
				l-0.2,0.4l-0.2,0.2l-0.4,0.6v0.4l-0.2,0.2v0.4v0.2v0.2l0.2,0.2l0.2,0.2l0.2,0.2h0.2l0.4,0.2l0.4,0.2h0.4l0.6,0.2h0.4l0.8,0.2h0.6
				h0.6h0.4h0.8h0.4l0.4-0.2h0.4h0.2l0.4-0.2l0.6-0.2l0.2-0.2l0.2-0.2l0.4-0.2v-0.4l0.2-0.2v-0.6l0.2-0.2v-0.4v-0.2l-0.2-0.2v-0.2
				l-0.2-0.4l-0.2-0.2v-0.2l-0.2-0.2l-0.2-0.2l-0.6-0.2l-0.4-0.2l-0.4-0.2h-0.2l-0.6-0.2h-0.6h-0.6H198.5l-0.6-0.2l-0.4-0.2"/>
		</g>
	</g>
	<g transform="translate(10.057500000000001,24.75)">
		<rect x="193.7" y="175.8" class="st34" width="9.8" height="9.8"/>
		<g>
			<path class="st35" d="M197.8,176.3L197.8,176.3L197.8,176.3L197.8,176.3h-0.2h-0.2h-0.3H197l-0.3,0.2l-0.3,0.2l-0.3,0.2l-0.3,0.2
				l-0.5,0.5l-0.3,0.3l-0.2,0.3l-0.3,0.2l-0.3,0.5l-0.2,0.2l-0.2,0.3l-0.2,0.3v0.2l0.2,0.5v0.2l0.2,0.2l0.2,0.2l0.3,0.2l0.3,0.2
				l0.2,0.2h0.3h0.3l0.5,0.2l0.5,0.2h0.3h0.3h0.5h0.3h0.3h0.5l0.3-0.2h0.3h0.3h0.3h0.2l0.3-0.2h0.2h0.3l0.3-0.2h0.2h0.2h0.3h0.2h0.2
				l0.2-0.3h0.2l0.2-0.2l0.2-0.3l0.2-0.2l0.2-0.5v-0.2l0.2-0.3l0.2-0.2v-0.3v-0.2v-0.2V178v-0.2v-0.2l-0.2-0.2l-0.2-0.2v-0.2
				l-0.2-0.2l-0.3-0.3h-0.2l-0.2-0.2l-0.2-0.2l-0.2-0.2h-0.3l-0.3-0.2h-0.2l-0.5-0.2l-0.2-0.2h-0.3h-0.2h-0.3h-0.2h-0.2h-0.3h-0.2
				h-0.3h-0.2h-0.2l-0.3,0.2h-0.3l-0.3,0.2l-0.3,0.2l-0.5,0.2l-0.3,0.5l-0.3,0.2"/>
		</g>
	</g>
	<g transform="translate(19.8525,24.75)">
		<rect x="193.7" y="175.8" class="st34" width="9.8" height="9.8"/>
		<g>
			<path class="st35" d="M200.3,175.8L200.3,175.8L200.3,175.8L200.3,175.8L200.3,175.8h-0.7H199h-0.7h-0.7l0,0H197h-0.7h-0.7
				l-0.7,0.7l0,0l-0.7,0.7l0,0l-0.7,0.7v0.7v0.7l0,0v0.7v0.7h0.7v0.7h0.7l0.7,0.7h0.7h0.7l0.7,0.7h0.7h0.7h0.7h0.7h0.7l0.7-0.7h0.7
				v-0.7l0.7-0.7h0.7v-1.3l0,0v-0.7l0,0l-0.7-0.7l0,0l-0.7-0.7l0,0h-0.7v-0.7H201h-0.7h-0.7l-1.3,1.3"/>
		</g>
	</g>
</g>
<path class="st2" d="M52.2,334.5h280c2.2,0,4,1.8,4,4V578c0,2.2-1.8,4-4,4h-280c-2.2,0-4-1.8-4-4V338.5
	C48.2,336.3,50,334.5,52.2,334.5z"/>
<path class="st3" d="M49.2,331.5h280c2.2,0,4,1.8,4,4V575c0,2.2-1.8,4-4,4h-280c-2.2,0-4-1.8-4-4V335.5
	C45.2,333.3,47,331.5,49.2,331.5z"/>
<line class="st4" x1="70" y1="399.6" x2="127.1" y2="384.6"/>
<line class="st4" x1="70" y1="436.7" x2="127.1" y2="431.7"/>
<line class="st4" x1="70" y1="473.9" x2="127.1" y2="478.9"/>
<line class="st4" x1="70" y1="511" x2="127.1" y2="526"/>
<path class="st4" d="M128.1,363.4h40.4c0.6,0,1,0.4,1,1v40.4c0,0.6-0.4,1-1,1h-40.4c-0.6,0-1-0.4-1-1v-40.4
	C127.1,363.8,127.5,363.4,128.1,363.4z"/>
<g transform="rotate(0,229.47317504882812,253.92062377929688)">
	<g transform="translate(0,0)">
		<path class="st36" d="M136,395.6L136,395.6l-0.2-0.7l0.1-1l0.1-0.9v-0.9l0.1-0.8l0.1-0.9l0.1-0.8l0.2-1l0.2-0.8l0.2-1l0.2-0.9
			l0.4-1.1l0.3-1l0.4-1.3l0.4-1.3l0.4-1l0.4-1.1l0.5-1.2l0.4-1l0.5-1l0.4-0.8l0.5-0.8l0.5-0.8l0.5-0.7l0.5-0.6l0.5-0.5l0.5-0.5
			l0.4-0.3l0.2-0.1"/>
	</g>
	<g transform="translate(176.66030883789062,19.799285888671875)">
		<path class="st36" d="M-30.9,377.2h-0.2l-0.1-0.5v-0.9v-1.1l-0.1-0.9v-1.4l0.1-1.1l0.1-1l0.1-0.8l0.1-1l0.2-0.9l0.1-1l0.2-0.9
			l0.1-1.1l0.2-1.1l0.3-0.8l0.4-1.3l0.3-0.9l0.4-0.8l0.4-0.9l0.5-0.9l0.5-0.9l0.4-0.8l0.5-0.8l0.4-0.7l0.5-0.7l0.4-0.7l0.4-0.5
			l0.3-0.4l0.3-0.3h0.1l0.1-0.1l0,0"/>
	</g>
	<g transform="translate(317.50408935546875,52.849609375)">
		<path class="st36" d="M-163.9,345.6l-0.2-0.1l-0.2-0.7l-0.1-0.8l-0.1-1.4v-1.2l0.2-1.5l0.2-1.4l0.3-1.5l0.2-1.3l0.2-1.1l0.3-1.2
			l0.3-1.3l0.3-1.2l0.4-1.1l0.5-1.4l0.7-1.4l0.8-1.5l0.7-1.1l0.7-1l0.5-0.8l0.6-0.8l0.3-0.4l0.2-0.2l0.2-0.1h0.1l0.1-0.1l0.1-0.1
			l0,0v-0.1h0.1"/>
	</g>
</g>
<circle class="st12" cx="135.8" cy="370.8" r="5"/>
<path class="st4" d="M128.1,410.5h40.4c0.6,0,1,0.4,1,1v40.4c0,0.6-0.4,1-1,1h-40.4c-0.6,0-1-0.4-1-1v-40.4
	C127.1,411,127.5,410.5,128.1,410.5z"/>
<g transform="rotate(0,389.98583984375,214.9189453125)">
	<g transform="translate(0,0)">
		<path class="st36" d="M127.8,435.5l-0.1-0.1l-0.4-1.2l-0.2-1.4v-1.5l0.1-1.8l0.2-1.6l0.3-1.3l0.4-1.4l0.6-1.2l0.7-1.2l0.8-1.1
			l1-1.2l0.4-0.5h0.1"/>
	</g>
	<g transform="translate(129.79034423828125,52.0220947265625)">
		<path class="st36" d="M5.4,386H5.3l-0.6-0.7l-0.2-0.9l-0.1-1v-1.1v-0.9v-0.8l0.1-0.8l0.1-0.6l0.1-0.6l0.2-0.7l0.2-0.8l0.2-0.8
			l0.2-0.8l0.3-0.8l0.3-0.8l0.4-0.9l0.4-0.8l0.4-0.7l0.4-0.5l0.2-0.2v-0.1l0,0l0,0l-0.1,0.1v0.1l-0.1,0.1l-0.1,0.3l-0.1,0.2l0.1,0.1
			l0,0"/>
	</g>
	<g transform="translate(249.8065185546875,109.82879638671875)">
		<path class="st36" d="M-107.9,330.2l-0.1,0.1l-0.2-0.4l-0.3-0.8l-0.2-1.1l-0.2-1.1l-0.1-0.9l-0.1-0.8v-0.8l0.1-0.9l0.2-0.9
			l0.3-0.9l0.3-0.9l0.3-0.9l0.3-0.7l0.2-0.6l0.2-0.7l0.1-0.4l0.1-0.3l0.2-0.3l0.1-0.3l0.1-0.2v-0.2v-0.2v-0.1h-0.1"/>
	</g>
	<g transform="translate(347.716796875,150.0986328125)">
		<path class="st36" d="M-200.9,291.5l-0.1,0.1l-0.2-0.5l-0.3-0.8l-0.2-1.2l-0.1-1v-1.1l0.1-0.9l0.2-0.9l0.3-0.9l0.3-0.8l0.3-0.6
			l0.3-0.5l0.4-0.7l0.4-0.7l0.2-0.4l0.2-0.5l0.3-0.4l0.2-0.4l0.2-0.3l0.1-0.2l0.1-0.2l0.1-0.1l0.1-0.1v-0.1l0,0l0,0v-0.1"/>
	</g>
	<g transform="translate(468.98388671875,197.00921630859375)">
		<path class="st36" d="M-315.5,245.4L-315.5,245.4l-0.3-0.3l-0.2-0.5l-0.2-0.7l-0.2-0.6l-0.1-0.7l0.1-0.7l0.1-0.7l0.1-0.8l0.1-0.7
			l0.1-0.5l0.2-0.7l0.2-0.5l0.2-0.6l0.1-0.5l0.1-0.6l0.2-0.6l0.2-0.4l0.3-0.4l0.2-0.4l0.2-0.3l0.2-0.2l0.2-0.1l0.1-0.1v-0.1h0.1l0,0
			v0.1"/>
	</g>
	<g transform="translate(587.943603515625,192.04400634765625)">
		<path class="st36" d="M-428.1,251.1L-428.1,251.1v-0.2l-0.2-0.3l-0.2-0.6l-0.3-0.7l-0.2-0.6l-0.1-0.8l0.1-0.7l0.2-0.8l0.2-0.8
			l0.1-0.6l0.1-0.6l0.2-0.7l0.2-0.5l0.2-0.5l0.1-0.4l0.1-0.5l0.1-0.5l0.2-0.5l0.3-0.4l0.2-0.4l0.2-0.3l0.1-0.1l0.1-0.1l0.1-0.1l0,0
			l0,0v-0.1l0,0v-0.1l0.1-0.1v-0.1l0.1-0.1l0,0l0,0l0,0l0,0l0,0l0.1-0.1v-0.1l0,0l0,0l0,0l0,0l0,0l0,0l0.1-0.1l0.1-0.1l0.1-0.1
			l0.1-0.1l0.1-0.1l0.1-0.1v-0.1l0,0l0,0l0,0l0,0"/>
	</g>
	<g transform="translate(706.9437255859375,234.93023681640625)">
		<path class="st36" d="M-541.1,208.5h-0.1l-0.1-0.4l-0.1-0.6l-0.1-0.6l0.1-0.7l0.1-0.5l0.1-0.5l0.1-0.5l0.1-0.3l0.1-0.4l0.1-0.2
			l0.2-0.2l0.2-0.2l0.1-0.3l0.1-0.3l0.1-0.2v-0.1l0.1-0.2l0.1-0.1v-0.1l0.1-0.1v-0.1l0.1-0.1l0.1-0.1l0.1-0.2l0.1-0.2v-0.1l0.1-0.1
			l0.1-0.2v-0.1l0.1-0.1v-0.1l0.1-0.2l0.1-0.1v-0.1v-0.1l0,0v-0.1h0.1l0.1-0.1l0,0l0,0l0,0h0.1l0,0l0,0l0,0l0,0l0,0h0.1v-0.1
			l0.1-0.1l0.1-0.1l0.1-0.1l0.1-0.1l0.1-0.1l0.1-0.1l0.1-0.1v-0.1h0.1h0.1l0,0l0,0v-0.1l0,0l0,0l0,0l0,0l0,0l0,0l0,0l0,0v0.1l0,0
			l0,0l0,0l0,0l0,0l0,0v-0.1v-0.1h0.1l0,0l0,0l0,0l0,0v-0.1l0.1-0.1v-0.1l0,0h0.1l0.1-0.1l0,0l0.1-0.1l0,0l0.1-0.1l0.1-0.1l0.1-0.1
			l0.2-0.1l0.1-0.1l0.1-0.1l0.1-0.1l0.1-0.1l0.1-0.1l0.1-0.1l0.1-0.1l0.1-0.1l0.2-0.1h0.1l0,0l0,0v0.1l0,0l0,0l0,0v0.1v0.1v0.1l0,0
			h-0.1"/>
	</g>
</g>
<circle class="st12" cx="127.1" cy="420" r="5"/>
<path class="st4" d="M128.1,457.6h40.4c0.6,0,1,0.4,1,1v40.4c0,0.6-0.4,1-1,1h-40.4c-0.6,0-1-0.4-1-1v-40.4
	C127.1,458.1,127.5,457.6,128.1,457.6z"/>
<g transform="rotate(0,159.66812133789062,346.0510864257813)">
	<g transform="translate(7.10943603515625,692.1021728515625)">
		<path class="st36" d="M132.9-194.4"/>
	</g>
	<g transform="translate(0,0)">
		<path class="st36" d="M140,497.7l-0.1-0.1l-0.1-0.5l-0.1-1v-0.5l-0.1-0.8v-1v-0.7l0.1-1.1l0.1-1.1l0.1-0.8l0.2-1.3l0.2-1.2
			l0.1-0.9l0.2-1.3l0.3-1.2l0.3-1.3l0.4-1.3l0.4-1.2l0.5-1.1l0.3-0.8l0.5-1.1l0.5-1l0.5-1l0.5-1l0.4-0.7l0.8-1.3l0.4-0.7l0.9-1.3
			l0.7-0.9l0.7-0.9l0.9-1.1l0.6-0.8l0.7-0.8l0.9-1l0.7-0.7l1-0.9l0.6-0.6l0.6-0.7l0.4-0.4l0.5-0.5l0.4-0.3l0.2-0.2l0.3-0.2l0.3-0.2
			l0.2-0.1l0.1-0.1v-0.1l-0.1-0.1h-0.1l-0.1,0.1"/>
	</g>
</g>
<circle class="st12" cx="139.6" cy="460" r="5"/>
<path class="st4" d="M128.1,504.8h40.4c0.6,0,1,0.4,1,1v40.4c0,0.6-0.4,1-1,1h-40.4c-0.6,0-1-0.4-1-1v-40.4
	C127.1,505.2,127.5,504.8,128.1,504.8z"/>
<g transform="rotate(0,0,0)">
</g>
<circle class="st12" cx="148.3" cy="526" r="5"/>
<text transform="matrix(1 0 0 1 307.9795 573.582)" class="st13 st14">Layout</text>
<path class="st37" d="M45.2,446.3"/>
<path class="st37" d="M45.2,410.6"/>
<ellipse class="st0" cx="45.2" cy="511" rx="18.6" ry="18.6"/>
<text transform="matrix(1 0 0 1 41.2789 513.3315)" class="st13 st17">fur</text>
<ellipse class="st38" cx="45.2" cy="399.6" rx="18.6" ry="18.6"/>
<text transform="matrix(1 0 0 1 33.2497 400.7335)" class="st13 st17">medium</text>
<text transform="matrix(1 0 0 1 41.2789 401.9565)" class="st39 st13 st17">fur</text>
<ellipse class="st38" cx="45.2" cy="436.7" rx="18.6" ry="18.6"/>
<text transform="matrix(1 0 0 1 37.7302 437.8585)" class="st13 st17">short</text>
<text transform="matrix(1 0 0 1 41.2789 439.0815)" class="st39 st13 st17">fur</text>
<ellipse class="st38" cx="45.2" cy="473.9" rx="18.6" ry="18.6"/>
<text transform="matrix(1 0 0 1 38.8475 474.9835)" class="st13 st17">long</text>
<text transform="matrix(1 0 0 1 41.2789 476.2065)" class="st39 st13 st17">fur</text>
</svg>
