<?xml version="1.0" encoding="utf-8"?>
<!-- Generator: Adobe Illustrator 21.0.0, SVG Export Plug-In . SVG Version: 6.00 Build 0)  -->
<svg version="1.1" id="Layer_1" xmlns="http://www.w3.org/2000/svg" xmlns:xlink="http://www.w3.org/1999/xlink" x="0px" y="0px"
	 viewBox="0 0 373 986" style="enable-background:new 0 0 373 986;" xml:space="preserve">
<style type="text/css">
	.st0{fill:#F0F8FF;stroke:#708090;stroke-width:0.5;}
	.st1{fill:none;stroke:#0000FF;stroke-width:0.5;}
	.st2{fill:#FFFFFF;fill-opacity:0;}
	.st3{fill:#FFFFFF;stroke:#708090;}
	.st4{fill:none;stroke:#708090;stroke-dasharray:2,2.5;}
	.st5{fill:none;stroke:#708090;stroke-width:1.5;}
	.st6{fill:none;stroke:#000000;}
	.st7{fill:url(#SVGID_1_);stroke:#000000;}
	.st8{fill:url(#SVGID_2_);stroke:#000000;}
	.st9{fill:url(#SVGID_3_);stroke:#FFFFFF;}
	.st10{fill:url(#SVGID_4_);stroke:#FFFFFF;}
	.st11{fill:url(#SVGID_5_);stroke:#FFFFFF;}
	.st12{fill:url(#SVGID_6_);stroke:#FFFFFF;}
	.st13{fill:none;stroke:#1E90FF;}
	.st14{fill:#FFFFFF;fill-opacity:0.8;stroke:#B0C4DE;stroke-width:2.5;}
	.st15{font-family:'ArialMT';}
	.st16{font-size:8.4px;}
	.st17{fill:#708090;}
	.st18{fill:#F0F8FF;fill-opacity:0;}
	.st19{fill:#640E2B;stroke:#1E90FF;stroke-width:0.5;}
	.st20{fill:none;stroke:#1E90FF;stroke-width:0.5;}
	.st21{fill:#4A531A;stroke:#1E90FF;stroke-width:0.5;}
	.st22{fill:#D06DEB;stroke:#1E90FF;stroke-width:0.5;}
	.st23{fill:#84FFA5;stroke:#1E90FF;stroke-width:0.5;}
	.st24{fill:#7612A8;stroke:#1E90FF;stroke-width:0.5;}
	.st25{fill:#FFFFFF;stroke:#1E90FF;stroke-width:0.5;}
	.st26{fill:#F41832;stroke:#1E90FF;stroke-width:0.5;}
	.st27{fill:#E8F992;stroke:#1E90FF;stroke-width:0.5;}
	.st28{fill:#E2BEC3;stroke:#1E90FF;stroke-width:0.5;}
	.st29{fill:#440E14;stroke:#1E90FF;stroke-width:0.5;}
	.st30{fill:#DEC4AD;stroke:#1E90FF;stroke-width:0.5;}
	.st31{fill:#E28029;stroke:#1E90FF;stroke-width:0.5;}
	.st32{fill:#C3BDB8;stroke:#1E90FF;stroke-width:0.5;}
	.st33{fill:#E9C4A3;stroke:#1E90FF;stroke-width:0.5;}
	.st34{fill:#E7185D;stroke:#1E90FF;stroke-width:0.5;}
	.st35{fill:none;stroke:#1E90FF;stroke-width:0.78;}
	.st36{fill:none;stroke:#1E90FF;stroke-width:0.5125;}
	.st37{fill:none;stroke:#1E90FF;stroke-width:0.417;}
	.st38{fill:none;stroke:#1E90FF;stroke-width:0.5;stroke-dasharray:3,3;}
	.st39{fill:none;stroke:#1E90FF;stroke-width:0.8;}
	.st40{fill:none;stroke:#0000FF;stroke-width:0.5;stroke-dasharray:2,2;}
	.st41{fill:#F0F8FF;}
	.st42{opacity:0;enable-background:new    ;}
</style>
<path class="st0" d="M176,936.8h26.4c1.7,0,3,1.3,3,3v26.4c0,1.7-1.3,3-3,3H176c-1.7,0-3-1.3-3-3v-26.4
	C173,938.1,174.3,936.8,176,936.8z"/>
<path class="st1" d="M189.2,0v936.8"/>
<path class="st2" d="M52.2,12.2h280c2.2,0,4,1.8,4,4v423.7c0,2.2-1.8,4-4,4h-280c-2.2,0-4-1.8-4-4V16.2C48.2,14,50,12.2,52.2,12.2z"
	/>
<path class="st3" d="M49.2,9.2h280c2.2,0,4,1.8,4,4v423.7c0,2.2-1.8,4-4,4h-280c-2.2,0-4-1.8-4-4V13.2C45.2,11,47,9.2,49.2,9.2z"/>
<line class="st4" x1="45.2" y1="9.2" x2="45.2" y2="9.2"/>
<path class="st5" d="M107.6,192.7h62.6c0.6,0,1,0.4,1,1v62.6c0,0.6-0.4,1-1,1h-62.6c-0.6,0-1-0.4-1-1v-62.6
	C106.6,193.2,107.1,192.7,107.6,192.7z"/>
<path class="st6" d="M162.1,233.3c-0.2,0.4-0.5,0.7-0.7,0.7s-0.5,0-0.7,0c-0.2,0-0.5,0-0.7,0c-1.2,0-2.4,0.7-3.5,0.7
	c-0.7,0-1.4,0-2.1,0c-0.7,0-1.4,0-2.1,0c-0.5,0-0.9,0-1.4,0c-0.9,0-1.9,0-2.8,0c-0.5,0-0.9,0-1.4,0c-0.7,0-1.4-0.7-2.1-0.7
	c-0.5,0-0.9,0-1.4,0c-0.5,0-0.9-0.5-1.4-0.7c-0.7-0.3-1.4-0.2-2.1-0.7c-0.2-0.2-0.5-0.2-0.7-0.7v-0.7v-1.4v-0.7
	c0.2-0.5,0.5-0.7,0.7-0.7c0.2,0,0.5,0,0.7,0c0.5,0,0.9-0.3,1.4-0.7c0.2-0.2,0.5-0.5,0.7-0.7c0.7-0.5,1.4-0.4,2.1-0.7
	c0.5-0.2,0.9-0.3,1.4-0.7c0.2-0.2,0.5-0.7,0.7-0.7s0.5,0,0.7,0s0.5-0.7,0.7-0.7c0.2,0,0.5,0,0.7,0s0.5,0,0.7,0s0.5-0.7,0.7-0.7
	c0.2,0,0.5,0,0.7,0s0.5,0,0.7,0s0.5-0.2,0.7-0.7V222c-0.2,0-0.5,0-0.7,0s-0.5-0.4-0.7-0.7c-0.2-0.4-0.5-1.4-0.7-1.4
	c-0.2,0-0.5,0-0.7,0s-0.5-0.5-0.7-0.7s-0.5-0.7-0.7-0.7c-0.2,0-0.5,0-0.7,0v-0.7c-0.2-0.5-0.5-0.5-0.7-0.7s-0.5-0.2-0.7-0.7v-0.7
	c-0.2-0.5-0.5-0.2-0.7-0.7v-0.7v-0.7c0.2,0,0.5,0,0.7,0c0.2,0,0.5-0.7,0.7-0.7s0.5,0,0.7,0s0.5,0,0.7,0c0.2,0,0.5-0.7,0.7-0.7
	s0.5,0,0.7,0s0.5,0,0.7,0v-0.7c0.2,0,0.5,0,0.7,0s0.5-0.7,0.7-0.7s0.5,0,0.7,0V210v-0.7c-0.2,0-0.5,0-0.7,0s-0.5-0.7-0.7-0.7
	s-0.5,0-0.7,0v-0.7c-0.2,0-0.5,0-0.7,0s-0.5-1.1-0.7-1.4c-0.2-0.4-0.5-0.2-0.7-0.7v-0.7v-0.7v-0.7V203c0.2,0,0.5,0,0.7,0v-0.7
	c0.2,0,0.5,0,0.7,0v-0.7c0.2,0,0.5,0,0.7,0v-0.7c0.2,0,0.5,0,0.7,0v-0.7c0.2,0,0.5,0,0.7,0s0.5-0.2,0.7-0.7v-0.7c0.2,0,0.5,0,0.7,0
	s0.5-0.7,0.7-0.7s0.5,0,0.7,0c0.2,0,0.5-0.7,0.7-0.7s0.5,0,0.7,0s0.5-0.7,0.7-0.7c0.5,0,0.9,0,1.4,0c0.2,0,0.5-0.7,0.7-0.7
	c0.2,0,0.5,0,0.7,0c0.5,0,0.9,0,1.4,0c0.2,0,0.5,0,0.7,0s0.5,0,0.7,0s0.5,0,0.7,0c0.2,0,0.5,0,0.7,0v0.7v0.7v0.7v0.7v0.7
	c-0.2,0-0.5,0-0.7,0v0.7c-0.2,0.5-0.5,0.5-0.7,0.7s-0.5,0.7-0.7,0.7s-0.5,0-0.7,0c-0.2,0-0.5,0-0.7,0v0.7c-0.2,0-0.5,0-0.7,0v0.7
	c-0.2,0-0.5,0-0.7,0v0.7v0.7v0.7v0.7c0.2,0,0.5,0,0.7,0s0.5,0.5,0.7,0.7s0.5,0.7,0.7,0.7c0.2,0,0.5,0,0.7,0v0.7c0.2,0,0.5,0,0.7,0
	s0.5,0.7,0.7,0.7c0.2,0,0.5,0,0.7,0s0.5,0.7,0.7,0.7s0.5,0,0.7,0v0.7v0.7v0.7v0.7c-0.2,0-0.5,0-0.7,0v0.7c-0.2,0.5-0.5,0.7-0.7,0.7
	s-0.5,0-0.7,0v0.7v0.7c-0.2,0.5-0.5,0.2-0.7,0.7v0.7v0.7c0.2,0.5,0.5,0.2,0.7,0.7v0.7c0.2,0.5,0.5,0.7,0.7,0.7s0.5,0,0.7,0
	c0.5,0,0.9,0,1.4,0c0.2,0,0.5,0,0.7,0c0.5,0,0.9,0,1.4,0c0.2,0,0.5,0,0.7,0c0.2,0,0.5,0.2,0.7,0.7v0.7v1.4c-0.2,0-0.5,0-0.7,0
	c-0.5,0-0.9,0.7-1.4,0.7c-0.5,0-0.9,0-1.4,0c-0.2,0-0.5,0.7-0.7,0.7c-0.5,0-0.9,0-1.4,0c-0.2,0-0.5,0-0.7,0v0.7c-0.2,0-0.5,0-0.7,0
	v0.7v0.7c0.2,0,0.5,0,0.7,0v0.7c0.2,0,0.5,0,0.7,0s0.5,0,0.7,0c0.5,0,0.9,0,1.4,0c0.2,0,0.5,0,0.7,0s0.5,0,0.7,0c0.2,0,0.5,0,0.7,0
	s0.5,0,0.7,0c0.2,0,0.5,0,0.7,0c0.2,0,0.5,0,0.7,0s0.5,0.2,0.7,0.7v0.7c0.2,0,0.5,0,0.7,0v0.7v0.7c-0.2,0.5-0.5,0.2-0.7,0.7v0.7
	c-0.2,0-0.5,0-0.7,0v0.7c-0.2,0-0.5,0-0.7,0c-0.2,0-0.5,0.7-0.7,0.7c-0.2,0-0.5,0-0.7,0v0.7c-0.2,0-0.5,0-0.7,0
	c-0.2,0-0.5,0.7-0.7,0.7s-0.5,0-0.7,0s-0.5,0-0.7,0v0.7c-0.2,0-0.5,0-0.7,0s-0.5,0-0.7,0s-0.5,0-0.7,0c-0.2,0-0.5,0-0.7,0v0.7
	c-0.2,0-0.5,0-0.7,0s-0.5,0-0.7,0c-0.2,0-0.5,0-0.7,0s-0.5,0-0.7,0c-0.5,0-0.9,0-1.4,0"/>
<linearGradient id="SVGID_1_" gradientUnits="userSpaceOnUse" x1="0.5" y1="768" x2="0.5" y2="767" gradientTransform="matrix(54.1702 0 0 -50.0303 115.1079 38627.5352)">
	<stop  offset="0" style="stop-color:#E2BEC3"/>
	<stop  offset="0.1249" style="stop-color:#E2BEC3"/>
	<stop  offset="0.125" style="stop-color:#440E14"/>
	<stop  offset="0.2499" style="stop-color:#440E14"/>
	<stop  offset="0.25" style="stop-color:#DEC4AD"/>
	<stop  offset="0.3749" style="stop-color:#DEC4AD"/>
	<stop  offset="0.375" style="stop-color:#E28029"/>
	<stop  offset="0.4999" style="stop-color:#E28029"/>
	<stop  offset="0.5" style="stop-color:#C3BDB8"/>
	<stop  offset="0.6249" style="stop-color:#C3BDB8"/>
	<stop  offset="0.625" style="stop-color:#E9C4A3"/>
	<stop  offset="0.7499" style="stop-color:#E9C4A3"/>
	<stop  offset="0.75" style="stop-color:#E7185D"/>
	<stop  offset="0.8749" style="stop-color:#E7185D"/>
	<stop  offset="0.875" style="stop-color:#FFFFFF"/>
	<stop  offset="0.9999" style="stop-color:#FFFFFF"/>
</linearGradient>
<path class="st7" d="M132.1,204.3c-0.1,0-0.3,0-0.4,0v0.8c-0.1,0.6-0.3,0.3-0.4,0.8v0.8c-0.1,0.6-0.3,0.3-0.4,0.8v0.8v2.1v1.2v1.2
	v1.2v2.1v1.7v1.7v1.2c0.1,1.1,0.3,1,0.4,1.7c0.1,0.6,0.3,1.5,0.4,2.1c0.1,0.6,0.3,1,0.4,1.2c0.3,0.6,0.6,0.3,0.8,0.8
	c0.1,0.3,0.3,0.9,0.4,1.2c0.4,1.1,0.8,0.9,1.2,1.7c0.1,0.3,0.3,0.6,0.4,0.8c0.3,0.5,0.6,0.4,0.8,0.8c0.1,0.2,0.3,0.7,0.4,0.8
	c0.3,0.3,0.6,0.2,0.8,0.4c0.1,0.1,0.3,0.3,0.4,0.4c0.4,0.4,0.8,0.5,1.2,0.8c0.3,0.2,0.6,0.6,0.8,0.8c0.3,0.3,0.6,0.6,0.8,0.8
	c0.6,0.5,1.1,0.9,1.7,1.2c0.3,0.2,0.6,0.2,0.8,0.4c0.3,0.2,0.6,0.6,0.8,0.8c0.1,0.1,0.3,0.3,0.4,0.4c0.1,0.1,0.3,0.3,0.4,0.4
	c0.4,0.3,0.8,0.3,1.2,0.4c0.4,0.1,0.8,0.4,1.2,0.4c0.3,0,0.6,0,0.8,0c0.4,0,0.8,0.4,1.2,0.4c0.3,0,0.6,0,0.8,0c0.1,0,0.3,0,0.4,0
	c0.3,0,0.6,0,0.8,0c3.4,0,6.9-0.4,10.3-0.4c0.3,0,0.6,0,0.8,0c0.3,0,0.6,0,0.8,0s0.6-0.4,0.8-0.4c0.1,0,0.3,0,0.4,0
	c0.4,0,0.8,0,1.2,0c0.1,0,0.3,0.4,0.4,0.4c0.1,0,0.3,0,0.4,0s0.3,0,0.4,0c0.3,0,0.6,0.4,0.8,0.4c0.1,0,0.3,0,0.4,0v0.4
	c0.1,0,0.3,0,0.4,0s0.3,0,0.4,0v0.4v0.4c0.1,0,0.3,0,0.4,0v0.4c-0.1,0.6-0.3,0.3-0.4,0.8v0.8c-0.3,0.6-0.6,0.3-0.8,0.8v0.4
	c-0.1,0.3-0.3,0.3-0.4,0.4c-0.1,0.1-0.3,0.3-0.4,0.4c-0.1,0.1-0.3,0.3-0.4,0.4c-0.1,0.1-0.3,0.3-0.4,0.4c-0.3,0.3-0.6,0.6-0.8,0.8
	c-0.1,0.1-0.3,0.3-0.4,0.4c-0.1,0.1-0.3,0.2-0.4,0.4c-0.1,0.2-0.3,0.6-0.4,0.8c-0.3,0.5-0.6,0.6-0.8,0.8c-0.1,0.1-0.3,0.3-0.4,0.4
	c-0.1,0.1-0.3,0.3-0.4,0.4c-0.3,0.3-0.6,0.8-0.8,0.8c-0.1,0-0.3,0-0.4,0c-0.3,0-0.6,0.3-0.8,0.4c-0.3,0.1-0.6,0.2-0.8,0.4
	c-0.1,0.1-0.3,0.3-0.4,0.4c-0.4,0.3-0.8,0.2-1.2,0.4c-0.3,0.1-0.6,0.2-0.8,0.4c-0.1,0.1-0.3,0.3-0.4,0.4c-0.1,0.1-0.3,0.4-0.4,0.4
	c-0.1,0-0.3,0-0.4,0c-0.3,0-0.6,0-0.8,0c-0.3,0-0.6,0.4-0.8,0.4s-0.6,0-0.8,0s-0.6,0-0.8,0c-0.4,0-0.8,0-1.2,0c-0.1,0-0.3,0-0.4,0
	c-0.3,0-0.6,0-0.8,0s-0.6,0-0.8,0s-0.6,0-0.8,0c-0.6,0-1.1,0-1.7,0c-0.4,0-0.8-0.2-1.2-0.4c-0.3-0.1-0.6-0.3-0.8-0.4
	c-0.4-0.2-0.8-0.4-1.2-0.4c-0.3,0-0.6,0-0.8,0c-0.3,0-0.6-0.4-0.8-0.4c-0.4,0-0.8,0-1.2,0s-0.8,0-1.2,0c-0.3,0-0.6-0.4-0.8-0.4
	c-0.4,0-0.8,0-1.2,0s-0.8-0.4-1.2-0.4s-0.8,0-1.2,0c-0.6,0-1.1,0-1.7,0c-0.6,0-1.1,0-1.7,0c-0.4,0-0.8-0.2-1.2-0.4
	c-0.3-0.1-0.6-0.4-0.8-0.4c-0.3,0-0.6,0-0.8,0c-0.3,0-0.6-0.2-0.8-0.4c-0.3-0.2-0.6-0.6-0.8-0.8c-0.3-0.2-0.6-0.1-0.8-0.4
	c-0.1-0.1-0.3-0.6-0.4-0.8c-0.1-0.3-0.3-0.6-0.4-0.8c-0.3-0.5-0.6-0.3-0.8-0.8v-0.4c-0.1-0.6-0.3-0.6-0.4-0.8
	c-0.1-0.3-0.3-0.6-0.4-0.8s-0.3-0.5-0.4-0.8s-0.3-0.9-0.4-1.2s-0.3-0.6-0.4-0.8s-0.3-0.6-0.4-0.8c-0.1-0.3-0.3-0.6-0.4-0.8
	c-0.3-0.5-0.6-0.7-0.8-1.2c-0.1-0.3-0.3-0.6-0.4-0.8c-0.1-0.2-0.3-0.2-0.4-0.4c-0.1-0.2-0.3-0.3-0.4-0.8v-0.4
	c-0.1-0.8-0.3-0.9-0.4-1.2c-0.1-0.3-0.3-0.3-0.4-0.8v-0.8c-0.1-0.3-0.3-0.2-0.4-0.4c-0.1-0.2-0.3-0.3-0.4-0.8v-0.8v-0.4
	c-0.1-0.6-0.3-0.3-0.4-0.8v-0.4c-0.1-0.6-0.3-0.6-0.4-0.8c-0.1-0.3-0.3-0.3-0.4-0.8v-0.4c-0.1-0.3-0.3-0.1-0.4-0.4V227
	c-0.1-0.3-0.3-0.3-0.4-0.4c-0.1-0.1-0.3-0.1-0.4-0.4v-0.4v-0.4v-0.8c-0.1-0.6-0.3-0.3-0.4-0.8v-0.8c0.1-0.3,0.3-0.1,0.4-0.4v-1.2
	c0.1-0.6,0.3-0.3,0.4-0.8V220v-0.8c0.1-0.3,0.3-0.1,0.4-0.4v-1.2c0.1-0.6,0.3-0.5,0.4-0.8c0.1-0.3,0.3-0.4,0.4-1.2v-0.4
	c0.1-0.6,0.3-0.3,0.4-0.8v-0.8c0.1-0.3,0.3-0.1,0.4-0.4v-0.4c0.1-0.6,0.3-0.6,0.4-0.8c0.1-0.2,0.3-0.3,0.4-0.4
	c0.3-0.3,0.6-0.6,0.8-0.8c0.3-0.3,0.6-0.4,0.8-0.8c0.1-0.2,0.3-0.7,0.4-0.8c0.3-0.3,0.6-0.3,0.8-0.4c0.3-0.1,0.6-0.2,0.8-0.4
	c0.1-0.1,0.3-0.3,0.4-0.4c0.3-0.2,0.6-0.4,0.8-0.4c0.1,0,0.3,0,0.4,0c0.1,0,0.3-0.3,0.4-0.4c0.1-0.1,0.3-0.3,0.4-0.4
	c0.1-0.1,0.3-0.3,0.4-0.4c0.1-0.1,0.3-0.3,0.4-0.4c0.3-0.2,0.6-0.2,0.8-0.4c0.1-0.1,0.3-0.4,0.4-0.4c0.1,0,0.3,0,0.4,0
	c0.1,0,0.3,0,0.4,0c0.1,0,0.3,0,0.4,0c0.1,0,0.3,0,0.4,0c0.1,0,0.3,0,0.4,0c0.1,0,0.3,0,0.4,0c0.3,0,0.6,0,0.8,0v0.4
	c0.1,0,0.3,0,0.4,0v0.4v0.4v0.4v0.4"/>
<linearGradient id="SVGID_2_" gradientUnits="userSpaceOnUse" x1="0.5" y1="768" x2="0.5" y2="767" gradientTransform="matrix(32.479 0 0 -19.8417 106.695 15452.2441)">
	<stop  offset="0" style="stop-color:#4A531A"/>
	<stop  offset="0.1428" style="stop-color:#4A531A"/>
	<stop  offset="0.1429" style="stop-color:#D06DEB"/>
	<stop  offset="0.2856" style="stop-color:#D06DEB"/>
	<stop  offset="0.2857" style="stop-color:#84FFA5"/>
	<stop  offset="0.4285" style="stop-color:#84FFA5"/>
	<stop  offset="0.4286" style="stop-color:#7612A8"/>
	<stop  offset="0.5713" style="stop-color:#7612A8"/>
	<stop  offset="0.5714" style="stop-color:#FFFFFF"/>
	<stop  offset="0.7142" style="stop-color:#FFFFFF"/>
	<stop  offset="0.7143" style="stop-color:#F41832"/>
	<stop  offset="0.857" style="stop-color:#F41832"/>
	<stop  offset="0.8571" style="stop-color:#E8F992"/>
	<stop  offset="0.9999" style="stop-color:#E8F992"/>
</linearGradient>
<path class="st8" d="M107.4,228.7c-0.2,0.4-0.5,0.7-0.7,0.7c0.2,0,0.5,0,0.7,0c0.2,0,0.5-0.5,0.7-0.7c0.5-0.4,0.9-0.5,1.4-0.7
	c0.5-0.2,0.9-0.4,1.4-0.7c0.7-0.4,1.4-1,2.1-1.4c0.5-0.3,0.9-0.5,1.4-0.7c0.5-0.2,0.9-0.4,1.4-0.7c0.5-0.4,0.9-1.1,1.4-1.4
	c0.5-0.4,0.9-0.5,1.4-0.7c0.9-0.4,1.9-0.4,2.8-0.7c0.7-0.2,1.4-0.4,2.1-0.7c0.5-0.2,0.9-0.5,1.4-0.7c0.5-0.2,0.9-0.5,1.4-0.7
	c0.7-0.3,1.4-0.2,2.1-0.7c0.2-0.2,0.5-0.5,0.7-0.7c0.5-0.4,0.9-0.5,1.4-0.7c0.5-0.2,0.9-0.3,1.4-0.7c0.2-0.2,0.5-0.5,0.7-0.7
	c0.5-0.4,0.9-0.7,1.4-0.7c0.2,0,0.5,0,0.7,0s0.5,0,0.7,0v-0.7c0.2,0,0.5,0,0.7,0c0.2,0,0.5,0,0.7,0s0.5-0.7,0.7-0.7v0.7v0.7
	c0.2,0.5,0.5,0.2,0.7,0.7v1.4v0.7c0.2,0.5,0.5,0.2,0.7,0.7v0.7v1.4v0.7v0.7v0.7v0.7c-0.2,0-0.5,0-0.7,0c-0.2,0-0.5,0-0.7,0
	c-0.2,0-0.5,0.6-0.7,0.7c-0.7,0.5-1.4,0.4-2.1,0.7c-0.5,0.2-0.9,0.5-1.4,0.7c-0.5,0.2-0.9,0.4-1.4,0.7c-0.7,0.4-1.4,1.1-2.1,1.4
	c-0.9,0.5-1.9,0.2-2.8,0.7c-0.5,0.2-0.9,1.4-1.4,1.4s-0.9,0-1.4,0s-0.9,0.5-1.4,0.7c-0.5,0.2-0.9,0.5-1.4,0.7
	c-0.7,0.3-1.4,0.2-2.1,0.7c-0.2,0.2-0.5,0.7-0.7,0.7c-0.2,0-0.5,0-0.7,0c-0.2,0-0.5,0-0.7,0c-0.2,0-0.5,0-0.7,0
	c-0.2,0-0.5,0.7-0.7,0.7c-0.2,0-0.5,0-0.7,0c-0.2,0-0.5,0-0.7,0c-0.2,0-0.5,0-0.7,0c-0.2,0-0.5,0-0.7,0c-0.2,0-0.5,0-0.7,0
	c-0.2,0-0.5,0-0.7,0c-0.2,0-0.5-0.5-0.7-0.7c-0.2-0.2-0.5-0.5-0.7-0.7c-0.2-0.2-0.5-0.2-0.7-0.7v-0.7c-0.2-0.5-0.5-0.2-0.7-0.7v-0.7
	c-0.2-0.5-0.5-0.7-0.7-0.7C107.9,228.7,107.6,228.7,107.4,228.7V228"/>
<linearGradient id="SVGID_3_" gradientUnits="userSpaceOnUse" x1="0.5" y1="768" x2="0.5" y2="767" gradientTransform="matrix(8.6511 0 0 -7.9382 120.0783 6306.3306)">
	<stop  offset="0" style="stop-color:#640E2B"/>
	<stop  offset="0.4999" style="stop-color:#640E2B"/>
	<stop  offset="0.5" style="stop-color:#000000"/>
	<stop  offset="0.9999" style="stop-color:#000000"/>
</linearGradient>
<path class="st9" d="M125.8,209.8c-0.2,0-0.5,0-0.7,0c-0.5,0-1,0-1.4,0s-1,0-1.4,0c-0.2,0-0.5,0.5-0.7,0.7c-0.2,0.2-0.5,0.5-0.7,0.7
	c-0.2,0.2-0.5,0.2-0.7,0.7v0.7v0.7v1.4v0.7c0.2,0.5,0.5,0.5,0.7,0.7c0.2,0.2,0.5,0.5,0.7,0.7c0.2,0.2,0.5,0.7,0.7,0.7s0.5,0,0.7,0
	c0.2,0,0.5,0,0.7,0c0.5,0,1,0,1.4,0c0.2,0,0.5,0,0.7,0c0.2,0,0.5-0.5,0.7-0.7c0.5-0.4,1-0.2,1.4-0.7v-0.7c0.2-0.5,0.5-0.2,0.7-0.7
	v-0.7c-0.2-0.5-0.5-0.5-0.7-0.7c-0.2-0.2-0.5-0.2-0.7-0.7V212c-0.2-0.5-0.5-0.2-0.7-0.7v-0.7c-0.2,0-0.5,0-0.7,0c-0.2,0-0.5,0-0.7,0
	v-0.7c-0.2,0-0.5,0-0.7,0v0.7"/>
<linearGradient id="SVGID_4_" gradientUnits="userSpaceOnUse" x1="1.3442" y1="764.3207" x2="1.3442" y2="764.3207" gradientTransform="matrix(8.6511 0 0 -7.9382 120.0783 6306.3306)">
	<stop  offset="0" style="stop-color:#640E2B"/>
	<stop  offset="0.4999" style="stop-color:#640E2B"/>
	<stop  offset="0.5" style="stop-color:#000000"/>
	<stop  offset="0.9999" style="stop-color:#000000"/>
</linearGradient>
<path class="st10" d="M131.7,239"/>
<linearGradient id="SVGID_5_" gradientUnits="userSpaceOnUse" x1="1.7552" y1="764.0173" x2="1.7552" y2="764.0173" gradientTransform="matrix(8.6511 0 0 -7.9382 120.0783 6306.3306)">
	<stop  offset="0" style="stop-color:#640E2B"/>
	<stop  offset="0.4999" style="stop-color:#640E2B"/>
	<stop  offset="0.5" style="stop-color:#000000"/>
	<stop  offset="0.9999" style="stop-color:#000000"/>
</linearGradient>
<path class="st11" d="M135.3,241.4"/>
<linearGradient id="SVGID_6_" gradientUnits="userSpaceOnUse" x1="2.2757" y1="763.8423" x2="2.2757" y2="763.8423" gradientTransform="matrix(8.6511 0 0 -7.9382 120.0783 6306.3306)">
	<stop  offset="0" style="stop-color:#640E2B"/>
	<stop  offset="0.4999" style="stop-color:#640E2B"/>
	<stop  offset="0.5" style="stop-color:#000000"/>
	<stop  offset="0.9999" style="stop-color:#000000"/>
</linearGradient>
<path class="st12" d="M139.8,242.8"/>
<path class="st13" d="M127.5,241.5L127.5,241.5L127.5,241.5L127.5,241.5v-0.7l1.5-0.7l1.5-1.4l1.5-0.7l1.5-1.4l0.7-0.7l0,0h0.7v-0.7
	 M130.3,244.4L130.3,244.4L130.3,244.4l0.7-0.7l1.4-1.4l0.7-0.7l1.4-0.7l1.4-0.7l1.4-1.4l0.7-0.7v-0.7h0.7l0,0 M133.8,246.6
	L133.8,246.6h0.7v-0.7h0.7l1.4-2.2l2.1-1.4l1.4-1.4l0.7-0.7l1.4-0.7l1.4-1.4h0.7l0,0"/>
<circle class="st14" cx="106.6" cy="195.8" r="5"/>
<text transform="matrix(1 0 0 1 311.2567 435.432)" class="st15 st16">Glyph</text>
<line class="st4" x1="124.4" y1="213.8" x2="187.4" y2="58.3"/>
<line class="st4" x1="122.9" y1="223.7" x2="187.4" y2="137"/>
<line class="st4" x1="142.2" y1="229.3" x2="187.4" y2="215.8"/>
<line class="st4" x1="136" y1="240.9" x2="187.4" y2="294.6"/>
<rect x="241.4" y="49.4" class="st17" width="0" height="1.8"/>
<rect x="263" y="49.4" class="st17" width="0" height="1.8"/>
<rect x="241.4" y="67.2" class="st17" width="0" height="1.8"/>
<rect x="263" y="67.2" class="st17" width="0" height="1.8"/>
<path class="st18" d="M265,31.8h44.9c2.2,0,4,1.8,4,4v44.9c0,2.2-1.8,4-4,4H265c-2.2,0-4-1.8-4-4V35.8C261,33.6,262.8,31.8,265,31.8
	z"/>
<ellipse class="st18" cx="287.4" cy="58.3" rx="27" ry="27"/>
<text transform="matrix(1 0 0 1 282.7568 51.9264)" class="st15 st16">no</text>
<text transform="matrix(1 0 0 1 280.8926 62.7264)" class="st15 st16">yes</text>
<text transform="matrix(1 0 0 1 274.5865 82.8024)" class="st15 st16">barked</text>
<path class="st18" d="M194.6,31.8h44.9c2.2,0,4,1.8,4,4v44.9c0,2.2-1.8,4-4,4h-44.9c-2.2,0-4-1.8-4-4V35.8
	C190.6,33.6,192.3,31.8,194.6,31.8z"/>
<ellipse class="st18" cx="217" cy="58.3" rx="27" ry="27"/>
<text transform="matrix(1 0 0 1 213.0462 82.8024)" class="st15 st16">fill</text>
<rect x="200" y="49.8" class="st19" width="17" height="17"/>
<rect x="217" y="49.8" class="st20" width="17" height="17"/>
<rect x="241.4" y="128.1" class="st17" width="0" height="1.5"/>
<rect x="263" y="128.1" class="st17" width="0" height="1.5"/>
<rect x="241.4" y="131.1" class="st17" width="0" height="1.5"/>
<rect x="263" y="131.1" class="st17" width="0" height="1.5"/>
<rect x="241.4" y="134.1" class="st17" width="0" height="1.5"/>
<rect x="263" y="134.1" class="st17" width="0" height="1.5"/>
<rect x="241.4" y="137" class="st17" width="0" height="1.5"/>
<rect x="263" y="137" class="st17" width="0" height="1.5"/>
<rect x="241.4" y="140" class="st17" width="0" height="1.5"/>
<rect x="263" y="140" class="st17" width="0" height="1.5"/>
<rect x="241.4" y="143" class="st17" width="0" height="1.5"/>
<rect x="263" y="143" class="st17" width="0" height="1.5"/>
<rect x="241.4" y="146" class="st17" width="0" height="1.5"/>
<rect x="263" y="146" class="st17" width="0" height="1.5"/>
<path class="st18" d="M265,110.6h44.9c2.2,0,4,1.8,4,4v44.9c0,2.2-1.8,4-4,4H265c-2.2,0-4-1.8-4-4v-44.9
	C261,112.4,262.8,110.6,265,110.6z"/>
<ellipse class="st18" cx="287.4" cy="137" rx="27" ry="27"/>
<text transform="matrix(1 0 0 1 277.6237 125.3088)" class="st15 st16">black</text>
<text transform="matrix(1 0 0 1 279.4878 136.1088)" class="st15 st16">blue</text>
<text transform="matrix(1 0 0 1 283.9278 146.9088)" class="st15 st16">...</text>
<text transform="matrix(1 0 0 1 267.1175 161.5848)" class="st15 st16">leash color</text>
<path class="st18" d="M194.6,110.6h44.9c2.2,0,4,1.8,4,4v44.9c0,2.2-1.8,4-4,4h-44.9c-2.2,0-4-1.8-4-4v-44.9
	C190.6,112.4,192.3,110.6,194.6,110.6z"/>
<ellipse class="st18" cx="217" cy="137" rx="27" ry="27"/>
<text transform="matrix(1 0 0 1 213.0462 161.5848)" class="st15 st16">fill</text>
<rect x="200" y="120" class="st21" width="11.3" height="11.3"/>
<rect x="211.3" y="120" class="st22" width="11.3" height="11.3"/>
<rect x="222.7" y="120" class="st23" width="11.3" height="11.3"/>
<rect x="200" y="131.4" class="st24" width="11.3" height="11.3"/>
<rect x="211.3" y="131.4" class="st25" width="11.3" height="11.3"/>
<rect x="222.7" y="131.4" class="st26" width="11.3" height="11.3"/>
<rect x="200" y="142.7" class="st27" width="11.3" height="11.3"/>
<rect x="241.4" y="206.9" class="st17" width="0" height="1.3"/>
<rect x="263" y="206.9" class="st17" width="0" height="1.3"/>
<rect x="241.4" y="209.5" class="st17" width="0" height="1.3"/>
<rect x="263" y="209.5" class="st17" width="0" height="1.3"/>
<rect x="241.4" y="212" class="st17" width="0" height="1.3"/>
<rect x="263" y="212" class="st17" width="0" height="1.3"/>
<rect x="241.4" y="214.6" class="st17" width="0" height="1.3"/>
<rect x="263" y="214.6" class="st17" width="0" height="1.3"/>
<rect x="241.4" y="217.1" class="st17" width="0" height="1.3"/>
<rect x="263" y="217.1" class="st17" width="0" height="1.3"/>
<rect x="241.4" y="219.6" class="st17" width="0" height="1.3"/>
<rect x="263" y="219.6" class="st17" width="0" height="1.3"/>
<rect x="241.4" y="222.2" class="st17" width="0" height="1.3"/>
<rect x="263" y="222.2" class="st17" width="0" height="1.3"/>
<rect x="241.4" y="224.7" class="st17" width="0" height="1.3"/>
<rect x="263" y="224.7" class="st17" width="0" height="1.3"/>
<path class="st18" d="M265,189.4h44.9c2.2,0,4,1.8,4,4v44.9c0,2.2-1.8,4-4,4H265c-2.2,0-4-1.8-4-4v-44.9
	C261,191.2,262.8,189.4,265,189.4z"/>
<ellipse class="st18" cx="287.4" cy="215.8" rx="27" ry="27"/>
<text transform="matrix(1 0 0 1 277.152 204.0912)" class="st15 st16">beige</text>
<text transform="matrix(1 0 0 1 277.6237 214.8912)" class="st15 st16">black</text>
<text transform="matrix(1 0 0 1 283.9278 225.6912)" class="st15 st16">...</text>
<text transform="matrix(1 0 0 1 278.325 240.3672)" class="st15 st16">color</text>
<path class="st18" d="M194.6,189.4h44.9c2.2,0,4,1.8,4,4v44.9c0,2.2-1.8,4-4,4h-44.9c-2.2,0-4-1.8-4-4v-44.9
	C190.6,191.2,192.3,189.4,194.6,189.4z"/>
<ellipse transform="matrix(0.2453 -0.9694 0.9694 0.2453 -45.4592 373.2578)" class="st18" cx="217" cy="215.8" rx="27" ry="27"/>
<text transform="matrix(1 0 0 1 213.0462 240.3672)" class="st15 st16">fill</text>
<rect x="200" y="198.8" class="st28" width="11.3" height="11.3"/>
<rect x="211.3" y="198.8" class="st29" width="11.3" height="11.3"/>
<rect x="222.7" y="198.8" class="st30" width="11.3" height="11.3"/>
<rect x="200" y="210.2" class="st31" width="11.3" height="11.3"/>
<rect x="211.3" y="210.2" class="st32" width="11.3" height="11.3"/>
<rect x="222.7" y="210.2" class="st33" width="11.3" height="11.3"/>
<rect x="200" y="221.5" class="st34" width="11.3" height="11.3"/>
<rect x="211.3" y="221.5" class="st25" width="11.3" height="11.3"/>
<rect x="241.4" y="339" class="st17" width="0" height="1.8"/>
<rect x="263" y="339" class="st17" width="0" height="1.8"/>
<path class="st18" d="M265,324.6h44.9c2.2,0,4,1.8,4,4v23.8c0,2.2-1.8,4-4,4H265c-2.2,0-4-1.8-4-4v-23.8
	C261,326.4,262.8,324.6,265,324.6z"/>
<ellipse class="st18" cx="287.4" cy="340.5" rx="27" ry="16.2"/>
<text transform="matrix(1 0 0 1 279.4878 342.2736)" class="st15 st16">long</text>
<path class="st18" d="M194.6,324.6h44.9c2.2,0,4,1.8,4,4v23.8c0,2.2-1.8,4-4,4h-44.9c-2.2,0-4-1.8-4-4v-23.8
	C190.6,326.4,192.3,324.6,194.6,324.6z"/>
<ellipse class="st18" cx="217" cy="340.5" rx="27" ry="16.2"/>
<path class="st35" d="M205,337.7L205,337.7L205,337.7L205,337.7v-1l2.1-1l2.1-2l2.1-1l2.1-2l1-1l0,0h1v-1"/>
<path class="st35" d="M209,341.8L209,341.8L209,341.8l1-1l2.1-2l1-1l2.1-1l2.1-1l2.1-2l1-1v-1h1l0,0"/>
<path class="st35" d="M214,345L214,345h1v-1h1l2-3.1l3.1-2.1l2-2.1l1-1l2-1l2-2.1h1l0,0"/>
<rect x="241.4" y="371.4" class="st17" width="0" height="1.8"/>
<rect x="263" y="371.4" class="st17" width="0" height="1.8"/>
<path class="st18" d="M265,357h44.9c2.2,0,4,1.8,4,4v23.8c0,2.2-1.8,4-4,4H265c-2.2,0-4-1.8-4-4V361C261,358.8,262.8,357,265,357z"
	/>
<ellipse class="st18" cx="287.4" cy="372.9" rx="27" ry="16.2"/>
<text transform="matrix(1 0 0 1 272.4905 374.6736)" class="st15 st16">medium</text>
<path class="st18" d="M194.6,357h44.9c2.2,0,4,1.8,4,4v23.8c0,2.2-1.8,4-4,4h-44.9c-2.2,0-4-1.8-4-4V361
	C190.6,358.8,192.3,357,194.6,357z"/>
<ellipse class="st18" cx="217" cy="372.9" rx="27" ry="16.2"/>
<path class="st36" d="M210.6,370.8L210.6,370.8L210.6,370.8L210.6,370.8v-0.6l1.2-0.6l1.2-1.9l0.6-1.3l1.2-1.3l1.2-0.6l0.6-0.6h0.6"
	/>
<path class="st36" d="M214.9,374.5h-0.6l0,0l0,0l0.6-0.6l0.6-0.6l1.2-1.3l1.2-1.3l1.2-1.3l1.9-1.3l1.2-1.3h0.6l0.6-0.6l0,0"/>
<rect x="241.4" y="400.8" class="st17" width="0" height="1.8"/>
<rect x="263" y="400.8" class="st17" width="0" height="1.8"/>
<path class="st18" d="M265,386.4h44.9c2.2,0,4,1.8,4,4v23.8c0,2.2-1.8,4-4,4H265c-2.2,0-4-1.8-4-4v-23.8
	C261,388.2,262.8,386.4,265,386.4z"/>
<ellipse class="st18" cx="287.4" cy="402.3" rx="27" ry="16.2"/>
<text transform="matrix(1 0 0 1 278.0912 404.0736)" class="st15 st16">short</text>
<path class="st18" d="M194.6,386.4h44.9c2.2,0,4,1.8,4,4v23.8c0,2.2-1.8,4-4,4h-44.9c-2.2,0-4-1.8-4-4v-23.8
	C190.6,388.2,192.3,386.4,194.6,386.4z"/>
<ellipse class="st18" cx="217" cy="402.3" rx="27" ry="16.2"/>
<path class="st37" d="M211.9,402.8h-0.6l0,0l0,0l0,0l1.2-0.6l1.2-1.2l3.1-2.5l1.9-1.8l2.5-1.2l0.6-0.6l1.2-0.6"/>
<rect x="241.4" y="285.7" class="st17" width="0" height="1.8"/>
<rect x="263" y="285.7" class="st17" width="0" height="1.8"/>
<rect x="241.4" y="294.6" class="st17" width="0" height="1.8"/>
<rect x="263" y="294.6" class="st17" width="0" height="1.8"/>
<rect x="241.4" y="303.5" class="st17" width="0" height="1.8"/>
<rect x="263" y="303.5" class="st17" width="0" height="1.8"/>
<path class="st18" d="M265,268.1h44.9c2.2,0,4,1.8,4,4v44.9c0,2.2-1.8,4-4,4H265c-2.2,0-4-1.8-4-4v-44.9
	C261,269.9,262.8,268.1,265,268.1z"/>
<ellipse class="st18" cx="287.4" cy="294.6" rx="27" ry="27"/>
<text transform="matrix(1 0 0 1 282.5271 297.5496)" class="st15 st16">fur</text>
<path class="st18" d="M194.6,268.1h44.9c2.2,0,4,1.8,4,4v44.9c0,2.2-1.8,4-4,4h-44.9c-2.2,0-4-1.8-4-4v-44.9
	C190.6,269.9,192.3,268.1,194.6,268.1z"/>
<text transform="matrix(1 0 0 1 205.5691 319.1496)" class="st15 st16">shape</text>
<rect x="200.9" y="278.5" class="st38" width="16.1" height="16.1"/>
<path class="st39" d="M201,284.5L201,284.5L201,284.5L201,284.5v-0.7l1.4-0.7l1.4-1.3l1.4-0.7l1.4-1.3l0.7-0.7l0,0h0.7v-0.7
	 M203.7,287.2L203.7,287.2L203.7,287.2l0.7-0.7l1.4-1.3l0.7-0.7l1.4-0.7l1.4-0.7l1.4-1.3l0.7-0.7v-0.7h0.7l0,0 M207,289.3L207,289.3
	h0.7v-0.7h0.7l1.4-2l2-1.4l1.4-1.4l0.7-0.7l1.4-0.7l1.4-1.4h0.7l0,0"/>
<rect x="217" y="278.5" class="st38" width="16.1" height="16.1"/>
<path class="st39" d="M218.6,288.3L218.6,288.3L218.6,288.3L218.6,288.3v-0.6l1.2-0.6l1.2-1.9l0.6-1.3l1.2-1.3l1.2-0.6l0.6-0.6h0.6
	 M222.9,292h-0.6l0,0l0,0l0.6-0.6l0.6-0.6l1.2-1.3l1.2-1.3l1.2-1.3l1.9-1.3l1.2-1.3h0.6l0.6-0.6l0,0"/>
<rect x="200.9" y="294.6" class="st38" width="16.1" height="16.1"/>
<path class="st39" d="M203.8,307h-0.6l0,0l0,0l0,0l1.2-0.6l1.2-1.2l3.1-2.5l1.9-1.8l2.5-1.2l0.6-0.6l1.2-0.6"/>
<path class="st2" d="M52.2,453.1h280c2.2,0,4,1.8,4,4v464.5c0,2.2-1.8,4-4,4h-280c-2.2,0-4-1.8-4-4V457.1
	C48.2,454.9,50,453.1,52.2,453.1z"/>
<path class="st3" d="M49.2,450.1h280c2.2,0,4,1.8,4,4v464.5c0,2.2-1.8,4-4,4h-280c-2.2,0-4-1.8-4-4V454.1
	C45.2,451.9,47,450.1,49.2,450.1z"/>
<line class="st4" x1="72.2" y1="524.3" x2="127.7" y2="506.5"/>
<line class="st4" x1="72.2" y1="564.8" x2="127.7" y2="551.5"/>
<line class="st4" x1="72.2" y1="605.3" x2="127.7" y2="596.4"/>
<line class="st4" x1="72.2" y1="645.8" x2="127.7" y2="641.4"/>
<line class="st4" x1="72.2" y1="686.3" x2="127.7" y2="686.3"/>
<line class="st4" x1="72.2" y1="726.8" x2="127.7" y2="731.3"/>
<line class="st4" x1="72.2" y1="767.3" x2="127.7" y2="776.2"/>
<line class="st4" x1="72.2" y1="807.8" x2="127.7" y2="821.2"/>
<line class="st4" x1="72.2" y1="848.3" x2="127.7" y2="866.1"/>
<path class="st4" d="M128.7,486.3h38.5c0.6,0,1,0.4,1,1v38.5c0,0.6-0.4,1-1,1h-38.5c-0.6,0-1-0.4-1-1v-38.5
	C127.7,486.8,128.2,486.3,128.7,486.3z"/>
<path class="st40" d="M147.8,497.4v0.2v0.5c0,0.3,0,0.1,0,0.4v0.6v0.5v1c0,0.5,0,0.2,0,0.7v1c0,0.7,0,0.4,0,1.1v1.2v1.1
	c0,0.8,0.1,0.6,0.1,1.2c0,0.3,0,0.6,0,1c0,0.4,0,0.4,0,1.2v1.1c0,0.6,0,0.7,0,0.9c0,0.5,0.1,0.3,0.1,0.7c0,0.2,0,0.7,0,0.7
	c0,0,0,0.5,0,0.7c0,0.4-0.1,0.2-0.1,0.6v0.4v0.2c0,0.1,0,0.2,0,0.2c0,0,0,0,0,0.1v0v0.1c0,0.1,0,0,0,0.1v0.1v0v0v0.2v0.1v0v0v0
	c0,0,0,0,0,0v0v0v0"/>
<circle class="st14" cx="147.8" cy="497.4" r="5"/>
<path class="st4" d="M128.7,531.3h38.5c0.6,0,1,0.4,1,1v38.5c0,0.6-0.4,1-1,1h-38.5c-0.6,0-1-0.4-1-1v-38.5
	C127.7,531.7,128.2,531.3,128.7,531.3z"/>
<path class="st40" d="M148.5,541v0.4c0,1.9-0.1,1-0.1,2.9c0,0.6,0,2.3,0,3.1s0,1,0,1.5c0,0.4,0,0.9,0,1.2c0,0.9-0.1,0.9-0.1,1.4
	c-0.1,0.8-0.1,1.9-0.2,2.7c-0.1,0.8-0.1,1.3-0.2,2c0,0.4-0.1,0.4-0.1,1.1v0.5c0,0.3-0.1,0.2-0.1,0.4c0,0.1,0,0.3,0,0.5
	c0,0.1,0,0.1,0,0.4v0.4c0,0.2,0,0.1,0,0.3v0.2v0.2v0v0v0.1v0.1c0,0.2,0,0.1,0,0.3v0.2c0,0.1,0,0.1,0,0.2v0.3c0,0.1,0,0.1,0,0.2v0.2
	c0,0.1,0,0.1,0,0.2v0.1v0v0v0v0v0c0,0,0,0,0,0v0"/>
<circle class="st14" cx="147.4" cy="540.9" r="5"/>
<path class="st4" d="M128.7,576.2h38.5c0.6,0,1,0.4,1,1v38.4c0,0.6-0.4,1-1,1h-38.5c-0.6,0-1-0.4-1-1v-38.4
	C127.7,576.7,128.2,576.2,128.7,576.2z"/>
<path class="st40" d="M148.6,578.8C148.6,578.8,148.5,578.8,148.6,578.8c0,0,0,2.1,0,2.1c0,0-0.1,1.2-0.1,2.5c0,0.6,0,1.6,0,2.2
	c0,1.2-0.1,1.3-0.1,1.9c0,1-0.1,1-0.1,2.9v2.7c-0.1,1.9-0.2,1.4-0.3,2.9c0,0.7-0.1,2.3-0.1,2.3c0,0,0,2.4,0,2.4
	c-0.1,0-0.2,2-0.2,2.8c-0.1,1-0.2,1.3-0.3,2.6c0,0.6-0.1,2-0.1,2c0,0,0,1,0,1.3c0,0.6,0.1,0.3,0.1,0.9v0.6c0,0.4,0,0.5,0,0.6
	c0,0.3-0.1,0.2-0.1,0.5c0,0.1,0,0.5,0,0.5c0,0,0.1,0.1,0.1,0.2c0,0.1,0.1,0.2,0.1,0.2c0,0.1,0.1,0.1,0.1,0.3c0,0.1,0,0.1,0,0.3v0.3
	v0.3c0,0.2,0,0.1,0,0.3v0v0c0,0,0,0,0,0s0,0,0,0"/>
<circle class="st14" cx="147.3" cy="578.6" r="5"/>
<path class="st4" d="M128.7,621.2h38.5c0.6,0,1,0.4,1,1v38.5c0,0.6-0.4,1-1,1h-38.5c-0.6,0-1-0.4-1-1v-38.5
	C127.7,621.6,128.2,621.2,128.7,621.2z"/>
<path class="st40" d="M148.2,629c0,0-0.1,0-0.1,0.1c0,0.1-0.1,0.6-0.1,1.8v1.3v0.9v1.1v1.4v1.4c0,1,0,1.1,0,1.6c0,0.5,0,0.9,0,1.5
	c0,0.5,0,0.6,0,1.7v1.3c0,1,0,0.9,0,1.5c0,0.5,0,1.7,0,1.7c0,0-0.1,1.1-0.1,1.5c-0.1,0.9-0.1,0.6-0.2,1.8v1.3v1c0,0.4,0,0.5,0,0.7
	s0,0.2,0,0.3c0,0.1,0,0,0,0.1v0c0,0.1,0,0.1,0,0.2v0.2c0,0.1,0,0,0,0.1v0.1v0.1c0,0.1,0,0.1,0,0.2v0.1c0,0.1,0,0.1,0,0.1v0v0"/>
<circle class="st14" cx="147.7" cy="628.9" r="5"/>
<path class="st4" d="M128.7,666.1h38.5c0.6,0,1,0.4,1,1v38.5c0,0.6-0.4,1-1,1h-38.5c-0.6,0-1-0.4-1-1v-38.5
	C127.7,666.5,128.2,666.1,128.7,666.1z"/>
<path class="st40" d="M148.5,667.9C148.5,667.9,148.5,667.9,148.5,667.9c-0.1,0.1-0.1,0.9-0.2,2.6v2.1c0,1.3,0,1.4,0,2s0,1.1,0,1.7
	s0,1.2,0,1.7c0,1.5-0.1,1.6-0.1,2.3c-0.1,1.4-0.2,2.1-0.2,3.6c-0.1,1.2-0.1,4.4-0.2,4.4c0,0,0.1,2.8,0.1,2.8c-0.1,0-0.1,2.4-0.2,2.4
	c0,0,0.1,2.2,0.1,2.2c0,0,0,1.2,0,1.7c0,0.9-0.1,1.1-0.1,1.5c-0.1,0.8-0.1,0.5-0.2,1.6c0,0.3,0,0.7,0,0.9s0,0.7,0,0.7
	c0,0,0,0.4,0,0.5c0,0.2,0,0.2,0,0.4c0,0.2,0,0.2,0,0.6v0.5c0,0.2,0.1,0.3,0.1,0.3c0,0,0,0.1,0,0.4v0.4c0,0,0,0,0,0c0,0,0,0,0,0v0.1"
	/>
<circle class="st14" cx="147.3" cy="667.7" r="5"/>
<path class="st4" d="M128.7,711h38.5c0.6,0,1,0.4,1,1v38.5c0,0.6-0.4,1-1,1h-38.5c-0.6,0-1-0.4-1-1V712
	C127.7,711.5,128.2,711,128.7,711z"/>
<path class="st40" d="M148.2,728.4C148.2,728.5,148.2,728.5,148.2,728.4c-0.1,0.1-0.1,0.1-0.1,0.1c0,0,0,0,0,0.1c0,0.1,0,0.1,0,0.3
	v0.2c0,0.2,0,0.1,0,0.3v0.2c0,0.2,0,0.1,0,0.3v0.3v0.2c0,0.2,0,0.1,0,0.2v0.2v0.2v0.1v0.1c0,0.1,0,0.1,0,0.2v0.2v0.1
	c0,0.1,0,0.1,0,0.2v0.2v0.2v0.1c0,0.1,0,0.1,0,0.2v0.2v0.1v0v0.1c0,0,0,0,0,0v0.1v0c0,0,0,0,0,0v0.1c0,0,0,0,0,0v0.1v0.1
	c0,0.1,0,0,0,0.1v0.1v0.1v0.1v0.1v0.1c0,0,0,0,0,0v0v0v0v0c0,0,0,0,0,0"/>
<circle class="st14" cx="147.7" cy="728.4" r="5"/>
<path class="st4" d="M128.7,756h38.5c0.6,0,1,0.4,1,1v38.5c0,0.6-0.4,1-1,1h-38.5c-0.6,0-1-0.4-1-1V757
	C127.7,756.4,128.2,756,128.7,756z"/>
<path class="st40" d="M148.1,773.4L148.1,773.4v0.2v0.2v0.4v0.4v0.3v0.4v0.3v0.3v0.2v0.3v0.2c0,0.2,0,0.1,0,0.3v0.1v0.2
	c0,0.1,0,0,0,0.1v0.1v0.1v0.1c0,0.1,0,0,0,0.1v0.1v0v0v0c0,0,0,0,0,0c0,0,0,0,0,0v0v0v0v0v0c0,0,0,0,0,0v0.1c0,0.1,0,0,0,0.1v0v0v0
	c0,0.1,0,0,0,0.1v0.1v0c0,0.1,0,0,0,0.1v0.1v0.1v0v0.1c0,0,0,0,0,0v0c0,0,0,0,0,0v0"/>
<circle class="st14" cx="147.8" cy="773.4" r="5"/>
<path class="st4" d="M128.7,800.9h38.5c0.6,0,1,0.4,1,1v38.5c0,0.6-0.4,1-1,1h-38.5c-0.6,0-1-0.4-1-1v-38.5
	C127.7,801.4,128.2,800.9,128.7,800.9z"/>
<path class="st40" d="M148.5,801c0,0.1,0,0.2,0,0.2c0,0-0.1,1.5-0.1,1.5c0,0,0,1.1,0,1.5c0,0.8,0.1,0.9,0.1,1.2
	c0,0.5,0.1,0.4,0.1,1.3v1.6c0,1.7-0.1,2.6-0.1,2.6c0,0,0,2.4,0,2.4c-0.1,0-0.2,2.8-0.2,4.9c-0.1,1.8-0.1,4.6-0.2,6.3
	c-0.1,3.5-0.3,3.7-0.4,6.2c-0.1,1.2-0.1,2.8-0.2,3.9c-0.1,1.1-0.1,1.8-0.2,2.6c0,0.5-0.1,1.5-0.1,1.5c0,0,0.1,0.2,0.1,0.7v0.7v0.4
	c0,0.3-0.1,0.2-0.1,0.5v0.4"/>
<circle class="st14" cx="147.2" cy="800.9" r="5"/>
<path class="st4" d="M128.7,845.9h38.5c0.6,0,1,0.4,1,1v38.5c0,0.6-0.4,1-1,1h-38.5c-0.6,0-1-0.4-1-1v-38.5
	C127.7,846.3,128.2,845.9,128.7,845.9z"/>
<circle class="st14" cx="147.9" cy="866.1" r="5"/>
<text transform="matrix(1 0 0 1 307.9795 917.112)" class="st15 st16">Layout</text>
<ellipse class="st0" cx="45.2" cy="848.3" rx="20.3" ry="20.3"/>
<text transform="matrix(1 0 0 1 36.0966 851.262)" class="st15 st16">color</text>
<ellipse class="st41" cx="45.2" cy="524.3" rx="20.3" ry="20.3"/>
<text transform="matrix(1 0 0 1 34.9235 526.086)" class="st15 st16">beige</text>
<text transform="matrix(1 0 0 1 36.0966 527.262)" class="st42 st15 st16">color</text>
<ellipse class="st41" cx="45.2" cy="564.8" rx="20.3" ry="20.3"/>
<text transform="matrix(1 0 0 1 35.3952 566.586)" class="st15 st16">black</text>
<text transform="matrix(1 0 0 1 36.0966 567.762)" class="st42 st15 st16">color</text>
<ellipse class="st41" cx="45.2" cy="605.3" rx="20.3" ry="20.3"/>
<text transform="matrix(1 0 0 1 33.7608 607.086)" class="st15 st16">brown</text>
<text transform="matrix(1 0 0 1 36.0966 608.262)" class="st42 st15 st16">color</text>
<ellipse class="st41" cx="45.2" cy="645.8" rx="20.3" ry="20.3"/>
<text transform="matrix(1 0 0 1 37.2594 647.586)" class="st15 st16">gold</text>
<text transform="matrix(1 0 0 1 36.0966 648.762)" class="st42 st15 st16">color</text>
<ellipse class="st41" cx="45.2" cy="686.3" rx="20.3" ry="20.3"/>
<text transform="matrix(1 0 0 1 37.0297 688.086)" class="st15 st16">grey</text>
<text transform="matrix(1 0 0 1 36.0966 689.262)" class="st42 st15 st16">color</text>
<ellipse class="st41" cx="45.2" cy="726.8" rx="20.3" ry="20.3"/>
<text transform="matrix(1 0 0 1 24.8891 728.586)" class="st15 st16">light brown</text>
<text transform="matrix(1 0 0 1 36.0966 729.762)" class="st42 st15 st16">color</text>
<ellipse class="st41" cx="45.2" cy="767.3" rx="20.3" ry="20.3"/>
<text transform="matrix(1 0 0 1 30.9594 769.086)" class="st15 st16">maroon</text>
<text transform="matrix(1 0 0 1 36.0966 770.262)" class="st42 st15 st16">color</text>
<ellipse class="st41" cx="45.2" cy="807.8" rx="20.3" ry="20.3"/>
<text transform="matrix(1 0 0 1 35.3952 809.586)" class="st15 st16">white</text>
<text transform="matrix(1 0 0 1 36.0966 810.762)" class="st42 st15 st16">color</text>
</svg>
