<?xml version="1.0" encoding="utf-8"?>
<!-- Generator: Adobe Illustrator 21.0.0, SVG Export Plug-In . SVG Version: 6.00 Build 0)  -->
<svg version="1.1" id="Layer_1" xmlns="http://www.w3.org/2000/svg" xmlns:xlink="http://www.w3.org/1999/xlink" x="0px" y="0px"
	 viewBox="0 0 1366 768" style="enable-background:new 0 0 1366 768;" xml:space="preserve">
<style type="text/css">
	.st0{fill:#F0F8FF;stroke:#708090;stroke-width:0.5;}
	.st1{fill:none;stroke:#0000FF;stroke-width:0.5;}
	.st2{fill:#FFFFFF;fill-opacity:0;}
	.st3{fill:#FFFFFF;stroke:#708090;}
	.st4{fill:none;stroke:#708090;stroke-dasharray:2,2.5;}
	.st5{fill:none;stroke:#708090;stroke-width:1.5;}
	.st6{fill:none;stroke:url(#SVGID_1_);stroke-width:3;}
	.st7{fill:url(#SVGID_2_);stroke:url(#SVGID_3_);}
	.st8{fill:url(#SVGID_4_);stroke:url(#SVGID_5_);}
	.st9{fill:none;stroke:#1E90FF;}
	.st10{fill:#FFFFFF;fill-opacity:0.8;stroke:#B0C4DE;stroke-width:2.5;}
	.st11{font-family:'ArialMT';}
	.st12{font-size:8.4px;}
	.st13{fill:#708090;}
	.st14{fill:#F0F8FF;fill-opacity:0;}
	.st15{font-size:6.72px;}
	.st16{fill:none;stroke:#EED4FD;stroke-width:4.45;}
	.st17{fill:none;stroke:#C15DFF;stroke-width:5.9;}
	.st18{fill:none;stroke:#62079B;stroke-width:4.2667;}
	.st19{fill:none;stroke:#686B70;stroke-width:0.495;}
	.st20{fill:#62079B;}
	.st21{fill:#EED4FD;}
	.st22{fill:#C15DFF;}
	.st23{fill:#4A2EFE;stroke:#1E90FF;stroke-width:0.5;}
	.st24{fill:#D9D9D8;stroke:#1E90FF;stroke-width:0.5;}
	.st25{fill:#FEFC48;stroke:#1E90FF;stroke-width:0.5;}
	.st26{fill:#F23737;stroke:#1E90FF;stroke-width:0.5;}
	.st27{fill:#FF09DF;stroke:#1E90FF;stroke-width:0.5;}
	.st28{fill:none;stroke:#1E90FF;stroke-width:0.5;stroke-dasharray:3,3;}
	.st29{fill:none;stroke:#1E90FF;stroke-width:0.8;}
	.st30{fill:none;stroke:#0000FF;stroke-width:0.5;stroke-dasharray:2,2;}
	.st31{fill:#F0F8FF;}
	.st32{opacity:0;enable-background:new    ;}
</style>
<path class="st0" d="M177.4,605.5h23.7c1.7,0,3,1.3,3,3v23.7c0,1.7-1.3,3-3,3h-23.7c-1.7,0-3-1.3-3-3v-23.7
	C174.4,606.9,175.7,605.5,177.4,605.5z"/>
<path class="st1" d="M189.2,0v605.5"/>
<path class="st2" d="M52.2,11.4h280c2.2,0,4,1.8,4,4v324.8c0,2.2-1.8,4-4,4h-280c-2.2,0-4-1.8-4-4V15.4C48.2,13.2,50,11.4,52.2,11.4
	z"/>
<path class="st3" d="M49.2,8.4h280c2.2,0,4,1.8,4,4v324.8c0,2.2-1.8,4-4,4h-280c-2.2,0-4-1.8-4-4V12.4C45.2,10.2,47,8.4,49.2,8.4z"
	/>
<line class="st4" x1="45.2" y1="8.4" x2="45.2" y2="8.4"/>
<path class="st5" d="M107,141.3h65c0.6,0,1,0.4,1,1v65c0,0.6-0.4,1-1,1h-65c-0.6,0-1-0.4-1-1v-65C106,141.8,106.4,141.3,107,141.3z"
	/>
<linearGradient id="SVGID_1_" gradientUnits="userSpaceOnUse" x1="1.4743" y1="768.4396" x2="1.4743" y2="766.4799" gradientTransform="matrix(24.465 0 0 -66.96 116.5377 51566.8008)">
	<stop  offset="0" style="stop-color:#EED4FD"/>
	<stop  offset="0.3332" style="stop-color:#EED4FD"/>
	<stop  offset="0.3333" style="stop-color:#62079B"/>
	<stop  offset="0.6666" style="stop-color:#62079B"/>
	<stop  offset="0.6667" style="stop-color:#C15DFF"/>
	<stop  offset="0.9999" style="stop-color:#C15DFF"/>
</linearGradient>
<path class="st6" d="M123.7,144.6c0.8-0.8,2.1-1.7,2-3c-3,2.1-3,12.4-3.7,15.7c-0.6,3-1.2,6.1-2.1,9c-0.3,0.9-3.2,6.3-2.9,6.8
	c-0.1-0.4-0.3-0.7-0.4-1.1l0,0c3.9-0.4,6.8-5.5,9.6-7.8c4.1-3.5,10.3-4.2,13.8-8.4c0.3,0,0.7,0,1,0l0,0l0,0l0,0l0,0l0,0
	c-4.9,7.9-6.8,16.9-9.9,26c-1.9,5.6-4.2,11-6.3,16.5c-0.4,1.1-2.1,10.3-3.2,10.2c0-0.3,0-0.7,0-1"/>
<linearGradient id="SVGID_2_" gradientUnits="userSpaceOnUse" x1="0.4994" y1="767.9803" x2="0.4994" y2="766.9996" gradientTransform="matrix(7.8823 0 0 -10.6838 152.0551 8350.459)">
	<stop  offset="0" style="stop-color:#4A2EFE"/>
	<stop  offset="0.1999" style="stop-color:#4A2EFE"/>
	<stop  offset="0.2" style="stop-color:#D9D9D8"/>
	<stop  offset="0.3999" style="stop-color:#D9D9D8"/>
	<stop  offset="0.4" style="stop-color:#FEFC48"/>
	<stop  offset="0.5999" style="stop-color:#FEFC48"/>
	<stop  offset="0.6" style="stop-color:#F23737"/>
	<stop  offset="0.7999" style="stop-color:#F23737"/>
	<stop  offset="0.8" style="stop-color:#FF09DF"/>
	<stop  offset="0.9999" style="stop-color:#FF09DF"/>
</linearGradient>
<linearGradient id="SVGID_3_" gradientUnits="userSpaceOnUse" x1="0.4994" y1="767.9849" x2="0.4994" y2="766.9947" gradientTransform="matrix(7.8823 0 0 -10.6838 152.0551 8350.459)">
	<stop  offset="0" style="stop-color:#020202"/>
	<stop  offset="0.1999" style="stop-color:#020202"/>
	<stop  offset="0.2" style="stop-color:#020202"/>
	<stop  offset="0.3999" style="stop-color:#020202"/>
	<stop  offset="0.4" style="stop-color:#020202"/>
	<stop  offset="0.5999" style="stop-color:#020202"/>
	<stop  offset="0.6" style="stop-color:#020202"/>
	<stop  offset="0.7999" style="stop-color:#020202"/>
	<stop  offset="0.8" style="stop-color:#020202"/>
	<stop  offset="0.9999" style="stop-color:#020202"/>
</linearGradient>
<path class="st7" d="M157,145.5L157,145.5c-3.3,0.1-6.8,8-3.8,10.1c2.3,1.6,6.1-1.8,6.6-3.9c0.4-1.5-1.7-7.5-3.9-5.3
	c-0.8,0.8,1.2,1.6,1,2C157.4,147.6,157.1,146.4,157,145.5"/>
<linearGradient id="SVGID_4_" gradientUnits="userSpaceOnUse" x1="0.4946" y1="767.9873" x2="0.4946" y2="766.9843" gradientTransform="matrix(10.7326 0 0 -10.5766 152.0331 8278.4717)">
	<stop  offset="0" style="stop-color:#4A2EFE"/>
	<stop  offset="0.1999" style="stop-color:#4A2EFE"/>
	<stop  offset="0.2" style="stop-color:#D9D9D8"/>
	<stop  offset="0.3999" style="stop-color:#D9D9D8"/>
	<stop  offset="0.4" style="stop-color:#FEFC48"/>
	<stop  offset="0.5999" style="stop-color:#FEFC48"/>
	<stop  offset="0.6" style="stop-color:#F23737"/>
	<stop  offset="0.7999" style="stop-color:#F23737"/>
	<stop  offset="0.8" style="stop-color:#FF09DF"/>
	<stop  offset="0.9999" style="stop-color:#FF09DF"/>
</linearGradient>
<linearGradient id="SVGID_5_" gradientUnits="userSpaceOnUse" x1="0.6296" y1="767.9865" x2="0.6296" y2="766.985" gradientTransform="matrix(10.7326 0 0 -10.5766 152.0331 8278.4717)">
	<stop  offset="0" style="stop-color:#020202"/>
	<stop  offset="0.1999" style="stop-color:#020202"/>
	<stop  offset="0.2" style="stop-color:#020202"/>
	<stop  offset="0.3999" style="stop-color:#020202"/>
	<stop  offset="0.4" style="stop-color:#020202"/>
	<stop  offset="0.5999" style="stop-color:#020202"/>
	<stop  offset="0.6" style="stop-color:#020202"/>
	<stop  offset="0.7999" style="stop-color:#020202"/>
	<stop  offset="0.8" style="stop-color:#020202"/>
	<stop  offset="0.9999" style="stop-color:#020202"/>
</linearGradient>
<path class="st8" d="M157.9,156.7c0-0.3,0-0.6,0-0.9c0,1-1.8,1.1-2.2,1.7c-0.7,0.9-0.6,2-1.1,3.1c-0.4,0.9-2.9,3.9-2.6,4.9
	c1.1,3.4,9.1-4,10.7-4c-1.1-0.9-7-5.9-7.7-5.7C155.9,156.2,157,156.4,157.9,156.7"/>
<path class="st9" d="M150,199.5L150,199.5L150,199.5c-1.9,0-6.1,0.8-5.4-2.3c0.5-2.3,3.7-2.2,5.4-2.1c4.9,0.1,2.5,3,0,5.6l0,0"/>
<circle class="st10" cx="116.4" cy="141.3" r="5"/>
<text transform="matrix(1 0 0 1 311.2567 335.757)" class="st11 st12">Glyph</text>
<line class="st4" x1="133.9" y1="173" x2="193.7" y2="55.7"/>
<line class="st4" x1="156.7" y1="155.7" x2="193.7" y2="219.4"/>
<line class="st4" x1="150" y1="200.6" x2="193.7" y2="293.9"/>
<rect x="243.2" y="96.3" class="st13" width="0" height="1.8"/>
<rect x="263" y="96.3" class="st13" width="0" height="1.8"/>
<path class="st14" d="M265.1,83.2h40.5c2.2,0,4,1.8,4,4v21.1c0,2.2-1.8,4-4,4h-40.5c-2.2,0-4-1.8-4-4V87.2
	C261.1,85,262.9,83.2,265.1,83.2z"/>
<ellipse class="st14" cx="285.3" cy="97.8" rx="24.8" ry="14.9"/>
<text transform="matrix(1 0 0 1 277.8723 98.9319)" class="st11 st15">nope</text>
<path class="st14" d="M200.5,83.2h40.5c2.2,0,4,1.8,4,4v21.1c0,2.2-1.8,4-4,4h-40.5c-2.2,0-4-1.8-4-4V87.2
	C196.5,85,198.3,83.2,200.5,83.2z"/>
<path class="st16" d="M211.4,85h17.3v17.3h-17.3V85z"/>
<rect x="243.2" y="126" class="st13" width="0" height="1.8"/>
<rect x="263" y="126" class="st13" width="0" height="1.8"/>
<path class="st14" d="M265.1,112.9h40.5c2.2,0,4,1.8,4,4v21.1c0,2.2-1.8,4-4,4h-40.5c-2.2,0-4-1.8-4-4v-21.1
	C261.1,114.7,262.9,112.9,265.1,112.9z"/>
<ellipse class="st14" cx="285.3" cy="127.5" rx="24.8" ry="14.9"/>
<text transform="matrix(1 0 0 1 276.7567 128.632)" class="st11 st15">easily</text>
<path class="st14" d="M200.5,112.9h40.5c2.2,0,4,1.8,4,4v21.1c0,2.2-1.8,4-4,4h-40.5c-2.2,0-4-1.8-4-4v-21.1
	C196.5,114.7,198.3,112.9,200.5,112.9z"/>
<circle class="st14" cx="220.8" cy="127.5" r="24.8"/>
<path class="st17" d="M211.4,114.7h16.8v16.8h-16.8V114.7z"/>
<rect x="243.2" y="155.7" class="st13" width="0" height="1.8"/>
<rect x="263" y="155.7" class="st13" width="0" height="1.8"/>
<path class="st14" d="M265.1,142.6h40.5c2.2,0,4,1.8,4,4v21.1c0,2.2-1.8,4-4,4h-40.5c-2.2,0-4-1.8-4-4v-21.1
	C261.1,144.4,262.9,142.6,265.1,142.6z"/>
<ellipse class="st14" cx="285.3" cy="157.2" rx="24.8" ry="14.9"/>
<text transform="matrix(1 0 0 1 278.6221 158.3319)" class="st11 st15">hard</text>
<path class="st14" d="M200.5,142.6h40.5c2.2,0,4,1.8,4,4v21.1c0,2.2-1.8,4-4,4h-40.5c-2.2,0-4-1.8-4-4v-21.1
	C196.5,144.4,198.3,142.6,200.5,142.6z"/>
<circle class="st14" cx="220.8" cy="157.2" r="24.8"/>
<path class="st18" d="M211.4,144.4h17.3v17.3h-17.3V144.4z"/>
<path class="st14" d="M265.1,31.5h40.5c2.2,0,4,1.8,4,4V76c0,2.2-1.8,4-4,4h-40.5c-2.2,0-4-1.8-4-4V35.5
	C261.1,33.3,262.9,31.5,265.1,31.5z"/>
<ellipse class="st14" cx="285.3" cy="55.7" rx="24.8" ry="24.8"/>
<text transform="matrix(1 0 0 1 267.4183 58.08)" class="st11 st15">within reach</text>
<path class="st14" d="M200.5,31.5h40.5c2.2,0,4,1.8,4,4V76c0,2.2-1.8,4-4,4h-40.5c-2.2,0-4-1.8-4-4V35.5
	C196.5,33.3,198.3,31.5,200.5,31.5z"/>
<circle class="st14" cx="220.8" cy="55.7" r="24.8"/>
<text transform="matrix(1 0 0 1 211.6493 77.88)" class="st11 st15">stroke</text>
<line class="st19" x1="201" y1="48.9" x2="240.6" y2="48.9"/>
<rect x="203.2" y="38.3" class="st20" width="11" height="21.3"/>
<rect x="214.7" y="37.9" class="st21" width="11" height="22.2"/>
<rect x="226.3" y="34.2" class="st22" width="11" height="29.4"/>
<rect x="243.2" y="211.2" class="st13" width="0" height="1.8"/>
<rect x="263" y="211.2" class="st13" width="0" height="1.8"/>
<path class="st14" d="M265.1,195.1h40.5c2.2,0,4,1.8,4,4v40.5c0,2.2-1.8,4-4,4h-40.5c-2.2,0-4-1.8-4-4v-40.5
	C261.1,196.9,262.9,195.1,265.1,195.1z"/>
<ellipse class="st14" cx="285.3" cy="219.4" rx="24.8" ry="24.8"/>
<text transform="matrix(1 0 0 1 271.7167 208.1199)" class="st11 st15">coworker</text>
<text transform="matrix(1 0 0 1 273.021 218.02)" class="st11 st15">stranger</text>
<text transform="matrix(1 0 0 1 282.5465 227.9199)" class="st11 st15">...</text>
<text transform="matrix(1 0 0 1 276.3843 241.518)" class="st11 st15">whom</text>
<path class="st14" d="M200.5,195.1h40.5c2.2,0,4,1.8,4,4v40.5c0,2.2-1.8,4-4,4h-40.5c-2.2,0-4-1.8-4-4v-40.5
	C196.5,196.9,198.3,195.1,200.5,195.1z"/>
<ellipse class="st14" cx="220.8" cy="219.4" rx="24.8" ry="24.8"/>
<text transform="matrix(1 0 0 1 217.6261 241.518)" class="st11 st15">fill</text>
<rect x="205.2" y="209" class="st23" width="10.4" height="10.4"/>
<rect x="215.6" y="209" class="st24" width="10.4" height="10.4"/>
<rect x="226" y="209" class="st25" width="10.4" height="10.4"/>
<rect x="205.2" y="219.4" class="st26" width="10.4" height="10.4"/>
<rect x="215.6" y="219.4" class="st27" width="10.4" height="10.4"/>
<path class="st14" d="M265.1,269.6h40.5c2.2,0,4,1.8,4,4v40.5c0,2.2-1.8,4-4,4h-40.5c-2.2,0-4-1.8-4-4v-40.5
	C261.1,271.4,262.9,269.6,265.1,269.6z"/>
<g transform="translate(66.92399999999999,2.4750000000000014)">
	<ellipse class="st14" cx="218.4" cy="291.4" rx="24.8" ry="24.8"/>
	<g>
		<text transform="matrix(1 0 0 1 204.9748 280.183)" class="st11 st15">1 a week</text>
		<text transform="matrix(1 0 0 1 201.6148 290.0829)" class="st11 st15">pretty ofte..</text>
		<text transform="matrix(1 0 0 1 215.6225 299.9829)" class="st11 st15">...</text>
	</g>
	<text transform="matrix(1 0 0 1 203.6672 313.581)" class="st11 st15">frequency</text>
</g>
<path class="st14" d="M200.5,269.6h40.5c2.2,0,4,1.8,4,4v40.5c0,2.2-1.8,4-4,4h-40.5c-2.2,0-4-1.8-4-4v-40.5
	C196.5,271.4,198.3,269.6,200.5,269.6z"/>
<g transform="translate(2.3760000000000012,2.4750000000000014)">
	<ellipse class="st14" cx="218.4" cy="291.4" rx="24.8" ry="24.8"/>
	<text transform="matrix(1 0 0 1 209.2683 313.581)" class="st11 st15">shape</text>
	<g transform="translate(0,0)">
		<g transform="translate(10.057500000000001,10.057500000000001)">
			<rect x="193.7" y="266.7" class="st28" width="14.7" height="14.7"/>
			<g>
				<path class="st29" d="M202.4,276.1L202.4,276.1L202.4,276.1L202.4,276.1L202.4,276.1h-1.3h-1.3h-1.3l0,0h-1.3l0,0l-1.3-1.3l0,0
					l0,0v-1.3l1.3-1.3l0,0l1.3-1.3h2.5l0,0h1.3l0,0h1.3l0,0h1.3l1.3,1.3v1.3H205v1.3l-1.3,1.3l-1.3,1.3l0,0l0,0l0,0"/>
			</g>
		</g>
		<g transform="translate(24.75,10.057500000000001)">
			<rect x="193.7" y="266.7" class="st28" width="14.7" height="14.7"/>
			<g>
				<path class="st29" d="M195.4,274.6L195.4,274.6L195.4,274.6L195.4,274.6L195.4,274.6L195.4,274.6l-0.6,0.6h-0.6l-0.6-0.6l0,0
					V274l0,0h0.6v0.6h0.6l0,0 M202.1,272.9L202.1,272.9L202.1,272.9L202.1,272.9L202.1,272.9l-0.5,0.6v0.6H201l0,0h-0.5H200l0,0l0,0
					v-0.6h0.5h0.5h0.5 M208.5,273.5L208.5,273.5L208.5,273.5L208.5,273.5l-1.2,0.6h-0.6l-0.6,0.6l0,0l0,0V274l1.2-0.6h0.6l0,0H208.5
					L208.5,273.5 M207.9,267.3L207.9,267.3v0.6l0,0l-0.5,0.6h-1.1h-0.5h-0.5v-0.6l0.5-0.6v-0.6h0.5l0,0l0,0l0,0l0,0 M199.5,268.3
					l-1.1-0.5l0.5-0.5l0,0h0.5v0.5l0,0l0,0V268.3 M195.9,268.9L195.9,268.9L195.9,268.9h-0.6l-0.6,0.6l0,0h-0.6v-0.6l0,0v-0.6h0.6
					l0,0h0.6l0,0l0,0l0,0"/>
			</g>
		</g>
		<g transform="translate(10.057500000000001,24.75)">
			<rect x="193.7" y="266.7" class="st28" width="14.7" height="14.7"/>
			<g>
				<path class="st29" d="M200,276.3h1.1l0,0l0,0l0,0l0,0H200L200,276.3L200,276.3L200,276.3h-1.1H200v-1.3l0,0l0,0V276.3
					 M208.5,268L208.5,268L208.5,268L208.5,268L208.5,268l-1.1,1.1l0,0h-1.1V268l0,0l1.1-1.1l0,0l0,0l0,0l0,0 M195.1,270.3
					L195.1,270.3L195.1,270.3L195.1,270.3L195.1,270.3L195.1,270.3h-1.3l0,0v-1.4l0,0l0,0l0,0l0,0l0,0l0,0v1.4l0,0v-1.4l0,0l0,0l0,0
					l0,0l0,0l0,0l0,0l0,0"/>
			</g>
		</g>
		<g transform="translate(24.75,24.75)">
			<rect x="193.7" y="266.7" class="st28" width="14.7" height="14.7"/>
			<g>
				<path class="st29" d="M201.9,274.9L201.9,274.9L201.9,274.9l-1.5-1.5l0,0l0,0l0,0"/>
			</g>
		</g>
	</g>
</g>
<path class="st2" d="M52.2,352.6h280c2.2,0,4,1.8,4,4v239.5c0,2.2-1.8,4-4,4h-280c-2.2,0-4-1.8-4-4V356.6
	C48.2,354.4,50,352.6,52.2,352.6z"/>
<path class="st3" d="M49.2,349.6h280c2.2,0,4,1.8,4,4v239.5c0,2.2-1.8,4-4,4h-280c-2.2,0-4-1.8-4-4V353.6
	C45.2,351.4,47,349.6,49.2,349.6z"/>
<line class="st4" x1="70" y1="417.7" x2="127.1" y2="402.7"/>
<line class="st4" x1="70" y1="454.8" x2="127.1" y2="449.8"/>
<line class="st4" x1="70" y1="491.9" x2="127.1" y2="496.9"/>
<line class="st4" x1="70" y1="529.1" x2="127.1" y2="544.1"/>
<path class="st4" d="M128.1,381.5h40.4c0.6,0,1,0.4,1,1v40.4c0,0.6-0.4,1-1,1h-40.4c-0.6,0-1-0.4-1-1v-40.4
	C127.1,381.9,127.5,381.5,128.1,381.5z"/>
<g transform="translate(-8.25383573477965,-3.8105492445369293)scale(0.049184278106615256,0.049184278106615256)translate(0,0)">
	<g transform="rotate(0,598.9736328125,508.6340637207032)">
		<g transform="translate(0,0)">
			<path class="st30" d="M3167.5,7932.5l0.7-1.4l34.3-2.8l17.5,0.7l14.7,2.1l21,2.8l16.1,4.2l17.5,3.5l23.8,7l18.2,6.3l22.4,9.8
				l16.8,9.1l21.7,11.9l16.1,10.5l15.4,11.2l19.6,15.4l23.8,21l17.5,17.5l19.6,22.4l14,20.3l12.6,19.6l15.4,29.4l14.7,30.8l8.4,19.6
				l8.4,23.8l7,29.4l3.5,23.1l0.7,21.7v21.7l-2.8,25.2l-4.9,22.4l-5.6,19.6l-11.9,21l-12.6,19.6l-12.6,15.4l-16.8,16.8l-20.3,17.5
				l-18.2,13.3l-19.6,14l-20.3,12.6l-20.3,12.6l-21.7,13.3l-21,9.8l-27.3,9.8l-34.3,9.8l-29.4,9.1l-31.5,7.7l-36.4,9.1l-31.5,7
				l-28.7,4.2l-29.4,4.2l-28.7,2.8l-35,1.4l-35-0.7l-35-2.8l-32.9-7.7l-35.7-11.2l-38.5-19.6l-29.4-25.2l-27.3-29.4l-31.5-41.3
				l-18.2-38.5L2768,8408l-9.8-39.9l-7-42.7l1.4-40.6l6.3-39.9l9.1-39.2l9.8-34.3l9.1-29.4l10.5-30.1l15.4-29.4l18.2-27.3l18.9-21
				l33.6-28l31.5-19.6l36.4-19.6l30.8-14.7l31.5-13.3l32.2-12.6l26.6-8.4l20.3-3.5l14.7-2.1l14.7-2.1l11.2-1.4h2.1l2.1,0.7h2.8h0.7
				h-0.7v-0.7"/>
		</g>
	</g>
</g>
<circle class="st10" cx="118.8" cy="377.7" r="5"/>
<path class="st4" d="M128.1,428.6h40.4c0.6,0,1,0.4,1,1V470c0,0.6-0.4,1-1,1h-40.4c-0.6,0-1-0.4-1-1v-40.4
	C127.1,429.1,127.5,428.6,128.1,428.6z"/>
<g transform="translate(0,3.3031847770724454)scale(0.049184278106615256,0.049184278106615256)translate(0,0)">
	<g transform="rotate(0,431.15911865234375,363.999755859375)">
		<g transform="translate(0,0)">
			<path class="st30" d="M3044.4,8834.3l-1.4-0.7l4.9-3.5l4.9-1.4l5.6-1.4l7.7-0.7l9.8,0.7l10.5,0.7l8.4,2.1l13.3,2.8l12.6,4.2
				l12.6,4.2l12.6,5.6l11.2,7l11.9,8.4l15.4,12.6l11.9,9.8l11.9,9.8l16.1,14l14.7,14.7l10.5,12.6l14.7,21l9.1,18.2l8.4,18.9
				l8.4,18.9l8.4,23.1l2.8,18.9l2.1,22.4l-0.7,18.2l-2.8,18.2l-2.8,16.8l-5.6,16.8l-7,16.1l-8.4,15.4l-9.8,14.7l-11.9,13.3l-14,13.3
				l-16.1,12.6l-17.5,11.2l-26.6,14.7l-30.1,14l-39.2,13.3l-43.4,11.2l-44.8,7.7l-62.2,6.3h-51l-46.9-7l-37.8-14.7l-38.5-25.2
				l-29.4-25.2l-25.9-37.9l-16.8-37.9l-11.2-49.8l-2.8-36.5l4.2-44.2l12.6-43.5l23.1-41.4l28.7-36.5l32.2-28.7l37.1-22.4l37.8-20.3
				l39.2-14.7l37.1-11.2l32.9-7.7l34.3-4.2h23.8l22.4,2.1l10.5,1.4h2.1"/>
		</g>
	</g>
</g>
<circle class="st10" cx="127.1" cy="431.9" r="5"/>
<path class="st4" d="M128.1,475.7h40.4c0.6,0,1,0.4,1,1v40.4c0,0.6-0.4,1-1,1h-40.4c-0.6,0-1-0.4-1-1v-40.4
	C127.1,476.2,127.5,475.7,128.1,475.7z"/>
<g transform="translate(7.637933537390621,8.413117266277382)scale(0.049184278106615256,0.049184278106615256)translate(0,0)">
	<g transform="rotate(0,275.866943359375,260.1061401367188)">
		<g transform="translate(0,0)">
			<path class="st30" d="M2811.1,10090.7l-2.8,1.4l-7,1.4l-12.6-0.7h-11.2h-11.9l-16.8-2.8l-13.3-4.2l-14-7l-18.2-14.7l-15.4-18.9
				l-12.6-22.4l-11.2-28l-7-28.7l-2.8-21.7l-0.7-32.9l4.2-30.8l7-28l16.1-30.8l18.2-20.3l27.3-22.4l30.1-16.1l38.5-11.2l42-0.7l42,7
				l49,18.9l32.9,21l30.8,27.3l25.2,28.7l14.7,28.7l7.7,29.4l-1.4,24.5l-5.6,25.2l-32.2,51.8l-61.6,56.8l-9.1,6.3l-7.7,7l-7,4.9
				l-3.5,2.8l-3.5,2.1l-2.8,2.1l-2.1,2.1l-3.5,1.4l-3.5,2.1l-1.4,1.4l-1.4,0.7l-2.1,1.4l-1.4,1.4l-2.1,0.7l-1.4,0.7l-2.1,0.7
				l-1.4,0.7l-4.9,1.4l-2.1,0.7l-2.8,0.7l-2.1,0.7l-2.1,0.7l-2.1,0.7h-2.8h-2.8l-2.1,0.7h-2.8h-2.1l-2.8-0.7l-1.4-0.7h-1.4h-1.4
				l-1.4-0.7h-0.7h-0.7l-1.4-0.7h-1.4l-0.7-0.7h-0.7v-0.7l0,0l0,0v-0.7v-0.7h0.7v-0.7l0,0l0,0v-0.7l0,0l0,0l0,0l0,0v-0.7l0,0h-0.7
				v-0.7l0,0h-0.7v-0.7h-0.7h-0.7l0,0h-0.7h-0.7l0,0h-0.7h-0.7v-0.7h-0.7h-0.7h-0.7l0,0h-1.4l-0.7-0.7h-0.7h-0.7"/>
		</g>
	</g>
</g>
<circle class="st10" cx="134.7" cy="484.2" r="5"/>
<path class="st4" d="M128.1,522.9h40.4c0.6,0,1,0.4,1,1v40.4c0,0.6-0.4,1-1,1h-40.4c-0.6,0-1-0.4-1-1v-40.4
	C127.1,523.3,127.5,522.9,128.1,522.9z"/>
<g transform="translate(21.20625,21.20625)scale(0.049184278106615256,0.049184278106615256)translate(0,0)">
	<g transform="rotate(0,0,0)">
	</g>
</g>
<circle class="st10" cx="148.3" cy="544.1" r="5"/>
<text transform="matrix(1 0 0 1 307.9795 591.672)" class="st11 st12">Layout</text>
<ellipse class="st0" cx="45.2" cy="529.1" rx="18.6" ry="18.6"/>
<text transform="matrix(1 0 0 1 28.9529 531.4215)" class="st11 st15">within rea..</text>
<ellipse class="st31" cx="45.2" cy="417.7" rx="18.6" ry="18.6"/>
<text transform="matrix(1 0 0 1 37.7253 418.8235)" class="st11 st15">nope</text>
<text transform="matrix(1 0 0 1 28.9529 420.0465)" class="st32 st11 st15">within rea..</text>
<ellipse class="st31" cx="45.2" cy="454.8" rx="18.6" ry="18.6"/>
<text transform="matrix(1 0 0 1 38.4751 455.9485)" class="st11 st15">hard</text>
<text transform="matrix(1 0 0 1 28.9529 457.1715)" class="st32 st11 st15">within rea..</text>
<ellipse class="st31" cx="45.2" cy="491.9" rx="18.6" ry="18.6"/>
<text transform="matrix(1 0 0 1 36.6097 493.0735)" class="st11 st15">easily</text>
<text transform="matrix(1 0 0 1 28.9529 494.2965)" class="st32 st11 st15">within rea..</text>
</svg>
