<?xml version="1.0" encoding="utf-8"?>
<!-- Generator: Adobe Illustrator 21.0.0, SVG Export Plug-In . SVG Version: 6.00 Build 0)  -->
<svg version="1.1" id="svg1" xmlns="http://www.w3.org/2000/svg" xmlns:xlink="http://www.w3.org/1999/xlink" x="0px" y="0px"
	 viewBox="0 0 1800 1211.4" style="enable-background:new 0 0 1800 1211.4;" xml:space="preserve">
<style type="text/css">
	.st0{fill:#A66211;stroke:#000000;}
	.st1{fill:none;stroke:#000000;}
	.st2{fill:#311B1B;stroke:#000000;}
	.st3{stroke:#000000;}
	.st4{fill:#020202;stroke:#000000;}
	.st5{fill:#FFFFFF;stroke:#000000;}
	.st6{fill:#878686;stroke:#000000;}
	.st7{fill:#FEFB26;stroke:#000000;}
	.st8{fill:#F4F40F;stroke:#000000;}
	.st9{fill:#9D7300;stroke:#000000;}
	.st10{fill:#D9D8D9;stroke:#000000;}
	.st11{fill:#0FF43D;stroke:#000000;}
	.st12{fill:#F40F16;stroke:#000000;}
	.st13{fill:#C30FF4;stroke:#000000;}
	.st14{fill:#E0C137;stroke:#000000;}
	.st15{fill:#CB1753;stroke:#000000;}
	.st16{fill:#0F0FF4;stroke:#000000;}
</style>
<path class="st0" d="M353,876.1c-2.2-2.2-8.6,2.1-9.8,3.7c-1.3,1.8-1,4.5-1.9,6.4c-2.3,4.7,1.7,1.1-3.4,4c-3.4,2-6.7,0.3-9.2,4.8
	c-2.3,4.1-1.2,8,2.9,10.4c6.9,4,22-0.6,25.8-7.5c1.7-3.1,1.6-9.5,0.5-12.7c-0.6-2-4.9-10.9-7.9-5C350.2,879.6,354,877.1,353,876.1"
	/>
<path class="st0" d="M346.6,877.7L346.6,877.7c-0.3,0-0.7,0-1,0c0.4-9-10.1-5.7-14.1-2.8c-4,3-13.4,14.5-9.9,20.1
	c5.3,8.4,12.8-8,16.9-8.3"/>
<path class="st0" d="M355.2,879.6L355.2,879.6c3.4-8.7,11.4-4.8,13.1,2c1.7,6.6-0.1,18.4-5,23.2c-2.2-0.5-3.6-11.6-6.1-14.1"/>
<path class="st1" d="M360.5,905.1c0-3.2-9.4,3.7-10.1,5.1c-3.6,7.5,3.7,10.1,9.6,10.9c5,0.7,13.3,0.4,13.1-6.6
	c-0.2-7.2-13-9.5-18.2-9.5C356.5,905,360.5,906.5,360.5,905.1"/>
<path class="st2" d="M366.7,904.8c0,0,10.9-10.7,11.6-11.9c2-3.3,6.5-10.2,6.5-14.3c0-1.3,3.8,2.5,4.1,3.5
	c1.3,5.6-7.4,12.9-10.3,16.5c-1.9,2.3-3.2,5.9-6,7.8c-2.9,2-2.7,3.3-5.9,1.3C364.1,906.3,367.2,902.6,366.7,904.8"/>
<path class="st1" d="M323.3,904.2c-4.7,0.7-9.4,4.1-14.2,4.1c0,5.4,7.6,5.5,10.1,9.2l0,0l0,0l0,0c0.2-4.7,4.1-8.2,7.2-11.3
	C326.3,906.3,324,904.6,323.3,904.2"/>
<path class="st3" d="M352.6,806.3c-2.2-2.2-8.6,2.1-9.8,3.7c-1.3,1.8-1,4.5-1.9,6.4c-2.3,4.7,1.7,1.1-3.4,4c-3.4,2-6.7,0.3-9.2,4.8
	c-2.3,4.1-1.2,8,2.9,10.4c6.9,4,22-0.6,25.8-7.5c1.7-3.1,1.6-9.5,0.5-12.7c-0.6-2-4.9-10.9-7.9-5
	C349.9,809.8,353.6,807.3,352.6,806.3"/>
<path class="st3" d="M346.2,808L346.2,808c-0.3,0-0.7,0-1,0c0.4-9-10.1-5.7-14.1-2.8c-4,3-13.4,14.5-9.9,20.1
	c5.3,8.4,12.8-8,16.9-8.3"/>
<path class="st3" d="M354.8,809.8L354.8,809.8c3.4-8.7,11.4-4.8,13.1,2c1.7,6.6-0.1,18.4-5,23.2c-2.2-0.5-3.6-11.6-6.1-14.1"/>
<path class="st1" d="M360.1,837.5c-17.3-0.2-8.7,17.6,5.2,15.8c19.3-2.4-3.1-18.7-7.2-14.5C358.8,838.4,359.5,837.9,360.1,837.5"/>
<path class="st2" d="M366.3,835.1c0,0,10.9-10.7,11.6-11.9c2-3.3,6.5-10.2,6.5-14.3c0-1.3,3.8,2.5,4.1,3.5
	c1.3,5.6-7.4,12.9-10.3,16.5c-1.9,2.3-3.2,5.9-6,7.8c-2.9,2-2.7,3.3-5.9,1.3C363.7,836.6,366.8,832.9,366.3,835.1"/>
<path class="st1" d="M323,834.5c-4.7,0.7-9.4,4.1-14.2,4.1c0,5.4,7.6,5.5,10.1,9.2l0,0l0,0l0,0c0.2-4.7,4.1-8.2,7.2-11.3
	C325.9,836.5,323.6,834.9,323,834.5"/>
<path class="st4" d="M363.4,736.3c-2.2-2.2-8.6,2.1-9.8,3.7c-1.3,1.8-1,4.5-1.9,6.4c-2.3,4.7,1.7,1.1-3.4,4c-3.4,2-6.7,0.3-9.2,4.8
	c-2.3,4.1-1.2,8,2.9,10.4c6.9,4,22-0.6,25.8-7.5c1.7-3.1,1.6-9.5,0.5-12.7c-0.6-2-4.9-10.9-7.9-5
	C360.6,739.8,364.4,737.3,363.4,736.3"/>
<path class="st4" d="M356.9,738L356.9,738c-0.3,0-0.7,0-1,0c0.4-9-10.1-5.7-14.1-2.8c-4,3-13.4,14.5-9.9,20.1
	c5.3,8.4,12.8-8,16.9-8.3"/>
<path class="st4" d="M365.5,739.8L365.5,739.8c3.4-8.7,11.4-4.8,13.1,2c1.7,6.6-0.1,18.4-5,23.2c-2.2-0.5-3.6-11.6-6.1-14.1"/>
<path class="st1" d="M369,765.1c-6.2,0-20.5,6-14.2,14.8c3.1,4.4,12.8,4,17.5,3.6c6.3-0.6,16.2-3.8,12.5-12.3
	c-3-6.9-13.2-5.4-19.1-7.4C366.8,764.1,367.9,764.6,369,765.1"/>
<path class="st5" d="M377,765.1c0,0,10.9-10.7,11.6-11.9c2-3.3,6.5-10.2,6.5-14.3c0-1.3,3.8,2.5,4.1,3.5c1.3,5.6-7.4,12.9-10.3,16.5
	c-1.9,2.3-3.2,5.9-6,7.8c-2.9,2-2.7,3.3-5.9,1.3C374.4,766.6,377.6,762.9,377,765.1"/>
<path class="st1" d="M333.7,764.5c-4.7,0.7-9.4,4.1-14.2,4.1c0,5.4,7.6,5.5,10.1,9.2l0,0l0,0l0,0c0.2-4.7,4.1-8.2,7.2-11.3
	C336.7,766.5,334.3,764.9,333.7,764.5"/>
<path class="st6" d="M381.3,667.8c-2.2-2.2-8.6,2.1-9.8,3.7c-1.3,1.8-1,4.5-1.9,6.4c-2.3,4.7,1.7,1.1-3.4,4c-3.4,2-6.7,0.3-9.2,4.8
	c-2.3,4.1-1.2,8,2.9,10.4c6.9,4,22-0.6,25.8-7.5c1.7-3.1,1.6-9.5,0.5-12.7c-0.6-2-4.9-10.9-7.9-5
	C378.5,671.3,382.3,668.8,381.3,667.8"/>
<path class="st6" d="M374.8,669.4L374.8,669.4c-0.3,0-0.7,0-1,0c0.4-9-10.1-5.7-14.1-2.8c-4,3-13.4,14.5-9.9,20.1
	c5.3,8.4,12.8-8,16.9-8.3"/>
<path class="st6" d="M383.4,671.3L383.4,671.3c3.4-8.7,11.4-4.8,13.1,2c1.7,6.6-0.1,18.4-5,23.2c-2.2-0.5-3.6-11.6-6.1-14.1"/>
<path class="st1" d="M386.9,696.5c-6.2,0-20.5,6-14.2,14.8c3.1,4.4,12.8,4,17.5,3.6c6.3-0.6,16.2-3.8,12.5-12.3
	c-3-6.9-13.2-5.4-19.1-7.4C384.7,695.6,385.8,696,386.9,696.5"/>
<path class="st2" d="M395,696.5c0,0,10.9-10.7,11.6-11.9c2-3.3,6.5-10.2,6.5-14.3c0-1.3,3.8,2.5,4.1,3.5c1.3,5.6-7.4,12.9-10.3,16.5
	c-1.9,2.3-3.2,5.9-6,7.8c-2.9,2-2.7,3.3-5.9,1.3C392.3,698,395.5,694.3,395,696.5"/>
<path class="st1" d="M351.6,695.9c-4.7,0.7-9.4,4.1-14.2,4.1c0,5.4,7.6,5.5,10.1,9.2l0,0l0,0l0,0c0.2-4.7,4.1-8.2,7.2-11.3
	C354.6,698,352.3,696.3,351.6,695.9"/>
<path class="st0" d="M403.7,600.5c-2.2-2.2-8.6,2.1-9.8,3.7c-1.3,1.8-1,4.5-1.9,6.4c-2.3,4.7,1.7,1.1-3.4,4c-3.4,2-6.7,0.3-9.2,4.8
	c-2.3,4.1-1.2,8,2.9,10.4c6.9,4,22-0.6,25.8-7.5c1.7-3.1,1.6-9.5,0.5-12.7c-0.6-2-4.9-10.9-7.9-5
	C400.9,603.9,404.7,601.5,403.7,600.5"/>
<path class="st0" d="M397.3,602.1L397.3,602.1c-0.3,0-0.7,0-1,0c0.4-9-10.1-5.7-14.1-2.8c-4,3-13.4,14.5-9.9,20.1
	c5.3,8.4,12.8-8,16.9-8.3"/>
<path class="st0" d="M405.9,604L405.9,604c3.4-8.7,11.4-4.8,13.1,2c1.7,6.6-0.1,18.4-5,23.2c-2.2-0.5-3.6-11.6-6.1-14.1"/>
<path class="st1" d="M408,628.1L408,628.1c-7.5-0.4-22,11.3-14.1,18.5c5.4,4.9,20,2.6,26.6,1.2c7.7-1.6,15-9.3,8.4-17
	c-8.1-9.4-19.9-3-28.1,0.6"/>
<path class="st2" d="M417.4,629.2c0,0,10.9-10.7,11.6-11.9c2-3.3,6.5-10.2,6.5-14.3c0-1.3,3.8,2.5,4.1,3.5
	c1.3,5.6-7.4,12.9-10.3,16.5c-1.9,2.3-3.2,5.9-6,7.8c-2.9,2-2.7,3.3-5.9,1.3C414.7,630.7,417.9,627,417.4,629.2"/>
<path class="st1" d="M374,628.6c-4.7,0.7-9.4,4.1-14.2,4.1c0,5.4,7.6,5.5,10.1,9.2l0,0l0,0l0,0c0.2-4.7,4.1-8.2,7.2-11.3
	C377,630.7,374.7,629,374,628.6"/>
<path class="st6" d="M431.7,535.2c-2.2-2.2-8.6,2.1-9.8,3.7c-1.3,1.8-1,4.5-1.9,6.4c-2.3,4.7,1.7,1.1-3.4,4c-3.4,2-6.7,0.3-9.2,4.8
	c-2.3,4.1-1.2,8,2.9,10.4c6.9,4,22-0.6,25.8-7.5c1.7-3.1,1.6-9.5,0.5-12.7c-0.6-2-4.9-10.9-7.9-5
	C428.9,538.7,432.7,536.2,431.7,535.2"/>
<path class="st6" d="M425.3,536.9L425.3,536.9c-0.3,0-0.7,0-1,0c0.4-9-10.1-5.7-14.1-2.8c-4,3-13.4,14.5-9.9,20.1
	c5.3,8.4,12.8-8,16.9-8.3"/>
<path class="st6" d="M433.9,538.7L433.9,538.7c3.4-8.7,11.4-4.8,13.1,2c1.7,6.6-0.1,18.4-5,23.2c-2.2-0.5-3.6-11.6-6.1-14.1"/>
<path class="st1" d="M439.2,566.4c-17.3-0.2-8.7,17.6,5.2,15.8c19.3-2.4-3.1-18.7-7.2-14.5C437.9,567.3,438.6,566.8,439.2,566.4"/>
<path class="st2" d="M445.4,564c0,0,10.9-10.7,11.6-11.9c2-3.3,6.5-10.2,6.5-14.3c0-1.3,3.8,2.5,4.1,3.5c1.3,5.6-7.4,12.9-10.3,16.5
	c-1.9,2.3-3.2,5.9-6,7.8c-2.9,2-2.7,3.3-5.9,1.3C442.7,565.5,445.9,561.8,445.4,564"/>
<path class="st1" d="M402,563.4c-4.7,0.7-9.4,4.1-14.2,4.1c0,5.4,7.6,5.5,10.1,9.2l0,0l0,0l0,0c0.2-4.7,4.1-8.2,7.2-11.3
	C405,565.4,402.7,563.8,402,563.4"/>
<path class="st7" d="M467.3,473.9c-2.2-2.2-8.6,2.1-9.8,3.7c-1.3,1.8-1,4.5-1.9,6.4c-2.3,4.7,1.7,1.1-3.4,4c-3.4,2-6.7,0.3-9.2,4.8
	c-2.3,4.1-1.2,8,2.9,10.4c6.9,4,22-0.6,25.8-7.5c1.7-3.1,1.6-9.5,0.5-12.7c-0.6-2-4.9-10.9-7.9-5C464.6,477.4,468.3,475,467.3,473.9
	"/>
<path class="st7" d="M460.9,475.6L460.9,475.6c-0.3,0-0.7,0-1,0c0.4-9-10.1-5.7-14.1-2.8c-4,3-13.4,14.5-9.9,20.1
	c5.3,8.4,12.8-8,16.9-8.3"/>
<path class="st7" d="M469.5,477.5L469.5,477.5c3.4-8.7,11.4-4.8,13.1,2c1.7,6.6-0.1,18.4-5,23.2c-2.2-0.5-3.6-11.6-6.1-14.1"/>
<path class="st1" d="M474.9,502.9c0-3.2-9.4,3.7-10.1,5.1c-3.6,7.5,3.7,10.1,9.6,10.9c5,0.7,13.3,0.4,13.1-6.6
	c-0.2-7.2-13-9.5-18.2-9.5C470.8,502.9,474.9,504.4,474.9,502.9"/>
<path class="st2" d="M481,502.7c0,0,10.9-10.7,11.6-11.9c2-3.3,6.5-10.2,6.5-14.3c0-1.3,3.8,2.5,4.1,3.5c1.3,5.6-7.4,12.9-10.3,16.5
	c-1.9,2.3-3.2,5.9-6,7.8c-2.9,2-2.7,3.3-5.9,1.3C478.4,504.2,481.6,500.5,481,502.7"/>
<path class="st1" d="M437.7,502.1c-4.7,0.7-9.4,4.1-14.2,4.1c0,5.4,7.6,5.5,10.1,9.2l0,0l0,0l0,0c0.2-4.7,4.1-8.2,7.2-11.3
	C440.6,504.2,438.3,502.5,437.7,502.1"/>
<path class="st3" d="M514.4,421.1c-2.2-2.2-8.6,2.1-9.8,3.7c-1.3,1.8-1,4.5-1.9,6.4c-2.3,4.7,1.7,1.1-3.4,4c-3.4,2-6.7,0.3-9.2,4.8
	c-2.3,4.1-1.2,8,2.9,10.4c6.9,4,22-0.6,25.8-7.5c1.7-3.1,1.6-9.5,0.5-12.7c-0.6-2-4.9-10.9-7.9-5
	C511.6,424.6,515.4,422.2,514.4,421.1"/>
<path class="st3" d="M508,422.8L508,422.8c-0.3,0-0.7,0-1,0c0.4-9-10.1-5.7-14.1-2.8c-4,3-13.4,14.5-9.9,20.1
	c5.3,8.4,12.8-8,16.9-8.3"/>
<path class="st3" d="M516.6,424.7L516.6,424.7c3.4-8.7,11.4-4.8,13.1,2c1.7,6.6-0.1,18.4-5,23.2c-2.2-0.5-3.6-11.6-6.1-14.1"/>
<path class="st1" d="M521.9,450.1c0-3.2-9.4,3.7-10.1,5.1c-3.6,7.5,3.7,10.1,9.6,10.9c5,0.7,13.3,0.4,13.1-6.6
	c-0.2-7.2-13-9.5-18.2-9.5C517.9,450.1,521.9,451.6,521.9,450.1"/>
<path class="st2" d="M528.1,449.9c0,0,10.9-10.7,11.6-11.9c2-3.3,6.5-10.2,6.5-14.3c0-1.3,3.8,2.5,4.1,3.5
	c1.3,5.6-7.4,12.9-10.3,16.5c-1.9,2.3-3.2,5.9-6,7.8c-2.9,2-2.7,3.3-5.9,1.3C525.4,451.4,528.6,447.7,528.1,449.9"/>
<path class="st1" d="M484.7,449.3c-4.7,0.7-9.4,4.1-14.2,4.1c0,5.4,7.6,5.5,10.1,9.2l0,0l0,0l0,0c0.2-4.7,4.1-8.2,7.2-11.3
	C487.7,451.4,485.4,449.7,484.7,449.3"/>
<path class="st0" d="M526.9,836.8c-2.2-2.2-8.6,2.1-9.8,3.7c-1.3,1.8-1,4.5-1.9,6.4c-2.3,4.7,1.7,1.1-3.4,4c-3.4,2-6.7,0.3-9.2,4.8
	c-2.3,4.1-1.2,8,2.9,10.4c6.9,4,22-0.6,25.8-7.5c1.7-3.1,1.6-9.5,0.5-12.7c-0.6-2-4.9-10.9-7.9-5
	C524.2,840.3,527.9,837.8,526.9,836.8"/>
<path class="st0" d="M520.5,838.4L520.5,838.4c-0.3,0-0.7,0-1,0c0.4-9-10.1-5.7-14.1-2.8c-4,3-13.4,14.5-9.9,20.1
	c5.3,8.4,12.8-8,16.9-8.3"/>
<path class="st0" d="M529.1,840.3L529.1,840.3c3.4-8.7,11.4-4.8,13.1,2c1.7,6.6-0.1,18.4-5,23.2c-2.2-0.5-3.6-11.6-6.1-14.1"/>
<path class="st1" d="M534.5,865.8c0-3.2-9.4,3.7-10.1,5.1c-3.6,7.5,3.7,10.1,9.6,10.9c5,0.7,13.3,0.4,13.1-6.6
	c-0.2-7.2-13-9.5-18.2-9.5C530.4,865.8,534.5,867.2,534.5,865.8"/>
<path class="st8" d="M540.6,865.6c0,0,10.9-10.7,11.6-11.9c2-3.3,6.5-10.2,6.5-14.3c0-1.3,3.8,2.5,4.1,3.5
	c1.3,5.6-7.4,12.9-10.3,16.5c-1.9,2.3-3.2,5.9-6,7.8c-2.9,2-2.7,3.3-5.9,1.3C538,867,541.2,863.4,540.6,865.6"/>
<path class="st1" d="M497.3,864.9c-4.7,0.7-9.4,4.1-14.2,4.1c0,5.4,7.6,5.5,10.1,9.2l0,0l0,0l0,0c0.2-4.7,4.1-8.2,7.2-11.3
	C500.2,867,497.9,865.4,497.3,864.9"/>
<path class="st0" d="M530.9,765c-2.2-2.2-8.6,2.1-9.8,3.7c-1.3,1.8-1,4.5-1.9,6.4c-2.3,4.7,1.7,1.1-3.4,4c-3.4,2-6.7,0.3-9.2,4.8
	c-2.3,4.1-1.2,8,2.9,10.4c6.9,4,22-0.6,25.8-7.5c1.7-3.1,1.6-9.5,0.5-12.7c-0.6-2-4.9-10.9-7.9-5C528.1,768.5,531.9,766,530.9,765"
	/>
<path class="st0" d="M524.5,766.6L524.5,766.6c-0.3,0-0.7,0-1,0c0.4-9-10.1-5.7-14.1-2.8c-4,3-13.4,14.5-9.9,20.1
	c5.3,8.4,12.8-8,16.9-8.3"/>
<path class="st0" d="M533,768.5L533,768.5c3.4-8.7,11.4-4.8,13.1,2c1.7,6.6-0.1,18.4-5,23.2c-2.2-0.5-3.6-11.6-6.1-14.1"/>
<path class="st1" d="M536.5,793.7c-6.2,0-20.5,6-14.2,14.8c3.1,4.4,12.8,4,17.5,3.6c6.3-0.6,16.2-3.8,12.5-12.3
	c-3-6.9-13.2-5.4-19.1-7.4C534.3,792.8,535.4,793.3,536.5,793.7"/>
<path class="st2" d="M544.6,793.8c0,0,10.9-10.7,11.6-11.9c2-3.3,6.5-10.2,6.5-14.3c0-1.3,3.8,2.5,4.1,3.5
	c1.3,5.6-7.4,12.9-10.3,16.5c-1.9,2.3-3.2,5.9-6,7.8c-2.9,2-2.7,3.3-5.9,1.3C541.9,795.2,545.1,791.6,544.6,793.8"/>
<path class="st1" d="M501.2,793.1c-4.7,0.7-9.4,4.1-14.2,4.1c0,5.4,7.6,5.5,10.1,9.2l0,0l0,0l0,0c0.2-4.7,4.1-8.2,7.2-11.3
	C504.2,795.2,501.9,793.5,501.2,793.1"/>
<path class="st6" d="M540.5,694.7c-2.2-2.2-8.6,2.1-9.8,3.7c-1.3,1.8-1,4.5-1.9,6.4c-2.3,4.7,1.7,1.1-3.4,4c-3.4,2-6.7,0.3-9.2,4.8
	c-2.3,4.1-1.2,8,2.9,10.4c6.9,4,22-0.6,25.8-7.5c1.7-3.1,1.6-9.5,0.5-12.7c-0.6-2-4.9-10.9-7.9-5
	C537.8,698.2,541.5,695.7,540.5,694.7"/>
<path class="st6" d="M534.1,696.3L534.1,696.3c-0.3,0-0.7,0-1,0c0.4-9-10.1-5.7-14.1-2.8c-4,3-13.4,14.5-9.9,20.1
	c5.3,8.4,12.8-8,16.9-8.3"/>
<path class="st6" d="M542.7,698.2L542.7,698.2c3.4-8.7,11.4-4.8,13.1,2c1.7,6.6-0.1,18.4-5,23.2c-2.2-0.5-3.6-11.6-6.1-14.1"/>
<path class="st1" d="M548.1,723.7c0-3.2-9.4,3.7-10.1,5.1c-3.6,7.5,3.7,10.1,9.6,10.9c5,0.7,13.3,0.4,13.1-6.6
	c-0.2-7.2-13-9.5-18.2-9.5C544,723.6,548.1,725.1,548.1,723.7"/>
<path class="st5" d="M554.2,723.5c0,0,10.9-10.7,11.6-11.9c2-3.3,6.5-10.2,6.5-14.3c0-1.3,3.8,2.5,4.1,3.5
	c1.3,5.6-7.4,12.9-10.3,16.5c-1.9,2.3-3.2,5.9-6,7.8c-2.9,2-2.7,3.3-5.9,1.3C551.6,724.9,554.8,721.3,554.2,723.5"/>
<path class="st9" d="M510.9,722.8c-4.7,0.7-9.4,4.1-14.2,4.1c0,5.4,7.6,5.5,10.1,9.2l0,0l0,0l0,0c0.2-4.7,4.1-8.2,7.2-11.3
	C513.8,724.9,511.5,723.2,510.9,722.8"/>
<path class="st0" d="M555,625.4c-2.2-2.2-8.6,2.1-9.8,3.7c-1.3,1.8-1,4.5-1.9,6.4c-2.3,4.7,1.7,1.1-3.4,4c-3.4,2-6.7,0.3-9.2,4.8
	c-2.3,4.1-1.2,8,2.9,10.4c6.9,4,22-0.6,25.8-7.5c1.7-3.1,1.6-9.5,0.5-12.7c-0.6-2-4.9-10.9-7.9-5C552.2,628.9,556,626.5,555,625.4"
	/>
<path class="st0" d="M548.5,627.1L548.5,627.1c-0.3,0-0.7,0-1,0c0.4-9-10.1-5.7-14.1-2.8c-4,3-13.4,14.5-9.9,20.1
	c5.3,8.4,12.8-8,16.9-8.3"/>
<path class="st0" d="M557.1,628.9L557.1,628.9c3.4-8.7,11.4-4.8,13.1,2c1.7,6.6-0.1,18.4-5,23.2c-2.2-0.5-3.6-11.6-6.1-14.1"/>
<path class="st1" d="M560.6,654.2c-6.2,0-20.5,6-14.2,14.8c3.1,4.4,12.8,4,17.5,3.6c6.3-0.6,16.2-3.8,12.5-12.3
	c-3-6.9-13.2-5.4-19.1-7.4C558.4,653.3,559.5,653.7,560.6,654.2"/>
<path class="st2" d="M568.6,654.2c0,0,10.9-10.7,11.6-11.9c2-3.3,6.5-10.2,6.5-14.3c0-1.3,3.8,2.5,4.1,3.5
	c1.3,5.6-7.4,12.9-10.3,16.5c-1.9,2.3-3.2,5.9-6,7.8c-2.9,2-2.7,3.3-5.9,1.3C566,655.7,569.2,652,568.6,654.2"/>
<path class="st1" d="M525.3,653.6c-4.7,0.7-9.4,4.1-14.2,4.1c0,5.4,7.6,5.5,10.1,9.2l0,0l0,0l0,0c0.2-4.7,4.1-8.2,7.2-11.3
	C528.3,655.6,525.9,654,525.3,653.6"/>
<path class="st3" d="M581.3,559.7c-2.2-2.2-8.6,2.1-9.8,3.7c-1.3,1.8-1,4.5-1.9,6.4c-2.3,4.7,1.7,1.1-3.4,4c-3.4,2-6.7,0.3-9.2,4.8
	c-2.3,4.1-1.2,8,2.9,10.4c6.9,4,22-0.6,25.8-7.5c1.7-3.1,1.6-9.5,0.5-12.7c-0.6-2-4.9-10.9-7.9-5
	C578.5,563.1,582.3,560.7,581.3,559.7"/>
<path class="st3" d="M574.8,561.3L574.8,561.3c-0.3,0-0.7,0-1,0c0.4-9-10.1-5.7-14.1-2.8c-4,3-13.4,14.5-9.9,20.1
	c5.3,8.4,12.8-8,16.9-8.3"/>
<path class="st3" d="M583.4,563.2L583.4,563.2c3.4-8.7,11.4-4.8,13.1,2c1.7,6.6-0.1,18.4-5,23.2c-2.2-0.5-3.6-11.6-6.1-14.1"/>
<path class="st1" d="M588.8,588.7c0-3.2-9.4,3.7-10.1,5.1c-3.6,7.5,3.7,10.1,9.6,10.9c5,0.7,13.3,0.4,13.1-6.6
	c-0.2-7.2-13-9.5-18.2-9.5C584.8,588.6,588.8,590.1,588.8,588.7"/>
<path class="st5" d="M594.9,588.4c0,0,10.9-10.7,11.6-11.9c2-3.3,6.5-10.2,6.5-14.3c0-1.3,3.8,2.5,4.1,3.5
	c1.3,5.6-7.4,12.9-10.3,16.5c-1.9,2.3-3.2,5.9-6,7.8c-2.9,2-2.7,3.3-5.9,1.3C592.3,589.9,595.5,586.2,594.9,588.4"/>
<path class="st1" d="M551.6,587.8c-4.7,0.7-9.4,4.1-14.2,4.1c0,5.4,7.6,5.5,10.1,9.2l0,0l0,0l0,0c0.2-4.7,4.1-8.2,7.2-11.3
	C554.6,589.9,552.2,588.2,551.6,587.8"/>
<path class="st3" d="M617.7,498.8c-2.2-2.2-8.6,2.1-9.8,3.7c-1.3,1.8-1,4.5-1.9,6.4c-2.3,4.7,1.7,1.1-3.4,4c-3.4,2-6.7,0.3-9.2,4.8
	c-2.3,4.1-1.2,8,2.9,10.4c6.9,4,22-0.6,25.8-7.5c1.7-3.1,1.6-9.5,0.5-12.7c-0.6-2-4.9-10.9-7.9-5C615,502.3,618.7,499.8,617.7,498.8
	"/>
<path class="st3" d="M611.3,500.4L611.3,500.4c-0.3,0-0.7,0-1,0c0.4-9-10.1-5.7-14.1-2.8c-4,3-13.4,14.5-9.9,20.1
	c5.3,8.4,12.8-8,16.9-8.3"/>
<path class="st3" d="M619.9,502.3L619.9,502.3c3.4-8.7,11.4-4.8,13.1,2c1.7,6.6-0.1,18.4-5,23.2c-2.2-0.5-3.6-11.6-6.1-14.1"/>
<path class="st1" d="M625.3,527.8c0-3.2-9.4,3.7-10.1,5.1c-3.6,7.5,3.7,10.1,9.6,10.9c5,0.7,13.3,0.4,13.1-6.6
	c-0.2-7.2-13-9.5-18.2-9.5C621.2,527.7,625.3,529.2,625.3,527.8"/>
<path class="st5" d="M631.4,527.6c0,0,10.9-10.7,11.6-11.9c2-3.3,6.5-10.2,6.5-14.3c0-1.3,3.8,2.5,4.1,3.5
	c1.3,5.6-7.4,12.9-10.3,16.5c-1.9,2.3-3.2,5.9-6,7.8c-2.9,2-2.7,3.3-5.9,1.3C628.8,529,632,525.4,631.4,527.6"/>
<path class="st1" d="M588.1,526.9c-4.7,0.7-9.4,4.1-14.2,4.1c0,5.4,7.6,5.5,10.1,9.2l0,0l0,0l0,0c0.2-4.7,4.1-8.2,7.2-11.3
	C591,529,588.7,527.3,588.1,526.9"/>
<path class="st10" d="M659.7,441.8c-2.2-2.2-8.6,2.1-9.8,3.7c-1.3,1.8-1,4.5-1.9,6.4c-2.3,4.7,1.7,1.1-3.4,4c-3.4,2-6.7,0.3-9.2,4.8
	c-2.3,4.1-1.2,8,2.9,10.4c6.9,4,22-0.6,25.8-7.5c1.7-3.1,1.6-9.5,0.5-12.7c-0.6-2-4.9-10.9-7.9-5
	C656.9,445.3,660.7,442.9,659.7,441.8"/>
<path class="st10" d="M653.3,443.5L653.3,443.5c-0.3,0-0.7,0-1,0c0.4-9-10.1-5.7-14.1-2.8c-4,3-13.4,14.5-9.9,20.1
	c5.3,8.4,12.8-8,16.9-8.3"/>
<path class="st10" d="M661.9,445.4L661.9,445.4c3.4-8.7,11.4-4.8,13.1,2c1.7,6.6-0.1,18.4-5,23.2c-2.2-0.5-3.6-11.6-6.1-14.1"/>
<path class="st1" d="M667.2,470.8c0-3.2-9.4,3.7-10.1,5.1c-3.6,7.5,3.7,10.1,9.6,10.9c5,0.7,13.3,0.4,13.1-6.6
	c-0.2-7.2-13-9.5-18.2-9.5C663.2,470.8,667.2,472.3,667.2,470.8"/>
<path class="st11" d="M673.4,470.6c0,0,10.9-10.7,11.6-11.9c2-3.3,6.5-10.2,6.5-14.3c0-1.3,3.8,2.5,4.1,3.5
	c1.3,5.6-7.4,12.9-10.3,16.5c-1.9,2.3-3.2,5.9-6,7.8c-2.9,2-2.7,3.3-5.9,1.3C670.7,472.1,673.9,468.4,673.4,470.6"/>
<path class="st9" d="M630,470c-4.7,0.7-9.4,4.1-14.2,4.1c0,5.4,7.6,5.5,10.1,9.2l0,0l0,0l0,0c0.2-4.7,4.1-8.2,7.2-11.3
	C633,472.1,630.7,470.4,630,470"/>
<path class="st0" d="M667.9,864c-2.2-2.2-8.6,2.1-9.8,3.7c-1.3,1.8-1,4.5-1.9,6.4c-2.3,4.7,1.7,1.1-3.4,4c-3.4,2-6.7,0.3-9.2,4.8
	c-2.3,4.1-1.2,8,2.9,10.4c6.9,4,22-0.6,25.8-7.5c1.7-3.1,1.6-9.5,0.5-12.7c-0.6-2-4.9-10.9-7.9-5C665.2,867.5,668.9,865,667.9,864"
	/>
<path class="st0" d="M661.5,865.6L661.5,865.6c-0.3,0-0.7,0-1,0c0.4-9-10.1-5.7-14.1-2.8c-4,3-13.4,14.5-9.9,20.1
	c5.3,8.4,12.8-8,16.9-8.3"/>
<path class="st0" d="M670.1,867.5L670.1,867.5c3.4-8.7,11.4-4.8,13.1,2c1.7,6.6-0.1,18.4-5,23.2c-2.2-0.5-3.6-11.6-6.1-14.1"/>
<path class="st1" d="M675.4,895.1c-17.3-0.2-8.7,17.6,5.2,15.8c19.3-2.4-3.1-18.7-7.2-14.5C674.1,896,674.8,895.6,675.4,895.1"/>
<path class="st5" d="M681.6,892.8c0,0,10.9-10.7,11.6-11.9c2-3.3,6.5-10.2,6.5-14.3c0-1.3,3.8,2.5,4.1,3.5
	c1.3,5.6-7.4,12.9-10.3,16.5c-1.9,2.3-3.2,5.9-6,7.8c-2.9,2-2.7,3.3-5.9,1.3C679,894.2,682.1,890.6,681.6,892.8"/>
<path class="st1" d="M638.2,892.1c-4.7,0.7-9.4,4.1-14.2,4.1c0,5.4,7.6,5.5,10.1,9.2l0,0l0,0l0,0c0.2-4.7,4.1-8.2,7.2-11.3
	C641.2,894.2,638.9,892.6,638.2,892.1"/>
<path class="st10" d="M674.6,793.4c-2.2-2.2-8.6,2.1-9.8,3.7c-1.3,1.8-1,4.5-1.9,6.4c-2.3,4.7,1.7,1.1-3.4,4c-3.4,2-6.7,0.3-9.2,4.8
	c-2.3,4.1-1.2,8,2.9,10.4c6.9,4,22-0.6,25.8-7.5c1.7-3.1,1.6-9.5,0.5-12.7c-0.6-2-4.9-10.9-7.9-5
	C671.8,796.9,675.6,794.4,674.6,793.4"/>
<path class="st10" d="M668.2,795L668.2,795c-0.3,0-0.7,0-1,0c0.4-9-10.1-5.7-14.1-2.8c-4,3-13.4,14.5-9.9,20.1
	c5.3,8.4,12.8-8,16.9-8.3"/>
<path class="st10" d="M676.8,796.9L676.8,796.9c3.4-8.7,11.4-4.8,13.1,2c1.7,6.6-0.1,18.4-5,23.2c-2.2-0.5-3.6-11.6-6.1-14.1"/>
<path class="st1" d="M683.9,823.9L683.9,823.9c-25.1-2.4,5.1,20.7,5.1,5.1c0-4.2-5.6-4.5-8.1-2C681.9,825.9,682.9,824.9,683.9,823.9
	"/>
<path class="st12" d="M688.3,822.2c0,0,10.9-10.7,11.6-11.9c2-3.3,6.5-10.2,6.5-14.3c0-1.3,3.8,2.5,4.1,3.5
	c1.3,5.6-7.4,12.9-10.3,16.5c-1.9,2.3-3.2,5.9-6,7.8c-2.9,2-2.7,3.3-5.9,1.3C685.6,823.6,688.8,820,688.3,822.2"/>
<path class="st9" d="M644.9,821.5c-4.7,0.7-9.4,4.1-14.2,4.1c0,5.4,7.6,5.5,10.1,9.2l0,0l0,0l0,0c0.2-4.7,4.1-8.2,7.2-11.3
	C647.9,823.6,645.6,822,644.9,821.5"/>
<path class="st7" d="M687.3,723.5c-2.2-2.2-8.6,2.1-9.8,3.7c-1.3,1.8-1,4.5-1.9,6.4c-2.3,4.7,1.7,1.1-3.4,4c-3.4,2-6.7,0.3-9.2,4.8
	c-2.3,4.1-1.2,8,2.9,10.4c6.9,4,22-0.6,25.8-7.5c1.7-3.1,1.6-9.5,0.5-12.7c-0.6-2-4.9-10.9-7.9-5C684.5,727,688.3,724.6,687.3,723.5
	"/>
<path class="st7" d="M680.8,725.2L680.8,725.2c-0.3,0-0.7,0-1,0c0.4-9-10.1-5.7-14.1-2.8c-4,3-13.4,14.5-9.9,20.1
	c5.3,8.4,12.8-8,16.9-8.3"/>
<path class="st7" d="M689.4,727.1L689.4,727.1c3.4-8.7,11.4-4.8,13.1,2c1.7,6.6-0.1,18.4-5,23.2c-2.2-0.5-3.6-11.6-6.1-14.1"/>
<path class="st1" d="M692.9,752.3c-6.2,0-20.5,6-14.2,14.8c3.1,4.4,12.8,4,17.5,3.6c6.3-0.6,16.2-3.8,12.5-12.3
	c-3-6.9-13.2-5.4-19.1-7.4C690.7,751.4,691.8,751.8,692.9,752.3"/>
<path class="st12" d="M701,752.3c0,0,10.9-10.7,11.6-11.9c2-3.3,6.5-10.2,6.5-14.3c0-1.3,3.8,2.5,4.1,3.5
	c1.3,5.6-7.4,12.9-10.3,16.5c-1.9,2.3-3.2,5.9-6,7.8c-2.9,2-2.7,3.3-5.9,1.3C698.3,753.8,701.5,750.1,701,752.3"/>
<path class="st1" d="M657.6,751.7c-4.7,0.7-9.4,4.1-14.2,4.1c0,5.4,7.6,5.5,10.1,9.2l0,0l0,0l0,0c0.2-4.7,4.1-8.2,7.2-11.3
	C660.6,753.8,658.3,752.1,657.6,751.7"/>
<path class="st3" d="M705,654.8c-2.2-2.2-8.6,2.1-9.8,3.7c-1.3,1.8-1,4.5-1.9,6.4c-2.3,4.7,1.7,1.1-3.4,4c-3.4,2-6.7,0.3-9.2,4.8
	c-2.3,4.1-1.2,8,2.9,10.4c6.9,4,22-0.6,25.8-7.5c1.7-3.1,1.6-9.5,0.5-12.7c-0.6-2-4.9-10.9-7.9-5C702.3,658.3,706,655.8,705,654.8"
	/>
<path class="st3" d="M698.6,656.5L698.6,656.5c-0.3,0-0.7,0-1,0c0.4-9-10.1-5.7-14.1-2.8c-4,3-13.4,14.5-9.9,20.1
	c5.3,8.4,12.8-8,16.9-8.3"/>
<path class="st3" d="M707.2,658.3L707.2,658.3c3.4-8.7,11.4-4.8,13.1,2c1.7,6.6-0.1,18.4-5,23.2c-2.2-0.5-3.6-11.6-6.1-14.1"/>
<path class="st1" d="M714.3,685.3L714.3,685.3c-25.1-2.4,5.1,20.7,5.1,5.1c0-4.2-5.6-4.5-8.1-2C712.3,687.3,713.3,686.3,714.3,685.3
	"/>
<path class="st5" d="M718.7,683.6c0,0,10.9-10.7,11.6-11.9c2-3.3,6.5-10.2,6.5-14.3c0-1.3,3.8,2.5,4.1,3.5
	c1.3,5.6-7.4,12.9-10.3,16.5c-1.9,2.3-3.2,5.9-6,7.8c-2.9,2-2.7,3.3-5.9,1.3C716.1,685.1,719.2,681.4,718.7,683.6"/>
<path class="st1" d="M675.4,682.9c-4.7,0.7-9.4,4.1-14.2,4.1c0,5.4,7.6,5.5,10.1,9.2l0,0l0,0l0,0c0.2-4.7,4.1-8.2,7.2-11.3
	C678.3,685,676,683.4,675.4,682.9"/>
<path class="st0" d="M731.4,588c-2.2-2.2-8.6,2.1-9.8,3.7c-1.3,1.8-1,4.5-1.9,6.4c-2.3,4.7,1.7,1.1-3.4,4c-3.4,2-6.7,0.3-9.2,4.8
	c-2.3,4.1-1.2,8,2.9,10.4c6.9,4,22-0.6,25.8-7.5c1.7-3.1,1.6-9.5,0.5-12.7c-0.6-2-4.9-10.9-7.9-5C728.7,591.5,732.4,589,731.4,588"
	/>
<path class="st0" d="M725,589.6L725,589.6c-0.3,0-0.7,0-1,0c0.4-9-10.1-5.7-14.1-2.8c-4,3-13.4,14.5-9.9,20.1
	c5.3,8.4,12.8-8,16.9-8.3"/>
<path class="st0" d="M733.6,591.5L733.6,591.5c3.4-8.7,11.4-4.8,13.1,2c1.7,6.6-0.1,18.4-5,23.2c-2.2-0.5-3.6-11.6-6.1-14.1"/>
<path class="st1" d="M737,616.7c-6.2,0-20.5,6-14.2,14.8c3.1,4.4,12.8,4,17.5,3.6c6.3-0.6,16.2-3.8,12.5-12.3
	c-3-6.9-13.2-5.4-19.1-7.4C734.8,615.8,735.9,616.3,737,616.7"/>
<path class="st2" d="M745.1,616.8c0,0,10.9-10.7,11.6-11.9c2-3.3,6.5-10.2,6.5-14.3c0-1.3,3.8,2.5,4.1,3.5
	c1.3,5.6-7.4,12.9-10.3,16.5c-1.9,2.3-3.2,5.9-6,7.8c-2.9,2-2.7,3.3-5.9,1.3C742.5,618.2,745.7,614.6,745.1,616.8"/>
<path class="st1" d="M701.8,616.1c-4.7,0.7-9.4,4.1-14.2,4.1c0,5.4,7.6,5.5,10.1,9.2l0,0l0,0l0,0c0.2-4.7,4.1-8.2,7.2-11.3
	C704.7,618.2,702.4,616.6,701.8,616.1"/>
<path class="st6" d="M766.1,526.1c-2.2-2.2-8.6,2.1-9.8,3.7c-1.3,1.8-1,4.5-1.9,6.4c-2.3,4.7,1.7,1.1-3.4,4c-3.4,2-6.7,0.3-9.2,4.8
	c-2.3,4.1-1.2,8,2.9,10.4c6.9,4,22-0.6,25.8-7.5c1.7-3.1,1.6-9.5,0.5-12.7c-0.6-2-4.9-10.9-7.9-5
	C763.4,529.6,767.1,527.2,766.1,526.1"/>
<path class="st6" d="M759.7,527.8L759.7,527.8c-0.3,0-0.7,0-1,0c0.4-9-10.1-5.7-14.1-2.8c-4,3-13.4,14.5-9.9,20.1
	c5.3,8.4,12.8-8,16.9-8.3"/>
<path class="st6" d="M768.3,529.6L768.3,529.6c3.4-8.7,11.4-4.8,13.1,2c1.7,6.6-0.1,18.4-5,23.2c-2.2-0.5-3.6-11.6-6.1-14.1"/>
<path class="st1" d="M771.7,554.9c-6.2,0-20.5,6-14.2,14.8c3.1,4.4,12.8,4,17.5,3.6c6.3-0.6,16.2-3.8,12.5-12.3
	c-3-6.9-13.2-5.4-19.1-7.4C769.5,554,770.6,554.4,771.7,554.9"/>
<path class="st5" d="M779.8,554.9c0,0,10.9-10.7,11.6-11.9c2-3.3,6.5-10.2,6.5-14.3c0-1.3,3.8,2.5,4.1,3.5
	c1.3,5.6-7.4,12.9-10.3,16.5c-1.9,2.3-3.2,5.9-6,7.8c-2.9,2-2.7,3.3-5.9,1.3C777.2,556.4,780.4,552.7,779.8,554.9"/>
<path class="st1" d="M736.5,554.3c-4.7,0.7-9.4,4.1-14.2,4.1c0,5.4,7.6,5.5,10.1,9.2l0,0l0,0l0,0c0.2-4.7,4.1-8.2,7.2-11.3
	C739.4,556.4,737.1,554.7,736.5,554.3"/>
<path class="st10" d="M839.1,886c-2.2-2.2-8.6,2.1-9.8,3.7c-1.3,1.8-1,4.5-1.9,6.4c-2.3,4.7,1.7,1.1-3.4,4c-3.4,2-6.7,0.3-9.2,4.8
	c-2.3,4.1-1.2,8,2.9,10.4c6.9,4,22-0.6,25.8-7.5c1.7-3.1,1.6-9.5,0.5-12.7c-0.6-2-4.9-10.9-7.9-5C836.4,889.5,840.1,887,839.1,886"
	/>
<path class="st10" d="M832.7,887.6L832.7,887.6c-0.3,0-0.7,0-1,0c0.4-9-10.1-5.7-14.1-2.8c-4,3-13.4,14.5-9.9,20.1
	c5.3,8.4,12.8-8,16.9-8.3"/>
<path class="st10" d="M841.3,889.5L841.3,889.5c3.4-8.7,11.4-4.8,13.1,2c1.7,6.6-0.1,18.4-5,23.2c-2.2-0.5-3.6-11.6-6.1-14.1"/>
<path class="st1" d="M846.6,917.1c-17.3-0.2-8.7,17.6,5.2,15.8c19.3-2.4-3.1-18.7-7.2-14.5C845.3,918,846,917.6,846.6,917.1"/>
<path class="st2" d="M852.8,914.8c0,0,10.9-10.7,11.6-11.9c2-3.3,6.5-10.2,6.5-14.3c0-1.3,3.8,2.5,4.1,3.5
	c1.3,5.6-7.4,12.9-10.3,16.5c-1.9,2.3-3.2,5.9-6,7.8c-2.9,2-2.7,3.3-5.9,1.3C850.2,916.2,853.3,912.6,852.8,914.8"/>
<path class="st1" d="M809.5,914.1c-4.7,0.7-9.4,4.1-14.2,4.1c0,5.4,7.6,5.5,10.1,9.2l0,0l0,0l0,0c0.2-4.7,4.1-8.2,7.2-11.3
	C812.4,916.2,810.1,914.5,809.5,914.1"/>
<path class="st6" d="M825,834c-2.2-2.2-8.6,2.1-9.8,3.7c-1.3,1.8-1,4.5-1.9,6.4c-2.3,4.7,1.7,1.1-3.4,4c-3.4,2-6.7,0.3-9.2,4.8
	c-2.3,4.1-1.2,8,2.9,10.4c6.9,4,22-0.6,25.8-7.5c1.7-3.1,1.6-9.5,0.5-12.7c-0.6-2-4.9-10.9-7.9-5C822.2,837.5,826,835,825,834"/>
<path class="st6" d="M818.6,835.7L818.6,835.7c-0.3,0-0.7,0-1,0c0.4-9-10.1-5.7-14.1-2.8c-4,3-13.4,14.5-9.9,20.1
	c5.3,8.4,12.8-8,16.9-8.3"/>
<path class="st6" d="M827.2,837.5L827.2,837.5c3.4-8.7,11.4-4.8,13.1,2c1.7,6.6-0.1,18.4-5,23.2c-2.2-0.5-3.6-11.6-6.1-14.1"/>
<path class="st1" d="M832.5,865.2c-17.3-0.2-8.7,17.6,5.2,15.8c19.3-2.4-3.1-18.7-7.2-14.5C831.2,866.1,831.9,865.6,832.5,865.2"/>
<path class="st5" d="M838.7,862.8c0,0,10.9-10.7,11.6-11.9c2-3.3,6.5-10.2,6.5-14.3c0-1.3,3.8,2.5,4.1,3.5
	c1.3,5.6-7.4,12.9-10.3,16.5c-1.9,2.3-3.2,5.9-6,7.8c-2.9,2-2.7,3.3-5.9,1.3C836.1,864.3,839.2,860.6,838.7,862.8"/>
<path class="st1" d="M795.3,862.1c-4.7,0.7-9.4,4.1-14.2,4.1c0,5.4,7.6,5.5,10.1,9.2l0,0l0,0l0,0c0.2-4.7,4.1-8.2,7.2-11.3
	C798.3,864.2,796,862.6,795.3,862.1"/>
<path class="st6" d="M826.9,779.1c-2.2-2.2-8.6,2.1-9.8,3.7c-1.3,1.8-1,4.5-1.9,6.4c-2.3,4.7,1.7,1.1-3.4,4c-3.4,2-6.7,0.3-9.2,4.8
	c-2.3,4.1-1.2,8,2.9,10.4c6.9,4,22-0.6,25.8-7.5c1.7-3.1,1.6-9.5,0.5-12.7c-0.6-2-4.9-10.9-7.9-5
	C824.1,782.6,827.9,780.1,826.9,779.1"/>
<path class="st6" d="M820.5,780.7L820.5,780.7c-0.3,0-0.7,0-1,0c0.4-9-10.1-5.7-14.1-2.8c-4,3-13.4,14.5-9.9,20.1
	c5.3,8.4,12.8-8,16.9-8.3"/>
<path class="st6" d="M829.1,782.6L829.1,782.6c3.4-8.7,11.4-4.8,13.1,2c1.7,6.6-0.1,18.4-5,23.2c-2.2-0.5-3.6-11.6-6.1-14.1"/>
<path class="st1" d="M834.4,808.1c0-3.2-9.4,3.7-10.1,5.1c-3.6,7.5,3.7,10.1,9.6,10.9c5,0.7,13.3,0.4,13.1-6.6
	c-0.2-7.2-13-9.5-18.2-9.5C830.4,808,834.4,809.5,834.4,808.1"/>
<path class="st2" d="M840.6,807.8c0,0,10.9-10.7,11.6-11.9c2-3.3,6.5-10.2,6.5-14.3c0-1.3,3.8,2.5,4.1,3.5
	c1.3,5.6-7.4,12.9-10.3,16.5c-1.9,2.3-3.2,5.9-6,7.8c-2.9,2-2.7,3.3-5.9,1.3C837.9,809.3,841.1,805.6,840.6,807.8"/>
<path class="st1" d="M797.2,807.2c-4.7,0.7-9.4,4.1-14.2,4.1c0,5.4,7.6,5.5,10.1,9.2l0,0l0,0l0,0c0.2-4.7,4.1-8.2,7.2-11.3
	C800.2,809.3,797.9,807.6,797.2,807.2"/>
<path class="st7" d="M837,724.1c-2.2-2.2-8.6,2.1-9.8,3.7c-1.3,1.8-1,4.5-1.9,6.4c-2.3,4.7,1.7,1.1-3.4,4c-3.4,2-6.7,0.3-9.2,4.8
	c-2.3,4.1-1.2,8,2.9,10.4c6.9,4,22-0.6,25.8-7.5c1.7-3.1,1.6-9.5,0.5-12.7c-0.6-2-4.9-10.9-7.9-5C834.2,727.6,838,725.1,837,724.1"
	/>
<path class="st7" d="M830.5,725.7L830.5,725.7c-0.3,0-0.7,0-1,0c0.4-9-10.1-5.7-14.1-2.8c-4,3-13.4,14.5-9.9,20.1
	c5.3,8.4,12.8-8,16.9-8.3"/>
<path class="st7" d="M839.1,727.6L839.1,727.6c3.4-8.7,11.4-4.8,13.1,2c1.7,6.6-0.1,18.4-5,23.2c-2.2-0.5-3.6-11.6-6.1-14.1"/>
<path class="st1" d="M844.5,753.1c0-3.2-9.4,3.7-10.1,5.1c-3.6,7.5,3.7,10.1,9.6,10.9c5,0.7,13.3,0.4,13.1-6.6
	c-0.2-7.2-13-9.5-18.2-9.5C840.5,753,844.5,754.5,844.5,753.1"/>
<path class="st2" d="M850.6,752.9c0,0,10.9-10.7,11.6-11.9c2-3.3,6.5-10.2,6.5-14.3c0-1.3,3.8,2.5,4.1,3.5
	c1.3,5.6-7.4,12.9-10.3,16.5c-1.9,2.3-3.2,5.9-6,7.8c-2.9,2-2.7,3.3-5.9,1.3C848,754.3,851.2,750.7,850.6,752.9"/>
<path class="st1" d="M807.3,752.2c-4.7,0.7-9.4,4.1-14.2,4.1c0,5.4,7.6,5.5,10.1,9.2l0,0l0,0l0,0c0.2-4.7,4.1-8.2,7.2-11.3
	C810.3,754.3,807.9,752.6,807.3,752.2"/>
<path class="st7" d="M857,673.2c-2.2-2.2-8.6,2.1-9.8,3.7c-1.3,1.8-1,4.5-1.9,6.4c-2.3,4.7,1.7,1.1-3.4,4c-3.4,2-6.7,0.3-9.2,4.8
	c-2.3,4.1-1.2,8,2.9,10.4c6.9,4,22-0.6,25.8-7.5c1.7-3.1,1.6-9.5,0.5-12.7c-0.6-2-4.9-10.9-7.9-5C854.3,676.7,858,674.2,857,673.2"
	/>
<path class="st7" d="M850.6,674.8L850.6,674.8c-0.3,0-0.7,0-1,0c0.4-9-10.1-5.7-14.1-2.8c-4,3-13.4,14.5-9.9,20.1
	c5.3,8.4,12.8-8,16.9-8.3"/>
<path class="st7" d="M859.2,676.7L859.2,676.7c3.4-8.7,11.4-4.8,13.1,2c1.7,6.6-0.1,18.4-5,23.2c-2.2-0.5-3.6-11.6-6.1-14.1"/>
<path class="st1" d="M864.6,702.2c0-3.2-9.4,3.7-10.1,5.1c-3.6,7.5,3.7,10.1,9.6,10.9c5,0.7,13.3,0.4,13.1-6.6
	c-0.2-7.2-13-9.5-18.2-9.5C860.5,702.1,864.6,703.6,864.6,702.2"/>
<path class="st8" d="M870.7,701.9c0,0,10.9-10.7,11.6-11.9c2-3.3,6.5-10.2,6.5-14.3c0-1.3,3.8,2.5,4.1,3.5
	c1.3,5.6-7.4,12.9-10.3,16.5c-1.9,2.3-3.2,5.9-6,7.8c-2.9,2-2.7,3.3-5.9,1.3C868.1,703.4,871.3,699.7,870.7,701.9"/>
<path class="st9" d="M827.4,701.3c-4.7,0.7-9.4,4.1-14.2,4.1c0,5.4,7.6,5.5,10.1,9.2l0,0l0,0l0,0c0.2-4.7,4.1-8.2,7.2-11.3
	C830.3,703.4,828,701.7,827.4,701.3"/>
<path class="st7" d="M887.6,627.5c-2.2-2.2-8.6,2.1-9.8,3.7c-1.3,1.8-1,4.5-1.9,6.4c-2.3,4.7,1.7,1.1-3.4,4c-3.4,2-6.7,0.3-9.2,4.8
	c-2.3,4.1-1.2,8,2.9,10.4c6.9,4,22-0.6,25.8-7.5c1.7-3.1,1.6-9.5,0.5-12.7c-0.6-2-4.9-10.9-7.9-5C884.8,631,888.6,628.6,887.6,627.5
	"/>
<path class="st7" d="M881.1,629.2L881.1,629.2c-0.3,0-0.7,0-1,0c0.4-9-10.1-5.7-14.1-2.8c-4,3-13.4,14.5-9.9,20.1
	c5.3,8.4,12.8-8,16.9-8.3"/>
<path class="st7" d="M889.7,631L889.7,631c3.4-8.7,11.4-4.8,13.1,2c1.7,6.6-0.1,18.4-5,23.2c-2.2-0.5-3.6-11.6-6.1-14.1"/>
<path class="st1" d="M895.1,658.7c-17.3-0.2-8.7,17.6,5.2,15.8c19.3-2.4-3.1-18.7-7.2-14.5C893.8,659.6,894.5,659.1,895.1,658.7"/>
<path class="st2" d="M901.3,656.3c0,0,10.9-10.7,11.6-11.9c2-3.3,6.5-10.2,6.5-14.3c0-1.3,3.8,2.5,4.1,3.5
	c1.3,5.6-7.4,12.9-10.3,16.5c-1.9,2.3-3.2,5.9-6,7.8c-2.9,2-2.7,3.3-5.9,1.3C898.6,657.8,901.8,654.1,901.3,656.3"/>
<path class="st1" d="M857.9,655.7c-4.7,0.7-9.4,4.1-14.2,4.1c0,5.4,7.6,5.5,10.1,9.2l0,0l0,0l0,0c0.2-4.7,4.1-8.2,7.2-11.3
	C860.9,657.8,858.6,656.1,857.9,655.7"/>
<path class="st3" d="M960.2,917.1c-2.2-2.2-8.6,2.1-9.8,3.7c-1.3,1.8-1,4.5-1.9,6.4c-2.3,4.7,1.7,1.1-3.4,4c-3.4,2-6.7,0.3-9.2,4.8
	c-2.3,4.1-1.2,8,2.9,10.4c6.9,4,22-0.6,25.8-7.5c1.7-3.1,1.6-9.5,0.5-12.7c-0.6-2-4.9-10.9-7.9-5
	C957.5,920.6,961.3,918.2,960.2,917.1"/>
<path class="st3" d="M953.8,918.8L953.8,918.8c-0.3,0-0.7,0-1,0c0.4-9-10.1-5.7-14.1-2.8c-4,3-13.4,14.5-9.9,20.1
	c5.3,8.4,12.8-8,16.9-8.3"/>
<path class="st3" d="M962.4,920.6L962.4,920.6c3.4-8.7,11.4-4.8,13.1,2c1.7,6.6-0.1,18.4-5,23.2c-2.2-0.5-3.6-11.6-6.1-14.1"/>
<path class="st1" d="M969.6,947.6L969.6,947.6c-25.1-2.4,5.1,20.7,5.1,5.1c0-4.2-5.6-4.5-8.1-2C967.5,949.6,968.6,948.6,969.6,947.6
	"/>
<path class="st2" d="M973.9,945.9c0,0,10.9-10.7,11.6-11.9c2-3.3,6.5-10.2,6.5-14.3c0-1.3,3.8,2.5,4.1,3.5
	c1.3,5.6-7.4,12.9-10.3,16.5c-1.9,2.3-3.2,5.9-6,7.8c-2.9,2-2.7,3.3-5.9,1.3C971.3,947.4,974.5,943.7,973.9,945.9"/>
<path class="st1" d="M930.6,945.3c-4.7,0.7-9.4,4.1-14.2,4.1c0,5.4,7.6,5.5,10.1,9.2l0,0l0,0l0,0c0.2-4.7,4.1-8.2,7.2-11.3
	C933.5,947.3,931.2,945.7,930.6,945.3"/>
<path class="st4" d="M954.7,862.7c-2.2-2.2-8.6,2.1-9.8,3.7c-1.3,1.8-1,4.5-1.9,6.4c-2.3,4.7,1.7,1.1-3.4,4c-3.4,2-6.7,0.3-9.2,4.8
	c-2.3,4.1-1.2,8,2.9,10.4c6.9,4,22-0.6,25.8-7.5c1.7-3.1,1.6-9.5,0.5-12.7c-0.6-2-4.9-10.9-7.9-5
	C951.9,866.2,955.7,863.7,954.7,862.7"/>
<path class="st4" d="M948.2,864.3L948.2,864.3c-0.3,0-0.7,0-1,0c0.4-9-10.1-5.7-14.1-2.8c-4,3-13.4,14.5-9.9,20.1
	c5.3,8.4,12.8-8,16.9-8.3"/>
<path class="st4" d="M956.8,866.2L956.8,866.2c3.4-8.7,11.4-4.8,13.1,2c1.7,6.6-0.1,18.4-5,23.2c-2.2-0.5-3.6-11.6-6.1-14.1"/>
<path class="st1" d="M960.3,891.4c-6.2,0-20.5,6-14.2,14.8c3.1,4.4,12.8,4,17.5,3.6c6.3-0.6,16.2-3.8,12.5-12.3
	c-3-6.9-13.2-5.4-19.1-7.4C958.1,890.5,959.2,890.9,960.3,891.4"/>
<path class="st2" d="M968.3,891.5c0,0,10.9-10.7,11.6-11.9c2-3.3,6.5-10.2,6.5-14.3c0-1.3,3.8,2.5,4.1,3.5
	c1.3,5.6-7.4,12.9-10.3,16.5c-1.9,2.3-3.2,5.9-6,7.8c-2.9,2-2.7,3.3-5.9,1.3C965.7,892.9,968.9,889.2,968.3,891.5"/>
<path class="st1" d="M925,890.8c-4.7,0.7-9.4,4.1-14.2,4.1c0,5.4,7.6,5.5,10.1,9.2l0,0l0,0l0,0c0.2-4.7,4.1-8.2,7.2-11.3
	C928,892.9,925.6,891.2,925,890.8"/>
<path class="st3" d="M957.6,807.9c-2.2-2.2-8.6,2.1-9.8,3.7c-1.3,1.8-1,4.5-1.9,6.4c-2.3,4.7,1.7,1.1-3.4,4c-3.4,2-6.7,0.3-9.2,4.8
	c-2.3,4.1-1.2,8,2.9,10.4c6.9,4,22-0.6,25.8-7.5c1.7-3.1,1.6-9.5,0.5-12.7c-0.6-2-4.9-10.9-7.9-5
	C954.9,811.4,958.7,808.9,957.6,807.9"/>
<path class="st3" d="M951.2,809.5L951.2,809.5c-0.3,0-0.7,0-1,0c0.4-9-10.1-5.7-14.1-2.8c-4,3-13.4,14.5-9.9,20.1
	c5.3,8.4,12.8-8,16.9-8.3"/>
<path class="st3" d="M959.8,811.4L959.8,811.4c3.4-8.7,11.4-4.8,13.1,2c1.7,6.6-0.1,18.4-5,23.2c-2.2-0.5-3.6-11.6-6.1-14.1"/>
<path class="st1" d="M967,838.3L967,838.3c-25.1-2.4,5.1,20.7,5.1,5.1c0-4.2-5.6-4.5-8.1-2C964.9,840.4,966,839.4,967,838.3"/>
<path class="st2" d="M971.3,836.6c0,0,10.9-10.7,11.6-11.9c2-3.3,6.5-10.2,6.5-14.3c0-1.3,3.8,2.5,4.1,3.5
	c1.3,5.6-7.4,12.9-10.3,16.5c-1.9,2.3-3.2,5.9-6,7.8c-2.9,2-2.7,3.3-5.9,1.3C968.7,838.1,971.9,834.4,971.3,836.6"/>
<path class="st1" d="M928,836c-4.7,0.7-9.4,4.1-14.2,4.1c0,5.4,7.6,5.5,10.1,9.2l0,0l0,0l0,0c0.2-4.7,4.1-8.2,7.2-11.3
	C930.9,838.1,928.6,836.4,928,836"/>
<path class="st6" d="M969.1,754.1c-2.2-2.2-8.6,2.1-9.8,3.7c-1.3,1.8-1,4.5-1.9,6.4c-2.3,4.7,1.7,1.1-3.4,4c-3.4,2-6.7,0.3-9.2,4.8
	c-2.3,4.1-1.2,8,2.9,10.4c6.9,4,22-0.6,25.8-7.5c1.7-3.1,1.6-9.5,0.5-12.7c-0.6-2-4.9-10.9-7.9-5
	C966.3,757.6,970.1,755.1,969.1,754.1"/>
<path class="st6" d="M962.6,755.7L962.6,755.7c-0.3,0-0.7,0-1,0c0.4-9-10.1-5.7-14.1-2.8c-4,3-13.4,14.5-9.9,20.1
	c5.3,8.4,12.8-8,16.9-8.3"/>
<path class="st6" d="M971.2,757.6L971.2,757.6c3.4-8.7,11.4-4.8,13.1,2c1.7,6.6-0.1,18.4-5,23.2c-2.2-0.5-3.6-11.6-6.1-14.1"/>
<path class="st1" d="M976.6,783.1c0-3.2-9.4,3.7-10.1,5.1c-3.6,7.5,3.7,10.1,9.6,10.9c5,0.7,13.3,0.4,13.1-6.6
	c-0.2-7.2-13-9.5-18.2-9.5C972.6,783,976.6,784.5,976.6,783.1"/>
<path class="st12" d="M982.7,782.8c0,0,10.9-10.7,11.6-11.9c2-3.3,6.5-10.2,6.5-14.3c0-1.3,3.8,2.5,4.1,3.5
	c1.3,5.6-7.4,12.9-10.3,16.5c-1.9,2.3-3.2,5.9-6,7.8c-2.9,2-2.7,3.3-5.9,1.3C980.1,784.3,983.3,780.6,982.7,782.8"/>
<path class="st1" d="M939.4,782.2c-4.7,0.7-9.4,4.1-14.2,4.1c0,5.4,7.6,5.5,10.1,9.2l0,0l0,0l0,0c0.2-4.7,4.1-8.2,7.2-11.3
	C942.4,784.3,940,782.6,939.4,782.2"/>
<path class="st0" d="M987.5,701.3c-2.2-2.2-8.6,2.1-9.8,3.7c-1.3,1.8-1,4.5-1.9,6.4c-2.3,4.7,1.7,1.1-3.4,4c-3.4,2-6.7,0.3-9.2,4.8
	c-2.3,4.1-1.2,8,2.9,10.4c6.9,4,22-0.6,25.8-7.5c1.7-3.1,1.6-9.5,0.5-12.7c-0.6-2-4.9-10.9-7.9-5
	C984.8,704.8,988.5,702.3,987.5,701.3"/>
<path class="st0" d="M981.1,702.9L981.1,702.9c-0.3,0-0.7,0-1,0c0.4-9-10.1-5.7-14.1-2.8c-4,3-13.4,14.5-9.9,20.1
	c5.3,8.4,12.8-8,16.9-8.3"/>
<path class="st0" d="M989.7,704.8L989.7,704.8c3.4-8.7,11.4-4.8,13.1,2c1.7,6.6-0.1,18.4-5,23.2c-2.2-0.5-3.6-11.6-6.1-14.1"/>
<path class="st1" d="M993.1,730c-6.2,0-20.5,6-14.2,14.8c3.1,4.4,12.8,4,17.5,3.6c6.3-0.6,16.2-3.8,12.5-12.3
	c-3-6.9-13.2-5.4-19.1-7.4C990.9,729.1,992,729.5,993.1,730"/>
<path class="st5" d="M1001.2,730c0,0,10.9-10.7,11.6-11.9c2-3.3,6.5-10.2,6.5-14.3c0-1.3,3.8,2.5,4.1,3.5
	c1.3,5.6-7.4,12.9-10.3,16.5c-1.9,2.3-3.2,5.9-6,7.8c-2.9,2-2.7,3.3-5.9,1.3C998.6,731.5,1001.7,727.8,1001.2,730"/>
<path class="st1" d="M957.9,729.4c-4.7,0.7-9.4,4.1-14.2,4.1c0,5.4,7.6,5.5,10.1,9.2l0,0l0,0l0,0c0.2-4.7,4.1-8.2,7.2-11.3
	C960.8,731.5,958.5,729.8,957.9,729.4"/>
<path class="st3" d="M1016,654.5c-2.2-2.2-8.6,2.1-9.8,3.7c-1.3,1.8-1,4.5-1.9,6.4c-2.3,4.7,1.7,1.1-3.4,4c-3.4,2-6.7,0.3-9.2,4.8
	c-2.3,4.1-1.2,8,2.9,10.4c6.9,4,22-0.6,25.8-7.5c1.7-3.1,1.6-9.5,0.5-12.7c-0.6-2-4.9-10.9-7.9-5C1013.3,658,1017,655.6,1016,654.5"
	/>
<path class="st3" d="M1009.6,656.2L1009.6,656.2c-0.3,0-0.7,0-1,0c0.4-9-10.1-5.7-14.1-2.8c-4,3-13.4,14.5-9.9,20.1
	c5.3,8.4,12.8-8,16.9-8.3"/>
<path class="st3" d="M1018.2,658L1018.2,658c3.4-8.7,11.4-4.8,13.1,2c1.7,6.6-0.1,18.4-5,23.2c-2.2-0.5-3.6-11.6-6.1-14.1"/>
<path class="st1" d="M1023.6,683.5c0-3.2-9.4,3.7-10.1,5.1c-3.6,7.5,3.7,10.1,9.6,10.9c5,0.7,13.3,0.4,13.1-6.6
	c-0.2-7.2-13-9.5-18.2-9.5C1019.5,683.5,1023.6,685,1023.6,683.5"/>
<path class="st12" d="M1029.7,683.3c0,0,10.9-10.7,11.6-11.9c2-3.3,6.5-10.2,6.5-14.3c0-1.3,3.8,2.5,4.1,3.5
	c1.3,5.6-7.4,12.9-10.3,16.5c-1.9,2.3-3.2,5.9-6,7.8c-2.9,2-2.7,3.3-5.9,1.3C1027.1,684.8,1030.3,681.1,1029.7,683.3"/>
<path class="st1" d="M986.4,682.7c-4.7,0.7-9.4,4.1-14.2,4.1c0,5.4,7.6,5.5,10.1,9.2l0,0l0,0l0,0c0.2-4.7,4.1-8.2,7.2-11.3
	C989.3,684.8,987,683.1,986.4,682.7"/>
<path class="st4" d="M1083.2,935.7c-2.2-2.2-8.6,2.1-9.8,3.7c-1.3,1.8-1,4.5-1.9,6.4c-2.3,4.7,1.7,1.1-3.4,4c-3.4,2-6.7,0.3-9.2,4.8
	c-2.3,4.1-1.2,8,2.9,10.4c6.9,4,22-0.6,25.8-7.5c1.7-3.1,1.6-9.5,0.5-12.7c-0.6-2-4.9-10.9-7.9-5
	C1080.5,939.2,1084.3,936.7,1083.2,935.7"/>
<path class="st4" d="M1076.8,937.4L1076.8,937.4c-0.3,0-0.7,0-1,0c0.4-9-10.1-5.7-14.1-2.8c-4,3-13.4,14.5-9.9,20.1
	c5.3,8.4,12.8-8,16.9-8.3"/>
<path class="st4" d="M1085.4,939.2L1085.4,939.2c3.4-8.7,11.4-4.8,13.1,2c1.7,6.6-0.1,18.4-5,23.2c-2.2-0.5-3.6-11.6-6.1-14.1"/>
<path class="st1" d="M1090.8,964.7c0-3.2-9.4,3.7-10.1,5.1c-3.6,7.5,3.7,10.1,9.6,10.9c5,0.7,13.3,0.4,13.1-6.6
	c-0.2-7.2-13-9.5-18.2-9.5C1086.8,964.7,1090.8,966.1,1090.8,964.7"/>
<path class="st11" d="M1096.9,964.5c0,0,10.9-10.7,11.6-11.9c2-3.3,6.5-10.2,6.5-14.3c0-1.3,3.8,2.5,4.1,3.5
	c1.3,5.6-7.4,12.9-10.3,16.5c-1.9,2.3-3.2,5.9-6,7.8c-2.9,2-2.7,3.3-5.9,1.3C1094.3,966,1097.5,962.3,1096.9,964.5"/>
<path class="st1" d="M1053.6,963.8c-4.7,0.7-9.4,4.1-14.2,4.1c0,5.4,7.6,5.5,10.1,9.2l0,0l0,0l0,0c0.2-4.7,4.1-8.2,7.2-11.3
	C1056.5,965.9,1054.2,964.3,1053.6,963.8"/>
<path class="st6" d="M1075.3,881.3c-2.2-2.2-8.6,2.1-9.8,3.7c-1.3,1.8-1,4.5-1.9,6.4c-2.3,4.7,1.7,1.1-3.4,4c-3.4,2-6.7,0.3-9.2,4.8
	c-2.3,4.1-1.2,8,2.9,10.4c6.9,4,22-0.6,25.8-7.5c1.7-3.1,1.6-9.5,0.5-12.7c-0.6-2-4.9-10.9-7.9-5
	C1072.5,884.8,1076.3,882.3,1075.3,881.3"/>
<path class="st6" d="M1068.9,882.9L1068.9,882.9c-0.3,0-0.7,0-1,0c0.4-9-10.1-5.7-14.1-2.8c-4,3-13.4,14.5-9.9,20.1
	c5.3,8.4,12.8-8,16.9-8.3"/>
<path class="st6" d="M1077.5,884.8L1077.5,884.8c3.4-8.7,11.4-4.8,13.1,2c1.7,6.6-0.1,18.4-5,23.2c-2.2-0.5-3.6-11.6-6.1-14.1"/>
<path class="st1" d="M1082.8,910.3c0-3.2-9.4,3.7-10.1,5.1c-3.6,7.5,3.7,10.1,9.6,10.9c5,0.7,13.3,0.4,13.1-6.6
	c-0.2-7.2-13-9.5-18.2-9.5C1078.8,910.2,1082.8,911.7,1082.8,910.3"/>
<path class="st2" d="M1089,910.1c0,0,10.9-10.7,11.6-11.9c2-3.3,6.5-10.2,6.5-14.3c0-1.3,3.8,2.5,4.1,3.5
	c1.3,5.6-7.4,12.9-10.3,16.5c-1.9,2.3-3.2,5.9-6,7.8c-2.9,2-2.7,3.3-5.9,1.3C1086.3,911.5,1089.5,907.9,1089,910.1"/>
<path class="st1" d="M1045.6,909.4c-4.7,0.7-9.4,4.1-14.2,4.1c0,5.4,7.6,5.5,10.1,9.2l0,0l0,0l0,0c0.2-4.7,4.1-8.2,7.2-11.3
	C1048.6,911.5,1046.3,909.9,1045.6,909.4"/>
<path class="st7" d="M1080.9,827c-2.2-2.2-8.6,2.1-9.8,3.7c-1.3,1.8-1,4.5-1.9,6.4c-2.3,4.7,1.7,1.1-3.4,4c-3.4,2-6.7,0.3-9.2,4.8
	c-2.3,4.1-1.2,8,2.9,10.4c6.9,4,22-0.6,25.8-7.5c1.7-3.1,1.6-9.5,0.5-12.7c-0.6-2-4.9-10.9-7.9-5
	C1078.1,830.5,1081.9,828.1,1080.9,827"/>
<path class="st7" d="M1074.4,828.7L1074.4,828.7c-0.3,0-0.7,0-1,0c0.4-9-10.1-5.7-14.1-2.8c-4,3-13.4,14.5-9.9,20.1
	c5.3,8.4,12.8-8,16.9-8.3"/>
<path class="st7" d="M1083,830.5L1083,830.5c3.4-8.7,11.4-4.8,13.1,2c1.7,6.6-0.1,18.4-5,23.2c-2.2-0.5-3.6-11.6-6.1-14.1"/>
<path class="st1" d="M1088.4,856c0-3.2-9.4,3.7-10.1,5.1c-3.6,7.5,3.7,10.1,9.6,10.9c5,0.7,13.3,0.4,13.1-6.6
	c-0.2-7.2-13-9.5-18.2-9.5C1084.4,856,1088.4,857.5,1088.4,856"/>
<path class="st2" d="M1094.5,855.8c0,0,10.9-10.7,11.6-11.9c2-3.3,6.5-10.2,6.5-14.3c0-1.3,3.8,2.5,4.1,3.5
	c1.3,5.6-7.4,12.9-10.3,16.5c-1.9,2.3-3.2,5.9-6,7.8c-2.9,2-2.7,3.3-5.9,1.3C1091.9,857.3,1095.1,853.6,1094.5,855.8"/>
<path class="st1" d="M1051.2,855.2c-4.7,0.7-9.4,4.1-14.2,4.1c0,5.4,7.6,5.5,10.1,9.2l0,0l0,0l0,0c0.2-4.7,4.1-8.2,7.2-11.3
	C1054.2,857.3,1051.8,855.6,1051.2,855.2"/>
<path class="st4" d="M1098.7,775.1c-2.2-2.2-8.6,2.1-9.8,3.7c-1.3,1.8-1,4.5-1.9,6.4c-2.3,4.7,1.7,1.1-3.4,4c-3.4,2-6.7,0.3-9.2,4.8
	c-2.3,4.1-1.2,8,2.9,10.4c6.9,4,22-0.6,25.8-7.5c1.7-3.1,1.6-9.5,0.5-12.7c-0.6-2-4.9-10.9-7.9-5
	C1095.9,778.5,1099.7,776.1,1098.7,775.1"/>
<path class="st4" d="M1092.3,776.7L1092.3,776.7c-0.3,0-0.7,0-1,0c0.4-9-10.1-5.7-14.1-2.8c-4,3-13.4,14.5-9.9,20.1
	c5.3,8.4,12.8-8,16.9-8.3"/>
<path class="st4" d="M1100.8,778.6L1100.8,778.6c3.4-8.7,11.4-4.8,13.1,2c1.7,6.6-0.1,18.4-5,23.2c-2.2-0.5-3.6-11.6-6.1-14.1"/>
<path class="st1" d="M1104.3,803.8c-6.2,0-20.5,6-14.2,14.8c3.1,4.4,12.8,4,17.5,3.6c6.3-0.6,16.2-3.8,12.5-12.3
	c-3-6.9-13.2-5.4-19.1-7.4C1102.1,802.9,1103.2,803.3,1104.3,803.8"/>
<path class="st2" d="M1112.4,803.8c0,0,10.9-10.7,11.6-11.9c2-3.3,6.5-10.2,6.5-14.3c0-1.3,3.8,2.5,4.1,3.5
	c1.3,5.6-7.4,12.9-10.3,16.5c-1.9,2.3-3.2,5.9-6,7.8c-2.9,2-2.7,3.3-5.9,1.3C1109.7,805.3,1112.9,801.6,1112.4,803.8"/>
<path class="st1" d="M1069,803.2c-4.7,0.7-9.4,4.1-14.2,4.1c0,5.4,7.6,5.5,10.1,9.2l0,0l0,0l0,0c0.2-4.7,4.1-8.2,7.2-11.3
	C1072,805.3,1069.7,803.6,1069,803.2"/>
<path class="st7" d="M1117.7,722.7c-2.2-2.2-8.6,2.1-9.8,3.7c-1.3,1.8-1,4.5-1.9,6.4c-2.3,4.7,1.7,1.1-3.4,4c-3.4,2-6.7,0.3-9.2,4.8
	c-2.3,4.1-1.2,8,2.9,10.4c6.9,4,22-0.6,25.8-7.5c1.7-3.1,1.6-9.5,0.5-12.7c-0.6-2-4.9-10.9-7.9-5
	C1115,726.2,1118.7,723.7,1117.7,722.7"/>
<path class="st7" d="M1111.3,724.3L1111.3,724.3c-0.3,0-0.7,0-1,0c0.4-9-10.1-5.7-14.1-2.8c-4,3-13.4,14.5-9.9,20.1
	c5.3,8.4,12.8-8,16.9-8.3"/>
<path class="st7" d="M1119.9,726.2L1119.9,726.2c3.4-8.7,11.4-4.8,13.1,2c1.7,6.6-0.1,18.4-5,23.2c-2.2-0.5-3.6-11.6-6.1-14.1"/>
<path class="st1" d="M1125.2,753.8c-17.3-0.2-8.7,17.6,5.2,15.8c19.3-2.4-3.1-18.7-7.2-14.5C1123.9,754.7,1124.6,754.3,1125.2,753.8
	"/>
<path class="st2" d="M1131.4,751.4c0,0,10.9-10.7,11.6-11.9c2-3.3,6.5-10.2,6.5-14.3c0-1.3,3.8,2.5,4.1,3.5
	c1.3,5.6-7.4,12.9-10.3,16.5c-1.9,2.3-3.2,5.9-6,7.8c-2.9,2-2.7,3.3-5.9,1.3C1128.8,752.9,1131.9,749.2,1131.4,751.4"/>
<path class="st1" d="M1088.1,750.8c-4.7,0.7-9.4,4.1-14.2,4.1c0,5.4,7.6,5.5,10.1,9.2l0,0l0,0l0,0c0.2-4.7,4.1-8.2,7.2-11.3
	C1091,752.9,1088.7,751.2,1088.1,750.8"/>
<path class="st6" d="M1175.6,960.1c-2.2-2.2-8.6,2.1-9.8,3.7c-1.3,1.8-1,4.5-1.9,6.4c-2.3,4.7,1.7,1.1-3.4,4c-3.4,2-6.7,0.3-9.2,4.8
	c-2.3,4.1-1.2,8,2.9,10.4c6.9,4,22-0.6,25.8-7.5c1.7-3.1,1.6-9.5,0.5-12.7c-0.6-2-4.9-10.9-7.9-5
	C1172.9,963.6,1176.6,961.1,1175.6,960.1"/>
<path class="st6" d="M1169.2,961.7L1169.2,961.7c-0.3,0-0.7,0-1,0c0.4-9-10.1-5.7-14.1-2.8c-4,3-13.4,14.5-9.9,20.1
	c5.3,8.4,12.8-8,16.9-8.3"/>
<path class="st6" d="M1177.8,963.6L1177.8,963.6c3.4-8.7,11.4-4.8,13.1,2c1.7,6.6-0.1,18.4-5,23.2c-2.2-0.5-3.6-11.6-6.1-14.1"/>
<path class="st1" d="M1181.2,988.8c-6.2,0-20.5,6-14.2,14.8c3.1,4.4,12.8,4,17.5,3.6c6.3-0.6,16.2-3.8,12.5-12.3
	c-3-6.9-13.2-5.4-19.1-7.4C1179,987.9,1180.1,988.3,1181.2,988.8"/>
<path class="st2" d="M1189.3,988.9c0,0,10.9-10.7,11.6-11.9c2-3.3,6.5-10.2,6.5-14.3c0-1.3,3.8,2.5,4.1,3.5
	c1.3,5.6-7.4,12.9-10.3,16.5c-1.9,2.3-3.2,5.9-6,7.8c-2.9,2-2.7,3.3-5.9,1.3C1186.7,990.3,1189.9,986.6,1189.3,988.9"/>
<path class="st1" d="M1146,988.2c-4.7,0.7-9.4,4.1-14.2,4.1c0,5.4,7.6,5.5,10.1,9.2l0,0l0,0l0,0c0.2-4.7,4.1-8.2,7.2-11.3
	C1148.9,990.3,1146.6,988.6,1146,988.2"/>
<path class="st0" d="M1173.7,905.3c-2.2-2.2-8.6,2.1-9.8,3.7c-1.3,1.8-1,4.5-1.9,6.4c-2.3,4.7,1.7,1.1-3.4,4c-3.4,2-6.7,0.3-9.2,4.8
	c-2.3,4.1-1.2,8,2.9,10.4c6.9,4,22-0.6,25.8-7.5c1.7-3.1,1.6-9.5,0.5-12.7c-0.6-2-4.9-10.9-7.9-5
	C1171,908.8,1174.7,906.3,1173.7,905.3"/>
<path class="st0" d="M1167.3,907L1167.3,907c-0.3,0-0.7,0-1,0c0.4-9-10.1-5.7-14.1-2.8c-4,3-13.4,14.5-9.9,20.1
	c5.3,8.4,12.8-8,16.9-8.3"/>
<path class="st0" d="M1175.9,908.8L1175.9,908.8c3.4-8.7,11.4-4.8,13.1,2c1.7,6.6-0.1,18.4-5,23.2c-2.2-0.5-3.6-11.6-6.1-14.1"/>
<path class="st1" d="M1183,935.8L1183,935.8c-25.1-2.4,5.1,20.7,5.1,5.1c0-4.2-5.6-4.5-8.1-2C1181,937.8,1182,936.8,1183,935.8"/>
<path class="st2" d="M1187.4,934.1c0,0,10.9-10.7,11.6-11.9c2-3.3,6.5-10.2,6.5-14.3c0-1.3,3.8,2.5,4.1,3.5
	c1.3,5.6-7.4,12.9-10.3,16.5c-1.9,2.3-3.2,5.9-6,7.8c-2.9,2-2.7,3.3-5.9,1.3C1184.8,935.6,1187.9,931.9,1187.4,934.1"/>
<path class="st1" d="M1144.1,933.4c-4.7,0.7-9.4,4.1-14.2,4.1c0,5.4,7.6,5.5,10.1,9.2l0,0l0,0l0,0c0.2-4.7,4.1-8.2,7.2-11.3
	C1147,935.5,1144.7,933.9,1144.1,933.4"/>
<path class="st10" d="M1188.3,852.5c-2.2-2.2-8.6,2.1-9.8,3.7c-1.3,1.8-1,4.5-1.9,6.4c-2.3,4.7,1.7,1.1-3.4,4
	c-3.4,2-6.7,0.3-9.2,4.8c-2.3,4.1-1.2,8,2.9,10.4c6.9,4,22-0.6,25.8-7.5c1.7-3.1,1.6-9.5,0.5-12.7c-0.6-2-4.9-10.9-7.9-5
	C1185.5,855.9,1189.3,853.5,1188.3,852.5"/>
<path class="st10" d="M1181.8,854.1L1181.8,854.1c-0.3,0-0.7,0-1,0c0.4-9-10.1-5.7-14.1-2.8c-4,3-13.4,14.5-9.9,20.1
	c5.3,8.4,12.8-8,16.9-8.3"/>
<path class="st10" d="M1190.4,856L1190.4,856c3.4-8.7,11.4-4.8,13.1,2c1.7,6.6-0.1,18.4-5,23.2c-2.2-0.5-3.6-11.6-6.1-14.1"/>
<path class="st1" d="M1193.9,881.2c-6.2,0-20.5,6-14.2,14.8c3.1,4.4,12.8,4,17.5,3.6c6.3-0.6,16.2-3.8,12.5-12.3
	c-3-6.9-13.2-5.4-19.1-7.4C1191.7,880.3,1192.8,880.7,1193.9,881.2"/>
<path class="st2" d="M1202,881.2c0,0,10.9-10.7,11.6-11.9c2-3.3,6.5-10.2,6.5-14.3c0-1.3,3.8,2.5,4.1,3.5
	c1.3,5.6-7.4,12.9-10.3,16.5c-1.9,2.3-3.2,5.9-6,7.8c-2.9,2-2.7,3.3-5.9,1.3C1199.3,882.7,1202.5,879,1202,881.2"/>
<path class="st1" d="M1158.6,880.6c-4.7,0.7-9.4,4.1-14.2,4.1c0,5.4,7.6,5.5,10.1,9.2l0,0l0,0l0,0c0.2-4.7,4.1-8.2,7.2-11.3
	C1161.6,882.7,1159.3,881,1158.6,880.6"/>
<path class="st0" d="M1215,804.5c-2.2-2.2-8.6,2.1-9.8,3.7c-1.3,1.8-1,4.5-1.9,6.4c-2.3,4.7,1.7,1.1-3.4,4c-3.4,2-6.7,0.3-9.2,4.8
	c-2.3,4.1-1.2,8,2.9,10.4c6.9,4,22-0.6,25.8-7.5c1.7-3.1,1.6-9.5,0.5-12.7c-0.6-2-4.9-10.9-7.9-5C1212.2,808,1216,805.5,1215,804.5"
	/>
<path class="st0" d="M1208.5,806.1L1208.5,806.1c-0.3,0-0.7,0-1,0c0.4-9-10.1-5.7-14.1-2.8c-4,3-13.4,14.5-9.9,20.1
	c5.3,8.4,12.8-8,16.9-8.3"/>
<path class="st0" d="M1217.1,808L1217.1,808c3.4-8.7,11.4-4.8,13.1,2c1.7,6.6-0.1,18.4-5,23.2c-2.2-0.5-3.6-11.6-6.1-14.1"/>
<path class="st1" d="M1220.6,833.2c-6.2,0-20.5,6-14.2,14.8c3.1,4.4,12.8,4,17.5,3.6c6.3-0.6,16.2-3.8,12.5-12.3
	c-3-6.9-13.2-5.4-19.1-7.4C1218.4,832.3,1219.5,832.8,1220.6,833.2"/>
<path class="st2" d="M1228.6,833.3c0,0,10.9-10.7,11.6-11.9c2-3.3,6.5-10.2,6.5-14.3c0-1.3,3.8,2.5,4.1,3.5
	c1.3,5.6-7.4,12.9-10.3,16.5c-1.9,2.3-3.2,5.9-6,7.8c-2.9,2-2.7,3.3-5.9,1.3C1226,834.7,1229.2,831.1,1228.6,833.3"/>
<path class="st1" d="M1185.3,832.6c-4.7,0.7-9.4,4.1-14.2,4.1c0,5.4,7.6,5.5,10.1,9.2l0,0l0,0l0,0c0.2-4.7,4.1-8.2,7.2-11.3
	C1188.3,834.7,1185.9,833.1,1185.3,832.6"/>
<path class="st0" d="M1240.6,756.2c-2.2-2.2-8.6,2.1-9.8,3.7c-1.3,1.8-1,4.5-1.9,6.4c-2.3,4.7,1.7,1.1-3.4,4c-3.4,2-6.7,0.3-9.2,4.8
	c-2.3,4.1-1.2,8,2.9,10.4c6.9,4,22-0.6,25.8-7.5c1.7-3.1,1.6-9.5,0.5-12.7c-0.6-2-4.9-10.9-7.9-5
	C1237.9,759.7,1241.7,757.2,1240.6,756.2"/>
<path class="st0" d="M1234.2,757.8L1234.2,757.8c-0.3,0-0.7,0-1,0c0.4-9-10.1-5.7-14.1-2.8c-4,3-13.4,14.5-9.9,20.1
	c5.3,8.4,12.8-8,16.9-8.3"/>
<path class="st0" d="M1242.8,759.7L1242.8,759.7c3.4-8.7,11.4-4.8,13.1,2c1.7,6.6-0.1,18.4-5,23.2c-2.2-0.5-3.6-11.6-6.1-14.1"/>
<path class="st1" d="M1248.2,785.2c0-3.2-9.4,3.7-10.1,5.1c-3.6,7.5,3.7,10.1,9.6,10.9c5,0.7,13.3,0.4,13.1-6.6
	c-0.2-7.2-13-9.5-18.2-9.5C1244.1,785.1,1248.2,786.6,1248.2,785.2"/>
<path class="st8" d="M1254.3,784.9c0,0,10.9-10.7,11.6-11.9c2-3.3,6.5-10.2,6.5-14.3c0-1.3,3.8,2.5,4.1,3.5
	c1.3,5.6-7.4,12.9-10.3,16.5c-1.9,2.3-3.2,5.9-6,7.8c-2.9,2-2.7,3.3-5.9,1.3C1251.7,786.4,1254.9,782.7,1254.3,784.9"/>
<path class="st1" d="M1211,784.3c-4.7,0.7-9.4,4.1-14.2,4.1c0,5.4,7.6,5.5,10.1,9.2l0,0l0,0l0,0c0.2-4.7,4.1-8.2,7.2-11.3
	C1213.9,786.4,1211.6,784.7,1211,784.3"/>
<path class="st6" d="M1294.1,966.5c-2.2-2.2-8.6,2.1-9.8,3.7c-1.3,1.8-1,4.5-1.9,6.4c-2.3,4.7,1.7,1.1-3.4,4c-3.4,2-6.7,0.3-9.2,4.8
	c-2.3,4.1-1.2,8,2.9,10.4c6.9,4,22-0.6,25.8-7.5c1.7-3.1,1.6-9.5,0.5-12.7c-0.6-2-4.9-10.9-7.9-5
	C1291.3,969.9,1295.1,967.5,1294.1,966.5"/>
<path class="st6" d="M1287.6,968.1L1287.6,968.1c-0.3,0-0.7,0-1,0c0.4-9-10.1-5.7-14.1-2.8c-4,3-13.4,14.5-9.9,20.1
	c5.3,8.4,12.8-8,16.9-8.3"/>
<path class="st6" d="M1296.2,970L1296.2,970c3.4-8.7,11.4-4.8,13.1,2c1.7,6.6-0.1,18.4-5,23.2c-2.2-0.5-3.6-11.6-6.1-14.1"/>
<path class="st1" d="M1301.6,995.4c0-3.2-9.4,3.7-10.1,5.1c-3.6,7.5,3.7,10.1,9.6,10.9c5,0.7,13.3,0.4,13.1-6.6
	c-0.2-7.2-13-9.5-18.2-9.5C1297.6,995.4,1301.6,996.9,1301.6,995.4"/>
<path class="st12" d="M1307.8,995.2c0,0,10.9-10.7,11.6-11.9c2-3.3,6.5-10.2,6.5-14.3c0-1.3,3.8,2.5,4.1,3.5
	c1.3,5.6-7.4,12.9-10.3,16.5c-1.9,2.3-3.2,5.9-6,7.8c-2.9,2-2.7,3.3-5.9,1.3C1305.1,996.7,1308.3,993,1307.8,995.2"/>
<path class="st1" d="M1264.4,994.6c-4.7,0.7-9.4,4.1-14.2,4.1c0,5.4,7.6,5.5,10.1,9.2l0,0l0,0l0,0c0.2-4.7,4.1-8.2,7.2-11.3
	C1267.4,996.7,1265.1,995,1264.4,994.6"/>
<path class="st4" d="M1298.5,910.7c-2.2-2.2-8.6,2.1-9.8,3.7c-1.3,1.8-1,4.5-1.9,6.4c-2.3,4.7,1.7,1.1-3.4,4c-3.4,2-6.7,0.3-9.2,4.8
	c-2.3,4.1-1.2,8,2.9,10.4c6.9,4,22-0.6,25.8-7.5c1.7-3.1,1.6-9.5,0.5-12.7c-0.6-2-4.9-10.9-7.9-5
	C1295.8,914.2,1299.6,911.7,1298.5,910.7"/>
<path class="st4" d="M1292.1,912.4L1292.1,912.4c-0.3,0-0.7,0-1,0c0.4-9-10.1-5.7-14.1-2.8c-4,3-13.4,14.5-9.9,20.1
	c5.3,8.4,12.8-8,16.9-8.3"/>
<path class="st4" d="M1300.7,914.2L1300.7,914.2c3.4-8.7,11.4-4.8,13.1,2c1.7,6.6-0.1,18.4-5,23.2c-2.2-0.5-3.6-11.6-6.1-14.1"/>
<path class="st1" d="M1306.1,939.7c0-3.2-9.4,3.7-10.1,5.1c-3.6,7.5,3.7,10.1,9.6,10.9c5,0.7,13.3,0.4,13.1-6.6
	c-0.2-7.2-13-9.5-18.2-9.5C1302,939.7,1306.1,941.1,1306.1,939.7"/>
<path class="st2" d="M1312.2,939.5c0,0,10.9-10.7,11.6-11.9c2-3.3,6.5-10.2,6.5-14.3c0-1.3,3.8,2.5,4.1,3.5
	c1.3,5.6-7.4,12.9-10.3,16.5c-1.9,2.3-3.2,5.9-6,7.8c-2.9,2-2.7,3.3-5.9,1.3C1309.6,941,1312.8,937.3,1312.2,939.5"/>
<path class="st1" d="M1268.9,938.9c-4.7,0.7-9.4,4.1-14.2,4.1c0,5.4,7.6,5.5,10.1,9.2l0,0l0,0l0,0c0.2-4.7,4.1-8.2,7.2-11.3
	C1271.8,940.9,1269.5,939.3,1268.9,938.9"/>
<path class="st3" d="M1314.3,858.2c-2.2-2.2-8.6,2.1-9.8,3.7c-1.3,1.8-1,4.5-1.9,6.4c-2.3,4.7,1.7,1.1-3.4,4c-3.4,2-6.7,0.3-9.2,4.8
	c-2.3,4.1-1.2,8,2.9,10.4c6.9,4,22-0.6,25.8-7.5c1.7-3.1,1.6-9.5,0.5-12.7c-0.6-2-4.9-10.9-7.9-5
	C1311.5,861.7,1315.3,859.2,1314.3,858.2"/>
<path class="st3" d="M1307.8,859.9L1307.8,859.9c-0.3,0-0.7,0-1,0c0.4-9-10.1-5.7-14.1-2.8c-4,3-13.4,14.5-9.9,20.1
	c5.3,8.4,12.8-8,16.9-8.3"/>
<path class="st3" d="M1316.4,861.7L1316.4,861.7c3.4-8.7,11.4-4.8,13.1,2c1.7,6.6-0.1,18.4-5,23.2c-2.2-0.5-3.6-11.6-6.1-14.1"/>
<path class="st1" d="M1321.8,889.4c-17.3-0.2-8.7,17.6,5.2,15.8c19.3-2.4-3.1-18.7-7.2-14.5C1320.5,890.2,1321.1,889.8,1321.8,889.4
	"/>
<path class="st13" d="M1327.9,887c0,0,10.9-10.7,11.6-11.9c2-3.3,6.5-10.2,6.5-14.3c0-1.3,3.8,2.5,4.1,3.5
	c1.3,5.6-7.4,12.9-10.3,16.5c-1.9,2.3-3.2,5.9-6,7.8c-2.9,2-2.7,3.3-5.9,1.3C1325.3,888.5,1328.5,884.8,1327.9,887"/>
<path class="st1" d="M1284.6,886.3c-4.7,0.7-9.4,4.1-14.2,4.1c0,5.4,7.6,5.5,10.1,9.2l0,0l0,0l0,0c0.2-4.7,4.1-8.2,7.2-11.3
	C1287.6,888.4,1285.2,886.8,1284.6,886.3"/>
<path class="st14" d="M1334.7,808c-2.2-2.2-8.6,2.1-9.8,3.7c-1.3,1.8-1,4.5-1.9,6.4c-2.3,4.7,1.7,1.1-3.4,4c-3.4,2-6.7,0.3-9.2,4.8
	c-2.3,4.1-1.2,8,2.9,10.4c6.9,4,22-0.6,25.8-7.5c1.7-3.1,1.6-9.5,0.5-12.7c-0.6-2-4.9-10.9-7.9-5C1332,811.5,1335.8,809,1334.7,808"
	/>
<path class="st14" d="M1328.3,809.6L1328.3,809.6c-0.3,0-0.7,0-1,0c0.4-9-10.1-5.7-14.1-2.8c-4,3-13.4,14.5-9.9,20.1
	c5.3,8.4,12.8-8,16.9-8.3"/>
<path class="st14" d="M1336.9,811.5L1336.9,811.5c3.4-8.7,11.4-4.8,13.1,2c1.7,6.6-0.1,18.4-5,23.2c-2.2-0.5-3.6-11.6-6.1-14.1"/>
<path class="st3" d="M1340.3,836.7c-6.2,0-20.5,6-14.2,14.8c3.1,4.4,12.8,4,17.5,3.6c6.3-0.6,16.2-3.8,12.5-12.3
	c-3-6.9-13.2-5.4-19.1-7.4C1338.2,835.8,1339.2,836.3,1340.3,836.7"/>
<path class="st2" d="M1348.4,836.8c0,0,10.9-10.7,11.6-11.9c2-3.3,6.5-10.2,6.5-14.3c0-1.3,3.8,2.5,4.1,3.5
	c1.3,5.6-7.4,12.9-10.3,16.5c-1.9,2.3-3.2,5.9-6,7.8c-2.9,2-2.7,3.3-5.9,1.3C1345.8,838.2,1349,834.6,1348.4,836.8"/>
<path class="st1" d="M1305.1,836.1c-4.7,0.7-9.4,4.1-14.2,4.1c0,5.4,7.6,5.5,10.1,9.2l0,0l0,0l0,0c0.2-4.7,4.1-8.2,7.2-11.3
	C1308,838.2,1305.7,836.6,1305.1,836.1"/>
<path class="st3" d="M1415.3,989.3c-2.2-2.2-8.6,2.1-9.8,3.7c-1.3,1.8-1,4.5-1.9,6.4c-2.3,4.7,1.7,1.1-3.4,4c-3.4,2-6.7,0.3-9.2,4.8
	c-2.3,4.1-1.2,8,2.9,10.4c6.9,4,22-0.6,25.8-7.5c1.7-3.1,1.6-9.5,0.5-12.7c-0.6-2-4.9-10.9-7.9-5
	C1412.6,992.7,1416.4,990.3,1415.3,989.3"/>
<path class="st3" d="M1408.9,990.9L1408.9,990.9c-0.3,0-0.7,0-1,0c0.4-9-10.1-5.7-14.1-2.8c-4,3-13.4,14.5-9.9,20.1
	c5.3,8.4,12.8-8,16.9-8.3"/>
<path class="st3" d="M1417.5,992.8L1417.5,992.8c3.4-8.7,11.4-4.8,13.1,2c1.7,6.6-0.1,18.4-5,23.2c-2.2-0.5-3.6-11.6-6.1-14.1"/>
<path class="st1" d="M1422.9,1020.4c-17.3-0.2-8.7,17.6,5.2,15.8c19.3-2.4-3.1-18.7-7.2-14.5
	C1421.6,1021.3,1422.2,1020.8,1422.9,1020.4"/>
<path class="st2" d="M1429,1018c0,0,10.9-10.7,11.6-11.9c2-3.3,6.5-10.2,6.5-14.3c0-1.3,3.8,2.5,4.1,3.5c1.3,5.6-7.4,12.9-10.3,16.5
	c-1.9,2.3-3.2,5.9-6,7.8c-2.9,2-2.7,3.3-5.9,1.3C1426.4,1019.5,1429.6,1015.8,1429,1018"/>
<path class="st1" d="M1385.7,1017.4c-4.7,0.7-9.4,4.1-14.2,4.1c0,5.4,7.6,5.5,10.1,9.2l0,0l0,0l0,0c0.2-4.7,4.1-8.2,7.2-11.3
	C1388.6,1019.5,1386.3,1017.8,1385.7,1017.4"/>
<path class="st10" d="M1418.5,935.1c-2.2-2.2-8.6,2.1-9.8,3.7c-1.3,1.8-1,4.5-1.9,6.4c-2.3,4.7,1.7,1.1-3.4,4
	c-3.4,2-6.7,0.3-9.2,4.8c-2.3,4.1-1.2,8,2.9,10.4c6.9,4,22-0.6,25.8-7.5c1.7-3.1,1.6-9.5,0.5-12.7c-0.6-2-4.9-10.9-7.9-5
	C1415.8,938.6,1419.6,936.2,1418.5,935.1"/>
<path class="st10" d="M1412.1,936.8L1412.1,936.8c-0.3,0-0.7,0-1,0c0.4-9-10.1-5.7-14.1-2.8c-4,3-13.4,14.5-9.9,20.1
	c5.3,8.4,12.8-8,16.9-8.3"/>
<path class="st10" d="M1420.7,938.6L1420.7,938.6c3.4-8.7,11.4-4.8,13.1,2c1.7,6.6-0.1,18.4-5,23.2c-2.2-0.5-3.6-11.6-6.1-14.1"/>
<path class="st1" d="M1424.1,963.9c-6.2,0-20.5,6-14.2,14.8c3.1,4.4,12.8,4,17.5,3.6c6.3-0.6,16.2-3.8,12.5-12.3
	c-3-6.9-13.2-5.4-19.1-7.4C1422,963,1423,963.4,1424.1,963.9"/>
<path class="st12" d="M1432.2,963.9c0,0,10.9-10.7,11.6-11.9c2-3.3,6.5-10.2,6.5-14.3c0-1.3,3.8,2.5,4.1,3.5
	c1.3,5.6-7.4,12.9-10.3,16.5c-1.9,2.3-3.2,5.9-6,7.8c-2.9,2-2.7,3.3-5.9,1.3C1429.6,965.4,1432.8,961.7,1432.2,963.9"/>
<path class="st1" d="M1388.9,963.3c-4.7,0.7-9.4,4.1-14.2,4.1c0,5.4,7.6,5.5,10.1,9.2l0,0l0,0l0,0c0.2-4.7,4.1-8.2,7.2-11.3
	C1391.8,965.4,1389.5,963.7,1388.9,963.3"/>
<path class="st15" d="M1431.8,880.8c-2.2-2.2-8.6,2.1-9.8,3.7c-1.3,1.8-1,4.5-1.9,6.4c-2.3,4.7,1.7,1.1-3.4,4
	c-3.4,2-6.7,0.3-9.2,4.8c-2.3,4.1-1.2,8,2.9,10.4c6.9,4,22-0.6,25.8-7.5c1.7-3.1,1.6-9.5,0.5-12.7c-0.6-2-4.9-10.9-7.9-5
	C1429.1,884.3,1432.8,881.9,1431.8,880.8"/>
<path class="st15" d="M1425.4,882.5L1425.4,882.5c-0.3,0-0.7,0-1,0c0.4-9-10.1-5.7-14.1-2.8c-4,3-13.4,14.5-9.9,20.1
	c5.3,8.4,12.8-8,16.9-8.3"/>
<path class="st15" d="M1434,884.3L1434,884.3c3.4-8.7,11.4-4.8,13.1,2c1.7,6.6-0.1,18.4-5,23.2c-2.2-0.5-3.6-11.6-6.1-14.1"/>
<path class="st1" d="M1439.4,909.8c0-3.2-9.4,3.7-10.1,5.1c-3.6,7.5,3.7,10.1,9.6,10.9c5,0.7,13.3,0.4,13.1-6.6
	c-0.2-7.2-13-9.5-18.2-9.5C1435.3,909.8,1439.4,911.3,1439.4,909.8"/>
<path class="st12" d="M1445.5,909.6c0,0,10.9-10.7,11.6-11.9c2-3.3,6.5-10.2,6.5-14.3c0-1.3,3.8,2.5,4.1,3.5
	c1.3,5.6-7.4,12.9-10.3,16.5c-1.9,2.3-3.2,5.9-6,7.8c-2.9,2-2.7,3.3-5.9,1.3C1442.9,911.1,1446.1,907.4,1445.5,909.6"/>
<path class="st1" d="M1402.2,909c-4.7,0.7-9.4,4.1-14.2,4.1c0,5.4,7.6,5.5,10.1,9.2l0,0l0,0l0,0c0.2-4.7,4.1-8.2,7.2-11.3
	C1405.1,911.1,1402.8,909.4,1402.2,909"/>
<path class="st7" d="M1449.4,829.3c-2.2-2.2-8.6,2.1-9.8,3.7c-1.3,1.8-1,4.5-1.9,6.4c-2.3,4.7,1.7,1.1-3.4,4c-3.4,2-6.7,0.3-9.2,4.8
	c-2.3,4.1-1.2,8,2.9,10.4c6.9,4,22-0.6,25.8-7.5c1.7-3.1,1.6-9.5,0.5-12.7c-0.6-2-4.9-10.9-7.9-5
	C1446.7,832.8,1450.5,830.4,1449.4,829.3"/>
<path class="st7" d="M1443,831L1443,831c-0.3,0-0.7,0-1,0c0.4-9-10.1-5.7-14.1-2.8c-4,3-13.4,14.5-9.9,20.1c5.3,8.4,12.8-8,16.9-8.3
	"/>
<path class="st7" d="M1451.6,832.8L1451.6,832.8c3.4-8.7,11.4-4.8,13.1,2c1.7,6.6-0.1,18.4-5,23.2c-2.2-0.5-3.6-11.6-6.1-14.1"/>
<path class="st3" d="M1457,858.3c0-3.2-9.4,3.7-10.1,5.1c-3.6,7.5,3.7,10.1,9.6,10.9c5,0.7,13.3,0.4,13.1-6.6
	c-0.2-7.2-13-9.5-18.2-9.5C1452.9,858.3,1457,859.8,1457,858.3"/>
<path class="st12" d="M1463.1,858.1c0,0,10.9-10.7,11.6-11.9c2-3.3,6.5-10.2,6.5-14.3c0-1.3,3.8,2.5,4.1,3.5
	c1.3,5.6-7.4,12.9-10.3,16.5c-1.9,2.3-3.2,5.9-6,7.8c-2.9,2-2.7,3.3-5.9,1.3C1460.5,859.6,1463.7,855.9,1463.1,858.1"/>
<path class="st1" d="M1419.8,857.5c-4.7,0.7-9.4,4.1-14.2,4.1c0,5.4,7.6,5.5,10.1,9.2l0,0l0,0l0,0c0.2-4.7,4.1-8.2,7.2-11.3
	C1422.7,859.6,1420.4,857.9,1419.8,857.5"/>
<path class="st10" d="M1533.5,1021.8c-2.2-2.2-8.6,2.1-9.8,3.7c-1.3,1.8-1,4.5-1.9,6.4c-2.3,4.7,1.7,1.1-3.4,4
	c-3.4,2-6.7,0.3-9.2,4.8c-2.3,4.1-1.2,8,2.9,10.4c6.9,4,22-0.6,25.8-7.5c1.7-3.1,1.6-9.5,0.5-12.7c-0.6-2-4.9-10.9-7.9-5
	C1530.7,1025.3,1534.5,1022.8,1533.5,1021.8"/>
<path class="st10" d="M1527,1023.5L1527,1023.5c-0.3,0-0.7,0-1,0c0.4-9-10.1-5.7-14.1-2.8c-4,3-13.4,14.5-9.9,20.1
	c5.3,8.4,12.8-8,16.9-8.3"/>
<path class="st10" d="M1535.6,1025.3L1535.6,1025.3c3.4-8.7,11.4-4.8,13.1,2c1.7,6.6-0.1,18.4-5,23.2c-2.2-0.5-3.6-11.6-6.1-14.1"/>
<path class="st1" d="M1541,1053c-17.3-0.2-8.7,17.6,5.2,15.8c19.3-2.4-3.1-18.7-7.2-14.5C1539.7,1053.9,1540.3,1053.4,1541,1053"/>
<path class="st5" d="M1547.1,1050.6c0,0,10.9-10.7,11.6-11.9c2-3.3,6.5-10.2,6.5-14.3c0-1.3,3.8,2.5,4.1,3.5
	c1.3,5.6-7.4,12.9-10.3,16.5c-1.9,2.3-3.2,5.9-6,7.8c-2.9,2-2.7,3.3-5.9,1.3C1544.5,1052.1,1547.7,1048.4,1547.1,1050.6"/>
<path class="st1" d="M1503.8,1049.9c-4.7,0.7-9.4,4.1-14.2,4.1c0,5.4,7.6,5.5,10.1,9.2l0,0l0,0l0,0c0.2-4.7,4.1-8.2,7.2-11.3
	C1506.8,1052,1504.4,1050.4,1503.8,1049.9"/>
<path class="st14" d="M1535,967.1c-2.2-2.2-8.6,2.1-9.8,3.7c-1.3,1.8-1,4.5-1.9,6.4c-2.3,4.7,1.7,1.1-3.4,4c-3.4,2-6.7,0.3-9.2,4.8
	c-2.3,4.1-1.2,8,2.9,10.4c6.9,4,22-0.6,25.8-7.5c1.7-3.1,1.6-9.5,0.5-12.7c-0.6-2-4.9-10.9-7.9-5
	C1532.2,970.6,1536,968.1,1535,967.1"/>
<path class="st14" d="M1528.5,968.7L1528.5,968.7c-0.3,0-0.7,0-1,0c0.4-9-10.1-5.7-14.1-2.8c-4,3-13.4,14.5-9.9,20.1
	c5.3,8.4,12.8-8,16.9-8.3"/>
<path class="st14" d="M1537.1,970.6L1537.1,970.6c3.4-8.7,11.4-4.8,13.1,2c1.7,6.6-0.1,18.4-5,23.2c-2.2-0.5-3.6-11.6-6.1-14.1"/>
<path class="st1" d="M1542.5,998.2c-17.3-0.2-8.7,17.6,5.2,15.8c19.3-2.4-3.1-18.7-7.2-14.5C1541.2,999.1,1541.9,998.7,1542.5,998.2
	"/>
<path class="st2" d="M1548.6,995.8c0,0,10.9-10.7,11.6-11.9c2-3.3,6.5-10.2,6.5-14.3c0-1.3,3.8,2.5,4.1,3.5
	c1.3,5.6-7.4,12.9-10.3,16.5c-1.9,2.3-3.2,5.9-6,7.8c-2.9,2-2.7,3.3-5.9,1.3C1546,997.3,1549.2,993.6,1548.6,995.8"/>
<path class="st1" d="M1505.3,995.2c-4.7,0.7-9.4,4.1-14.2,4.1c0,5.4,7.6,5.5,10.1,9.2l0,0l0,0l0,0c0.2-4.7,4.1-8.2,7.2-11.3
	C1508.3,997.3,1505.9,995.6,1505.3,995.2"/>
<path class="st4" d="M1552.6,916c-2.2-2.2-8.6,2.1-9.8,3.7c-1.3,1.8-1,4.5-1.9,6.4c-2.3,4.7,1.7,1.1-3.4,4c-3.4,2-6.7,0.3-9.2,4.8
	c-2.3,4.1-1.2,8,2.9,10.4c6.9,4,22-0.6,25.8-7.5c1.7-3.1,1.6-9.5,0.5-12.7c-0.6-2-4.9-10.9-7.9-5
	C1549.9,919.5,1553.6,917,1552.6,916"/>
<path class="st4" d="M1546.2,917.6L1546.2,917.6c-0.3,0-0.7,0-1,0c0.4-9-10.1-5.7-14.1-2.8c-4,3-13.4,14.5-9.9,20.1
	c5.3,8.4,12.8-8,16.9-8.3"/>
<path class="st4" d="M1554.8,919.5L1554.8,919.5c3.4-8.7,11.4-4.8,13.1,2c1.7,6.6-0.1,18.4-5,23.2c-2.2-0.5-3.6-11.6-6.1-14.1"/>
<path class="st1" d="M1560.2,945c0-3.2-9.4,3.7-10.1,5.1c-3.6,7.5,3.7,10.1,9.6,10.9c5,0.7,13.3,0.4,13.1-6.6
	c-0.2-7.2-13-9.5-18.2-9.5C1556.1,944.9,1560.2,946.4,1560.2,945"/>
<path class="st5" d="M1566.3,944.7c0,0,10.9-10.7,11.6-11.9c2-3.3,6.5-10.2,6.5-14.3c0-1.3,3.8,2.5,4.1,3.5
	c1.3,5.6-7.4,12.9-10.3,16.5c-1.9,2.3-3.2,5.9-6,7.8c-2.9,2-2.7,3.3-5.9,1.3C1563.7,946.2,1566.9,942.5,1566.3,944.7"/>
<path class="st1" d="M1523,944.1c-4.7,0.7-9.4,4.1-14.2,4.1c0,5.4,7.6,5.5,10.1,9.2l0,0l0,0l0,0c0.2-4.7,4.1-8.2,7.2-11.3
	C1525.9,946.2,1523.6,944.5,1523,944.1"/>
<path class="st4" d="M1574.7,869.7c-2.2-2.2-8.6,2.1-9.8,3.7c-1.3,1.8-1,4.5-1.9,6.4c-2.3,4.7,1.7,1.1-3.4,4c-3.4,2-6.7,0.3-9.2,4.8
	c-2.3,4.1-1.2,8,2.9,10.4c6.9,4,22-0.6,25.8-7.5c1.7-3.1,1.6-9.5,0.5-12.7c-0.6-2-4.9-10.9-7.9-5
	C1572,873.2,1575.7,870.7,1574.7,869.7"/>
<path class="st4" d="M1568.3,871.4L1568.3,871.4c-0.3,0-0.7,0-1,0c0.4-9-10.1-5.7-14.1-2.8c-4,3-13.4,14.5-9.9,20.1
	c5.3,8.4,12.8-8,16.9-8.3"/>
<path class="st4" d="M1576.9,873.2L1576.9,873.2c3.4-8.7,11.4-4.8,13.1,2c1.7,6.6-0.1,18.4-5,23.2c-2.2-0.5-3.6-11.6-6.1-14.1"/>
<path class="st1" d="M1582.3,900.9c-17.3-0.2-8.7,17.6,5.2,15.8c19.3-2.4-3.1-18.7-7.2-14.5C1581,901.7,1581.6,901.3,1582.3,900.9"
	/>
<path class="st5" d="M1588.4,898.5c0,0,10.9-10.7,11.6-11.9c2-3.3,6.5-10.2,6.5-14.3c0-1.3,3.8,2.5,4.1,3.5
	c1.3,5.6-7.4,12.9-10.3,16.5c-1.9,2.3-3.2,5.9-6,7.8c-2.9,2-2.7,3.3-5.9,1.3C1585.8,900,1589,896.3,1588.4,898.5"/>
<path class="st1" d="M1545.1,897.8c-4.7,0.7-9.4,4.1-14.2,4.1c0,5.4,7.6,5.5,10.1,9.2l0,0l0,0l0,0c0.2-4.7,4.1-8.2,7.2-11.3
	C1548,899.9,1545.7,898.3,1545.1,897.8"/>
<path class="st6" d="M220.5,869.2c-2.2-2.2-8.6,2.1-9.8,3.7c-1.3,1.8-1,4.5-1.9,6.4c-2.3,4.7,1.7,1.1-3.4,4c-3.4,2-6.7,0.3-9.2,4.8
	c-2.3,4.1-1.2,8,2.9,10.4c6.9,4,22-0.6,25.8-7.5c1.7-3.1,1.6-9.5,0.5-12.7c-0.6-2-4.9-10.9-7.9-5
	C217.8,872.7,221.5,870.2,220.5,869.2"/>
<path class="st6" d="M214.1,870.8L214.1,870.8c-0.3,0-0.7,0-1,0c0.4-9-10.1-5.7-14.1-2.8c-4,3-13.4,14.5-9.9,20.1
	c5.3,8.4,12.8-8,16.9-8.3"/>
<path class="st6" d="M222.7,872.7L222.7,872.7c3.4-8.7,11.4-4.8,13.1,2c1.7,6.6-0.1,18.4-5,23.2c-2.2-0.5-3.6-11.6-6.1-14.1"/>
<path class="st1" d="M226.1,897.9c-6.2,0-20.5,6-14.2,14.8c3.1,4.4,12.8,4,17.5,3.6c6.3-0.6,16.2-3.8,12.5-12.3
	c-3-6.9-13.2-5.4-19.1-7.4C223.9,897,225,897.4,226.1,897.9"/>
<path class="st2" d="M234.2,898c0,0,10.9-10.7,11.6-11.9c2-3.3,6.5-10.2,6.5-14.3c0-1.3,3.8,2.5,4.1,3.5c1.3,5.6-7.4,12.9-10.3,16.5
	c-1.9,2.3-3.2,5.9-6,7.8c-2.9,2-2.7,3.3-5.9,1.3C231.6,899.4,234.7,895.7,234.2,898"/>
<path class="st9" d="M190.9,897.3c-4.7,0.7-9.4,4.1-14.2,4.1c0,5.4,7.6,5.5,10.1,9.2l0,0l0,0l0,0c0.2-4.7,4.1-8.2,7.2-11.3
	C193.8,899.4,191.5,897.7,190.9,897.3"/>
<path class="st3" d="M214.2,770.4c-2.2-2.2-8.6,2.1-9.8,3.7c-1.3,1.8-1,4.5-1.9,6.4c-2.3,4.7,1.7,1.1-3.4,4c-3.4,2-6.7,0.3-9.2,4.8
	c-2.3,4.1-1.2,8,2.9,10.4c6.9,4,22-0.6,25.8-7.5c1.7-3.1,1.6-9.5,0.5-12.7c-0.6-2-4.9-10.9-7.9-5
	C211.5,773.9,215.3,771.4,214.2,770.4"/>
<path class="st3" d="M207.8,772L207.8,772c-0.3,0-0.7,0-1,0c0.4-9-10.1-5.7-14.1-2.8c-4,3-13.4,14.5-9.9,20.1
	c5.3,8.4,12.8-8,16.9-8.3"/>
<path class="st3" d="M216.4,773.9L216.4,773.9c3.4-8.7,11.4-4.8,13.1,2c1.7,6.6-0.1,18.4-5,23.2c-2.2-0.5-3.6-11.6-6.1-14.1"/>
<path class="st1" d="M218.5,798L218.5,798c-7.5-0.4-22,11.3-14.1,18.5c5.4,4.9,20,2.6,26.6,1.2c7.7-1.6,15-9.3,8.4-17
	c-8.1-9.4-19.9-3-28.1,0.6"/>
<path class="st2" d="M227.9,799.2c0,0,10.9-10.7,11.6-11.9c2-3.3,6.5-10.2,6.5-14.3c0-1.3,3.8,2.5,4.1,3.5
	c1.3,5.6-7.4,12.9-10.3,16.5c-1.9,2.3-3.2,5.9-6,7.8c-2.9,2-2.7,3.3-5.9,1.3C225.3,800.6,228.5,797,227.9,799.2"/>
<path class="st1" d="M184.6,798.5c-4.7,0.7-9.4,4.1-14.2,4.1c0,5.4,7.6,5.5,10.1,9.2l0,0l0,0l0,0c0.2-4.7,4.1-8.2,7.2-11.3
	C187.5,800.6,185.2,798.9,184.6,798.5"/>
<path class="st3" d="M226.3,672.2c-2.2-2.2-8.6,2.1-9.8,3.7c-1.3,1.8-1,4.5-1.9,6.4c-2.3,4.7,1.7,1.1-3.4,4c-3.4,2-6.7,0.3-9.2,4.8
	c-2.3,4.1-1.2,8,2.9,10.4c6.9,4,22-0.6,25.8-7.5c1.7-3.1,1.6-9.5,0.5-12.7c-0.6-2-4.9-10.9-7.9-5
	C223.5,675.7,227.3,673.2,226.3,672.2"/>
<path class="st3" d="M219.8,673.8L219.8,673.8c-0.3,0-0.7,0-1,0c0.4-9-10.1-5.7-14.1-2.8c-4,3-13.4,14.5-9.9,20.1
	c5.3,8.4,12.8-8,16.9-8.3"/>
<path class="st3" d="M228.4,675.7L228.4,675.7c3.4-8.7,11.4-4.8,13.1,2c1.7,6.6-0.1,18.4-5,23.2c-2.2-0.5-3.6-11.6-6.1-14.1"/>
<path class="st1" d="M233.8,701.2c0-3.2-9.4,3.7-10.1,5.1c-3.6,7.5,3.7,10.1,9.6,10.9c5,0.7,13.3,0.4,13.1-6.6
	c-0.2-7.2-13-9.5-18.2-9.5C229.8,701.1,233.8,702.6,233.8,701.2"/>
<path class="st2" d="M239.9,701c0,0,10.9-10.7,11.6-11.9c2-3.3,6.5-10.2,6.5-14.3c0-1.3,3.8,2.5,4.1,3.5c1.3,5.6-7.4,12.9-10.3,16.5
	c-1.9,2.3-3.2,5.9-6,7.8c-2.9,2-2.7,3.3-5.9,1.3C237.3,702.4,240.5,698.8,239.9,701"/>
<path class="st1" d="M196.6,700.3c-4.7,0.7-9.4,4.1-14.2,4.1c0,5.4,7.6,5.5,10.1,9.2l0,0l0,0l0,0c0.2-4.7,4.1-8.2,7.2-11.3
	C199.6,702.4,197.2,700.8,196.6,700.3"/>
<path class="st7" d="M251.1,575.6c-2.2-2.2-8.6,2.1-9.8,3.7c-1.3,1.8-1,4.5-1.9,6.4c-2.3,4.7,1.7,1.1-3.4,4c-3.4,2-6.7,0.3-9.2,4.8
	c-2.3,4.1-1.2,8,2.9,10.4c6.9,4,22-0.6,25.8-7.5c1.7-3.1,1.6-9.5,0.5-12.7c-0.6-2-4.9-10.9-7.9-5C248.4,579,252.1,576.6,251.1,575.6
	"/>
<path class="st7" d="M244.7,577.2L244.7,577.2c-0.3,0-0.7,0-1,0c0.4-9-10.1-5.7-14.1-2.8c-4,3-13.4,14.5-9.9,20.1
	c5.3,8.4,12.8-8,16.9-8.3"/>
<path class="st7" d="M253.3,579.1L253.3,579.1c3.4-8.7,11.4-4.8,13.1,2c1.7,6.6-0.1,18.4-5,23.2c-2.2-0.5-3.6-11.6-6.1-14.1"/>
<path class="st1" d="M258.7,604.5c0-3.2-9.4,3.7-10.1,5.1c-3.6,7.5,3.7,10.1,9.6,10.9c5,0.7,13.3,0.4,13.1-6.6
	c-0.2-7.2-13-9.5-18.2-9.5C254.6,604.5,258.7,606,258.7,604.5"/>
<path class="st2" d="M264.8,604.3c0,0,10.9-10.7,11.6-11.9c2-3.3,6.5-10.2,6.5-14.3c0-1.3,3.8,2.5,4.1,3.5
	c1.3,5.6-7.4,12.9-10.3,16.5c-1.9,2.3-3.2,5.9-6,7.8c-2.9,2-2.7,3.3-5.9,1.3C262.2,605.8,265.4,602.1,264.8,604.3"/>
<path class="st1" d="M221.5,603.7c-4.7,0.7-9.4,4.1-14.2,4.1c0,5.4,7.6,5.5,10.1,9.2l0,0l0,0l0,0c0.2-4.7,4.1-8.2,7.2-11.3
	C224.4,605.8,222.1,604.1,221.5,603.7"/>
<path class="st6" d="M289.1,483.2c-2.2-2.2-8.6,2.1-9.8,3.7c-1.3,1.8-1,4.5-1.9,6.4c-2.3,4.7,1.7,1.1-3.4,4c-3.4,2-6.7,0.3-9.2,4.8
	c-2.3,4.1-1.2,8,2.9,10.4c6.9,4,22-0.6,25.8-7.5c1.7-3.1,1.6-9.5,0.5-12.7c-0.6-2-4.9-10.9-7.9-5
	C286.4,486.7,290.2,484.2,289.1,483.2"/>
<path class="st6" d="M282.7,484.8L282.7,484.8c-0.3,0-0.7,0-1,0c0.4-9-10.1-5.7-14.1-2.8c-4,3-13.4,14.5-9.9,20.1
	c5.3,8.4,12.8-8,16.9-8.3"/>
<path class="st6" d="M291.3,486.7L291.3,486.7c3.4-8.7,11.4-4.8,13.1,2c1.7,6.6-0.1,18.4-5,23.2c-2.2-0.5-3.6-11.6-6.1-14.1"/>
<path class="st1" d="M293.4,510.8L293.4,510.8c-7.5-0.4-22,11.3-14.1,18.5c5.4,4.9,20,2.6,26.6,1.2c7.7-1.6,15-9.3,8.4-17
	c-8.1-9.4-19.9-3-28.1,0.6"/>
<path class="st16" d="M302.8,511.9c0,0,10.9-10.7,11.6-11.9c2-3.3,6.5-10.2,6.5-14.3c0-1.3,3.8,2.5,4.1,3.5
	c1.3,5.6-7.4,12.9-10.3,16.5c-1.9,2.3-3.2,5.9-6,7.8c-2.9,2-2.7,3.3-5.9,1.3C300.2,513.4,303.4,509.7,302.8,511.9"/>
<path class="st1" d="M259.5,511.3c-4.7,0.7-9.4,4.1-14.2,4.1c0,5.4,7.6,5.5,10.1,9.2l0,0l0,0l0,0c0.2-4.7,4.1-8.2,7.2-11.3
	C262.4,513.4,260.1,511.7,259.5,511.3"/>
<path class="st0" d="M339,396.6c-2.2-2.2-8.6,2.1-9.8,3.7c-1.3,1.8-1,4.5-1.9,6.4c-2.3,4.7,1.7,1.1-3.4,4c-3.4,2-6.7,0.3-9.2,4.8
	c-2.3,4.1-1.2,8,2.9,10.4c6.9,4,22-0.6,25.8-7.5c1.7-3.1,1.6-9.5,0.5-12.7c-0.6-2-4.9-10.9-7.9-5C336.2,400.1,340,397.6,339,396.6"
	/>
<path class="st0" d="M332.6,398.2L332.6,398.2c-0.3,0-0.7,0-1,0c0.4-9-10.1-5.7-14.1-2.8c-4,3-13.4,14.5-9.9,20.1
	c5.3,8.4,12.8-8,16.9-8.3"/>
<path class="st0" d="M341.2,400.1L341.2,400.1c3.4-8.7,11.4-4.8,13.1,2c1.7,6.6-0.1,18.4-5,23.2c-2.2-0.5-3.6-11.6-6.1-14.1"/>
<path class="st1" d="M346.5,425.6c0-3.2-9.4,3.7-10.1,5.1c-3.6,7.5,3.7,10.1,9.6,10.9c5,0.7,13.3,0.4,13.1-6.6
	c-0.2-7.2-13-9.5-18.2-9.5C342.5,425.5,346.5,427,346.5,425.6"/>
<path class="st5" d="M352.7,425.3c0,0,10.9-10.7,11.6-11.9c2-3.3,6.5-10.2,6.5-14.3c0-1.3,3.8,2.5,4.1,3.5
	c1.3,5.6-7.4,12.9-10.3,16.5c-1.9,2.3-3.2,5.9-6,7.8c-2.9,2-2.7,3.3-5.9,1.3C350,426.8,353.2,423.1,352.7,425.3"/>
<path class="st1" d="M309.3,424.7c-4.7,0.7-9.4,4.1-14.2,4.1c0,5.4,7.6,5.5,10.1,9.2l0,0l0,0l0,0c0.2-4.7,4.1-8.2,7.2-11.3
	C312.3,426.8,310,425.1,309.3,424.7"/>
<path class="st3" d="M397.1,316.5c-2.2-2.2-8.6,2.1-9.8,3.7c-1.3,1.8-1,4.5-1.9,6.4c-2.3,4.7,1.7,1.1-3.4,4c-3.4,2-6.7,0.3-9.2,4.8
	c-2.3,4.1-1.2,8,2.9,10.4c6.9,4,22-0.6,25.8-7.5c1.7-3.1,1.6-9.5,0.5-12.7c-0.6-2-4.9-10.9-7.9-5C394.4,320,398.2,317.5,397.1,316.5
	"/>
<path class="st3" d="M390.7,318.1L390.7,318.1c-0.3,0-0.7,0-1,0c0.4-9-10.1-5.7-14.1-2.8c-4,3-13.4,14.5-9.9,20.1
	c5.3,8.4,12.8-8,16.9-8.3"/>
<path class="st3" d="M399.3,320L399.3,320c3.4-8.7,11.4-4.8,13.1,2c1.7,6.6-0.1,18.4-5,23.2c-2.2-0.5-3.6-11.6-6.1-14.1"/>
<path class="st1" d="M406.5,347L406.5,347c-25.1-2.4,5.1,20.7,5.1,5.1c0-4.2-5.6-4.5-8.1-2C404.4,349,405.4,348,406.5,347"/>
<path class="st5" d="M410.8,345.3c0,0,10.9-10.7,11.6-11.9c2-3.3,6.5-10.2,6.5-14.3c0-1.3,3.8,2.5,4.1,3.5
	c1.3,5.6-7.4,12.9-10.3,16.5c-1.9,2.3-3.2,5.9-6,7.8c-2.9,2-2.7,3.3-5.9,1.3C408.2,346.7,411.4,343.1,410.8,345.3"/>
<path class="st1" d="M367.5,344.6c-4.7,0.7-9.4,4.1-14.2,4.1c0,5.4,7.6,5.5,10.1,9.2l0,0l0,0l0,0c0.2-4.7,4.1-8.2,7.2-11.3
	C370.4,346.7,368.1,345,367.5,344.6"/>
<path class="st15" d="M463.1,241.6c-2.2-2.2-8.6,2.1-9.8,3.7c-1.3,1.8-1,4.5-1.9,6.4c-2.3,4.7,1.7,1.1-3.4,4c-3.4,2-6.7,0.3-9.2,4.8
	c-2.3,4.1-1.2,8,2.9,10.4c6.9,4,22-0.6,25.8-7.5c1.7-3.1,1.6-9.5,0.5-12.7c-0.6-2-4.9-10.9-7.9-5
	C460.4,245.1,464.1,242.6,463.1,241.6"/>
<path class="st15" d="M456.7,243.2L456.7,243.2c-0.3,0-0.7,0-1,0c0.4-9-10.1-5.7-14.1-2.8c-4,3-13.4,14.5-9.9,20.1
	c5.3,8.4,12.8-8,16.9-8.3"/>
<path class="st15" d="M465.3,245.1L465.3,245.1c3.4-8.7,11.4-4.8,13.1,2c1.7,6.6-0.1,18.4-5,23.2c-2.2-0.5-3.6-11.6-6.1-14.1"/>
<path class="st1" d="M467.4,269.2L467.4,269.2c-7.5-0.4-22,11.3-14.1,18.5c5.4,4.9,20,2.6,26.6,1.2c7.7-1.6,15-9.3,8.4-17
	c-8.1-9.4-19.9-3-28.1,0.6"/>
<path class="st2" d="M476.8,270.4c0,0,10.9-10.7,11.6-11.9c2-3.3,6.5-10.2,6.5-14.3c0-1.3,3.8,2.5,4.1,3.5
	c1.3,5.6-7.4,12.9-10.3,16.5c-1.9,2.3-3.2,5.9-6,7.8c-2.9,2-2.7,3.3-5.9,1.3C474.2,271.8,477.4,268.2,476.8,270.4"/>
<path class="st1" d="M433.5,269.7c-4.7,0.7-9.4,4.1-14.2,4.1c0,5.4,7.6,5.5,10.1,9.2l0,0l0,0l0,0c0.2-4.7,4.1-8.2,7.2-11.3
	C436.4,271.8,434.1,270.1,433.5,269.7"/>
</svg>
