<?xml version="1.0" encoding="utf-8"?>
<!-- Generator: Adobe Illustrator 21.0.0, SVG Export Plug-In . SVG Version: 6.00 Build 0)  -->
<svg version="1.1" id="Layer_1" xmlns="http://www.w3.org/2000/svg" xmlns:xlink="http://www.w3.org/1999/xlink" x="0px" y="0px"
	 viewBox="0 0 1366 819" style="enable-background:new 0 0 1366 819;" xml:space="preserve">
<style type="text/css">
	.st0{fill:#F0F8FF;stroke:#708090;stroke-width:0.5;}
	.st1{fill:none;stroke:#0000FF;stroke-width:0.5;}
	.st2{fill:#FFFFFF;fill-opacity:0;}
	.st3{fill:#FFFFFF;stroke:#708090;}
	.st4{fill:none;stroke:#708090;stroke-dasharray:2,2.5;}
	.st5{fill:none;stroke:#708090;stroke-width:1.5;}
	.st6{fill:url(#SVGID_1_);stroke:#000000;}
	.st7{fill:none;stroke:url(#SVGID_2_);stroke-width:4;}
	.st8{fill:url(#SVGID_3_);stroke:#000000;}
	.st9{fill:url(#SVGID_4_);stroke:#000000;}
	.st10{fill:none;stroke:#1E90FF;}
	.st11{fill:#FFFFFF;fill-opacity:0.8;stroke:#B0C4DE;stroke-width:2.5;}
	.st12{font-family:'ArialMT';}
	.st13{font-size:8.4px;}
	.st14{fill:#708090;}
	.st15{fill:#F0F8FF;fill-opacity:0;}
	.st16{font-size:6.72px;}
	.st17{fill:none;stroke:#1E90FF;stroke-width:0.5;stroke-dasharray:3,3;}
	.st18{fill:none;stroke:#1E90FF;stroke-width:0.8;}
	.st19{opacity:0;}
	.st20{fill:#DBE8FC;}
	.st21{fill:#00773D;stroke:#1E90FF;stroke-width:1.2025;}
	.st22{fill:#03D972;stroke:#1E90FF;stroke-width:1.2025;}
	.st23{fill:#3CFFA1;stroke:#1E90FF;stroke-width:1.2025;}
	.st24{fill:#88FFC6;stroke:#1E90FF;stroke-width:1.2025;}
	.st25{fill:#CCFFE7;stroke:#1E90FF;stroke-width:1.2025;}
	.st26{fill:#00773D;stroke:#1E90FF;stroke-width:0.5;}
	.st27{fill:#03D972;stroke:#1E90FF;stroke-width:0.5;}
	.st28{fill:#3CFFA1;stroke:#1E90FF;stroke-width:0.5;}
	.st29{fill:#88FFC6;stroke:#1E90FF;stroke-width:0.5;}
	.st30{fill:#CCFFE7;stroke:#1E90FF;stroke-width:0.5;}
	.st31{fill:#950004;stroke:#1E90FF;stroke-width:0.5;}
	.st32{fill:#E40309;stroke:#1E90FF;stroke-width:0.5;}
	.st33{fill:#FF6267;stroke:#1E90FF;stroke-width:0.5;}
	.st34{fill:#FFBFC2;stroke:#1E90FF;stroke-width:0.5;}
	.st35{fill:#FFFFFF;stroke:#1E90FF;stroke-width:0.5;}
	.st36{fill:#F2D5D6;stroke:#1E90FF;stroke-width:0.5;}
	.st37{fill:#D3A4A5;stroke:#1E90FF;stroke-width:0.5;}
	.st38{fill:#A56264;stroke:#1E90FF;stroke-width:0.5;}
	.st39{fill:#5F3637;stroke:#1E90FF;stroke-width:0.5;}
	.st40{fill:none;stroke:#686B70;stroke-width:0.495;}
	.st41{fill:#3301CC;}
	.st42{fill:#632EFE;}
	.st43{fill:#561DFE;}
	.st44{fill:#A688FF;}
	.st45{fill:none;stroke:#0000FF;stroke-width:0.5;stroke-dasharray:2,2;}
	.st46{fill:#F0F8FF;}
	.st47{opacity:0;enable-background:new    ;}
</style>
<path class="st0" d="M393.4,771h23.7c1.7,0,3,1.3,3,3v23.7c0,1.7-1.3,3-3,3h-23.7c-1.7,0-3-1.3-3-3V774
	C390.4,772.3,391.8,771,393.4,771z"/>
<path class="st1" d="M405.3-2.1V771"/>
<path class="st2" d="M268.3,9.3h280c2.2,0,4,1.8,4,4v455.2c0,2.2-1.8,4-4,4h-280c-2.2,0-4-1.8-4-4V13.3
	C264.3,11.1,266.1,9.3,268.3,9.3z"/>
<path class="st3" d="M265.3,6.3h280c2.2,0,4,1.8,4,4v455.2c0,2.2-1.8,4-4,4h-280c-2.2,0-4-1.8-4-4V10.3
	C261.3,8.1,263.1,6.3,265.3,6.3z"/>
<line class="st4" x1="261.3" y1="6.3" x2="261.3" y2="6.3"/>
<path class="st5" d="M323.7,205.6h62.6c0.6,0,1,0.4,1,1v62.6c0,0.6-0.4,1-1,1h-62.6c-0.6,0-1-0.4-1-1v-62.6
	C322.7,206.1,323.1,205.6,323.7,205.6z"/>
<g transform="rotate(0,29.728126525878906,30.849702835083008)">
	<g transform="translate(0,0)">
		
			<linearGradient id="SVGID_1_" gradientUnits="userSpaceOnUse" x1="4.1302" y1="768.0417" x2="4.1302" y2="767.0312" gradientTransform="matrix(59.4563 0 0 -61.6994 109.4739 47594.5742)">
			<stop  offset="0" style="stop-color:#00773D"/>
			<stop  offset="0.1999" style="stop-color:#00773D"/>
			<stop  offset="0.2" style="stop-color:#03D972"/>
			<stop  offset="0.3999" style="stop-color:#03D972"/>
			<stop  offset="0.4" style="stop-color:#3CFFA1"/>
			<stop  offset="0.5999" style="stop-color:#3CFFA1"/>
			<stop  offset="0.6" style="stop-color:#88FFC6"/>
			<stop  offset="0.7999" style="stop-color:#88FFC6"/>
			<stop  offset="0.8" style="stop-color:#CCFFE7"/>
			<stop  offset="0.9999" style="stop-color:#CCFFE7"/>
		</linearGradient>
		<path class="st6" d="M382.7,209.6c0,4.9-15-2.7-18-2.8c-11.3-0.2-21.7,10.7-29,18.3c-6.7,7-12.8,20.2-10,30.1
			c3.1,11.2,15.4,13.8,25.5,13.8c8.2,0,34.4,2,33.7-9.6c-0.1-1.3-11.6-49.3-4.6-47.6c0.5,2.4,0,5.5-2.3,6.9"/>
	</g>
	<g transform="translate(34.89556884765625,41.6986083984375)">
		
			<linearGradient id="SVGID_2_" gradientUnits="userSpaceOnUse" x1="-19.3531" y1="726.4697" x2="-19.3531" y2="725.4681" gradientTransform="matrix(14.2134 0 0 -12.2314 605.3009 9093.0049)">
			<stop  offset="0" style="stop-color:#3301CC"/>
			<stop  offset="0.2499" style="stop-color:#3301CC"/>
			<stop  offset="0.25" style="stop-color:#632EFE"/>
			<stop  offset="0.4999" style="stop-color:#632EFE"/>
			<stop  offset="0.5" style="stop-color:#561DFE"/>
			<stop  offset="0.7499" style="stop-color:#561DFE"/>
			<stop  offset="0.75" style="stop-color:#A688FF"/>
			<stop  offset="0.9999" style="stop-color:#A688FF"/>
		</linearGradient>
		<path class="st7" d="M325.4,217.4L325.4,217.4L325.4,217.4L325.4,217.4L325.4,217.4L325.4,217.4L325.4,217.4L325.4,217.4
			L325.4,217.4L325.4,217.4c1.4,3.6,5.9,1.9,8.3,0.3c3.6-2.4,4.9-6.3,4.9-10.5l0,0l0,0l0,0c0.3,0,0.7,0,1,0l0,0l0,0l0,0l0,0l0,0l0,0
			"/>
	</g>
	<g transform="translate(24.885040283203125,31.6976318359375)">
		
			<linearGradient id="SVGID_3_" gradientUnits="userSpaceOnUse" x1="-5.3832" y1="736.408" x2="-5.3832" y2="735.4334" gradientTransform="matrix(11.3834 0 0 -13.376 392.5286 10057.9912)">
			<stop  offset="0" style="stop-color:#950004"/>
			<stop  offset="0.111" style="stop-color:#950004"/>
			<stop  offset="0.1111" style="stop-color:#E40309"/>
			<stop  offset="0.2221" style="stop-color:#E40309"/>
			<stop  offset="0.2222" style="stop-color:#FF6267"/>
			<stop  offset="0.3332" style="stop-color:#FF6267"/>
			<stop  offset="0.3333" style="stop-color:#FFBFC2"/>
			<stop  offset="0.4443" style="stop-color:#FFBFC2"/>
			<stop  offset="0.4444" style="stop-color:#FFFFFF"/>
			<stop  offset="0.5555" style="stop-color:#FFFFFF"/>
			<stop  offset="0.5556" style="stop-color:#F2D5D6"/>
			<stop  offset="0.6666" style="stop-color:#F2D5D6"/>
			<stop  offset="0.6667" style="stop-color:#D3A4A5"/>
			<stop  offset="0.7777" style="stop-color:#D3A4A5"/>
			<stop  offset="0.7778" style="stop-color:#A56264"/>
			<stop  offset="0.8888" style="stop-color:#A56264"/>
			<stop  offset="0.8889" style="stop-color:#5F3637"/>
			<stop  offset="0.9999" style="stop-color:#5F3637"/>
		</linearGradient>
		<path class="st8" d="M326.4,214.3c-4.2-7.3,12.1-10.2,10.2,0.6c-2.7,15.6-15.5-4.7-9.2-4.7C327.3,211.7,327,213,326.4,214.3"/>
	</g>
	<g transform="translate(40.001708984375,23.14544677734375)">
		
			<linearGradient id="SVGID_4_" gradientUnits="userSpaceOnUse" x1="-19.697" y1="745.6541" x2="-19.697" y2="745.6541" gradientTransform="matrix(11.3834 0 0 -13.376 549.4913 10180.9375)">
			<stop  offset="0" style="stop-color:#950004"/>
			<stop  offset="0.111" style="stop-color:#950004"/>
			<stop  offset="0.1111" style="stop-color:#E40309"/>
			<stop  offset="0.2221" style="stop-color:#E40309"/>
			<stop  offset="0.2222" style="stop-color:#FF6267"/>
			<stop  offset="0.3332" style="stop-color:#FF6267"/>
			<stop  offset="0.3333" style="stop-color:#FFBFC2"/>
			<stop  offset="0.4443" style="stop-color:#FFBFC2"/>
			<stop  offset="0.4444" style="stop-color:#FFFFFF"/>
			<stop  offset="0.5555" style="stop-color:#FFFFFF"/>
			<stop  offset="0.5556" style="stop-color:#F2D5D6"/>
			<stop  offset="0.6666" style="stop-color:#F2D5D6"/>
			<stop  offset="0.6667" style="stop-color:#D3A4A5"/>
			<stop  offset="0.7777" style="stop-color:#D3A4A5"/>
			<stop  offset="0.7778" style="stop-color:#A56264"/>
			<stop  offset="0.8888" style="stop-color:#A56264"/>
			<stop  offset="0.8889" style="stop-color:#5F3637"/>
			<stop  offset="0.9999" style="stop-color:#5F3637"/>
		</linearGradient>
		<path class="st9" d="M325.3,207.1"/>
	</g>
</g>
<path class="st10" d="M363.6,225.8L363.6,225.8L363.6,225.8L363.6,225.8h0.9l0.9-0.9l0,0l0,0l0,0l0,0l0,0l0,0l0,0l0,0v0.9v0.9
	l-0.9,0.9v0.9l0,0v0.9v0.9l0,0l0,0l0,0l0,0h-0.9l0,0l0,0v-0.9l0,0v-0.9v-0.9l0,0v-0.9l0,0V225.8h0.9v-0.9l0.9-0.9l0,0l0.9-0.9h0.9
	l0,0l0.9-0.9h0.9l0,0v0.9l0.9,0.9v0.9v0.9v0.9v0.9v0.9v0.9v0.9v0.9v0.9l0,0v0.9l0,0l0,0l0,0v-0.9l0,0l0,0l0,0l0.9-0.9"/>
<circle class="st11" cx="325.3" cy="207.1" r="5"/>
<text transform="matrix(1 0 0 1 527.3206 464.0682)" class="st12 st13">Glyph</text>
<line class="st4" x1="367.1" y1="227.5" x2="408.9" y2="266.4"/>
<line class="st4" x1="355.3" y1="238.2" x2="405.9" y2="47.8"/>
<line class="st4" x1="355.9" y1="245.5" x2="405.9" y2="407.6"/>
<line class="st4" x1="367.4" y1="255" x2="407.4" y2="339.4"/>
<rect x="458.4" y="258.3" class="st14" width="0" height="1.8"/>
<rect x="478.2" y="258.3" class="st14" width="0" height="1.8"/>
<rect x="458.4" y="266.4" class="st14" width="0" height="1.8"/>
<rect x="478.2" y="266.4" class="st14" width="0" height="1.8"/>
<rect x="458.4" y="274.6" class="st14" width="0" height="1.8"/>
<rect x="478.2" y="274.6" class="st14" width="0" height="1.8"/>
<path class="st15" d="M480.3,242.2h40.5c2.2,0,4,1.8,4,4v40.5c0,2.2-1.8,4-4,4h-40.5c-2.2,0-4-1.8-4-4v-40.5
	C476.3,244,478.1,242.2,480.3,242.2z"/>
<ellipse class="st15" cx="500.6" cy="266.4" rx="24.8" ry="24.8"/>
<g>
	<text transform="matrix(1 0 0 1 493.0837 255.1776)" class="st12 st16">nope</text>
	<text transform="matrix(1 0 0 1 493.8334 265.0775)" class="st12 st16">hard</text>
	<text transform="matrix(1 0 0 1 497.7578 274.9775)" class="st12 st16">...</text>
</g>
<text transform="matrix(1 0 0 1 482.6296 288.5756)" class="st12 st16">within reach</text>
<path class="st15" d="M415.8,242.2h40.5c2.2,0,4,1.8,4,4v40.5c0,2.2-1.8,4-4,4h-40.5c-2.2,0-4-1.8-4-4v-40.5
	C411.8,244,413.5,242.2,415.8,242.2z"/>
<ellipse class="st15" cx="436" cy="266.4" rx="24.8" ry="24.8"/>
<text transform="matrix(1 0 0 1 426.8557 288.5756)" class="st12 st16">shape</text>
<rect x="421.3" y="251.7" class="st17" width="14.7" height="14.7"/>
<g>
	<path class="st18" d="M425.3,257.4L425.3,257.4L425.3,257.4c0.6-0.3,1.2-0.6,1.7-0.9l0,0l0,0l0,0l0,0c-0.6,1.7-0.9,3.4-0.9,5.2
		c-0.3,0-0.6,0-0.9,0c-0.1-2.4,0.8-7.6,4.3-7.5c3,0,1.8,7.7,1.8,10.1c-0.2-0.8,0.1-1.4,0.9-1.7"/>
</g>
<rect x="436" y="251.7" class="st17" width="14.7" height="14.7"/>
<g>
	<path class="st18" d="M442.1,251.9L442.1,251.9L442.1,251.9L442.1,251.9L442.1,251.9c0,4.2-0.7,8.3-0.7,12.5c0.4-2.8,1.6-5.6,3-8.1
		c1.9,3.3-0.3,6.8,0,10.3c0.5-0.2,1-0.5,1.5-0.7"/>
</g>
<rect x="421.3" y="266.4" class="st17" width="14.7" height="14.7"/>
<g>
	<path class="st18" d="M430.8,272.9L430.8,272.9L430.8,272.9 M430.9,271.2c0.9,3.4-4.3,0.9-5.3,0.9l0,0l0,0c0.2,2.4,11.3,0,4.4-4.3
		c-0.4,3.7-6.2,3.3-5.2,7.9c0.3,1.5,6.1,6.1,6,3.4c0.7,0,2,0.3,1.8-0.9l0,0l0,0l0,0l0,0l0,0l0,0l0,0l0,0l0,0l0,0"/>
</g>
<g transform="translate(49.5,13.350000000000001)" class="st19">
	<rect x="405.9" y="75" class="st20" width="19.8" height="1.8"/>
	<rect x="405.9" y="75" class="st14" width="0" height="1.8"/>
	<rect x="425.7" y="75" class="st14" width="0" height="1.8"/>
</g>
<g>
	<path class="st15" d="M477.3,75.3h40.5c2.2,0,4,1.8,4,4v21.1c0,2.2-1.8,4-4,4h-40.5c-2.2,0-4-1.8-4-4V79.3
		C473.3,77.1,475.1,75.3,477.3,75.3z"/>
	<g transform="translate(66.92399999999999,0)">
		<ellipse class="st15" cx="430.6" cy="89.8" rx="24.8" ry="14.9"/>
		<g>
			<text transform="matrix(1 0 0 1 417.004 90.9599)" class="st12 st16">coworker</text>
		</g>
	</g>
</g>
<path class="st15" d="M412.8,75.3h40.5c2.2,0,4,1.8,4,4v21.1c0,2.2-1.8,4-4,4h-40.5c-2.2,0-4-1.8-4-4V79.3
	C408.8,77.1,410.5,75.3,412.8,75.3z"/>
<ellipse class="st15" cx="433" cy="89.8" rx="24.8" ry="14.9"/>
<g>
	<path class="st21" d="M422.6,81.4h20.8v20.8h-20.8V81.4z"/>
</g>
<g transform="translate(49.5,13.350000000000001)" class="st19">
	<rect x="405.9" y="104.7" class="st20" width="19.8" height="1.8"/>
	<rect x="405.9" y="104.7" class="st14" width="0" height="1.8"/>
	<rect x="425.7" y="104.7" class="st14" width="0" height="1.8"/>
</g>
<g>
	<path class="st15" d="M477.3,105h40.5c2.2,0,4,1.8,4,4v21.1c0,2.2-1.8,4-4,4h-40.5c-2.2,0-4-1.8-4-4V109
		C473.3,106.8,475.1,105,477.3,105z"/>
	<g transform="translate(66.92399999999999,0)">
		<ellipse class="st15" cx="430.6" cy="119.5" rx="24.8" ry="14.9"/>
		<g>
			<text transform="matrix(1 0 0 1 418.3083 120.6599)" class="st12 st16">stranger</text>
		</g>
	</g>
</g>
<path class="st15" d="M412.8,105h40.5c2.2,0,4,1.8,4,4v21.1c0,2.2-1.8,4-4,4h-40.5c-2.2,0-4-1.8-4-4V109
	C408.8,106.8,410.5,105,412.8,105z"/>
<ellipse class="st15" cx="433" cy="119.5" rx="24.8" ry="14.9"/>
<g>
	<path class="st22" d="M422.6,111.1h20.8v20.8h-20.8V111.1z"/>
</g>
<g transform="translate(49.5,13.350000000000001)" class="st19">
	<rect x="405.9" y="134.4" class="st20" width="19.8" height="1.8"/>
	<rect x="405.9" y="134.4" class="st14" width="0" height="1.8"/>
	<rect x="425.7" y="134.4" class="st14" width="0" height="1.8"/>
</g>
<g>
	<path class="st15" d="M477.3,134.7h40.5c2.2,0,4,1.8,4,4v21.1c0,2.2-1.8,4-4,4h-40.5c-2.2,0-4-1.8-4-4v-21.1
		C473.3,136.5,475.1,134.7,477.3,134.7z"/>
	<g transform="translate(66.92399999999999,0)">
		<ellipse class="st15" cx="430.6" cy="149.2" rx="24.8" ry="14.9"/>
		<g>
			<text transform="matrix(1 0 0 1 415.1337 150.3599)" class="st12 st16">sb famous</text>
		</g>
	</g>
</g>
<path class="st15" d="M412.8,134.7h40.5c2.2,0,4,1.8,4,4v21.1c0,2.2-1.8,4-4,4h-40.5c-2.2,0-4-1.8-4-4v-21.1
	C408.8,136.5,410.5,134.7,412.8,134.7z"/>
<ellipse class="st15" cx="433" cy="149.2" rx="24.8" ry="14.9"/>
<g>
	<path class="st23" d="M422.6,140.8h20.8v20.8h-20.8V140.8z"/>
</g>
<g transform="translate(49.5,13.350000000000001)" class="st19">
	<rect x="405.9" y="164.1" class="st20" width="19.8" height="1.8"/>
	<rect x="405.9" y="164.1" class="st14" width="0" height="1.8"/>
	<rect x="425.7" y="164.1" class="st14" width="0" height="1.8"/>
</g>
<g>
	<path class="st15" d="M477.3,164.4h40.5c2.2,0,4,1.8,4,4v21.1c0,2.2-1.8,4-4,4h-40.5c-2.2,0-4-1.8-4-4v-21.1
		C473.3,166.2,475.1,164.4,477.3,164.4z"/>
	<g transform="translate(66.92399999999999,0)">
		<ellipse class="st15" cx="430.6" cy="178.9" rx="24.8" ry="14.9"/>
		<g>
			<text transform="matrix(1 0 0 1 422.2294 180.0599)" class="st12 st16">friend</text>
		</g>
	</g>
</g>
<path class="st15" d="M412.8,164.4h40.5c2.2,0,4,1.8,4,4v21.1c0,2.2-1.8,4-4,4h-40.5c-2.2,0-4-1.8-4-4v-21.1
	C408.8,166.2,410.5,164.4,412.8,164.4z"/>
<ellipse class="st15" cx="433" cy="178.9" rx="24.8" ry="14.9"/>
<g>
	<path class="st24" d="M422.6,170.5h20.8v20.8h-20.8V170.5z"/>
</g>
<g transform="translate(49.5,13.350000000000001)" class="st19">
	<rect x="405.9" y="193.8" class="st20" width="19.8" height="1.8"/>
	<rect x="405.9" y="193.8" class="st14" width="0" height="1.8"/>
	<rect x="425.7" y="193.8" class="st14" width="0" height="1.8"/>
</g>
<g>
	<path class="st15" d="M477.3,194.1h40.5c2.2,0,4,1.8,4,4v21.1c0,2.2-1.8,4-4,4h-40.5c-2.2,0-4-1.8-4-4v-21.1
		C473.3,195.9,475.1,194.1,477.3,194.1z"/>
	<g transform="translate(66.92399999999999,0)">
		<ellipse class="st15" cx="430.6" cy="208.6" rx="24.8" ry="14.9"/>
		<g>
			<text transform="matrix(1 0 0 1 416.8121 209.7599)" class="st12 st16">boyfriend</text>
		</g>
	</g>
</g>
<path class="st15" d="M412.8,194.1h40.5c2.2,0,4,1.8,4,4v21.1c0,2.2-1.8,4-4,4h-40.5c-2.2,0-4-1.8-4-4v-21.1
	C408.8,195.9,410.5,194.1,412.8,194.1z"/>
<ellipse class="st15" cx="433" cy="208.6" rx="24.8" ry="14.9"/>
<g>
	<path class="st25" d="M422.6,200.2h20.8V221h-20.8V200.2z"/>
</g>
<rect x="455.4" y="39.6" class="st14" width="0" height="1.8"/>
<rect x="475.2" y="39.6" class="st14" width="0" height="1.8"/>
<rect x="455.4" y="43.7" class="st14" width="0" height="1.8"/>
<rect x="475.2" y="43.7" class="st14" width="0" height="1.8"/>
<rect x="455.4" y="47.8" class="st14" width="0" height="1.8"/>
<rect x="475.2" y="47.8" class="st14" width="0" height="1.8"/>
<rect x="455.4" y="51.8" class="st14" width="0" height="1.8"/>
<rect x="475.2" y="51.8" class="st14" width="0" height="1.8"/>
<rect x="455.4" y="55.9" class="st14" width="0" height="1.8"/>
<rect x="475.2" y="55.9" class="st14" width="0" height="1.8"/>
<path class="st15" d="M477.3,23.5h40.5c2.2,0,4,1.8,4,4V68c0,2.2-1.8,4-4,4h-40.5c-2.2,0-4-1.8-4-4V27.5
	C473.3,25.3,475.1,23.5,477.3,23.5z"/>
<ellipse class="st15" cx="497.6" cy="47.8" rx="24.8" ry="24.8"/>
<text transform="matrix(1 0 0 1 488.5956 50.108)" class="st12 st16">whom</text>
<path class="st15" d="M412.8,23.5h40.5c2.2,0,4,1.8,4,4V68c0,2.2-1.8,4-4,4h-40.5c-2.2,0-4-1.8-4-4V27.5
	C408.8,25.3,410.5,23.5,412.8,23.5z"/>
<ellipse class="st15" cx="433" cy="47.8" rx="24.8" ry="24.8"/>
<text transform="matrix(1 0 0 1 429.8374 69.908)" class="st12 st16">fill</text>
<g>
	<rect x="417.4" y="37.4" class="st26" width="10.4" height="10.4"/>
	<rect x="427.8" y="37.4" class="st27" width="10.4" height="10.4"/>
	<rect x="438.2" y="37.4" class="st28" width="10.4" height="10.4"/>
	<rect x="417.4" y="47.8" class="st29" width="10.4" height="10.4"/>
	<rect x="427.8" y="47.8" class="st30" width="10.4" height="10.4"/>
</g>
<rect x="455.4" y="399.4" class="st14" width="0" height="1.1"/>
<rect x="475.2" y="399.4" class="st14" width="0" height="1.1"/>
<rect x="455.4" y="401.5" class="st14" width="0" height="1.1"/>
<rect x="475.2" y="401.5" class="st14" width="0" height="1.1"/>
<rect x="455.4" y="403.5" class="st14" width="0" height="1.1"/>
<rect x="475.2" y="403.5" class="st14" width="0" height="1.1"/>
<rect x="455.4" y="405.5" class="st14" width="0" height="1.1"/>
<rect x="475.2" y="405.5" class="st14" width="0" height="1.1"/>
<rect x="455.4" y="407.6" class="st14" width="0" height="1.1"/>
<rect x="475.2" y="407.6" class="st14" width="0" height="1.1"/>
<rect x="455.4" y="409.6" class="st14" width="0" height="1.1"/>
<rect x="475.2" y="409.6" class="st14" width="0" height="1.1"/>
<rect x="455.4" y="411.7" class="st14" width="0" height="1.1"/>
<rect x="475.2" y="411.7" class="st14" width="0" height="1.1"/>
<rect x="455.4" y="413.7" class="st14" width="0" height="1.1"/>
<rect x="475.2" y="413.7" class="st14" width="0" height="1.1"/>
<rect x="455.4" y="415.8" class="st14" width="0" height="1.1"/>
<rect x="475.2" y="415.8" class="st14" width="0" height="1.1"/>
<path class="st15" d="M477.3,383.3h40.5c2.2,0,4,1.8,4,4v40.5c0,2.2-1.8,4-4,4h-40.5c-2.2,0-4-1.8-4-4v-40.5
	C473.3,385.1,475.1,383.3,477.3,383.3z"/>
<ellipse class="st15" cx="497.6" cy="407.6" rx="24.8" ry="24.8"/>
<g>
	<text transform="matrix(1 0 0 1 480.5615 396.3424)" class="st12 st16">life balanc..</text>
	<text transform="matrix(1 0 0 1 488.2232 406.2424)" class="st12 st16">charm</text>
	<text transform="matrix(1 0 0 1 494.7578 416.1424)" class="st12 st16">...</text>
</g>
<text transform="matrix(1 0 0 1 483.1766 429.7404)" class="st12 st16">envy type</text>
<path class="st15" d="M412.8,383.3h40.5c2.2,0,4,1.8,4,4v40.5c0,2.2-1.8,4-4,4h-40.5c-2.2,0-4-1.8-4-4v-40.5
	C408.8,385.1,410.5,383.3,412.8,383.3z"/>
<ellipse class="st15" cx="433" cy="407.6" rx="24.8" ry="24.8"/>
<text transform="matrix(1 0 0 1 429.8374 429.7404)" class="st12 st16">fill</text>
<g>
	<rect x="417.4" y="392" class="st31" width="10.4" height="10.4"/>
	<rect x="427.8" y="392" class="st32" width="10.4" height="10.4"/>
	<rect x="438.2" y="392" class="st33" width="10.4" height="10.4"/>
	<rect x="417.4" y="402.4" class="st34" width="10.4" height="10.4"/>
	<rect x="427.8" y="402.4" class="st35" width="10.4" height="10.4"/>
	<rect x="438.2" y="402.4" class="st36" width="10.4" height="10.4"/>
	<rect x="417.4" y="412.8" class="st37" width="10.4" height="10.4"/>
	<rect x="427.8" y="412.8" class="st38" width="10.4" height="10.4"/>
	<rect x="438.2" y="412.8" class="st39" width="10.4" height="10.4"/>
</g>
<rect x="456.9" y="331.3" class="st14" width="0" height="1.8"/>
<rect x="476.7" y="331.3" class="st14" width="0" height="1.8"/>
<rect x="456.9" y="336.7" class="st14" width="0" height="1.8"/>
<rect x="476.7" y="336.7" class="st14" width="0" height="1.8"/>
<rect x="456.9" y="342.1" class="st14" width="0" height="1.8"/>
<rect x="476.7" y="342.1" class="st14" width="0" height="1.8"/>
<rect x="456.9" y="347.6" class="st14" width="0" height="1.8"/>
<rect x="476.7" y="347.6" class="st14" width="0" height="1.8"/>
<path class="st15" d="M478.8,315.2h40.5c2.2,0,4,1.8,4,4v40.5c0,2.2-1.8,4-4,4h-40.5c-2.2,0-4-1.8-4-4v-40.5
	C474.8,317,476.6,315.2,478.8,315.2z"/>
<ellipse class="st15" cx="499.1" cy="339.4" rx="24.8" ry="24.8"/>
<g>
	<text transform="matrix(1 0 0 1 485.6102 328.1748)" class="st12 st16">1 a week</text>
	<text transform="matrix(1 0 0 1 482.2501 338.0748)" class="st12 st16">pretty ofte..</text>
	<text transform="matrix(1 0 0 1 496.2578 347.9748)" class="st12 st16">...</text>
</g>
<text transform="matrix(1 0 0 1 484.3026 361.5728)" class="st12 st16">frequency</text>
<path class="st15" d="M414.3,315.2h40.5c2.2,0,4,1.8,4,4v40.5c0,2.2-1.8,4-4,4h-40.5c-2.2,0-4-1.8-4-4v-40.5
	C410.3,317,412,315.2,414.3,315.2z"/>
<circle class="st15" cx="434.5" cy="339.4" r="24.8"/>
<text transform="matrix(1 0 0 1 425.3606 361.5728)" class="st12 st16">stroke</text>
<g>
	<line class="st40" x1="414.7" y1="332.6" x2="454.3" y2="332.6"/>
	<rect x="417" y="317.9" class="st41" width="8.2" height="29.4"/>
	<rect x="425.6" y="317.9" class="st42" width="8.2" height="29.4"/>
	<rect x="434.3" y="317.9" class="st43" width="8.2" height="29.4"/>
	<rect x="443" y="317.9" class="st44" width="8.2" height="29.4"/>
</g>
<path class="st2" d="M268.3,480.9h280c2.2,0,4,1.8,4,4v276.6c0,2.2-1.8,4-4,4h-280c-2.2,0-4-1.8-4-4V484.9
	C264.3,482.7,266.1,480.9,268.3,480.9z"/>
<path class="st3" d="M265.3,477.9h280c2.2,0,4,1.8,4,4v276.6c0,2.2-1.8,4-4,4h-280c-2.2,0-4-1.8-4-4V481.9
	C261.3,479.7,263.1,477.9,265.3,477.9z"/>
<line class="st4" x1="286" y1="546" x2="329.3" y2="530"/>
<line class="st4" x1="286" y1="583.1" x2="329.3" y2="575.1"/>
<line class="st4" x1="286" y1="620.3" x2="329.3" y2="620.3"/>
<line class="st4" x1="286" y1="657.4" x2="329.3" y2="665.4"/>
<line class="st4" x1="286" y1="694.5" x2="329.3" y2="710.5"/>
<path class="st4" d="M330.3,509.7h38.6c0.6,0,1,0.4,1,1v38.6c0,0.6-0.4,1-1,1h-38.6c-0.6,0-1-0.4-1-1v-38.6
	C329.3,510.1,329.7,509.7,330.3,509.7z"/>
<g transform="rotate(0,-505000,-1000000)">
</g>
<circle class="st11" cx="34771.5" cy="69122.1" r="5"/>
<path class="st4" d="M330.3,554.8h38.6c0.6,0,1,0.4,1,1v38.6c0,0.6-0.4,1-1,1h-38.6c-0.6,0-1-0.4-1-1v-38.6
	C329.3,555.3,329.7,554.8,330.3,554.8z"/>
<path class="st45" d="M330.9,589.9L330.9,589.9l0.3-0.1l1.5-1l1.4-1.2l0.9-0.7l1-0.8l1.1-0.9l1.3-1l1-0.7l1-0.7l0.9-0.7l2.3-1.6
	l2.1-1.5l1.6-1.2l1.6-1.1l1.2-0.7l1-0.6l1-0.6l0.8-0.5l0.4-0.1l0.3-0.2l0.2-0.1l0.1-0.1l0,0l0,0l0,0l0,0l0,0l-0.1-0.1"/>
<path class="st45" d="M353.1,560.4L353.1,560.4L353.1,560.4L353.1,560.4L353.1,560.4L353.1,560.4L353.1,560.4L353.1,560.4
	L353.1,560.4L353.1,560.4L353.1,560.4L353.1,560.4L353.1,560.4L353.1,560.4L353.1,560.4L353.1,560.4L353.1,560.4l0.1,0.1v0.1v0.2
	l0.1,0.4l0.1,0.4l0.1,0.5l0.1,0.8l0.1,0.7l0.1,0.8l0.1,1l0.1,1l0.1,0.8l0.1,0.7l0.1,0.9l0.1,0.6l0.1,0.6l0.2,0.8l0.1,0.7l0.1,0.5
	l0.1,0.5l0.1,0.4l0.1,0.5l0.1,0.4l0.1,0.4l0.1,0.3l0.1,0.3l0.1,0.2l0.1,0.2v0.1l0.1,0.1l0,0v0.1l0,0l0,0l0,0l0,0l0,0l0,0v0.1v0.1
	l0,0h-0.1v-0.1"/>
<path class="st45" d="M357.5,576.1l0.1-0.1l0.5-0.3l0.5-0.3l0.5-0.3l0.8-0.5l0.8-0.4l0.6-0.4l0.8-0.5l0.5-0.2l0.7-0.3l0.5-0.3
	l0.5-0.2l0.3-0.1l0.3-0.1h0.3h0.1h0.1l0,0h0.1h0.1l0.1-0.1h0.2l0.3-0.1l0.3-0.2l0.3-0.1l0.2-0.1l0.3-0.1l0.3-0.1l0.2-0.1h0.1
	l0.1-0.1h0.1l0.1,0.1l0,0h-0.1l-0.1,0.1l-0.1,0.1l-0.1,0.1"/>
<circle class="st11" cx="330.9" cy="560.3" r="5"/>
<path class="st4" d="M330.3,599.9h38.6c0.6,0,1,0.4,1,1v38.6c0,0.6-0.4,1-1,1h-38.6c-0.6,0-1-0.4-1-1v-38.6
	C329.3,600.4,329.7,599.9,330.3,599.9z"/>
<g transform="rotate(0,224.68518066406253,234.01339721679685)">
	<g transform="translate(0,55.84088134765625)">
		<path class="st45" d="M-206344.4-273809.9l-0.3,0.1h-3.2l-1.6-0.1l-1.2-0.2l-1.3-0.2l-1.9-0.3l-1-0.3l-2.1-0.8l-1.5-0.8l-1.6-0.8
			l-2.1-1.3l-3.9-3.1l-2.8-3l-2-2.8l-1.7-3l-0.8-2l-0.5-1.4l-0.6-2.1l-0.5-2l-0.1-1.8v-1.4l-0.1-0.4v-0.2v-0.2v-0.2"/>
	</g>
	<g transform="translate(167.1986083984375,0)">
		<path class="st45" d="M-206531-273764.9L-206531-273764.9L-206531-273764.9l0.2,0.1h0.1l0.1-0.1l0.2-0.1l0.5-0.2l0.5-0.3l0.7-0.5
			l0.6-0.6l0.9-0.8l0.8-0.5l0.7-0.6l0.9-0.8l0.6-0.7l0.7-0.8l0.6-0.9l0.8-1.1l0.4-0.9l0.5-0.9l0.5-1.1l0.4-1l0.5-0.9l0.4-0.9
			l0.5-1.2l0.3-0.9l0.3-1l0.2-0.8l0.1-0.7l0.1-0.6v-0.6v-0.5v-0.3v-0.2l0.1-0.3v-0.1v-0.2v-0.1v-0.1l0,0h-0.1v0.1h-0.1v0.1v0.1h-0.1
			"/>
	</g>
	<g transform="translate(-142.7353515625,400.9998474121094)">
		<path class="st45" d="M-206228-274159.5l-0.5,0.2l-1.4,0.2l-1.3,0.1l-1.4,0.3l-1,0.1l-1.5,0.2l-1.4,0.2l-1,0.1l-1.5,0.1h-0.8
			l-1-0.1l-0.8-0.1h-0.7"/>
	</g>
</g>
<circle class="st11" cx="332.9" cy="602.8" r="5"/>
<path class="st4" d="M330.3,645.1h38.6c0.6,0,1,0.4,1,1v38.6c0,0.6-0.4,1-1,1h-38.6c-0.6,0-1-0.4-1-1v-38.6
	C329.3,645.5,329.7,645.1,330.3,645.1z"/>
<path class="st45" d="M342.3,662.1"/>
<path class="st45" d="M342.3,662.1h-0.2l-0.6-0.8l-0.2-0.4l-0.1-0.2l-0.1-0.3l-0.1-0.3l-0.1-0.3l-0.1-0.6l-0.1-0.5v-0.3v-0.5v-0.5
	v-0.4v-0.4l0.1-0.6l0.1-0.3l0.1-0.5l0.1-0.5l0.1-0.3l0.1-0.5l0.2-0.5l0.1-0.3l0.4-0.6l0.2-0.5l0.3-0.4l0.2-0.3l0.3-0.4l0.3-0.4
	l0.4-0.3l0.4-0.4l0.4-0.3l0.5-0.3l0.4-0.2l0.5-0.3l0.5-0.2l0.5-0.1l0.5-0.1l0.7-0.1h0.5h0.6l0.5,0.1l0.6,0.1l0.5,0.1l0.6,0.2
	l0.6,0.2l0.5,0.3l0.9,0.5l0.6,0.5l0.6,0.7l0.6,0.9l0.5,0.7l0.6,1.1l0.5,1.1l0.3,0.9l0.3,0.9l0.2,1l0.2,1.2v0.8v0.9v0.6l-0.2,0.8
	l-0.1,0.6l-0.3,0.5l-0.3,0.5l-0.4,0.7l-0.3,0.5l-0.4,0.4l-0.5,0.5l-0.6,0.6l-0.8,0.5l-0.5,0.3l-1.2,0.5l-1.3,0.3l-1,0.1l-1.2,0.1
	h-0.4l-0.8-0.1l-0.5-0.1l-0.6-0.1l-0.6-0.1l-0.5-0.2l-0.4-0.4l-0.3-0.3l-0.3-0.4l-0.1-0.2l-0.2-0.3l-0.1-0.2l-0.1-0.2l-0.1-0.1
	l-0.1-0.1v-0.1l-0.1-0.1l-0.1-0.1l-0.1-0.1l-0.1-0.3l-0.1-0.1l-0.1-0.3l-0.1-0.3v-0.2l-0.1-0.2l-0.1-0.1l-0.1-0.3l-0.3-0.5l-0.3-0.4
	l-0.2-0.5l-0.1-0.3l-0.1-0.3l-0.1-0.3l-0.1-0.1"/>
<path class="st45" d="M352.6,671L352.6,671l-0.1,0.3v0.5v0.7v0.8v0.6v0.9v0.5v0.6l0.1,0.6v0.6v0.3v0.6l-0.1,0.5l-0.1,0.6l-0.1,0.4
	l-0.1,0.4l-0.1,0.4l-0.1,0.3l-0.1,0.4l-0.1,0.3v0.2l-0.1,0.7l-0.1,0.3l-0.1,0.1l-0.1,0.2v0.1v0.1l-0.1,0.1v0.1v0.1h-0.1l0,0l0,0l0,0
	h-0.1V683l0.1-0.1"/>
<circle class="st11" cx="340.7" cy="647.8" r="5"/>
<path class="st4" d="M330.3,690.2h38.6c0.6,0,1,0.4,1,1v38.6c0,0.6-0.4,1-1,1h-38.6c-0.6,0-1-0.4-1-1v-38.6
	C329.3,690.6,329.7,690.2,330.3,690.2z"/>
<g transform="rotate(0,0,0)">
</g>
<circle class="st11" cx="349.6" cy="710.5" r="5"/>
<text transform="matrix(1 0 0 1 524.0435 757.1082)" class="st12 st13">Layout</text>
<rect x="456.9" y="516.4" class="st20" width="19.8" height="1.8"/>
<rect x="456.9" y="516.4" class="st14" width="0" height="1.8"/>
<rect x="476.7" y="516.4" class="st14" width="0" height="1.8"/>
<rect x="456.9" y="524.6" class="st20" width="19.8" height="1.8"/>
<rect x="456.9" y="524.6" class="st14" width="0" height="1.8"/>
<rect x="476.7" y="524.6" class="st14" width="0" height="1.8"/>
<rect x="456.9" y="532.7" class="st20" width="19.8" height="1.8"/>
<rect x="456.9" y="532.7" class="st14" width="0" height="1.8"/>
<rect x="476.7" y="532.7" class="st14" width="0" height="1.8"/>
<path class="st15" d="M478.8,500.3h40.5c2.2,0,4,1.8,4,4v40.5c0,2.2-1.8,4-4,4h-40.5c-2.2,0-4-1.8-4-4v-40.5
	C474.8,502.1,476.6,500.3,478.8,500.3z"/>
<ellipse class="st15" cx="499.1" cy="524.6" rx="24.8" ry="24.8"/>
<text transform="matrix(1 0 0 1 491.6008 513.3046)" class="st12 st16">nope</text>
<text transform="matrix(1 0 0 1 492.3505 523.2045)" class="st12 st16">hard</text>
<text transform="matrix(1 0 0 1 496.2749 533.1046)" class="st12 st16">...</text>
<text transform="matrix(1 0 0 1 482.8283 546.7026)" class="st12 st16">within rea..</text>
<path class="st15" d="M414.3,500.3h40.5c2.2,0,4,1.8,4,4v40.5c0,2.2-1.8,4-4,4h-40.5c-2.2,0-4-1.8-4-4v-40.5
	C410.3,502.1,412.1,500.3,414.3,500.3z"/>
<circle class="st15" cx="434.5" cy="524.6" r="24.8"/>
<text transform="matrix(1 0 0 1 426.6836 526.9026)" class="st12 st16">order</text>
<ellipse class="st0" cx="261.3" cy="694.5" rx="18.6" ry="18.6"/>
<text transform="matrix(1 0 0 1 246.5081 696.8577)" class="st12 st16">frequency</text>
<ellipse class="st46" cx="261.3" cy="546" rx="18.6" ry="18.6"/>
<text transform="matrix(1 0 0 1 247.8157 547.1346)" class="st12 st16">1 a week</text>
<text transform="matrix(1 0 0 1 246.5081 548.3577)" class="st47 st12 st16">frequency</text>
<ellipse class="st46" cx="261.3" cy="583.1" rx="18.6" ry="18.6"/>
<text transform="matrix(1 0 0 1 244.4557 584.2596)" class="st12 st16">pretty ofte..</text>
<text transform="matrix(1 0 0 1 246.5081 585.4827)" class="st47 st12 st16">frequency</text>
<ellipse class="st46" cx="261.3" cy="620.3" rx="18.6" ry="18.6"/>
<text transform="matrix(1 0 0 1 247.6303 621.3846)" class="st12 st16">everyday</text>
<text transform="matrix(1 0 0 1 246.5081 622.6077)" class="st47 st12 st16">frequency</text>
<ellipse class="st46" cx="261.3" cy="657.4" rx="18.6" ry="18.6"/>
<text transform="matrix(1 0 0 1 248.1914 658.5096)" class="st12 st16">not likely</text>
<text transform="matrix(1 0 0 1 246.5081 659.7327)" class="st47 st12 st16">frequency</text>
</svg>
